<svg width="219" height="78" viewBox="0 0 219 78" fill="none" xmlns="http://www.w3.org/2000/svg">
<path d="M63.7081 60.9198C64.5021 61.0498 65.305 60.9966 66.1168 60.7602C66.9581 60.514 67.6329 60.1221 68.1413 59.5843C68.8604 58.8201 69.222 57.8431 69.2259 56.6534C69.2318 54.3784 68.8269 52.1792 68.0112 50.0559C66.961 47.32 65.634 44.718 64.0302 42.25C63.9603 42.1425 63.9241 42.0161 63.9262 41.8868C63.9283 41.7575 63.9686 41.631 64.042 41.5232L65.0498 40.0548C65.0674 40.0288 65.0909 40.0075 65.1184 39.9925C65.1459 39.9776 65.1766 39.9695 65.2079 39.9689C65.2392 39.9683 65.2702 39.9753 65.2982 39.9892C65.3263 40.0031 65.3506 40.0236 65.369 40.0489C67.5521 43.0783 69.3372 46.3253 70.7243 49.79C71.4179 51.5253 71.8848 53.3197 72.1252 55.1732C72.273 56.3176 72.2287 57.4354 71.9922 58.5266C71.744 59.6651 71.2938 60.6618 70.6416 61.5166C69.5481 62.9564 68.0684 63.8221 66.2025 64.1136C64.0213 64.4544 61.724 64.2673 59.3103 63.5523C55.9056 62.5438 52.6999 61.0951 49.6932 59.2061C39.6368 52.8913 31.5664 44.6865 25.4821 34.5918C24.5107 32.9806 23.76 31.5398 23.23 30.2693C22.6429 28.8649 22.1099 27.3246 21.6311 25.6484C21.176 24.0608 20.9425 22.5097 20.9307 20.995C20.9188 19.2499 21.2016 17.811 21.7789 16.6784C22.5099 15.2484 23.6792 14.2252 25.287 13.6086C27.3578 12.8168 29.5714 12.7243 31.9279 13.3309C35.4607 14.2429 38.7669 15.6739 41.8465 17.6239C42.8021 18.2305 43.6503 18.7436 44.3911 19.1632C44.9625 19.4882 45.0482 19.9117 44.6483 20.4336C44.0572 21.1999 43.406 21.3663 42.6947 20.933C40.0702 19.3316 37.3197 18.0011 34.443 16.9414C33.4638 16.5809 32.5919 16.3298 31.8275 16.188C30.9329 16.0205 30.0276 15.924 29.1114 15.8984C28.3449 15.8768 27.5982 15.9811 26.8711 16.2116C25.6141 16.6075 24.8092 17.3836 24.4565 18.5398C24.2201 19.3139 24.1708 20.2249 24.3088 21.2727C24.6457 23.8294 25.3875 26.262 26.5342 28.5705C27.5213 30.5579 28.6365 32.4705 29.8798 34.3082C36.3818 43.9242 44.6374 51.673 54.6466 57.5546C57.604 59.2918 60.6245 60.4136 63.7081 60.9198Z" fill="white"/>
<path d="M41.7017 45.0273C38.5137 41.929 35.57 38.5677 32.8707 34.9435C32.785 34.8286 32.7409 34.6881 32.7457 34.5452C32.7506 34.4023 32.804 34.2655 32.8973 34.1575C37.1867 29.1368 41.9667 24.6971 47.2372 20.8385C50.5434 18.4177 54.0742 16.386 57.8296 14.7432C60.6117 13.5279 63.4027 12.9469 66.2025 13C68.2851 13.0394 69.8525 13.781 70.9046 15.2248C71.6849 16.2963 72.1075 17.6929 72.1725 19.4144C72.2296 20.8956 72.0188 22.3827 71.54 23.8757C70.3519 27.5965 68.753 31.0247 66.7433 34.1605C62.3771 40.9737 57.0809 47.0669 50.8547 52.4403C50.7983 52.488 50.7277 52.5154 50.6542 52.518C50.5807 52.5207 50.5087 52.4985 50.4498 52.455C47.3545 50.1623 44.4384 47.6864 41.7017 45.0273Z" fill="white"/>
<path d="M108.12 25.6691C108.112 25.8227 108.158 25.8415 108.259 25.7252C109.807 23.9525 111.773 23.0593 114.155 23.0455C115.284 23.0396 116.373 23.3606 117.424 24.0087C119.865 25.5174 121.066 27.8309 121.026 30.9489C121.01 32.2055 120.804 33.3312 120.406 34.3259C120.002 35.3324 119.33 36.2159 118.39 36.9762C116.018 38.8907 113.275 39.069 110.162 37.5109C109.504 37.182 108.97 36.7122 108.56 36.1016C108.203 35.5718 108.049 35.6249 108.096 36.2612C108.141 36.8698 108.09 37.505 107.942 38.1668C107.932 38.2142 107.909 38.2568 107.875 38.2879C107.842 38.3189 107.801 38.3366 107.759 38.3382L105.714 38.4387C105.675 38.4408 105.637 38.4251 105.607 38.3952C105.578 38.3653 105.56 38.3236 105.557 38.2791C105.417 35.2852 105.36 32.2912 105.386 29.2973C105.404 27.1838 105.4 25.2318 105.374 23.4414C105.345 21.5327 105.342 19.5818 105.365 17.5884C105.367 17.4632 105.411 17.3435 105.489 17.2535C105.567 17.1635 105.673 17.11 105.785 17.1039L107.777 16.9887C107.827 16.986 107.876 16.994 107.923 17.0121C107.97 17.0301 108.013 17.058 108.05 17.094C108.087 17.13 108.117 17.1735 108.138 17.2218C108.159 17.2702 108.171 17.3225 108.173 17.3757C108.271 20.1412 108.254 22.9056 108.12 25.6691ZM113.507 36.2212C114.871 36.1498 116.15 35.5123 117.062 34.4492C117.973 33.3861 118.443 31.9843 118.368 30.5523C118.331 29.8433 118.161 29.1481 117.868 28.5066C117.575 27.865 117.165 27.2897 116.661 26.8133C116.157 26.3369 115.569 25.9689 114.931 25.7303C114.293 25.4916 113.616 25.387 112.941 25.4224C111.576 25.4939 110.298 26.1313 109.386 27.1945C108.474 28.2576 108.004 29.6593 108.08 31.0913C108.155 32.5234 108.769 33.8683 109.786 34.8304C110.804 35.7924 112.143 36.2927 113.507 36.2212Z" fill="#F8FFFF"/>
<path d="M91.253 18.8381C91.4283 18.521 91.6914 18.3142 92.0421 18.2177C92.7455 18.0227 93.3504 18.0493 93.8567 18.2975C94.2252 18.4806 94.5641 18.911 94.8734 19.5886C97.6555 25.675 100.333 31.8076 102.906 37.9866C102.928 38.0397 102.937 38.0974 102.932 38.1546C102.927 38.2117 102.908 38.2667 102.878 38.3145C102.847 38.3623 102.805 38.4016 102.756 38.4289C102.707 38.4562 102.652 38.4707 102.596 38.4711L100.82 38.48C100.505 38.4819 100.27 38.3224 100.116 38.0013L98.0269 33.6847C98.0081 33.6449 97.9776 33.6112 97.9389 33.5877C97.9001 33.5641 97.8548 33.5517 97.8082 33.5518C94.8921 33.5715 91.9771 33.5902 89.063 33.6079C89.0452 33.6079 88.8787 33.5981 88.5635 33.5784C87.864 33.537 87.3557 33.8669 87.0385 34.5681C86.2385 36.331 85.7341 37.4606 85.5253 37.957C85.4871 38.0487 85.4225 38.1227 85.342 38.1668C84.481 38.6356 83.5993 38.6366 82.6969 38.1697C82.66 38.1501 82.6319 38.1173 82.6182 38.0779C82.6045 38.0384 82.6062 37.9952 82.623 37.957C84.7667 33.1253 86.8759 28.3114 88.9507 23.5152C89.656 21.8843 90.4235 20.3253 91.253 18.8381ZM92.6214 21.5829L88.7792 30.615C88.7596 30.6612 88.7521 30.7116 88.7576 30.7616C88.7631 30.8115 88.7814 30.8593 88.8106 30.9004C88.8399 30.9415 88.8793 30.9746 88.925 30.9965C88.9707 31.0184 89.0212 31.0284 89.0718 31.0256C89.8343 30.9803 90.585 30.9754 91.3239 31.0109C93.1248 31.0956 94.9178 31.0256 96.7029 30.8011C96.7217 30.799 96.7398 30.793 96.7562 30.7835C96.7725 30.7741 96.7867 30.7612 96.7979 30.746C96.809 30.7307 96.8168 30.7132 96.8208 30.6947C96.8248 30.6762 96.8249 30.6571 96.8211 30.6386C96.7383 30.2644 96.562 29.7709 96.292 29.1584C95.1788 26.6313 94.0577 24.1061 92.9287 21.5829C92.8243 21.3485 92.7218 21.3485 92.6214 21.5829Z" fill="#F8FFFF"/>
<path d="M124.623 26.0887C124.624 26.0378 124.613 25.9875 124.59 25.9419C124.568 25.8962 124.536 25.8565 124.495 25.8259C124.455 25.7954 124.408 25.7749 124.358 25.7661C124.309 25.7573 124.258 25.7605 124.209 25.7755C123.029 26.1477 122.436 25.6671 122.43 24.3337C122.428 23.9693 122.598 23.7516 122.939 23.6807L124.467 23.3586C124.546 23.3424 124.616 23.2967 124.661 23.2314C124.707 23.1661 124.724 23.0865 124.709 23.01C124.5 21.903 124.444 20.9862 124.54 20.2593C124.559 20.123 124.617 19.9952 124.708 19.8922C124.799 19.7891 124.919 19.7153 125.052 19.6802C125.83 19.4774 126.486 19.4518 127.02 19.6034C127.062 19.6155 127.099 19.641 127.126 19.6761C127.152 19.7112 127.167 19.7541 127.168 19.7984L127.23 23.3498C127.231 23.4115 127.257 23.4704 127.302 23.5143C127.346 23.5582 127.406 23.5839 127.469 23.5862L131.648 23.7161C131.694 23.7171 131.738 23.731 131.775 23.7562C131.813 23.7814 131.841 23.8168 131.858 23.858C132.03 24.2696 131.963 24.7906 131.657 25.4209C131.616 25.5051 131.552 25.5758 131.475 25.625C131.398 25.6741 131.309 25.6997 131.22 25.6987L127.398 25.6573C127.379 25.6569 127.36 25.6602 127.342 25.6672C127.323 25.6741 127.307 25.6844 127.293 25.6976C127.279 25.7107 127.268 25.7265 127.26 25.7439C127.252 25.7613 127.248 25.7801 127.248 25.7991C127.202 28.7477 127.214 31.6954 127.283 34.6421C127.297 35.2212 127.561 35.6171 128.075 35.8298C129.088 36.2513 129.985 36.1597 130.768 35.555C130.823 35.5121 130.886 35.481 130.954 35.4635C131.022 35.4461 131.093 35.4426 131.162 35.4534C131.231 35.4642 131.297 35.489 131.357 35.5263C131.416 35.5636 131.467 35.6126 131.506 35.6702C131.989 36.3774 132.081 36.9811 131.781 37.4814C131.576 37.8261 131.143 38.1068 130.481 38.3234C129.665 38.5913 128.909 38.6878 128.211 38.613C126.428 38.4199 125.264 37.4164 124.721 35.6023C124.589 35.163 124.528 34.3013 124.537 33.0171C124.557 30.6357 124.586 28.3262 124.623 26.0887Z" fill="white"/>
<path d="M148.672 30.8337C148.672 32.9133 147.845 34.9078 146.374 36.3784C144.903 37.8489 142.908 38.675 140.828 38.675C138.748 38.675 136.753 37.8489 135.282 36.3784C133.811 34.9078 132.984 32.9133 132.984 30.8337C132.984 28.754 133.811 26.7595 135.282 25.289C136.753 23.8185 138.748 22.9923 140.828 22.9923C142.908 22.9923 144.903 23.8185 146.374 25.289C147.845 26.7595 148.672 28.754 148.672 30.8337ZM140.447 36.2587C141.124 36.3025 141.804 36.2053 142.447 35.9728C143.09 35.7403 143.684 35.377 144.195 34.9037C144.707 34.4303 145.125 33.8562 145.427 33.214C145.729 32.5718 145.908 31.8742 145.954 31.161C146.047 29.7207 145.593 28.3042 144.692 27.2232C143.791 26.1422 142.517 25.4852 141.15 25.3968C140.473 25.3531 139.793 25.4502 139.15 25.6827C138.507 25.9152 137.913 26.2785 137.401 26.7519C136.89 27.2252 136.472 27.7994 136.17 28.4415C135.868 29.0837 135.689 29.7813 135.643 30.4945C135.55 31.9349 136.004 33.3514 136.905 34.4324C137.805 35.5133 139.08 36.1703 140.447 36.2587Z" fill="#F8FFFF"/>
<path d="M43.0434 57.0494C43.2641 57.2207 43.4473 57.3931 43.5931 57.5664C43.6124 57.5895 43.6268 57.6163 43.6353 57.6451C43.6439 57.6739 43.6464 57.7041 43.6428 57.7338C43.6392 57.7635 43.6295 57.792 43.6144 57.8176C43.5992 57.8432 43.5789 57.8653 43.5547 57.8826C39.7934 60.581 35.7474 62.536 31.4166 63.7473C29.0069 64.421 26.81 64.4692 24.8259 63.8921C23.031 63.3701 21.8488 62.1144 21.2794 60.1251C20.8085 58.4784 20.8272 56.6259 21.3355 54.5676C21.9148 52.2177 22.5039 50.3947 23.1029 49.0987C24.3245 46.4416 25.7175 43.9312 27.2819 41.5676C27.3033 41.5352 27.3322 41.5084 27.3662 41.4895C27.4001 41.4706 27.4381 41.4601 27.4769 41.459C27.5157 41.4578 27.5542 41.466 27.5892 41.4828C27.6242 41.4997 27.6546 41.5247 27.678 41.5557C32.1604 47.4491 37.2822 52.6136 43.0434 57.0494Z" fill="white"/>
<path d="M120.701 43.2516C122.061 42.1072 123.656 41.8551 125.486 42.4952C125.963 42.6626 126.256 42.8931 126.364 43.1866C126.508 43.5707 126.398 44.001 126.036 44.4777C125.982 44.548 125.912 44.6042 125.832 44.6418C125.751 44.6793 125.663 44.697 125.575 44.6934C124.881 44.6619 124.227 44.6373 123.612 44.6195C123.232 44.6077 122.886 44.6845 122.575 44.85C122.301 44.9957 122.085 45.2508 121.928 45.6152C121.577 46.4208 121.4 47.2885 121.396 48.2182C121.395 48.3513 121.449 48.4801 121.547 48.5788C121.645 48.6775 121.78 48.7387 121.925 48.75L125.516 49.0395C125.56 49.043 125.604 49.0597 125.641 49.0878C125.678 49.1159 125.709 49.1543 125.728 49.1991C125.912 49.6127 125.911 50.0283 125.726 50.4459C125.708 50.4874 125.681 50.5246 125.646 50.5547C125.611 50.5849 125.57 50.6073 125.525 50.6202C125.095 50.7463 124.655 50.8123 124.203 50.8182C123.327 50.826 122.584 50.892 121.975 51.0161C121.624 51.089 121.45 51.3076 121.452 51.672L121.561 63.1711C121.562 63.2146 121.549 63.2573 121.524 63.2929C121.499 63.3285 121.464 63.3552 121.422 63.3691C120.646 63.631 119.848 63.6823 119.028 63.5227C118.961 63.5095 118.901 63.4736 118.857 63.4212C118.814 63.3689 118.791 63.3033 118.792 63.2361L118.89 51.48C118.89 51.3751 118.852 51.2738 118.782 51.1961C118.713 51.1184 118.617 51.07 118.514 51.0604C117.367 50.956 116.758 50.4873 116.685 49.6541C116.641 49.1557 117.005 48.9529 117.775 49.0454C118.459 49.1282 118.788 48.8652 118.762 48.2566C118.749 47.9375 118.742 47.773 118.742 47.7632C118.781 46.8945 118.957 46.0663 119.268 45.2784C119.595 44.457 120.073 43.7814 120.701 43.2516Z" fill="#F8FFFF"/>
<path d="M84.5825 45.9993C85.1086 45.2705 85.8189 44.7121 86.7134 44.3241C89.3004 43.2013 91.9712 43.1354 94.7256 44.1261C95.1749 44.2876 95.631 44.4275 96.094 44.5457C97.0063 44.7801 97.3639 45.3158 97.1669 46.1529C97.0565 46.6276 96.9413 46.9694 96.8211 47.1782C96.5728 47.6115 96.1255 47.6371 95.4793 47.255C94.0114 46.3824 92.3504 45.9176 90.4964 45.8604C89.6649 45.8348 88.997 45.9225 88.4926 46.1234C87.8049 46.3972 87.271 46.8541 86.8907 47.4943C86.6208 47.9473 86.5311 48.4309 86.6218 48.945C86.6966 49.3645 86.9232 49.7663 87.3015 50.1504C87.9596 50.8182 88.7517 51.2968 89.6777 51.5863C91.8805 52.2718 93.5809 52.8834 94.7788 53.4211C95.5512 53.7697 96.2034 54.2829 96.7354 54.9604C97.2181 55.5789 97.5471 56.3116 97.7225 57.1586C98.1638 59.2859 97.5028 61.032 95.7394 62.397C94.0311 63.7187 91.9672 64.2505 89.5477 63.9925C87.3468 63.76 85.342 63.0185 83.5333 61.7677C83.5136 61.7539 83.3698 61.6663 83.1018 61.5047C82.6486 61.229 82.5117 60.8646 82.691 60.4116C82.8053 60.126 82.956 59.8118 83.1432 59.4691C83.2969 59.1854 83.5185 58.9589 83.8082 58.7895C83.8437 58.7685 83.8859 58.7598 83.9293 58.7645C83.9726 58.7693 84.0149 58.7873 84.0505 58.8161C85.2977 59.8069 86.6789 60.5514 88.1941 61.0497C90.0895 61.6761 91.8657 61.5343 93.5228 60.6243C94.2557 60.2205 94.6656 59.5626 94.7522 58.6507C94.8606 57.524 94.4281 56.6938 93.4548 56.16C92.4972 55.6341 91.3436 55.183 89.9939 54.8068C89.0147 54.535 87.8965 54.1046 86.6395 53.5157C84.679 52.5978 83.6998 51.0338 83.7018 48.8238C83.7037 47.7484 83.9973 46.8069 84.5825 45.9993Z" fill="#F8FFFF"/>
<path d="M132.053 48.8918C133.302 48.9864 134.552 49.0051 135.804 48.948C136.446 48.9204 136.752 49.1893 136.723 49.7546C136.711 49.9712 136.704 50.1387 136.702 50.2569C136.702 50.379 136.69 50.4991 136.667 50.6173C136.659 50.6595 136.637 50.6982 136.606 50.7279C136.574 50.7577 136.533 50.7768 136.489 50.7828C135.151 50.9581 133.694 51.0142 132.118 50.9512C132.081 50.9495 132.044 50.9555 132.009 50.9689C131.975 50.9822 131.943 51.0026 131.917 51.0286C131.891 51.0547 131.87 51.086 131.856 51.1204C131.843 51.1549 131.836 51.1918 131.837 51.2289C131.895 53.3739 131.912 55.576 131.891 57.8353C131.881 58.9009 132.012 59.803 132.284 60.5416C132.512 61.164 132.935 61.4093 133.552 61.2773L135.721 60.8134C135.821 60.7915 135.924 60.8018 136.014 60.8426C136.105 60.8833 136.176 60.9522 136.217 61.038C136.588 61.8022 136.627 62.4709 136.336 63.0441C136.295 63.1265 136.225 63.1961 136.135 63.2421C135.053 63.7956 133.951 63.9965 132.827 63.8448C131.675 63.6892 130.777 63.2086 130.135 62.403C129.516 61.6289 129.23 60.6746 129.275 59.54C129.295 59.0575 129.305 58.8053 129.305 58.7837C129.32 56.4141 129.292 53.951 129.219 51.3943C129.217 51.3345 129.202 51.2759 129.174 51.2227C129.147 51.1694 129.109 51.1229 129.061 51.0864C129.014 51.05 128.96 51.0245 128.901 51.0119C128.843 50.9992 128.783 50.9997 128.725 51.0132C127.035 51.4111 126.548 50.7828 127.265 49.1282C127.283 49.0868 127.312 49.0513 127.349 49.0262C127.385 49.001 127.428 48.9872 127.472 48.9864L128.979 48.9539C129.065 48.9523 129.147 48.9171 129.208 48.8558C129.268 48.7944 129.302 48.7119 129.302 48.6259C129.302 48.0449 129.302 47.4855 129.302 46.9478C129.302 46.9359 129.293 46.7084 129.275 46.2653C129.222 44.8687 129.893 44.3842 131.288 44.8116C131.688 44.9337 131.889 45.2085 131.891 45.6359L131.902 48.7323C131.902 48.7726 131.918 48.8115 131.946 48.8411C131.974 48.8707 132.012 48.8889 132.053 48.8918Z" fill="#F8FFFF"/>
<path d="M115.54 56.5899C115.4 58.6545 114.436 60.5782 112.861 61.9375C111.286 63.2969 109.229 63.9808 107.143 63.8386C105.056 63.6964 103.111 62.7398 101.735 61.1793C100.36 59.6188 99.6658 57.5822 99.8066 55.5175C99.9474 53.4529 100.911 51.5292 102.486 50.1698C104.061 48.8104 106.118 48.1266 108.204 48.2688C110.291 48.411 112.236 49.3676 113.612 50.9281C114.987 52.4886 115.681 54.5252 115.54 56.5899ZM107.16 61.4962C107.83 61.5584 108.507 61.4792 109.152 61.2631C109.797 61.0471 110.397 60.6984 110.918 60.237C111.439 59.7755 111.871 59.2104 112.189 58.5739C112.506 57.9374 112.704 57.2419 112.77 56.5272C112.904 55.0837 112.495 53.6495 111.632 52.5401C110.769 51.4306 109.524 50.7367 108.17 50.6112C107.499 50.549 106.822 50.6282 106.177 50.8442C105.533 51.0603 104.932 51.409 104.411 51.8704C103.89 52.3318 103.459 52.8969 103.141 53.5335C102.823 54.17 102.625 54.8655 102.559 55.5802C102.425 57.0236 102.834 58.4579 103.697 59.5673C104.56 60.6768 105.805 61.3706 107.16 61.4962Z" fill="#F8FFFF"/>
<path d="M156.164 60.5091C156.44 60.1585 156.666 59.7291 156.844 59.2209C158.063 55.7286 159.028 52.8913 159.737 50.7089C159.741 50.6951 159.824 50.3691 159.985 49.7309C160.326 48.3856 161.236 47.97 162.716 48.4841C162.783 48.5075 162.845 48.5441 162.898 48.5918C162.951 48.6395 162.993 48.6973 163.023 48.7617C163.053 48.8262 163.07 48.896 163.073 48.9671C163.075 49.0381 163.064 49.109 163.038 49.1754C161.425 53.3807 159.901 57.521 158.469 61.5963C158.282 62.1282 158.03 62.723 157.712 63.3809C157.665 63.4797 157.594 63.5629 157.51 63.6205C157.425 63.6782 157.329 63.7078 157.234 63.7059L155.029 63.6764C154.989 63.6756 154.949 63.6597 154.914 63.6307C154.879 63.6016 154.851 63.5609 154.834 63.5139C153.411 59.8069 152.098 56.0595 150.894 52.2718C150.78 51.9173 150.655 51.9133 150.519 52.26C149.415 55.0392 148.381 57.849 147.416 60.6893C146.905 62.1882 146.65 62.9387 146.65 62.9407C146.169 63.6419 145.276 63.8881 143.97 63.6793C143.858 63.6615 143.754 63.6154 143.668 63.5458C143.582 63.4762 143.517 63.3856 143.479 63.2834L138.316 49.4857C138.123 48.9716 138.287 48.616 138.809 48.4191C139.199 48.2714 139.684 48.2418 140.263 48.3304C140.383 48.3483 140.495 48.3977 140.589 48.4735C140.683 48.5493 140.755 48.6488 140.798 48.7618C142.093 52.197 143.196 55.6085 144.108 58.9963C144.258 59.5538 144.4 59.9812 144.534 60.2786C144.727 60.71 144.912 60.706 145.09 60.2668C146.502 56.7529 147.727 53.1798 148.763 49.5477C148.87 49.1754 149.046 48.9085 149.292 48.747C149.584 48.5579 149.904 48.4407 150.253 48.3954C150.736 48.3324 151.101 48.3107 151.349 48.3304C151.801 48.3659 152.111 48.6289 152.28 49.1193C153.112 51.5243 154.359 55.313 156.022 60.4854C156.053 60.58 156.101 60.5879 156.164 60.5091Z" fill="#F8FFFF"/>
<path d="M174.437 62.075C174.426 61.8879 174.349 61.8554 174.207 61.9775C172.518 63.437 170.628 64.0467 168.535 63.8064C166.624 63.5877 165.276 62.7605 164.492 61.3245C163.862 60.1664 163.726 58.9914 164.084 57.7998C164.478 56.4998 165.42 55.576 166.91 55.0284C167.349 54.8669 168.024 54.7605 168.934 54.7093C169.263 54.6916 169.944 54.6985 170.977 54.73C171.952 54.7595 172.923 54.73 173.891 54.6414C174.024 54.6295 174.149 54.5713 174.244 54.4769C174.339 54.3824 174.398 54.2577 174.411 54.1243C174.446 53.7737 174.453 53.4684 174.432 53.2084C174.408 52.9307 174.307 52.647 174.13 52.3575C173.182 50.8251 171.733 50.2174 169.783 50.5345C168.514 50.7394 167.292 51.1944 166.118 51.8995C166.067 51.93 166.011 51.9495 165.953 51.9569C165.895 51.9642 165.835 51.9592 165.779 51.9422C165.723 51.9253 165.671 51.8966 165.626 51.8582C165.582 51.8198 165.546 51.7725 165.521 51.7193C165.225 51.091 165.195 50.4853 165.429 49.9023C165.464 49.8147 165.531 49.7412 165.618 49.6955C167.959 48.4309 170.36 48.0173 172.821 48.4545C174.631 48.7756 175.884 49.6994 176.577 51.2259C176.879 51.8897 177.042 52.8726 177.068 54.1745C177.109 56.3255 177.122 58.8506 177.106 61.75C177.102 62.4276 177.014 63.0401 176.84 63.5877C176.826 63.6299 176.8 63.6674 176.767 63.6965C176.733 63.7255 176.692 63.7451 176.648 63.7532C175.261 63.9915 174.524 63.4321 174.437 62.075ZM166.916 57.9091C166.431 58.5768 166.355 59.2416 166.688 59.9034C167.336 61.1936 168.446 61.7746 170.016 61.6466C171.05 61.5639 172.041 61.2103 172.986 60.5859C174.291 59.7271 174.782 58.5453 174.461 57.0405C174.452 56.9981 174.429 56.9601 174.396 56.9323C174.363 56.9044 174.321 56.8885 174.278 56.8868C172.438 56.7982 170.598 56.808 168.76 56.9164C167.978 56.9636 167.363 57.2945 166.916 57.9091Z" fill="#F8FFFF"/>
<path d="M191.83 50.9777C193.267 49.1912 195.156 48.29 197.499 48.2743C199.513 48.2605 201.136 48.9016 202.37 50.1977C203.124 50.9934 203.663 51.9881 203.986 53.1818C204.301 54.3419 204.364 55.5031 204.172 56.6652C204.156 56.7708 204.102 56.8669 204.019 56.9354C203.937 57.0039 203.833 57.0402 203.726 57.0374C199.868 56.9665 196.333 57.0089 193.119 57.1645C193.075 57.1667 193.032 57.1783 192.992 57.1986C192.953 57.2188 192.918 57.2473 192.891 57.282C192.864 57.3167 192.844 57.3568 192.833 57.3998C192.823 57.4427 192.821 57.4874 192.829 57.5309C192.92 58.0331 193.063 58.5029 193.258 58.9402C193.449 59.3676 193.737 59.7556 194.121 60.1043C196.16 61.9538 198.426 62.1124 200.918 60.5799C200.932 60.5701 201.068 60.4637 201.326 60.2609C201.809 59.8807 202.332 60.0373 202.896 60.7306C203.152 61.0438 203.147 61.354 202.881 61.6613C202.363 62.2581 201.703 62.7181 200.901 63.0411C199.979 63.4114 199.031 63.6389 198.058 63.7236C197.043 63.8102 196.087 63.7236 195.191 63.4636C193.672 63.0243 192.465 62.1636 191.57 60.8813C190.609 59.5065 190.124 57.8509 190.116 55.9147C190.106 54.0553 190.678 52.4096 191.83 50.9777ZM193.713 52.3515C193.122 53.0626 192.815 53.8987 192.791 54.8599C192.79 54.9002 192.805 54.9392 192.833 54.9684C192.86 54.9977 192.898 55.015 192.939 55.0165C195.719 55.1288 198.654 55.1268 201.743 55.0106C201.786 55.0089 201.828 54.9983 201.866 54.9796C201.905 54.9609 201.939 54.9344 201.966 54.9018C201.994 54.8693 202.014 54.8314 202.026 54.7906C202.038 54.7498 202.041 54.707 202.036 54.6649C201.878 53.4142 201.349 52.4096 200.449 51.6513C199.603 50.9343 198.611 50.5621 197.472 50.5345C196.001 50.499 194.747 51.1047 193.713 52.3515Z" fill="#F8FFFF"/>
<path d="M184.259 50.7769C184.893 50.2391 185.52 49.6925 186.138 49.1371C186.446 48.8613 187.033 48.6427 187.9 48.4812C188.723 48.3256 189.214 48.6122 189.371 49.341C189.517 50.0146 189.244 50.4785 188.553 50.7326C187.991 50.9394 187.432 51.1531 186.874 51.3737C184.953 52.1399 183.965 53.5797 183.91 55.6932C183.843 58.2479 183.81 60.8036 183.812 63.3603C183.812 63.4186 183.793 63.4753 183.758 63.5218C183.723 63.5682 183.673 63.6018 183.617 63.6173C182.857 63.832 182.122 63.8271 181.412 63.6025C181.364 63.5871 181.322 63.5572 181.292 63.5169C181.262 63.4766 181.245 63.428 181.244 63.378C181.159 59.3145 181.144 55.251 181.2 51.1875C181.209 50.5454 181.171 49.8747 181.084 49.1755C181.033 48.756 181.208 48.5304 181.61 48.4989L183.277 48.3719C183.383 48.3637 183.488 48.3953 183.573 48.4608C183.657 48.5262 183.715 48.6207 183.735 48.7264L184.12 50.7296C184.123 50.744 184.13 50.7574 184.139 50.7684C184.149 50.7794 184.162 50.7877 184.176 50.7924C184.19 50.7972 184.205 50.7982 184.219 50.7955C184.234 50.7928 184.247 50.7864 184.259 50.7769Z" fill="#F8FFFF"/>
</svg>
