<svg width="220" height="81" viewBox="0 0 220 81" fill="none" xmlns="http://www.w3.org/2000/svg">
<path d="M33.33 23.8122C33.3035 23.8387 33.288 23.8741 33.2869 23.9105C33.2859 23.947 33.2994 23.9816 33.3245 24.0069L38.39 29.058C38.3984 29.0667 38.4083 29.0736 38.4193 29.0784C38.4303 29.0833 38.4421 29.0859 38.454 29.0863C38.4659 29.0866 38.4777 29.0846 38.4888 29.0804C38.4998 29.0762 38.5099 29.0698 38.5184 29.0617L43.5655 24.0706C43.5805 24.0558 43.5923 24.0382 43.6004 24.0189C43.6084 23.9996 43.6126 23.979 43.6126 23.9581C43.6126 23.9373 43.6084 23.9168 43.6004 23.8976C43.5923 23.8785 43.5805 23.8612 43.5655 23.8467L38.5202 18.8575C38.5024 18.8401 38.4783 18.8303 38.4533 18.8303C38.4282 18.8303 38.4042 18.8401 38.3864 18.8575L36.9765 20.2391C36.943 20.2721 36.8978 20.2908 36.8508 20.2911C36.8038 20.2915 36.7587 20.2734 36.7254 20.2409L34.7069 18.2368C34.6797 18.2097 34.6644 18.173 34.6644 18.1345C34.6644 18.096 34.6797 18.0589 34.7069 18.0311L36.4394 16.311C36.4828 16.269 36.5407 16.2454 36.6007 16.2455H40.3517C40.4139 16.2455 40.4726 16.2691 40.5149 16.311L46.1377 21.9155C46.1777 21.9563 46.2 22.0111 46.2 22.0684V25.7798C46.2 25.8231 46.1915 25.8658 46.1748 25.9055C46.1581 25.9452 46.1336 25.9811 46.1029 26.011L38.566 33.4958C38.5424 33.519 38.5104 33.532 38.4771 33.532C38.4438 33.532 38.4119 33.519 38.3882 33.4958L30.7725 25.9109C30.7315 25.87 30.7084 25.8137 30.7084 25.7543V22.1703C30.7083 22.063 30.7511 21.9596 30.8275 21.8827L32.4867 20.2354C32.5028 20.2194 32.5219 20.2067 32.543 20.198C32.564 20.1893 32.5865 20.1849 32.6092 20.1849C32.6318 20.1849 32.6543 20.1893 32.6751 20.198C32.6959 20.2067 32.7148 20.2194 32.7305 20.2354L34.771 22.2777C34.78 22.2865 34.7871 22.2969 34.792 22.3083C34.797 22.3197 34.7996 22.332 34.7998 22.3443C34.7999 22.3567 34.7976 22.3689 34.793 22.3802C34.7884 22.3916 34.7816 22.4019 34.7729 22.4106L33.33 23.8122Z" fill="#92278E"/>
<path d="M98.1036 46.0662C97.0036 45.3054 96.2635 44.2964 95.8834 43.0392C95.7001 42.4349 95.6084 41.4301 95.6084 40.0249C95.6084 32.1846 95.6084 24.3109 95.6084 16.4038C95.6084 16.3618 95.6252 16.3216 95.6551 16.2919C95.685 16.2622 95.7256 16.2455 95.7679 16.2455H102.885C102.904 16.2455 102.924 16.2493 102.942 16.2567C102.96 16.2641 102.976 16.275 102.99 16.2887C103.004 16.3024 103.015 16.3186 103.022 16.3365C103.03 16.3544 103.033 16.3736 103.033 16.3929C103.033 24.0998 103.033 31.7392 103.033 39.3114C103.033 40.2603 103.066 40.8361 103.131 41.0388C103.353 41.7317 103.947 42.0514 104.913 41.998C105.355 41.9738 105.794 41.9895 106.231 42.0453C106.256 42.0489 106.28 42.0613 106.297 42.0804C106.313 42.0995 106.323 42.1239 106.322 42.1491L106.333 47.1256C106.333 47.1666 106.317 47.206 106.288 47.235C106.259 47.264 106.219 47.2803 106.178 47.2803C104.815 47.2803 103.492 47.2797 102.208 47.2785C101.467 47.2773 100.747 47.1766 100.049 46.9763C99.3337 46.7713 98.6853 46.4679 98.1036 46.0662Z" fill="white"/>
<path d="M77.495 46.6014C75.1361 45.9813 73.6511 44.6022 73.04 42.4641C72.8689 41.8658 72.7833 40.9727 72.7833 39.7847C72.7833 36.3068 72.7833 32.829 72.7833 29.3512C72.7833 28.4423 73.0027 27.5704 73.4415 26.7355C73.8534 25.9552 74.4217 25.2884 75.1465 24.7351C76.2832 23.8686 77.5885 23.4354 79.0625 23.4354C83.4173 23.4354 87.8325 23.4354 92.3083 23.4354C92.3249 23.4354 92.3414 23.4386 92.3567 23.4448C92.3721 23.4511 92.386 23.4602 92.3978 23.4717C92.4095 23.4832 92.4188 23.4968 92.4252 23.5118C92.4316 23.5268 92.4348 23.5429 92.4348 23.5592L92.444 26.5844C92.4451 26.6935 92.4041 26.8016 92.3285 26.8884L90.8343 28.614C90.7953 28.6596 90.7469 28.6962 90.6925 28.7214C90.638 28.7465 90.5788 28.7595 90.519 28.7596C87.6712 28.7596 84.8497 28.7596 82.0545 28.7596C81.5448 28.7596 81.1806 28.819 80.9618 28.938C80.7137 29.0714 80.5237 29.2674 80.3917 29.5259C80.3 29.7067 80.2542 29.9621 80.2542 30.2922C80.2493 33.497 80.2523 36.7012 80.2633 39.9048C80.2658 40.3647 80.3483 40.7027 80.5108 40.9187C80.8054 41.307 81.2698 41.5012 81.9042 41.5012C85.2958 41.5012 88.7602 41.5012 92.2973 41.5012C92.3367 41.5012 92.3745 41.5167 92.4023 41.5443C92.4302 41.572 92.4458 41.6095 92.4458 41.6486V46.7034C92.4458 46.7194 92.4426 46.7352 92.4365 46.75C92.4303 46.7648 92.4213 46.7783 92.4099 46.7896C92.3984 46.8009 92.3849 46.8099 92.37 46.816C92.3551 46.8222 92.3391 46.8253 92.323 46.8253C88.0965 46.8253 83.875 46.8253 79.6583 46.8253C78.7844 46.8253 78.0633 46.7507 77.495 46.6014Z" fill="white"/>
<path d="M112.372 46.6087C110.106 45.5615 108.97 43.7376 108.962 41.1371C108.953 37.6326 108.947 34.128 108.946 30.6235C108.946 29.1867 109.039 28.1662 109.224 27.5619C109.655 26.1627 110.543 25.0791 111.89 24.311C112.498 23.9651 113.177 23.7188 113.927 23.5719C114.398 23.4809 115.113 23.4354 116.074 23.4354C119.137 23.4354 122.2 23.4354 125.262 23.4354C125.757 23.4354 126.38 23.555 127.129 23.794C129.24 24.4687 130.579 25.7781 131.147 27.7221C131.319 28.3057 131.404 29.1892 131.404 30.3723C131.404 33.2628 131.404 36.1533 131.404 39.0439C131.404 40.9781 131.351 42.1874 131.245 42.6716C130.855 44.459 129.758 45.7793 127.956 46.6324C127.006 47.0814 125.91 47.3028 124.667 47.2968C122.078 47.287 119.489 47.2816 116.901 47.2804C116.89 47.2804 116.568 47.2883 115.936 47.304C114.631 47.3356 113.443 47.1038 112.372 46.6087ZM123.979 30.0902C123.979 29.7127 123.828 29.3506 123.559 29.0837C123.29 28.8167 122.926 28.6668 122.545 28.6668H117.804C117.424 28.6668 117.06 28.8167 116.791 29.0837C116.522 29.3506 116.371 29.7127 116.371 30.0902V40.622C116.371 40.9995 116.522 41.3616 116.791 41.6285C117.06 41.8954 117.424 42.0454 117.804 42.0454H122.545C122.926 42.0454 123.29 41.8954 123.559 41.6285C123.828 41.3616 123.979 40.9995 123.979 40.622V30.0902Z" fill="white"/>
<path d="M166.751 38.0518C166.739 38.6864 166.723 39.3199 166.703 39.9521C166.684 40.5855 166.896 41.0521 167.339 41.3519C167.575 41.512 167.929 41.5921 168.401 41.5921C172.096 41.5921 175.79 41.5921 179.483 41.5921C179.495 41.5921 179.507 41.5945 179.518 41.5991C179.53 41.6036 179.54 41.6103 179.548 41.6188C179.557 41.6272 179.563 41.6373 179.568 41.6483C179.573 41.6593 179.575 41.6712 179.575 41.6831L179.564 46.6979C179.564 46.7316 179.55 46.7641 179.526 46.788C179.501 46.8118 179.468 46.8253 179.434 46.8253C174.792 46.8253 170.21 46.8222 165.688 46.8162C164.723 46.815 163.799 46.6244 162.914 46.2446C160.928 45.3928 159.744 43.9026 159.363 41.7741C159.287 41.3482 159.251 40.7415 159.256 39.9539C159.264 39.0559 159.267 38.6015 159.267 38.5906C159.253 35.7183 159.264 32.8465 159.3 29.9754C159.314 28.9331 159.409 28.1328 159.586 27.5746C160.141 25.8332 161.323 24.6088 163.132 23.9014C163.87 23.6125 164.707 23.4657 165.642 23.4609C168.453 23.4439 171.264 23.4311 174.075 23.4226C174.932 23.4202 175.764 23.5604 176.572 23.8431C178.581 24.5469 179.861 25.829 180.411 27.6892C180.587 28.2863 180.675 29.2219 180.675 30.496C180.675 32.8817 180.675 35.3178 180.675 37.8042C180.675 37.8433 180.659 37.8808 180.632 37.9085C180.604 37.9361 180.566 37.9517 180.527 37.9517L166.846 37.9626C166.821 37.9626 166.797 37.9719 166.779 37.9886C166.762 38.0053 166.751 38.028 166.751 38.0518ZM167.081 29.1436C166.855 29.4094 166.742 29.7819 166.742 30.2612C166.742 31.1107 166.742 31.965 166.742 32.8241C166.742 32.8564 166.755 32.8875 166.778 32.9103C166.801 32.9332 166.832 32.9461 166.865 32.9461L173.147 32.9351C173.172 32.9351 173.195 32.9254 173.213 32.908C173.23 32.8907 173.24 32.8671 173.241 32.8423C173.254 32.0414 173.256 31.2405 173.246 30.4396C173.241 29.9809 173.18 29.6369 173.061 29.4075C172.871 29.0374 172.577 28.8038 172.181 28.7068C172.08 28.6825 171.599 28.6697 170.74 28.6685C169.881 28.6673 169.022 28.6631 168.163 28.6558C167.72 28.6521 167.36 28.8148 167.081 29.1436Z" fill="white"/>
<path d="M189.328 26.4115C189.413 26.3363 189.493 26.2185 189.57 26.0584C190.39 24.334 191.78 23.4664 193.738 23.4554C195.862 23.4421 197.992 23.4354 200.129 23.4354C200.15 23.4354 200.171 23.4395 200.191 23.4475C200.21 23.4555 200.228 23.4672 200.243 23.4819C200.258 23.4967 200.27 23.5141 200.278 23.5333C200.286 23.5525 200.29 23.5731 200.29 23.5938L200.259 28.5448C200.259 28.5686 200.249 28.5915 200.231 28.6085C200.214 28.6255 200.19 28.6353 200.165 28.6358C197.801 28.671 195.437 28.6831 193.072 28.6722C192.452 28.6698 191.995 28.7505 191.701 28.9143C191.355 29.106 191.09 29.3815 190.907 29.7407C190.777 29.9943 190.713 30.3529 190.713 30.8164C190.713 36.0502 190.713 41.3398 190.713 46.6852C190.713 46.7194 190.699 46.7523 190.675 46.7765C190.651 46.8008 190.618 46.8144 190.584 46.8144L183.401 46.8253C183.359 46.8253 183.318 46.8086 183.288 46.7789C183.259 46.7492 183.242 46.709 183.242 46.667V23.9706C183.242 23.9373 183.255 23.9053 183.279 23.8818C183.302 23.8582 183.335 23.845 183.368 23.845H187.959C187.998 23.8449 188.036 23.8566 188.069 23.8786C188.101 23.9007 188.127 23.932 188.142 23.9687L189.14 26.3696C189.147 26.3869 189.158 26.4021 189.173 26.4141C189.187 26.4261 189.205 26.4345 189.223 26.4386C189.242 26.4427 189.261 26.4424 189.279 26.4377C189.297 26.4329 189.314 26.424 189.328 26.4115Z" fill="white"/>
<path d="M145.064 40.4818C145.256 40.5546 145.381 40.4733 145.44 40.2379C146.792 34.867 148.141 29.4585 149.488 24.0124C149.5 23.9647 149.528 23.9223 149.567 23.892C149.606 23.8616 149.655 23.8451 149.704 23.845H156.856C156.889 23.845 156.92 23.8576 156.943 23.88C156.966 23.9025 156.979 23.9331 156.979 23.9651C156.984 24.7041 156.983 25.4219 156.975 26.1184C156.972 26.5031 156.905 26.8805 156.774 27.2506C154.498 33.6833 152.184 40.156 149.831 46.6688C149.815 46.7145 149.785 46.7542 149.745 46.7822C149.705 46.8103 149.658 46.8253 149.609 46.8253H140.725C140.685 46.8252 140.647 46.8129 140.615 46.79C140.582 46.7672 140.558 46.735 140.545 46.6979L133.512 27.034C133.455 26.8714 133.427 26.7173 133.428 26.5717L133.45 23.9706C133.451 23.9458 133.461 23.9221 133.48 23.9048C133.498 23.8874 133.523 23.8777 133.549 23.8777L140.719 23.8559C140.754 23.8555 140.787 23.867 140.815 23.8885C140.842 23.91 140.861 23.9402 140.87 23.9742L144.96 40.3562C144.968 40.3856 144.981 40.4123 145 40.4341C145.018 40.4559 145.04 40.4723 145.064 40.4818Z" fill="white"/>
<path d="M27.1186 40.3799L32.1676 35.3888C32.1778 35.3789 32.1859 35.367 32.1914 35.3538C32.197 35.3407 32.1998 35.3266 32.1998 35.3124C32.1998 35.2982 32.197 35.2841 32.1914 35.271C32.1859 35.2578 32.1778 35.2459 32.1676 35.2359L27.0966 30.203C27.0866 30.1927 27.0746 30.1846 27.0614 30.179C27.0481 30.1734 27.0338 30.1705 27.0192 30.1705C27.0047 30.1705 26.9903 30.1734 26.9768 30.179C26.9634 30.1846 26.9511 30.1927 26.9408 30.203L21.9046 35.2014C21.8812 35.2249 21.8681 35.2566 21.8681 35.2896C21.8681 35.3227 21.8812 35.3544 21.9046 35.3779L23.3768 36.8377C23.3858 36.8466 23.3929 36.857 23.3978 36.8686C23.4026 36.8802 23.4051 36.8926 23.4051 36.9051C23.4051 36.9176 23.4026 36.93 23.3978 36.9416C23.3929 36.9532 23.3858 36.9636 23.3768 36.9724L21.2794 39.053C21.2661 39.0664 21.2502 39.0771 21.2328 39.0845C21.2153 39.0919 21.1967 39.0958 21.1779 39.0959C21.1591 39.0961 21.1406 39.0926 21.1234 39.0855C21.1062 39.0784 21.0907 39.068 21.0778 39.0548L19.3691 37.3256C19.3292 37.2847 19.3068 37.2286 19.3068 37.169L19.2958 33.474C19.2958 33.3831 19.3328 33.2953 19.3984 33.2301L24.9718 27.6984C24.9927 27.6776 25.0174 27.6611 25.0444 27.6499C25.0715 27.6386 25.1004 27.6328 25.1294 27.6329L28.8309 27.6219C28.8814 27.622 28.9316 27.6321 28.9785 27.6518C29.0254 27.6715 29.0681 27.7003 29.1041 27.7366L36.6446 35.2214C36.6688 35.2456 36.6824 35.2783 36.6824 35.3124C36.6824 35.3465 36.6688 35.3792 36.6446 35.4034L29.1041 42.8882C29.0301 42.9616 28.9305 43.0028 28.8273 43.0028H25.2211C25.1107 43.0028 25.004 42.959 24.9241 42.8809L23.2888 41.2554C23.2701 41.2367 23.2553 41.2146 23.2452 41.1903C23.2351 41.166 23.2298 41.14 23.2298 41.1138C23.2298 41.0876 23.2351 41.0617 23.2452 41.0376C23.2553 41.0135 23.2701 40.9916 23.2888 40.9733L25.2871 38.9893C25.3212 38.9552 25.3679 38.9362 25.417 38.9366C25.4661 38.9369 25.5136 38.9565 25.5493 38.9911L26.9848 40.3817C26.9935 40.3904 27.0039 40.3972 27.0153 40.4017C27.0268 40.4063 27.0391 40.4086 27.0515 40.4084C27.064 40.4083 27.0763 40.4056 27.0878 40.4008C27.0993 40.3959 27.1098 40.3888 27.1186 40.3799Z" fill="#92278E"/>
<path d="M49.8776 40.4872C49.9049 40.5147 49.942 40.5303 49.9808 40.5307C50.0197 40.531 50.0571 40.516 50.0848 40.4891L55.1393 35.4689C55.1482 35.4604 55.1552 35.4502 55.16 35.4389C55.1649 35.4277 55.1673 35.4156 55.1673 35.4033C55.1673 35.3911 55.1649 35.379 55.16 35.3677C55.1552 35.3565 55.1482 35.3463 55.1393 35.3378L53.702 33.9089C53.6889 33.8961 53.6785 33.8808 53.6714 33.8639C53.6643 33.847 53.6607 33.8289 53.6607 33.8106C53.6607 33.7924 53.6643 33.7743 53.6714 33.7574C53.6785 33.7405 53.6889 33.7252 53.702 33.7124L55.7736 31.6537C55.7996 31.6285 55.8345 31.6145 55.8708 31.6145C55.9071 31.6145 55.9419 31.6285 55.968 31.6537L57.6821 33.3574C57.7036 33.3782 57.7207 33.403 57.7323 33.4305C57.744 33.458 57.75 33.4877 57.75 33.5176V37.2436C57.75 37.3032 57.7263 37.3606 57.684 37.4038L51.9933 43.0301C51.9522 43.0708 51.8955 43.0937 51.8356 43.0938H48.224C48.1711 43.0938 48.1186 43.0834 48.0695 43.0631C48.0204 43.0428 47.9757 43.013 47.938 42.9755L40.4305 35.5235C40.3925 35.4858 40.3712 35.4346 40.3712 35.3811C40.3712 35.3276 40.3925 35.276 40.4305 35.2377L47.9325 27.7912C47.9575 27.7663 47.987 27.7466 48.0194 27.7332C48.0518 27.7197 48.0864 27.7129 48.1213 27.7129H51.8631C51.9062 27.7129 51.9487 27.7213 51.9884 27.7375C52.028 27.7537 52.0639 27.7775 52.0941 27.8075L53.7771 29.4803C53.7902 29.4932 53.8006 29.5085 53.8077 29.5254C53.8148 29.5422 53.8184 29.5603 53.8184 29.5786C53.8184 29.5969 53.8148 29.615 53.8077 29.6319C53.8006 29.6487 53.7902 29.664 53.7771 29.6769L51.7073 31.7319C51.6943 31.7449 51.6789 31.7552 51.6619 31.7623C51.6449 31.7693 51.6267 31.7729 51.6083 31.7729C51.5899 31.7729 51.5717 31.7693 51.5547 31.7623C51.5377 31.7552 51.5222 31.7449 51.5093 31.7319L50.1031 30.3377C50.0874 30.3216 50.0685 30.3089 50.0477 30.3002C50.0268 30.2916 50.0044 30.2871 49.9818 30.2871C49.9591 30.2871 49.9366 30.2916 49.9156 30.3002C49.8945 30.3089 49.8754 30.3216 49.8593 30.3377L44.9038 35.2577C44.8708 35.2906 44.8522 35.3352 44.8522 35.3819C44.8522 35.4286 44.8708 35.4735 44.9038 35.5071L49.8776 40.4872Z" fill="#92278E"/>
<path d="M33.4822 46.5541C33.4611 46.5749 33.4442 46.5995 33.4326 46.6265C33.4209 46.6536 33.4148 46.6826 33.4144 46.7119C33.4141 46.7412 33.4196 46.7701 33.4306 46.7971C33.4416 46.824 33.4579 46.8485 33.4785 46.869L38.4799 51.8346C38.5036 51.8578 38.5355 51.8709 38.5688 51.8709C38.6021 51.8709 38.634 51.8578 38.6577 51.8346L40.0511 50.4494C40.0838 50.4175 40.1278 50.3996 40.1735 50.3996C40.2192 50.3996 40.2628 50.4175 40.2949 50.4494L42.3189 52.4607C42.332 52.4736 42.3424 52.4889 42.3494 52.5058C42.3565 52.5227 42.3602 52.5408 42.3602 52.559C42.3602 52.5773 42.3565 52.5954 42.3494 52.6123C42.3424 52.6292 42.332 52.6445 42.3189 52.6573L40.6817 54.2828C40.637 54.3277 40.584 54.3634 40.5258 54.3878C40.4676 54.4122 40.4053 54.4247 40.3426 54.4248L36.6337 54.4139C36.575 54.4139 36.5184 54.391 36.4761 54.3501L30.9046 48.8167C30.8715 48.7844 30.8452 48.7457 30.8273 48.7029C30.8093 48.6601 30.8001 48.614 30.8 48.5673V44.9159C30.8001 44.8565 30.8232 44.8002 30.8642 44.7594L38.4634 37.1909C38.4853 37.1693 38.515 37.1572 38.5459 37.1572C38.5768 37.1572 38.6064 37.1693 38.6284 37.1909L46.1726 44.6829C46.2103 44.7198 46.2403 44.7639 46.2607 44.8126C46.2812 44.8614 46.2917 44.9138 46.2917 44.9669V48.6019C46.2917 48.6602 46.2693 48.7157 46.2294 48.7566L44.5171 50.4749C44.5038 50.4885 44.4879 50.4993 44.4704 50.5068C44.4529 50.5143 44.4341 50.5182 44.4151 50.5184C44.3962 50.5186 44.3774 50.515 44.36 50.5078C44.3425 50.5006 44.3267 50.4901 44.3136 50.4767L42.2731 48.3944C42.2567 48.3778 42.2481 48.3549 42.2487 48.3306C42.2494 48.3062 42.2594 48.2822 42.2767 48.2633L43.6645 46.8017C43.6812 46.7839 43.6901 46.7602 43.6894 46.7355C43.6888 46.7108 43.6785 46.6869 43.6609 46.6688L38.6266 41.6486C38.6053 41.6274 38.5762 41.6157 38.5457 41.616C38.5151 41.6164 38.4855 41.6287 38.4634 41.6504L33.4822 46.5541Z" fill="#92278E"/>
<path d="M127.153 54.9599C127.72 55.3688 128.004 55.9488 128.005 56.7C128.01 58.6416 128.013 60.5825 128.013 62.5229C128.013 63.3578 127.95 63.9269 127.825 64.2303C127.581 64.82 127.112 65.2259 126.419 65.448C126.039 65.5706 125.608 65.6306 125.125 65.6282C123.414 65.6221 121.63 65.6191 119.773 65.6191C119.734 65.6191 119.696 65.6036 119.668 65.5759C119.641 65.5483 119.625 65.5108 119.625 65.4717V54.5157C119.625 54.4827 119.638 54.4511 119.661 54.4276C119.685 54.404 119.716 54.3906 119.75 54.3901C121.55 54.3768 123.372 54.3695 125.217 54.3683C125.962 54.3683 126.608 54.5655 127.153 54.9599ZM125.594 55.87C125.324 55.7559 124.984 55.6989 124.575 55.6989C123.628 55.6989 122.641 55.6989 121.614 55.6989C121.573 55.6989 121.533 55.7152 121.504 55.7442C121.475 55.7732 121.458 55.8126 121.458 55.8536V64.1975C121.458 64.2245 121.469 64.2505 121.488 64.2696C121.508 64.2887 121.534 64.2994 121.561 64.2994C122.654 64.2994 123.704 64.311 124.713 64.334C125.69 64.3559 126.179 63.8741 126.179 62.8888C126.179 60.9023 126.177 58.9152 126.174 56.9275C126.172 56.3839 125.979 56.0314 125.594 55.87Z" fill="white"/>
<path d="M133.993 60.295C134.062 60.443 134.131 60.4436 134.198 60.2968L136.862 54.5958C136.891 54.5326 136.937 54.4791 136.993 54.4419C137.05 54.4048 137.114 54.3855 137.179 54.3865L138.613 54.4065C138.639 54.4064 138.664 54.4157 138.684 54.433C138.704 54.4503 138.718 54.4744 138.723 54.5012C138.797 54.8604 138.768 55.165 138.635 55.4149C137.465 57.5944 136.286 59.8126 135.098 62.0697C135.047 62.1668 135.021 62.276 135.019 62.3973L134.994 65.4953C134.994 65.5214 134.984 65.5464 134.966 65.5648C134.949 65.5833 134.925 65.5936 134.9 65.5936H133.318C133.293 65.5936 133.27 65.5833 133.252 65.565C133.234 65.5467 133.224 65.5217 133.223 65.4953C133.163 64.0744 133.153 63.16 133.192 62.7523C133.214 62.5156 133.195 62.3069 133.135 62.1261C133.127 62.1043 133.034 61.9228 132.854 61.5819C131.74 59.474 130.626 57.365 129.514 55.2548C129.437 55.1104 129.431 54.8592 129.497 54.5012C129.502 54.4742 129.515 54.4497 129.535 54.4321C129.554 54.4144 129.579 54.4047 129.604 54.4047H131.14C131.167 54.4046 131.194 54.4129 131.217 54.4287C131.24 54.4446 131.26 54.4672 131.272 54.4939L133.993 60.295Z" fill="white"/>
<path d="M148.143 62.8778C148.122 62.3523 148.086 61.8281 148.036 61.3051C147.979 60.7056 147.95 60.182 147.95 59.7343C147.95 58.016 147.95 56.2716 147.95 54.5011C147.95 54.4688 147.963 54.4377 147.986 54.4149C148.009 54.392 148.04 54.3792 148.073 54.3792H149.662C149.694 54.3792 149.725 54.3918 149.748 54.4143C149.771 54.4369 149.783 54.4674 149.783 54.4993V65.4516C149.783 65.496 149.766 65.5386 149.734 65.57C149.702 65.6014 149.659 65.619 149.615 65.619H147.919C147.872 65.6191 147.826 65.6073 147.785 65.5847C147.744 65.5621 147.708 65.5295 147.682 65.4898L142.215 57.1077C142.181 57.0543 142.165 57.0579 142.168 57.1186C142.19 57.6343 142.225 58.1488 142.274 58.6621C142.33 59.2434 142.358 59.7573 142.358 60.2039C142.358 61.9731 142.358 63.7248 142.358 65.4589C142.358 65.4798 142.354 65.5006 142.346 65.5199C142.338 65.5392 142.327 65.5568 142.312 65.5715C142.297 65.5862 142.28 65.5978 142.261 65.6057C142.242 65.6135 142.221 65.6175 142.201 65.6172L140.67 65.6099C140.632 65.6099 140.596 65.5946 140.569 65.5673C140.542 65.54 140.527 65.5029 140.527 65.4643L140.558 54.5029C140.558 54.49 140.56 54.4772 140.565 54.4653C140.57 54.4534 140.577 54.4425 140.586 54.4334C140.595 54.4243 140.605 54.4171 140.617 54.4121C140.628 54.4072 140.641 54.4046 140.653 54.4046L142.45 54.4156C142.476 54.4155 142.503 54.4233 142.528 54.4383C142.553 54.4533 142.574 54.4749 142.591 54.5011L148.095 62.8942C148.128 62.9439 148.144 62.9385 148.143 62.8778Z" fill="white"/>
<path d="M153.756 62.987L152.915 65.5244C152.906 65.5519 152.888 65.5758 152.863 65.5928C152.839 65.6098 152.809 65.619 152.779 65.6191H151.226C151.199 65.6191 151.172 65.6088 151.152 65.5902C151.132 65.5716 151.12 65.5462 151.118 65.519C151.093 65.1913 151.117 64.8831 151.189 64.5943C151.193 64.5834 151.295 64.2958 151.496 63.7315C152.587 60.6529 153.683 57.5755 154.783 54.4993C154.793 54.4722 154.81 54.4487 154.832 54.4321C154.854 54.4155 154.879 54.4065 154.906 54.4065H157.129C157.155 54.4064 157.181 54.4153 157.202 54.4319C157.224 54.4486 157.241 54.4721 157.25 54.4993C158.482 57.8922 159.686 61.2942 160.862 64.7053C160.918 64.8679 160.93 65.1167 160.897 65.4516C160.892 65.4953 160.873 65.5358 160.841 65.5651C160.81 65.5944 160.77 65.6104 160.728 65.61L159.258 65.5918C159.231 65.5918 159.205 65.5829 159.183 65.5662C159.161 65.5496 159.144 65.526 159.135 65.4989L158.284 62.9943C158.274 62.9636 158.254 62.9369 158.228 62.918C158.202 62.8991 158.171 62.8888 158.14 62.8887L153.872 62.8997C153.846 62.8996 153.821 62.9081 153.8 62.9238C153.779 62.9395 153.764 62.9617 153.756 62.987ZM155.96 56.1394L154.244 61.4799C154.241 61.4902 154.24 61.501 154.242 61.5116C154.244 61.5222 154.248 61.5322 154.254 61.5409C154.261 61.5495 154.269 61.5566 154.279 61.5615C154.288 61.5664 154.299 61.569 154.31 61.5691H157.683C157.7 61.569 157.717 61.5649 157.733 61.5571C157.748 61.5494 157.761 61.5381 157.771 61.5243C157.782 61.5105 157.788 61.4945 157.791 61.4776C157.794 61.4607 157.793 61.4434 157.788 61.4271L156.086 56.1394C156.045 56.0083 156.003 56.0083 155.96 56.1394Z" fill="white"/>
<path d="M165.048 56.3906L164.023 65.5153C164.019 65.5439 164.005 65.5701 163.983 65.5892C163.961 65.6083 163.933 65.6189 163.904 65.6191H162.415C162.379 65.6192 162.343 65.6057 162.316 65.5811C162.289 65.5566 162.272 65.5227 162.268 65.4862C162.234 65.1319 162.233 64.8413 162.265 64.6143C162.736 61.2408 163.227 57.8704 163.737 54.503C163.741 54.4762 163.754 54.4517 163.773 54.434C163.792 54.4163 163.816 54.4066 163.841 54.4065H166.111C166.138 54.4064 166.164 54.4153 166.186 54.4319C166.209 54.4485 166.226 54.4721 166.236 54.4993L169.081 62.3918C169.162 62.6163 169.242 62.6163 169.323 62.3918L172.154 54.4993C172.163 54.4729 172.18 54.4499 172.202 54.4336C172.224 54.4172 172.25 54.4084 172.276 54.4083L174.513 54.3847C174.553 54.384 174.592 54.3984 174.623 54.4252C174.653 54.452 174.674 54.4893 174.68 54.5303C175.153 57.7035 175.621 60.8974 176.084 64.1119C176.145 64.5355 176.161 65.0002 176.13 65.5062C176.128 65.5368 176.115 65.5655 176.093 65.5865C176.071 65.6075 176.041 65.6191 176.011 65.6191H174.557C174.51 65.619 174.465 65.6016 174.429 65.5704C174.394 65.5392 174.372 65.4963 174.366 65.4498L173.338 56.3341C173.322 56.1873 173.289 56.1837 173.239 56.3232L170.491 64.0573C170.471 64.1136 170.435 64.1623 170.387 64.1965C170.34 64.2308 170.284 64.249 170.227 64.2485L168.104 64.2248C168.078 64.2247 168.052 64.2157 168.03 64.1991C168.008 64.1825 167.991 64.1591 167.981 64.132C167.03 61.5776 166.109 59.0129 165.218 56.4379C165.208 56.4124 165.181 56.3833 165.136 56.3505C165.128 56.3448 165.119 56.3412 165.109 56.3402C165.1 56.3393 165.09 56.3409 165.081 56.3449C165.072 56.349 165.064 56.3554 165.058 56.3634C165.053 56.3714 165.049 56.3807 165.048 56.3906Z" fill="white"/>
<path d="M180.427 54.3792H178.814C178.753 54.3792 178.704 54.428 178.704 54.4884V65.5116C178.704 65.572 178.753 65.6209 178.814 65.6209H180.427C180.488 65.6209 180.537 65.572 180.537 65.5116V54.4884C180.537 54.428 180.488 54.3792 180.427 54.3792Z" fill="white"/>
<path d="M184.056 64.9474C183.563 64.5179 183.318 63.9378 183.32 63.2073C183.328 61.432 183.332 59.6566 183.333 57.8813C183.333 56.788 183.43 56.0459 183.625 55.6552C184.027 54.8434 184.812 54.4296 185.981 54.4138C188.31 54.381 189.991 54.3725 191.022 54.3883C191.049 54.3889 191.076 54.3976 191.097 54.4133C191.118 54.429 191.134 54.4509 191.141 54.4757C191.265 54.8883 191.141 55.2584 190.771 55.586C190.69 55.6586 190.584 55.6988 190.474 55.6989C189.136 55.6989 187.84 55.7013 186.587 55.7062C185.835 55.7086 185.379 55.9919 185.222 56.5562C185.185 56.6897 185.167 57.152 185.167 57.9432C185.167 59.5608 185.167 61.179 185.167 62.7977C185.167 63.9117 185.717 64.4123 186.817 64.2994C187.249 64.2545 188.659 64.2648 191.044 64.3304C191.072 64.3313 191.099 64.3417 191.118 64.3594C191.138 64.377 191.149 64.4005 191.149 64.425L191.147 65.4953C191.147 65.5193 191.136 65.5424 191.117 65.5597C191.098 65.577 191.072 65.5872 191.044 65.5881C189.376 65.6258 187.707 65.6428 186.037 65.6391C185.244 65.6379 184.584 65.4073 184.056 64.9474Z" fill="white"/>
<path d="M193.45 59.6251C192.98 59.2332 192.713 58.7296 192.647 58.1144C192.593 57.6217 192.594 57.1327 192.65 56.6473C192.715 56.0915 192.879 55.6407 193.143 55.2948C193.569 54.7378 194.149 54.4478 194.883 54.4248C196.564 54.3726 198.295 54.358 200.077 54.3811C200.119 54.3815 200.158 54.3966 200.19 54.4236C200.221 54.4506 200.242 54.4878 200.248 54.5285C200.309 54.9168 200.223 55.2281 199.989 55.4623C199.83 55.6213 199.579 55.7001 199.236 55.6989C198.32 55.6953 197.405 55.6807 196.489 55.6552C195.939 55.6407 195.492 55.6971 195.147 55.8245C194.799 55.9531 194.59 56.2298 194.52 56.6545C194.434 57.1776 194.436 57.629 194.528 58.0088C194.639 58.4663 194.951 58.7539 195.463 58.8716C196.179 59.0354 196.894 59.201 197.609 59.3685C198.584 59.5954 199.145 59.7422 199.292 59.809C199.874 60.0735 200.292 60.5122 200.546 61.125C200.649 61.375 200.702 61.7105 200.706 62.1316C200.71 62.475 200.716 62.8184 200.726 63.1618C200.742 63.731 200.599 64.2212 200.297 64.6326C200.027 65.0003 199.627 65.2703 199.096 65.4426C198.653 65.5858 198.191 65.6501 197.71 65.6355C197.372 65.6246 197.198 65.6191 197.188 65.6191C195.759 65.6191 194.296 65.6191 192.799 65.6191C192.778 65.6191 192.757 65.615 192.737 65.607C192.717 65.5989 192.7 65.5871 192.685 65.5722C192.67 65.5574 192.658 65.5397 192.65 65.5203C192.642 65.5008 192.637 65.48 192.637 65.459V64.4214C192.637 64.3891 192.65 64.3581 192.673 64.3352C192.685 64.3239 192.698 64.3149 192.713 64.3088C192.728 64.3026 192.744 64.2995 192.76 64.2995C194.28 64.2995 195.771 64.2995 197.234 64.2995C197.744 64.2995 198.095 64.2509 198.286 64.1539C198.653 63.9682 198.843 63.6224 198.858 63.1163C198.867 62.8579 198.876 62.6 198.887 62.3427C198.908 61.8622 198.761 61.4994 198.445 61.2542C198.284 61.1305 197.948 61.0085 197.437 60.8884C196.601 60.693 195.765 60.4952 194.929 60.295C194.298 60.1445 193.805 59.9212 193.45 59.6251Z" fill="white"/>
</svg>
