<svg width="234" height="45" viewBox="0 0 234 45" fill="none" xmlns="http://www.w3.org/2000/svg">
<g clip-path="url(#clip0_252_3185)">
<path d="M0 0C14.8586 0 29.7171 0 44.5757 0C44.5935 15 44.5966 30 44.5848 45C29.723 45 14.8614 45 0 45C0 30 0 15 0 0ZM6.92479 26.0822C7.23698 26.4249 7.65566 26.6312 8.18083 26.7009C8.90065 26.7964 9.77045 26.8336 10.7902 26.8127C11.1894 26.8042 11.5865 26.8218 11.9814 26.8654C12.4774 26.9205 12.8587 27.0209 13.1253 27.1666C13.7012 27.4823 14.0351 28.0199 14.1267 28.7794C14.1775 29.1952 14.2057 29.565 14.2114 29.8887C14.2175 30.2371 14.2205 30.4139 14.2205 30.4191C14.2314 30.7524 14.2339 31.0498 14.2283 31.3113C14.2142 31.9441 14.2455 32.5512 14.3221 33.1327C14.4288 33.9425 14.8228 34.4995 15.5041 34.8038C15.6818 34.8835 15.9058 34.9464 16.1762 34.9925C16.4225 35.0347 16.6548 35.0597 16.873 35.0672C17.7508 35.0986 18.7263 35.0998 19.7997 35.0708C20.332 35.0566 20.7831 34.9768 21.1531 34.8316C21.6073 34.6531 21.9392 34.3564 22.1489 33.9415C22.2834 33.6748 22.3788 33.2608 22.4352 32.6998C22.4799 32.2507 22.4961 31.7998 22.4839 31.3469C22.466 30.7037 22.4792 30.0617 22.5234 29.4209C22.5685 28.7687 22.6539 28.3051 22.7794 28.0303C23.0413 27.4555 23.5239 27.0933 24.2273 26.9438C24.5408 26.8778 24.8575 26.8384 25.1772 26.8256C26.0357 26.7919 26.8935 26.8023 27.7506 26.8569C27.982 26.8716 28.2116 26.902 28.4397 26.948C28.9766 27.0572 29.3835 27.3126 29.6605 27.7142C29.849 27.9866 29.9813 28.3858 30.0575 28.9118C30.1172 29.3248 30.1419 29.7508 30.1316 30.1899C30.1137 30.965 30.1308 31.7853 30.183 32.6506C30.1976 32.8918 30.2202 33.0895 30.2507 33.2438C30.2935 33.4607 30.3492 33.6517 30.4179 33.8169C30.6379 34.3448 31.0319 34.6965 31.5999 34.8722C32.0263 35.0041 32.5125 35.0751 33.0583 35.085C34.1326 35.1045 34.9613 35.1045 35.5443 35.085C35.9153 35.0727 36.2545 35.0362 36.562 34.9754C36.9461 34.8999 37.259 34.7746 37.5006 34.5994C37.9365 34.2828 38.2 33.8283 38.2912 33.2359C38.3448 32.8884 38.3754 32.5021 38.3829 32.0767C38.3998 31.1146 38.4074 30.3669 38.4055 29.8339C38.4041 29.447 38.373 29.002 38.3124 28.4988C38.2075 27.6278 37.7842 27.0425 37.0422 26.743C36.888 26.6808 36.6971 26.6302 36.4696 26.5913C36.2571 26.5552 36.0603 26.5324 35.8793 26.5229C35.7213 26.5149 35.2805 26.503 34.557 26.4873C33.9124 26.4736 33.4018 26.428 33.0252 26.3506C32.6495 26.2737 32.3075 26.133 31.999 25.9284C31.7 25.7295 31.4318 25.4824 31.1944 25.1872C30.9696 24.9076 30.7992 24.5969 30.6831 24.2551C30.5998 24.0093 30.5378 23.6649 30.4969 23.222C30.456 22.7791 30.44 22.3723 30.4489 22.0016C30.4625 21.4305 30.4372 20.8612 30.3727 20.2934C30.3318 19.9294 30.25 19.622 30.1273 19.3714C29.873 18.8535 29.4512 18.5195 28.8621 18.3695C28.5725 18.296 28.355 18.2547 28.2098 18.2456C27.3489 18.193 26.4878 18.1766 25.6265 18.1965C25.1196 18.2079 24.8204 18.2165 24.7287 18.2222C24.4019 18.2421 24.1048 18.2855 23.8373 18.3525C23.2359 18.5034 22.805 18.8288 22.5445 19.3286C22.3969 19.6125 22.2956 20.0445 22.2406 20.6245C22.1978 21.0698 22.1839 21.5169 22.199 21.966C22.2178 22.5532 22.1811 23.1351 22.0889 23.7119C22.0419 24.0033 21.9787 24.2464 21.8992 24.441C21.8024 24.6788 21.6783 24.8995 21.5269 25.1032C21.3064 25.3994 21.0485 25.6576 20.7532 25.8778C20.4462 26.1066 20.1107 26.2623 19.7468 26.3449C18.8982 26.5377 18.0108 26.5436 17.0845 26.3627C16.6633 26.2806 16.2754 26.1012 15.9209 25.8244C15.5894 25.5653 15.316 25.2757 15.1007 24.9558C14.8736 24.6183 14.7243 24.2388 14.6529 23.8172C14.571 23.334 14.5412 22.7288 14.5633 22.0016C14.5802 21.4405 14.6639 20.9732 14.8144 20.5996C15.1087 19.8705 15.5974 19.3232 16.2806 18.9577C16.6059 18.7835 17.0025 18.661 17.4703 18.5903C17.8986 18.5252 18.3166 18.4994 18.7242 18.5127C19.3011 18.5316 19.8545 18.5039 20.3844 18.4294C20.8512 18.3638 21.2013 18.2604 21.4345 18.1189C21.765 17.9191 22.0133 17.6255 22.1792 17.2381C22.3254 16.8978 22.408 16.5869 22.4268 16.3054C22.5072 15.1163 22.5095 13.8052 22.4338 12.3722C22.4159 12.0347 22.3725 11.7377 22.3033 11.4814C22.1961 11.0841 21.9966 10.7592 21.7046 10.5066C21.4728 10.3068 21.1677 10.1561 20.7892 10.0545C20.4676 9.96859 20.126 9.92207 19.7645 9.91495C18.6069 9.89264 17.6548 9.89407 16.9082 9.91922C16.5918 9.92967 16.2787 9.96693 15.9688 10.031C15.3858 10.1506 14.9526 10.4385 14.6691 10.8947C14.5125 11.1468 14.3992 11.4919 14.3291 11.93C14.2727 12.2827 14.245 12.6494 14.2459 13.0301C14.2469 13.4578 14.2358 14.3122 14.2128 15.5934C14.2053 16.013 14.1319 16.4155 13.9927 16.8009C13.8884 17.0915 13.7551 17.3224 13.5929 17.4938C13.4043 17.6931 13.1754 17.8426 12.906 17.9423C12.621 18.0482 12.3272 18.1137 12.0244 18.1388C11.4903 18.1835 10.9555 18.2015 10.42 18.193C10.238 18.1901 9.84427 18.1958 9.2387 18.21C8.91005 18.2176 8.6028 18.2426 8.31694 18.2848C7.96479 18.337 7.67141 18.4246 7.4368 18.5475C6.8679 18.8461 6.51975 19.3258 6.39233 19.9866C6.36459 20.1294 6.33662 20.3575 6.30841 20.6708C6.28772 20.9001 6.27738 21.1301 6.27738 21.3608C6.27691 22.1146 6.27667 22.8681 6.27667 23.6214C6.27667 23.9115 6.30606 24.3031 6.36483 24.7963C6.42595 25.3113 6.6126 25.74 6.92479 26.0822Z" fill="#CDFF3A"/>
<path d="M44.5757 0C107.717 0 170.859 0 234 0C234 15 234 30 234 45C170.861 45 107.723 45 44.5849 45C44.5966 30 44.5935 15 44.5757 0ZM79.8294 27.1324C80.6583 27.8649 81.6196 28.3073 82.7132 28.4597C83.1537 28.5209 83.6091 28.5437 84.0792 28.528C84.5372 28.5128 84.9911 28.4509 85.4411 28.3422C87.1924 27.9202 88.392 26.8659 89.0399 25.1794C89.2064 24.7455 89.3171 24.2979 89.3721 23.8365C89.3726 23.8318 89.3721 23.827 89.3707 23.8225C89.3693 23.8181 89.367 23.8139 89.3639 23.8104C89.3609 23.8069 89.3571 23.8042 89.3529 23.8023C89.3487 23.8004 89.3442 23.7994 89.3396 23.7994L86.537 23.8037C86.5271 23.8037 86.5175 23.8071 86.5097 23.8133C86.5019 23.8195 86.4963 23.8282 86.494 23.8379C86.3948 24.2414 86.289 24.5475 86.1766 24.7564C85.6044 25.8192 84.7067 26.3074 83.4833 26.221C82.8613 26.1769 82.3338 25.9676 81.9007 25.593C81.6074 25.3391 81.368 25.0315 81.1828 24.6703C81.0276 24.3674 80.9087 24.0024 80.8259 23.5752C80.6557 22.6951 80.6837 21.8115 80.9099 20.9243C81.0523 20.3665 81.2768 19.9142 81.5834 19.5672C82.2242 18.8428 83.0578 18.534 84.0842 18.6408C84.7734 18.712 85.3299 18.9911 85.7535 19.4782C86.1207 19.9006 86.368 20.4202 86.4954 21.0368C86.4976 21.0467 86.503 21.0556 86.5107 21.0619C86.5184 21.0683 86.5279 21.0717 86.5377 21.0717L89.3411 21.0759C89.3457 21.076 89.3503 21.075 89.3546 21.0731C89.3589 21.0712 89.3627 21.0683 89.3658 21.0647C89.369 21.0612 89.3713 21.057 89.3728 21.0524C89.3742 21.0478 89.3747 21.043 89.3742 21.0382C89.2957 20.4116 89.1248 19.8183 88.8615 19.2581C88.3833 18.2409 87.6445 17.4826 86.6449 16.9832C85.7789 16.5503 84.8073 16.3362 83.7301 16.341C82.416 16.3467 81.2641 16.7017 80.2744 17.4062C79.8894 17.6801 79.548 18.0033 79.2504 18.3759C78.6632 19.1098 78.2758 19.9505 78.0882 20.8979C77.8503 22.0994 77.8933 23.2975 78.2172 24.4922C78.5073 25.5593 79.0447 26.4394 79.8294 27.1324ZM92.4695 26.9381C93.1607 27.5983 93.9548 28.0483 94.8518 28.2881C95.2736 28.4001 95.7371 28.476 96.2426 28.5159C97.1415 28.5871 98.02 28.4886 98.8781 28.2204C99.3525 28.0723 99.781 27.8808 100.164 27.6458C100.902 27.192 101.488 26.5968 101.921 25.86C102.358 25.1186 102.631 24.3192 102.741 23.4619C102.835 22.7343 102.823 21.9731 102.705 21.1785C102.586 20.371 102.33 19.6355 101.939 18.9719C101.693 18.5556 101.4 18.1866 101.059 17.8647C100.475 17.3117 99.7871 16.912 98.9973 16.6657C98.0461 16.3695 97.0534 16.2731 96.019 16.3766C94.365 16.5418 93.0466 17.2355 92.064 18.4578C91.7725 18.82 91.5306 19.2244 91.3383 19.6711C90.9434 20.5877 90.7586 21.5492 90.784 22.5555C90.7962 23.0568 90.8446 23.5286 90.9293 23.971C91.0534 24.6228 91.2802 25.2422 91.6098 25.8294C91.8416 26.2424 92.1282 26.6119 92.4695 26.9381ZM164.732 17.7793C164.331 17.41 163.881 17.1159 163.383 16.8971C162.737 16.6132 162.068 16.4381 161.377 16.3716C160.904 16.326 160.435 16.3206 159.968 16.3552C159.41 16.3965 158.863 16.51 158.327 16.6956C156.974 17.165 155.963 18.0354 155.293 19.3066C154.899 20.0547 154.665 20.864 154.59 21.7346C154.527 22.4618 154.558 23.1726 154.683 23.8671C154.772 24.3598 154.904 24.8141 155.08 25.2299C155.566 26.3734 156.352 27.2343 157.439 27.8124C157.833 28.0218 158.271 28.1884 158.755 28.3123C159.996 28.6298 161.233 28.6158 162.466 28.2703C162.95 28.1345 163.386 27.9581 163.772 27.7412C164.54 27.3102 165.151 26.7306 165.605 26.0025C166.156 25.1176 166.473 24.1524 166.557 23.1066C166.617 22.349 166.566 21.5713 166.402 20.7733C166.158 19.5776 165.601 18.5796 164.732 17.7793ZM178.308 17.832C177.913 17.4589 177.469 17.1598 176.976 16.9348C176.321 16.6348 175.64 16.4485 174.935 16.3759C174.474 16.3284 174.004 16.3196 173.525 16.3495C172.592 16.4079 171.729 16.6557 170.938 17.0929C170.056 17.5804 169.366 18.2691 168.868 19.1592C168.649 19.5498 168.473 19.9887 168.34 20.4757C168.011 21.6719 167.98 22.8769 168.247 24.0907C168.356 24.5843 168.504 25.0339 168.693 25.4392C169.293 26.7261 170.268 27.6169 171.617 28.1115C173.053 28.6379 174.51 28.6911 175.989 28.271C176.465 28.1362 176.898 27.9555 177.289 27.7291C178.692 26.9155 179.57 25.6659 179.923 23.9803C180.162 22.842 180.148 21.707 179.882 20.5754C179.628 19.4988 179.104 18.5843 178.308 17.832ZM193.083 24.6539H190.357C190.353 24.6538 190.348 24.6548 190.344 24.6567C190.34 24.6585 190.336 24.6613 190.333 24.6647C190.33 24.6682 190.328 24.6722 190.327 24.6766C190.325 24.681 190.325 24.6856 190.326 24.6902C190.476 25.8019 190.948 26.6967 191.744 27.3745C192.035 27.6233 192.368 27.8326 192.743 28.0025C193.104 28.1658 193.48 28.2883 193.872 28.3699C194.629 28.5266 195.393 28.5845 196.164 28.5437C196.79 28.51 197.399 28.3915 197.992 28.1884C198.57 27.99 199.041 27.7301 199.404 27.4087C200.238 26.6691 200.629 25.7547 200.575 24.6653C200.549 24.1431 200.432 23.6877 200.224 23.2989C199.943 22.7739 199.515 22.373 198.94 22.0963C198.463 21.8665 197.896 21.6688 197.239 21.5032C196.567 21.3332 195.893 21.1697 195.217 21.0126C194.912 20.9419 194.609 20.86 194.309 20.7669C193.943 20.654 193.687 20.5301 193.541 20.3953C193.275 20.1494 193.18 19.8686 193.257 19.5529C193.302 19.3664 193.396 19.2083 193.538 19.0787C193.676 18.9529 193.845 18.8637 194.044 18.811C194.715 18.632 195.373 18.6173 196.016 18.7669C196.403 18.8566 196.705 18.9883 196.923 19.162C197.194 19.3799 197.383 19.6711 197.49 20.0357C197.493 20.0482 197.501 20.0593 197.511 20.0671C197.521 20.0749 197.534 20.0791 197.547 20.0791H200.26C200.271 20.0791 200.281 20.0768 200.29 20.0723C200.299 20.0679 200.308 20.0614 200.314 20.0534C200.321 20.0454 200.325 20.036 200.328 20.0259C200.331 20.0158 200.331 20.0053 200.329 19.9951C200.003 18.3081 199.043 17.1992 197.449 16.6685C196.802 16.4535 196.08 16.3502 195.282 16.3588C194.424 16.3678 193.648 16.476 192.956 16.6835C192.372 16.8586 191.88 17.1197 191.478 17.4667C191.027 17.8569 190.726 18.3183 190.575 18.8509C190.417 19.4067 190.404 19.9944 190.537 20.6138C190.639 21.0933 190.839 21.5105 191.139 21.8656C191.355 22.1214 191.651 22.3581 192.027 22.5755C192.358 22.7668 192.708 22.9213 193.077 23.039C193.594 23.2042 194.03 23.3271 194.383 23.4078C195.171 23.5882 195.777 23.7366 196.199 23.8528C196.535 23.9454 196.832 24.057 197.09 24.1875C197.367 24.328 197.552 24.4861 197.645 24.6617C197.773 24.9047 197.76 25.1767 197.607 25.4777C197.535 25.6191 197.452 25.7229 197.358 25.7888C197.139 25.9417 196.875 26.0485 196.568 26.1093C196.166 26.1885 195.761 26.218 195.352 26.1975C194.969 26.1786 194.607 26.0941 194.265 25.9441C193.97 25.814 193.736 25.6524 193.563 25.4592C193.374 25.2489 193.23 24.9921 193.131 24.6888C193.128 24.6786 193.121 24.6698 193.113 24.6636C193.104 24.6573 193.094 24.6539 193.083 24.6539ZM111.56 24.8176L108.992 16.561C108.99 16.554 108.985 16.5478 108.98 16.5435C108.974 16.5391 108.967 16.5368 108.96 16.5368L104.768 16.5411C104.764 16.5411 104.759 16.542 104.755 16.5438C104.75 16.5456 104.747 16.5482 104.743 16.5515C104.74 16.5548 104.737 16.5587 104.736 16.563C104.734 16.5674 104.733 16.572 104.733 16.5767L104.729 28.2589C104.729 28.2753 104.735 28.291 104.747 28.3027C104.758 28.3143 104.774 28.3208 104.79 28.3208C105.557 28.3208 106.333 28.3208 107.117 28.3208C107.124 28.3208 107.153 28.3232 107.206 28.3279C107.285 28.3346 107.315 28.3018 107.297 28.2297C107.291 28.2093 107.291 28.1869 107.296 28.1627C107.301 28.139 107.303 28.1086 107.303 28.0716C107.303 25.1286 107.303 22.1855 107.303 19.2425C107.303 19.2268 107.306 19.2166 107.313 19.2119C107.315 19.2105 107.317 19.2101 107.32 19.2105C107.322 19.211 107.324 19.2123 107.327 19.2144C107.329 19.2165 107.331 19.2194 107.333 19.2226C107.334 19.2259 107.336 19.2296 107.336 19.2332C107.343 19.2845 107.36 19.3543 107.387 19.4426C108.284 22.3823 109.181 25.3251 110.078 28.271C110.082 28.2854 110.091 28.298 110.103 28.307C110.115 28.316 110.129 28.3208 110.144 28.3208H112.904C112.922 28.3209 112.939 28.3151 112.953 28.3045C112.968 28.2939 112.978 28.2789 112.984 28.2617L115.735 19.2653C115.756 19.1969 115.766 19.1986 115.766 19.2703V28.2852C115.766 28.2946 115.77 28.3037 115.776 28.3104C115.783 28.3171 115.792 28.3208 115.801 28.3208H118.332C118.338 28.3208 118.345 28.318 118.35 28.3131C118.355 28.3082 118.358 28.3014 118.358 28.2945V16.571C118.358 16.5659 118.357 16.5608 118.355 16.5561C118.353 16.5514 118.35 16.5471 118.346 16.5435C118.343 16.5399 118.339 16.5371 118.334 16.5352C118.329 16.5333 118.324 16.5324 118.32 16.5325L114.219 16.5411C114.208 16.5411 114.198 16.5444 114.19 16.5505C114.182 16.5567 114.176 16.5653 114.173 16.5752L111.61 24.8176C111.593 24.8713 111.577 24.8713 111.56 24.8176ZM123.686 23.9461C124.722 23.9485 125.758 23.944 126.794 23.9326C127.389 23.9259 127.839 23.8861 128.143 23.813C129.267 23.5415 130.054 22.8771 130.506 21.82C130.695 21.3786 130.8 20.9191 130.822 20.4415C130.846 19.9208 130.777 19.4146 130.616 18.9228C130.463 18.4571 130.231 18.0491 129.919 17.6988C129.412 17.1316 128.783 16.7715 128.031 16.6187C127.765 16.5641 127.297 16.5368 126.627 16.5368C124.789 16.5368 122.938 16.5368 121.074 16.5368C121.064 16.5368 121.055 16.5406 121.048 16.5474C121.041 16.5542 121.038 16.5635 121.038 16.5731L121.033 28.2717C121.033 28.2813 121.037 28.2905 121.044 28.2974C121.05 28.3042 121.059 28.308 121.069 28.308L123.6 28.3201C123.606 28.3202 123.612 28.319 123.618 28.3167C123.623 28.3143 123.629 28.3108 123.633 28.3064C123.637 28.3019 123.641 28.2966 123.643 28.2908C123.646 28.285 123.647 28.2787 123.647 28.2724L123.651 23.9824C123.651 23.9728 123.655 23.9636 123.662 23.9568C123.668 23.9499 123.677 23.9461 123.686 23.9461ZM133.821 27.2157C134.255 27.6135 134.713 27.9047 135.195 28.0894C136.483 28.5821 137.785 28.6569 139.102 28.3137C139.585 28.1879 140.021 28.0137 140.408 27.7911C141.55 27.1355 142.266 26.1489 142.557 24.8312C142.621 24.5416 142.655 24.1595 142.659 23.6848C142.68 21.3123 142.68 18.9399 142.658 16.5674C142.658 16.5581 142.654 16.5492 142.647 16.5427C142.641 16.5362 142.632 16.5325 142.622 16.5325L140.027 16.5368C140.017 16.5368 140.008 16.5406 140.002 16.5474C139.995 16.5542 139.991 16.5635 139.991 16.5731C139.991 18.9195 139.991 21.2487 139.991 23.5609C139.991 23.6022 139.999 23.6646 140.016 23.7482C140.03 23.8113 140.033 23.8759 140.027 23.9419C139.947 24.8366 139.561 25.4779 138.868 25.8657C138.542 26.048 138.173 26.157 137.76 26.1926C137.347 26.2286 136.956 26.1845 136.588 26.0601C135.829 25.8038 135.34 25.3061 135.123 24.567C135.054 24.3344 135.018 23.985 135.015 23.5189C134.998 21.2191 134.993 18.9038 135.001 16.5731C135.001 16.5635 134.998 16.5542 134.991 16.5474C134.984 16.5406 134.975 16.5368 134.965 16.5368H132.375C132.366 16.5368 132.356 16.5406 132.35 16.5474C132.343 16.5542 132.339 16.5635 132.339 16.5731C132.333 19.0054 132.333 21.4201 132.339 23.8172C132.342 25.1805 132.836 26.3134 133.821 27.2157ZM150.507 18.8729L154.085 18.8858C154.094 18.8859 154.102 18.8843 154.11 18.8811C154.117 18.8779 154.124 18.8732 154.13 18.8672C154.136 18.8613 154.141 18.8542 154.144 18.8464C154.147 18.8385 154.149 18.8302 154.149 18.8217V16.5738C154.149 16.564 154.145 16.5546 154.138 16.5476C154.131 16.5407 154.122 16.5368 154.112 16.5368H144.161C144.153 16.5368 144.145 16.5401 144.139 16.546C144.133 16.5518 144.13 16.5598 144.13 16.5681L144.139 18.8466C144.139 18.856 144.142 18.8651 144.149 18.8718C144.155 18.8784 144.164 18.8822 144.174 18.8822L147.748 18.8815C147.757 18.8815 147.767 18.8853 147.773 18.8921C147.78 18.8989 147.784 18.9082 147.784 18.9178V28.2617C147.784 28.2763 147.79 28.2902 147.8 28.3005C147.81 28.3108 147.824 28.3165 147.838 28.3165L150.425 28.3208C150.43 28.3208 150.435 28.3198 150.44 28.3178C150.445 28.3159 150.449 28.313 150.452 28.3093C150.456 28.3057 150.459 28.3014 150.461 28.2966C150.463 28.2919 150.464 28.2868 150.464 28.2816V18.9164C150.464 18.9107 150.465 18.905 150.467 18.8998C150.469 18.8945 150.472 18.8897 150.476 18.8857C150.48 18.8816 150.485 18.8784 150.49 18.8763C150.496 18.8741 150.501 18.8729 150.507 18.8729ZM185.376 25.9547C185.084 25.9481 184.774 25.9557 184.447 25.9775C184.435 25.9783 184.423 25.9767 184.412 25.9727C184.401 25.9687 184.391 25.9625 184.382 25.9544C184.374 25.9463 184.367 25.9366 184.362 25.9257C184.357 25.9149 184.355 25.9032 184.355 25.8914L184.351 16.5767C184.351 16.5661 184.347 16.5559 184.339 16.5485C184.332 16.541 184.322 16.5368 184.311 16.5368H181.721C181.711 16.5368 181.702 16.5407 181.695 16.5476C181.688 16.5546 181.684 16.564 181.684 16.5738C181.67 18.9216 181.665 21.2575 181.67 23.5816C181.67 23.5849 181.674 23.7418 181.682 24.0522C181.687 24.2649 181.684 24.5307 181.671 24.8497C181.657 25.2152 181.661 26.3559 181.684 28.2717C181.684 28.2812 181.688 28.2902 181.694 28.2969C181.701 28.3035 181.71 28.3073 181.719 28.3073L189.653 28.3208C189.664 28.3208 189.674 28.3165 189.681 28.3089C189.689 28.3013 189.693 28.291 189.693 28.2802V26.0067C189.693 26.002 189.692 25.9974 189.69 25.9931C189.689 25.9888 189.686 25.9849 189.683 25.9816C189.679 25.9782 189.676 25.9756 189.671 25.9738C189.667 25.972 189.662 25.9711 189.658 25.9711C188.432 25.973 187.206 25.9718 185.981 25.9676C185.974 25.9676 185.772 25.9633 185.376 25.9547Z" fill="black"/>
<path d="M6.92473 26.0821C6.61254 25.7399 6.42589 25.3113 6.36477 24.7962C6.306 24.303 6.27661 23.9114 6.27661 23.6214C6.27661 22.8681 6.27685 22.1145 6.27732 21.3607C6.27732 21.13 6.28766 20.9 6.30835 20.6708C6.33656 20.3575 6.36453 20.1294 6.39227 19.9865C6.51969 19.3257 6.86784 18.8461 7.43674 18.5475C7.67135 18.4245 7.96473 18.337 8.31688 18.2848C8.60274 18.2425 8.90999 18.2176 9.23864 18.21C9.84421 18.1958 10.238 18.1901 10.4199 18.1929C10.9554 18.2014 11.4902 18.1834 12.0244 18.1388C12.3271 18.1136 12.621 18.0481 12.9059 17.9423C13.1753 17.8426 13.4043 17.6931 13.5928 17.4937C13.755 17.3223 13.8883 17.0914 13.9927 16.8009C14.1319 16.4155 14.2052 16.0129 14.2127 15.5933C14.2358 14.3121 14.2468 13.4577 14.2459 13.03C14.2449 12.6493 14.2727 12.2826 14.3291 11.9299C14.3991 11.4918 14.5125 11.1467 14.669 10.8946C14.9525 10.4385 15.3858 10.1506 15.9688 10.031C16.2786 9.96688 16.5917 9.92961 16.9082 9.91917C17.6548 9.89401 18.6069 9.89259 19.7644 9.9149C20.126 9.92202 20.4675 9.96854 20.7891 10.0545C21.1676 10.156 21.4727 10.3067 21.7045 10.5066C21.9965 10.7591 22.1961 11.084 22.3033 11.4814C22.3724 11.7377 22.4159 12.0346 22.4338 12.3721C22.5094 13.8052 22.5071 15.1162 22.4267 16.3053C22.4079 16.5868 22.3254 16.8977 22.1792 17.2381C22.0132 17.6254 21.7649 17.919 21.4344 18.1189C21.2012 18.2603 20.8512 18.3638 20.3843 18.4293C19.8544 18.5038 19.3011 18.5316 18.7242 18.5126C18.3165 18.4993 17.8986 18.5252 17.4702 18.5902C17.0024 18.6609 16.6059 18.7834 16.2805 18.9576C15.5974 19.3231 15.1086 19.8704 14.8143 20.5996C14.6638 20.9731 14.5802 21.4405 14.5632 22.0015C14.5411 22.7287 14.571 23.334 14.6528 23.8172C14.7243 24.2387 14.8735 24.6182 15.1006 24.9557C15.316 25.2757 15.5894 25.5652 15.9208 25.8244C16.2753 26.1011 16.6632 26.2806 17.0845 26.3627C18.0107 26.5435 18.8981 26.5376 19.7468 26.3449C20.1107 26.2623 20.4461 26.1066 20.7532 25.8778C21.0484 25.6575 21.3063 25.3993 21.5268 25.1031C21.6782 24.8995 21.8023 24.6787 21.8992 24.4409C21.9786 24.2463 22.0419 24.0033 22.0889 23.7118C22.181 23.1351 22.2177 22.5531 22.1989 21.9659C22.1839 21.5169 22.1977 21.0697 22.2405 20.6245C22.2955 20.0444 22.3968 19.6124 22.5445 19.3286C22.8049 18.8287 23.2358 18.5033 23.8372 18.3524C24.1047 18.2855 24.4019 18.242 24.7286 18.2221C24.8203 18.2164 25.1196 18.2079 25.6264 18.1965C26.4877 18.1765 27.3488 18.1929 28.2097 18.2456C28.355 18.2546 28.5724 18.2959 28.8621 18.3695C29.4512 18.5195 29.8729 18.8534 30.1273 19.3713C30.25 19.6219 30.3318 19.9293 30.3727 20.2934C30.4371 20.8611 30.4625 21.4305 30.4489 22.0015C30.4399 22.3723 30.4559 22.7791 30.4968 23.2219C30.5377 23.6648 30.5998 24.0092 30.683 24.2551C30.7991 24.5969 30.9696 24.9075 31.1943 25.1871C31.4317 25.4824 31.7 25.7295 31.999 25.9283C32.3074 26.1329 32.6494 26.2737 33.0251 26.3506C33.4017 26.428 33.9123 26.4735 34.5569 26.4873C35.2805 26.503 35.7213 26.5148 35.8792 26.5229C36.0602 26.5324 36.257 26.5552 36.4695 26.5912C36.6971 26.6302 36.888 26.6807 37.0422 26.7429C37.7841 27.0424 38.2075 27.6277 38.3123 28.4988C38.373 29.0019 38.404 29.4469 38.4054 29.8338C38.4073 30.3669 38.3998 31.1145 38.3828 32.0767C38.3753 32.502 38.3448 32.8884 38.2912 33.2359C38.2 33.8283 37.9364 34.2828 37.5006 34.5994C37.2589 34.7745 36.946 34.8999 36.5619 34.9753C36.2544 35.0361 35.9152 35.0727 35.5442 35.085C34.9612 35.1045 34.1326 35.1045 33.0583 35.085C32.5124 35.075 32.0262 35.0041 31.5998 34.8721C31.0319 34.6965 30.6379 34.3447 30.4178 33.8169C30.3492 33.6517 30.2935 33.4606 30.2507 33.2437C30.2201 33.0894 30.1975 32.8917 30.183 32.6506C30.1308 31.7852 30.1136 30.965 30.1315 30.1898C30.1418 29.7507 30.1172 29.3247 30.0574 28.9117C29.9813 28.3858 29.8489 27.9866 29.6604 27.7141C29.3835 27.3125 28.9765 27.0571 28.4396 26.948C28.2116 26.9019 27.9819 26.8715 27.7506 26.8568C26.8935 26.8022 26.0357 26.7918 25.1772 26.8255C24.8574 26.8383 24.5408 26.8777 24.2272 26.9437C23.5238 27.0932 23.0412 27.4554 22.7793 28.0302C22.6538 28.3051 22.5685 28.7686 22.5233 29.4208C22.4791 30.0617 22.466 30.7037 22.4838 31.3469C22.496 31.7997 22.4798 32.2507 22.4352 32.6997C22.3787 33.2608 22.2833 33.6747 22.1488 33.9415C21.9391 34.3564 21.6072 34.653 21.153 34.8315C20.783 34.9768 20.3319 35.0565 19.7997 35.0708C18.7263 35.0997 17.7507 35.0985 16.8729 35.0672C16.6547 35.0596 16.4225 35.0347 16.1761 34.9924C15.9058 34.9464 15.6817 34.8835 15.504 34.8037C14.8228 34.4995 14.4288 33.9424 14.322 33.1326C14.2454 32.5511 14.2141 31.944 14.2282 31.3113C14.2339 31.0497 14.2313 30.7523 14.2205 30.4191C14.2205 30.4139 14.2174 30.237 14.2113 29.8886C14.2057 29.5649 14.1775 29.1951 14.1267 28.7793C14.035 28.0198 13.7012 27.4822 13.1252 27.1666C12.8587 27.0208 12.4774 26.9204 11.9813 26.8654C11.5864 26.8217 11.1893 26.8041 10.7902 26.8127C9.77039 26.8336 8.90059 26.7963 8.18077 26.7009C7.6556 26.6311 7.23692 26.4249 6.92473 26.0821Z" fill="black"/>
<path d="M79.8294 27.1325C79.0447 26.4394 78.5073 25.5594 78.2172 24.4923C77.8932 23.2975 77.8502 22.0994 78.0881 20.898C78.2757 19.9505 78.6631 19.1098 79.2504 18.376C79.548 18.0034 79.8893 17.6801 80.2744 17.4062C81.2641 16.7018 82.416 16.3467 83.7301 16.341C84.8072 16.3363 85.7788 16.5504 86.6448 16.9833C87.6444 17.4826 88.3833 18.2409 88.8614 19.2582C89.1247 19.8183 89.2956 20.4117 89.3741 21.0383C89.3746 21.043 89.3742 21.0479 89.3727 21.0524C89.3713 21.057 89.3689 21.0612 89.3658 21.0648C89.3626 21.0683 89.3588 21.0712 89.3545 21.0731C89.3503 21.075 89.3457 21.076 89.341 21.076L86.5376 21.0717C86.5279 21.0717 86.5184 21.0683 86.5107 21.062C86.503 21.0556 86.4976 21.0468 86.4953 21.0368C86.3679 20.4202 86.1206 19.9007 85.7534 19.4782C85.3298 18.9912 84.7734 18.7121 84.0841 18.6409C83.0577 18.5341 82.2241 18.8428 81.5833 19.5672C81.2768 19.9142 81.0523 20.3666 80.9098 20.9243C80.6836 21.8115 80.6557 22.6951 80.8259 23.5752C80.9086 24.0024 81.0276 24.3674 81.1827 24.6703C81.368 25.0315 81.6073 25.3391 81.9007 25.5931C82.3337 25.9676 82.8612 26.1769 83.4832 26.2211C84.7066 26.3075 85.6044 25.8193 86.1766 24.7564C86.2889 24.5476 86.3947 24.2414 86.4939 23.8379C86.4963 23.8282 86.5018 23.8196 86.5096 23.8134C86.5174 23.8072 86.527 23.8038 86.5369 23.8038L89.3396 23.7995C89.3442 23.7994 89.3487 23.8004 89.3529 23.8023C89.3571 23.8042 89.3608 23.807 89.3639 23.8105C89.3669 23.814 89.3692 23.8181 89.3706 23.8226C89.372 23.8271 89.3725 23.8318 89.372 23.8365C89.317 24.2979 89.2063 24.7455 89.0399 25.1794C88.392 26.8659 87.1923 27.9202 85.441 28.3422C84.991 28.4509 84.5371 28.5129 84.0792 28.528C83.609 28.5437 83.1536 28.5209 82.7131 28.4597C81.6195 28.3073 80.6583 27.8649 79.8294 27.1325Z" fill="white"/>
<path d="M92.4695 26.9381C92.1281 26.612 91.8415 26.2424 91.6098 25.8295C91.2802 25.2423 91.0533 24.6228 90.9292 23.9711C90.8446 23.5287 90.7961 23.0568 90.7839 22.5556C90.7585 21.5492 90.9433 20.5878 91.3382 19.6712C91.5305 19.2245 91.7724 18.82 92.0639 18.4579C93.0466 17.2356 94.3649 16.5418 96.0189 16.3766C97.0533 16.2731 98.046 16.3695 98.9972 16.6657C99.7871 16.9121 100.474 17.3117 101.059 17.8647C101.4 18.1866 101.693 18.5556 101.939 18.9719C102.33 19.6356 102.586 20.3711 102.705 21.1785C102.823 21.9731 102.835 22.7343 102.741 23.462C102.631 24.3193 102.357 25.1186 101.921 25.8601C101.488 26.5968 100.902 27.192 100.164 27.6458C99.781 27.8808 99.3524 28.0723 98.878 28.2204C98.02 28.4886 97.1415 28.5871 96.2425 28.5159C95.7371 28.4761 95.2735 28.4001 94.8518 28.2881C93.9547 28.0484 93.1606 27.5984 92.4695 26.9381ZM94.7276 25.4592C95.3708 26.0113 96.1304 26.2531 97.0063 26.1848C97.8648 26.1178 98.5559 25.8064 99.0797 25.2506C99.3773 24.9349 99.6122 24.5284 99.7842 24.0309C100.005 23.3934 100.087 22.7338 100.031 22.0522C99.9963 21.6269 99.9255 21.2407 99.8188 20.8937C99.6956 20.4954 99.5148 20.1423 99.2765 19.8342C98.6761 19.0595 97.8606 18.6724 96.83 18.6729C96.0528 18.6734 95.3873 18.8903 94.8334 19.3237C94.5645 19.5344 94.332 19.7977 94.1359 20.1133C93.9432 20.4247 93.8024 20.753 93.7135 21.0981C93.4892 21.9715 93.4873 22.8439 93.7079 23.7155C93.8014 24.0848 93.9234 24.4011 94.0739 24.6646C94.2488 24.9708 94.4667 25.2356 94.7276 25.4592Z" fill="white"/>
<path d="M164.732 17.7793C165.601 18.5796 166.158 19.5776 166.402 20.7733C166.565 21.5713 166.617 22.349 166.557 23.1066C166.473 24.1524 166.156 25.1176 165.605 26.0024C165.151 26.7306 164.54 27.3102 163.772 27.7412C163.386 27.9581 162.95 28.1345 162.466 28.2702C161.233 28.6158 159.996 28.6298 158.755 28.3123C158.271 28.1884 157.833 28.0218 157.439 27.8124C156.352 27.2343 155.566 26.3734 155.08 25.2299C154.904 24.8141 154.772 24.3598 154.683 23.8671C154.558 23.1726 154.527 22.4618 154.589 21.7346C154.665 20.864 154.899 20.0547 155.293 19.3066C155.963 18.0354 156.974 17.165 158.327 16.6956C158.863 16.51 159.41 16.3965 159.968 16.3552C160.435 16.3206 160.904 16.326 161.377 16.3716C162.068 16.438 162.737 16.6132 163.383 16.8971C163.881 17.1159 164.331 17.41 164.732 17.7793ZM158.482 25.4414C158.993 25.8918 159.571 26.1396 160.214 26.1847C161.607 26.282 162.621 25.7881 163.255 24.703C163.482 24.3142 163.64 23.8704 163.729 23.3715C163.861 22.6438 163.839 21.91 163.664 21.1699C163.485 20.4104 163.127 19.805 162.59 19.3536C162.039 18.8907 161.371 18.6638 160.584 18.6729C159.81 18.6819 159.15 18.899 158.605 19.3244C158.335 19.5351 158.103 19.7981 157.908 20.1133C157.717 20.4209 157.576 20.7491 157.485 21.098C157.349 21.6183 157.296 22.1466 157.325 22.683C157.354 23.2127 157.437 23.6791 157.576 24.0821C157.759 24.618 158.061 25.0711 158.482 25.4414Z" fill="white"/>
<path d="M178.308 17.8319C179.104 18.5843 179.628 19.4988 179.882 20.5754C180.148 21.707 180.162 22.842 179.923 23.9803C179.57 25.6659 178.692 26.9155 177.289 27.7291C176.898 27.9555 176.465 28.1361 175.989 28.2709C174.51 28.691 173.053 28.6379 171.617 28.1114C170.268 27.6168 169.293 26.7261 168.693 25.4392C168.504 25.0338 168.356 24.5843 168.247 24.0906C167.98 22.8769 168.011 21.6719 168.34 20.4757C168.473 19.9887 168.649 19.5498 168.868 19.1591C169.366 18.2691 170.056 17.5803 170.938 17.0928C171.729 16.6557 172.592 16.4079 173.525 16.3495C174.004 16.3196 174.474 16.3284 174.935 16.3758C175.64 16.4485 176.321 16.6348 176.976 16.9348C177.469 17.1598 177.913 17.4588 178.308 17.8319ZM171.867 25.3132C172.411 25.8591 173.069 26.1527 173.842 26.194C175.019 26.2571 175.927 25.8603 176.566 25.0034C176.805 24.683 176.987 24.3228 177.111 23.9226C177.227 23.5466 177.296 23.1436 177.316 22.7136C177.348 22.0262 177.263 21.3925 177.059 20.8125C176.678 19.7231 175.979 19.0471 174.961 18.7846C174.499 18.6655 174.033 18.6391 173.563 18.7056C172.596 18.8423 171.854 19.369 171.336 20.2856C171.187 20.55 171.076 20.8298 171.002 21.125C170.75 22.1356 170.791 23.1322 171.125 24.1148C171.28 24.5729 171.528 24.9724 171.867 25.3132Z" fill="white"/>
<path d="M193.083 24.6539C193.094 24.6539 193.104 24.6573 193.113 24.6635C193.121 24.6698 193.128 24.6786 193.131 24.6887C193.23 24.9921 193.374 25.2489 193.563 25.4592C193.736 25.6524 193.97 25.814 194.265 25.9441C194.607 26.0941 194.969 26.1785 195.352 26.1975C195.761 26.2179 196.166 26.1885 196.568 26.1092C196.876 26.0485 197.139 25.9417 197.358 25.7888C197.452 25.7228 197.535 25.6191 197.607 25.4777C197.76 25.1767 197.773 24.9047 197.645 24.6617C197.552 24.4861 197.367 24.328 197.09 24.1875C196.832 24.0569 196.535 23.9454 196.199 23.8528C195.777 23.7365 195.171 23.5882 194.383 23.4078C194.03 23.3271 193.594 23.2042 193.077 23.039C192.708 22.9213 192.358 22.7668 192.027 22.5755C191.651 22.3581 191.355 22.1214 191.139 21.8656C190.839 21.5105 190.639 21.0933 190.537 20.6138C190.404 19.9944 190.417 19.4067 190.575 18.8509C190.726 18.3183 191.027 17.8569 191.478 17.4667C191.88 17.1197 192.372 16.8586 192.956 16.6834C193.648 16.476 194.424 16.3678 195.282 16.3588C196.08 16.3502 196.802 16.4535 197.449 16.6685C199.043 17.1992 200.003 18.3081 200.329 19.9951C200.331 20.0053 200.331 20.0158 200.328 20.0259C200.326 20.036 200.321 20.0453 200.314 20.0534C200.308 20.0614 200.3 20.0679 200.29 20.0723C200.281 20.0768 200.271 20.0791 200.26 20.0791H197.547C197.534 20.0791 197.521 20.0749 197.511 20.0671C197.501 20.0592 197.493 20.0482 197.49 20.0357C197.383 19.6711 197.194 19.3799 196.923 19.162C196.705 18.9883 196.403 18.8566 196.016 18.7668C195.373 18.6173 194.715 18.632 194.044 18.811C193.845 18.8637 193.676 18.9529 193.538 19.0787C193.396 19.2083 193.302 19.3664 193.257 19.5529C193.18 19.8686 193.275 20.1494 193.541 20.3952C193.687 20.53 193.943 20.6539 194.309 20.7669C194.609 20.86 194.912 20.9418 195.217 21.0126C195.893 21.1697 196.567 21.3332 197.239 21.5031C197.896 21.6688 198.463 21.8665 198.94 22.0963C199.515 22.373 199.943 22.7739 200.224 23.2989C200.432 23.6876 200.549 24.1431 200.575 24.6653C200.629 25.7547 200.238 26.6691 199.404 27.4087C199.041 27.73 198.57 27.9899 197.992 28.1884C197.399 28.3915 196.79 28.51 196.164 28.5437C195.393 28.5845 194.629 28.5266 193.872 28.3699C193.48 28.2883 193.104 28.1658 192.743 28.0025C192.368 27.8326 192.035 27.6232 191.744 27.3745C190.948 26.6967 190.476 25.8019 190.326 24.6902C190.325 24.6856 190.325 24.681 190.327 24.6766C190.328 24.6722 190.33 24.6681 190.333 24.6647C190.336 24.6613 190.34 24.6585 190.344 24.6566C190.348 24.6548 190.353 24.6538 190.357 24.6539H193.083Z" fill="white"/>
<path d="M111.56 24.8176C111.577 24.8712 111.593 24.8712 111.61 24.8176L114.173 16.5752C114.176 16.5653 114.182 16.5566 114.19 16.5505C114.198 16.5443 114.208 16.541 114.219 16.541L118.32 16.5325C118.324 16.5324 118.329 16.5333 118.334 16.5352C118.339 16.5371 118.343 16.5399 118.346 16.5435C118.35 16.5471 118.353 16.5513 118.355 16.556C118.357 16.5608 118.358 16.5658 118.358 16.5709V28.2944C118.358 28.3014 118.355 28.3081 118.35 28.3131C118.345 28.318 118.338 28.3208 118.332 28.3208H115.801C115.796 28.3208 115.792 28.3198 115.788 28.3181C115.783 28.3163 115.779 28.3136 115.776 28.3103C115.773 28.307 115.77 28.3031 115.769 28.2988C115.767 28.2945 115.766 28.2898 115.766 28.2852V19.2702C115.766 19.1985 115.755 19.1969 115.735 19.2652L112.984 28.2617C112.978 28.2788 112.968 28.2938 112.953 28.3045C112.939 28.3151 112.922 28.3208 112.904 28.3208H110.144C110.129 28.3208 110.115 28.3159 110.103 28.307C110.091 28.298 110.082 28.2853 110.078 28.2709C109.181 25.325 108.284 22.3822 107.387 19.4425C107.36 19.3542 107.343 19.2845 107.336 19.2332C107.335 19.2295 107.334 19.2259 107.333 19.2226C107.331 19.2193 107.329 19.2165 107.327 19.2144C107.324 19.2123 107.322 19.2109 107.32 19.2105C107.317 19.21 107.315 19.2105 107.313 19.2118C107.306 19.2166 107.303 19.2268 107.303 19.2424C107.303 22.1855 107.303 25.1285 107.303 28.0716C107.303 28.1086 107.301 28.139 107.296 28.1627C107.291 28.1869 107.291 28.2092 107.297 28.2296C107.315 28.3018 107.285 28.3345 107.206 28.3279C107.153 28.3231 107.124 28.3208 107.117 28.3208C106.333 28.3208 105.557 28.3208 104.79 28.3208C104.774 28.3208 104.758 28.3142 104.747 28.3026C104.735 28.291 104.729 28.2753 104.729 28.2588L104.733 16.5766C104.733 16.5719 104.734 16.5673 104.736 16.563C104.737 16.5587 104.74 16.5548 104.743 16.5514C104.747 16.5481 104.75 16.5455 104.755 16.5437C104.759 16.5419 104.764 16.541 104.768 16.541L108.96 16.5367C108.967 16.5367 108.974 16.5391 108.98 16.5434C108.985 16.5478 108.99 16.5539 108.992 16.561L111.56 24.8176Z" fill="white"/>
<path d="M123.651 23.9824L123.647 28.2723C123.647 28.2787 123.646 28.2849 123.643 28.2908C123.641 28.2966 123.637 28.3019 123.633 28.3063C123.629 28.3108 123.623 28.3143 123.618 28.3166C123.612 28.319 123.606 28.3201 123.6 28.32L121.069 28.3079C121.059 28.3079 121.05 28.3041 121.044 28.2973C121.037 28.2905 121.033 28.2813 121.033 28.2716L121.037 16.5731C121.037 16.5634 121.041 16.5542 121.048 16.5474C121.055 16.5406 121.064 16.5367 121.073 16.5367C122.938 16.5367 124.789 16.5367 126.627 16.5367C127.297 16.5367 127.765 16.564 128.031 16.6186C128.783 16.7715 129.412 17.1315 129.919 17.6988C130.231 18.0491 130.463 18.4571 130.616 18.9227C130.777 19.4145 130.846 19.9208 130.822 20.4415C130.8 20.919 130.695 21.3785 130.506 21.82C130.054 22.8771 129.267 23.5414 128.143 23.8129C127.839 23.886 127.389 23.9259 126.794 23.9325C125.758 23.9439 124.722 23.9485 123.686 23.9461C123.677 23.9461 123.668 23.9499 123.661 23.9567C123.655 23.9635 123.651 23.9728 123.651 23.9824ZM123.676 21.7196C124.606 21.7295 125.506 21.7303 126.375 21.7217C126.779 21.7179 127.072 21.6828 127.254 21.6163C127.569 21.5005 127.806 21.3016 127.964 21.0197C128.167 20.657 128.215 20.2564 128.109 19.8178C127.994 19.3445 127.697 19.0241 127.219 18.8565C127.038 18.7934 126.78 18.7618 126.445 18.7618C125.529 18.7618 124.609 18.7618 123.686 18.7618C123.681 18.7618 123.676 18.7628 123.671 18.7648C123.666 18.7668 123.662 18.7697 123.658 18.7733C123.655 18.7769 123.652 18.7812 123.65 18.786C123.648 18.7907 123.647 18.7958 123.647 18.801L123.651 21.6947C123.651 21.7013 123.654 21.7076 123.658 21.7123C123.663 21.717 123.669 21.7196 123.676 21.7196Z" fill="white"/>
<path d="M133.821 27.2157C132.836 26.3133 132.342 25.1805 132.339 23.8172C132.333 21.42 132.333 19.0053 132.339 16.5731C132.339 16.5634 132.343 16.5542 132.35 16.5474C132.356 16.5406 132.365 16.5367 132.375 16.5367H134.965C134.975 16.5367 134.984 16.5406 134.991 16.5474C134.998 16.5542 135.001 16.5634 135.001 16.5731C134.993 18.9038 134.998 21.219 135.015 23.5189C135.018 23.985 135.054 24.3344 135.123 24.567C135.34 25.306 135.829 25.8038 136.588 26.0601C136.956 26.1844 137.347 26.2286 137.76 26.1925C138.173 26.1569 138.542 26.048 138.868 25.8657C139.561 25.4779 139.947 24.8366 140.027 23.9418C140.033 23.8758 140.03 23.8113 140.016 23.7481C139.999 23.6646 139.991 23.6022 139.991 23.5609C139.991 21.2487 139.991 18.9194 139.991 16.5731C139.991 16.5634 139.995 16.5542 140.002 16.5474C140.008 16.5406 140.017 16.5367 140.027 16.5367L142.622 16.5325C142.632 16.5325 142.641 16.5361 142.647 16.5426C142.654 16.5492 142.658 16.558 142.658 16.5674C142.68 18.9398 142.68 21.3123 142.659 23.6848C142.655 24.1594 142.621 24.5416 142.557 24.8311C142.266 26.1488 141.55 27.1355 140.408 27.791C140.021 28.0136 139.585 28.1878 139.102 28.3136C137.785 28.6568 136.483 28.5821 135.195 28.0894C134.713 27.9047 134.255 27.6135 133.821 27.2157Z" fill="white"/>
<path d="M150.507 18.8729C150.501 18.8729 150.496 18.874 150.49 18.8762C150.485 18.8784 150.48 18.8816 150.476 18.8856C150.472 18.8897 150.469 18.8944 150.467 18.8997C150.465 18.905 150.464 18.9106 150.464 18.9163V28.2816C150.464 28.2867 150.463 28.2918 150.461 28.2966C150.459 28.3013 150.456 28.3057 150.452 28.3093C150.449 28.3129 150.445 28.3158 150.44 28.3178C150.435 28.3197 150.43 28.3208 150.425 28.3208L147.838 28.3165C147.831 28.3165 147.824 28.3151 147.817 28.3123C147.811 28.3096 147.805 28.3055 147.8 28.3004C147.795 28.2953 147.791 28.2893 147.788 28.2826C147.785 28.276 147.784 28.2689 147.784 28.2617V18.9178C147.784 18.9081 147.78 18.8989 147.773 18.8921C147.767 18.8853 147.757 18.8814 147.748 18.8814L144.174 18.8822C144.164 18.8822 144.155 18.8784 144.149 18.8717C144.142 18.8651 144.138 18.856 144.138 18.8466L144.13 16.5681C144.13 16.5598 144.133 16.5518 144.139 16.5459C144.145 16.54 144.153 16.5367 144.161 16.5367H154.112C154.122 16.5367 154.131 16.5406 154.138 16.5476C154.145 16.5545 154.149 16.5639 154.149 16.5738V18.8216C154.149 18.8301 154.147 18.8385 154.144 18.8463C154.141 18.8541 154.136 18.8612 154.13 18.8672C154.124 18.8732 154.117 18.8779 154.109 18.881C154.102 18.8842 154.094 18.8858 154.085 18.8857L150.507 18.8729Z" fill="white"/>
<path d="M185.981 25.9675C187.206 25.9718 188.432 25.973 189.658 25.9711C189.662 25.9711 189.667 25.972 189.671 25.9738C189.676 25.9756 189.679 25.9782 189.683 25.9815C189.686 25.9848 189.689 25.9887 189.69 25.9931C189.692 25.9974 189.693 26.002 189.693 26.0067V28.2802C189.693 28.2909 189.689 28.3013 189.681 28.3089C189.674 28.3165 189.663 28.3208 189.653 28.3208L181.719 28.3072C181.71 28.3072 181.701 28.3035 181.694 28.2968C181.688 28.2902 181.684 28.2811 181.684 28.2716C181.661 26.3558 181.657 25.2151 181.671 24.8496C181.684 24.5307 181.687 24.2648 181.682 24.0522C181.674 23.7417 181.67 23.5848 181.67 23.5815C181.665 21.2575 181.67 18.9216 181.684 16.5738C181.684 16.5639 181.688 16.5545 181.695 16.5476C181.702 16.5406 181.711 16.5367 181.721 16.5367H184.311C184.322 16.5367 184.332 16.5409 184.339 16.5484C184.347 16.5559 184.351 16.566 184.351 16.5766L184.355 25.8913C184.355 25.9031 184.357 25.9148 184.362 25.9257C184.367 25.9365 184.374 25.9463 184.382 25.9544C184.391 25.9624 184.401 25.9687 184.412 25.9726C184.423 25.9766 184.435 25.9783 184.447 25.9775C184.774 25.9557 185.084 25.9481 185.376 25.9547C185.772 25.9632 185.974 25.9675 185.981 25.9675Z" fill="white"/>
<path d="M94.7277 25.4592C94.4668 25.2356 94.2489 24.9707 94.0739 24.6645C93.9235 24.4011 93.8015 24.0847 93.7079 23.7154C93.4874 22.8439 93.4893 21.9714 93.7136 21.098C93.8024 20.7529 93.9432 20.4247 94.136 20.1133C94.3321 19.7976 94.5646 19.5344 94.8335 19.3236C95.3873 18.8903 96.0529 18.6733 96.83 18.6729C97.8606 18.6724 98.6761 19.0595 99.2765 19.8342C99.5149 20.1422 99.6957 20.4954 99.8189 20.8937C99.9256 21.2407 99.9964 21.6268 100.031 22.0521C100.087 22.7338 100.005 23.3933 99.7843 24.0308C99.6122 24.5283 99.3774 24.9349 99.0798 25.2505C98.556 25.8064 97.8649 26.1178 97.0064 26.1847C96.1304 26.2531 95.3709 26.0112 94.7277 25.4592Z" fill="black"/>
<path d="M158.482 25.4414C158.061 25.0711 157.759 24.618 157.576 24.0821C157.437 23.6791 157.354 23.2127 157.325 22.683C157.296 22.1466 157.349 21.6183 157.485 21.098C157.576 20.7491 157.717 20.4209 157.908 20.1133C158.103 19.7981 158.335 19.5351 158.605 19.3244C159.15 18.8991 159.81 18.6819 160.584 18.6729C161.371 18.6638 162.039 18.8907 162.59 19.3536C163.127 19.805 163.485 20.4104 163.664 21.1699C163.839 21.91 163.861 22.6438 163.729 23.3715C163.64 23.8704 163.482 24.3142 163.255 24.703C162.621 25.7881 161.607 26.282 160.214 26.1847C159.571 26.1396 158.993 25.8919 158.482 25.4414Z" fill="black"/>
<path d="M171.867 25.3132C171.528 24.9724 171.28 24.5729 171.125 24.1149C170.791 23.1323 170.75 22.1357 171.002 21.1251C171.076 20.8298 171.187 20.55 171.336 20.2856C171.854 19.369 172.596 18.8423 173.563 18.7056C174.033 18.6392 174.499 18.6655 174.961 18.7846C175.979 19.0471 176.678 19.7231 177.059 20.8125C177.263 21.3926 177.348 22.0263 177.316 22.7136C177.296 23.1437 177.227 23.5467 177.111 23.9226C176.987 24.3228 176.805 24.6831 176.566 25.0035C175.927 25.8603 175.019 26.2571 173.842 26.194C173.069 26.1527 172.411 25.8591 171.867 25.3132Z" fill="black"/>
<path d="M123.676 21.7196C123.669 21.7196 123.663 21.717 123.658 21.7123C123.654 21.7076 123.651 21.7013 123.651 21.6947L123.647 18.801C123.647 18.7959 123.648 18.7908 123.65 18.786C123.652 18.7813 123.655 18.7769 123.658 18.7733C123.662 18.7697 123.666 18.7668 123.671 18.7648C123.676 18.7629 123.681 18.7618 123.686 18.7618C124.609 18.7618 125.529 18.7618 126.445 18.7618C126.78 18.7618 127.038 18.7934 127.219 18.8565C127.697 19.0241 127.994 19.3445 128.109 19.8178C128.215 20.2564 128.167 20.657 127.964 21.0197C127.806 21.3016 127.569 21.5005 127.254 21.6163C127.072 21.6828 126.779 21.7179 126.375 21.7217C125.506 21.7303 124.606 21.7296 123.676 21.7196Z" fill="black"/>
</g>
<defs>
<clipPath id="clip0_252_3185">
<rect width="234" height="45" fill="white"/>
</clipPath>
</defs>
</svg>
