<svg width="256" height="95" viewBox="0 0 256 95" fill="none" xmlns="http://www.w3.org/2000/svg">
<path d="M43.8758 46.5936C43.8402 46.6288 43.792 46.6484 43.7416 46.6479C43.6913 46.6474 43.6429 46.627 43.607 46.591L29.1353 32.0766C29.0176 31.9602 29.0414 31.902 29.207 31.902H58.3833C58.4994 31.902 58.5164 31.9431 58.4345 32.0252L43.8758 46.5936Z" fill="white"/>
<path d="M92.7668 59.1028C92.5961 59.2877 92.4101 59.458 92.2087 59.6138C89.5582 61.6576 86.6185 62.8515 83.3895 63.1955C82.7853 63.2589 81.0795 63.2905 78.272 63.2905C76.2206 63.2905 74.1675 63.2905 72.1127 63.2905C72.0658 63.2905 72.0209 63.2719 71.9878 63.2386C71.9546 63.2054 71.936 63.1604 71.936 63.1134V32.1023C71.936 32.0503 71.9567 32.0004 71.9936 31.9634C72.0305 31.9264 72.0806 31.9053 72.1332 31.9046C75.0567 31.8806 77.9145 31.8883 80.7066 31.9277C82.5703 31.9551 84.0099 32.086 85.0253 32.3205C86.4487 32.6509 87.8166 33.1636 89.129 33.8585C94.2439 36.5664 96.9822 40.8354 97.344 46.6655C97.4174 47.8603 97.3637 49.1458 97.1828 50.522C96.7663 53.6596 95.4641 56.335 93.2762 58.5482C93.2421 58.5842 93.0722 58.7691 92.7668 59.1028ZM79.424 57.2722C79.5425 57.1985 79.6807 57.1619 79.8208 57.1669C83.0021 57.3055 85.5433 56.424 87.4445 54.5223C88.1033 53.8633 88.6264 53.087 89.0138 52.1935C89.3978 51.3103 89.6529 50.3936 89.7792 49.4436C89.9516 48.1325 89.9388 46.7956 89.7408 45.4331C89.5326 44.009 89.0539 42.7346 88.3047 41.61C86.767 39.306 84.5108 38.113 81.536 38.0308C80.768 38.0103 80 38 79.232 38C79.1981 38 79.1655 38.0135 79.1415 38.0376C79.1175 38.0617 79.104 38.0943 79.104 38.1284V56.9974C79.104 57.0432 79.1121 57.0869 79.1276 57.1255C79.1431 57.1641 79.1656 57.1967 79.1936 57.2208C79.2824 57.2961 79.3592 57.3132 79.424 57.2722Z" fill="white"/>
<path d="M135.183 42.8014L139.156 42.8142C139.202 42.8142 139.246 42.8323 139.278 42.8646C139.31 42.8968 139.328 42.9406 139.328 42.9862V47.9185C139.328 47.9773 139.304 48.0338 139.262 48.0756C139.22 48.1174 139.163 48.1412 139.103 48.1419L135.214 48.1573C135.168 48.1573 135.124 48.176 135.091 48.2092C135.058 48.2424 135.04 48.2875 135.04 48.3345V63.1801C135.04 63.2217 135.023 63.2615 134.993 63.2909C134.964 63.3203 134.923 63.3368 134.881 63.3368L128.663 63.3393C128.623 63.3393 128.585 63.3234 128.556 63.295C128.528 63.2666 128.512 63.228 128.512 63.1878V48.3396C128.512 48.291 128.493 48.2444 128.46 48.2098C128.426 48.1752 128.381 48.1554 128.333 48.1547L126.252 48.1419C126.218 48.1419 126.186 48.1284 126.162 48.1044C126.138 48.0804 126.124 48.0478 126.124 48.0135L126.098 43.0222C126.098 42.967 126.119 42.9141 126.156 42.8751C126.194 42.8361 126.245 42.8142 126.298 42.8142H128.312C128.365 42.8142 128.416 42.7931 128.453 42.7555C128.491 42.718 128.512 42.667 128.512 42.6139V32.0535C128.512 32.027 128.522 32.0015 128.54 31.9827C128.559 31.9639 128.583 31.9534 128.609 31.9534L134.863 31.9457C134.88 31.9457 134.897 31.9492 134.913 31.956C134.929 31.9629 134.944 31.9729 134.956 31.9855C134.968 31.9982 134.977 32.0132 134.984 32.0297C134.991 32.0462 134.994 32.0639 134.994 32.0818L135.055 42.6704C135.056 42.7049 135.07 42.7378 135.094 42.7623C135.117 42.7867 135.15 42.8007 135.183 42.8014Z" fill="white"/>
<path d="M180.593 57.8473C179.087 57.8387 177.583 57.8396 176.079 57.8498C176.042 57.8498 176.004 57.8613 175.973 57.8828C175.942 57.9043 175.917 57.9348 175.903 57.9705L173.878 63.1031C173.856 63.1584 173.818 63.2058 173.769 63.2392C173.72 63.2726 173.663 63.2905 173.604 63.2905H166.63C166.608 63.2907 166.586 63.2855 166.567 63.2753C166.547 63.2651 166.53 63.2503 166.518 63.2321C166.505 63.2138 166.497 63.1928 166.494 63.1707C166.492 63.1487 166.494 63.1264 166.502 63.1056L178.145 32.1048C178.159 32.0686 178.183 32.0374 178.214 32.0154C178.245 31.9933 178.282 31.9816 178.319 31.9816L186.145 31.9662C186.207 31.9662 186.267 31.9854 186.318 32.0212C186.369 32.057 186.408 32.1077 186.429 32.1665L197.804 63.1056C197.811 63.1263 197.813 63.1484 197.811 63.1702C197.808 63.192 197.8 63.2127 197.788 63.2306C197.775 63.2485 197.759 63.2631 197.74 63.2731C197.721 63.2831 197.7 63.2882 197.678 63.2879L190.574 63.2443C190.537 63.2441 190.501 63.2323 190.47 63.2102C190.44 63.1882 190.416 63.1571 190.403 63.121L188.475 57.9371C188.462 57.9024 188.439 57.8725 188.408 57.8513C188.376 57.8302 188.339 57.8189 188.301 57.819C185.731 57.8515 183.161 57.861 180.593 57.8473ZM182.09 39.6355L177.833 52.5093C177.828 52.5236 177.827 52.5389 177.829 52.5538C177.831 52.5688 177.837 52.583 177.846 52.5953C177.854 52.6076 177.866 52.6177 177.879 52.6246C177.893 52.6315 177.908 52.6351 177.923 52.6351H186.504C186.526 52.635 186.548 52.6296 186.567 52.6194C186.587 52.6093 186.604 52.5946 186.617 52.5766C186.63 52.5586 186.639 52.5377 186.642 52.5158C186.645 52.4938 186.644 52.4714 186.637 52.4502L182.303 39.6355C182.231 39.4233 182.16 39.4233 182.09 39.6355Z" fill="white"/>
<path d="M223.634 42.8013L227.505 42.8116C227.532 42.8116 227.559 42.817 227.584 42.8274C227.609 42.8379 227.632 42.8532 227.651 42.8725C227.671 42.8918 227.686 42.9147 227.696 42.94C227.707 42.9652 227.712 42.9922 227.712 43.0195V47.9981C227.712 48.0362 227.697 48.0728 227.67 48.0997C227.643 48.1267 227.607 48.1418 227.569 48.1418H223.644C223.617 48.1418 223.591 48.1472 223.566 48.1577C223.541 48.1681 223.518 48.1834 223.499 48.2028C223.48 48.2221 223.465 48.245 223.455 48.2702C223.445 48.2955 223.439 48.3225 223.439 48.3498L223.485 63.0722C223.486 63.1074 223.479 63.1423 223.465 63.1747C223.452 63.2072 223.432 63.2365 223.406 63.261C223.381 63.2855 223.351 63.3046 223.318 63.3172C223.285 63.3298 223.249 63.3355 223.214 63.3341C221.216 63.2537 219.175 63.2605 217.093 63.3547C217.068 63.3557 217.042 63.3516 217.018 63.3425C216.994 63.3334 216.973 63.3196 216.954 63.3018C216.936 63.2841 216.921 63.2628 216.911 63.2392C216.901 63.2156 216.896 63.1903 216.896 63.1647V32.0945C216.896 32.0476 216.914 32.0025 216.947 31.9693C216.98 31.936 217.024 31.9174 217.07 31.9174L223.229 31.902C223.293 31.902 223.355 31.9276 223.401 31.9733C223.446 32.0189 223.472 32.081 223.473 32.1459L223.503 42.6729C223.503 42.7065 223.517 42.7388 223.541 42.7628C223.566 42.7868 223.599 42.8006 223.634 42.8013Z" fill="white"/>
<path d="M42.7904 47.5077C42.8062 47.5239 42.8188 47.543 42.8272 47.564C42.8357 47.585 42.8399 47.6075 42.8397 47.6302C42.8394 47.6529 42.8347 47.6753 42.8258 47.6961C42.8169 47.7169 42.804 47.7358 42.7878 47.7516L28.2573 62.2943C28.1583 62.3953 28.1096 62.3748 28.1113 62.2327C28.125 60.877 28.1276 59.5436 28.119 58.2324C28.1071 56.5806 28.1062 55.2464 28.1165 54.2296C28.1847 47.1243 28.1839 40.0729 28.1139 33.0754C28.1122 32.8375 28.1941 32.8024 28.3597 32.9701L42.7904 47.5077Z" fill="white"/>
<path d="M52.8896 39.5893C52.8723 39.5719 52.8586 39.5511 52.8494 39.5282C52.8401 39.5054 52.8355 39.4808 52.8357 39.456C52.8359 39.4312 52.8411 39.4067 52.8507 39.3837C52.8604 39.3608 52.8745 39.3399 52.8922 39.3223L59.2179 32.9419C59.3442 32.8152 59.4082 32.8409 59.4099 33.0189L59.456 45.9312C59.4577 46.1195 59.3929 46.1478 59.2615 46.016L52.8896 39.5893Z" fill="white"/>
<path d="M59.1153 47.5709L51.9433 40.3777C51.9134 40.3476 51.8647 40.3476 51.8347 40.3777L44.6772 47.5564C44.6472 47.5865 44.6472 47.6352 44.6772 47.6653L51.8492 54.8585C51.8792 54.8886 51.9278 54.8886 51.9578 54.8585L59.1153 47.6798C59.1453 47.6497 59.1453 47.601 59.1153 47.5709Z" fill="white"/>
<path d="M116.262 45.4947C116.394 44.6697 116.403 43.8472 116.291 43.0273C116.287 43.0008 116.289 42.9739 116.297 42.9483C116.304 42.9227 116.317 42.899 116.335 42.8788C116.352 42.8586 116.374 42.8424 116.398 42.8313C116.422 42.8201 116.448 42.8143 116.475 42.8142H121.987C122.036 42.8141 122.083 42.833 122.119 42.8669C122.155 42.9008 122.176 42.9472 122.179 42.9965C122.24 44.0885 122.26 45.1892 122.237 46.2984C122.196 48.4363 122.176 49.5369 122.176 49.6003C122.176 54.0524 122.176 58.573 122.176 63.1621C122.176 63.1964 122.162 63.2294 122.138 63.2538C122.114 63.2783 122.08 63.2924 122.045 63.2931L116.508 63.3367C116.48 63.3372 116.452 63.3317 116.426 63.3207C116.4 63.3098 116.377 63.2935 116.358 63.2729C116.338 63.2524 116.324 63.2281 116.314 63.2015C116.305 63.1749 116.301 63.1466 116.303 63.1185C116.384 62.1274 116.367 61.1406 116.255 60.1581C116.244 60.0759 116.218 60.0716 116.175 60.1453C114.793 62.5057 112.719 63.7869 109.952 63.9889C108.273 64.1121 106.685 63.7946 105.19 63.0363C102.528 61.6875 100.745 59.6968 99.84 57.0642C99.2802 55.4346 99.0951 53.734 99.2845 51.9624C99.4688 50.2182 99.9595 48.6194 100.756 47.1662C102.059 44.7903 104.027 43.2438 106.662 42.5266C108.477 42.0336 110.162 41.9985 111.718 42.4213C113.483 42.9023 114.965 43.9353 116.163 45.5204C116.215 45.5889 116.249 45.5803 116.262 45.4947ZM110.641 58.4327C111.332 58.4302 112.015 58.2887 112.652 58.016C113.289 57.7433 113.868 57.3448 114.354 56.8434C114.841 56.342 115.226 55.7474 115.488 55.0935C115.75 54.4397 115.883 53.7394 115.881 53.0327C115.878 52.3259 115.74 51.6266 115.474 50.9746C115.207 50.3226 114.818 49.7307 114.328 49.2327C113.838 48.7347 113.257 48.3403 112.618 48.0721C111.979 47.8039 111.295 47.667 110.604 47.6695C109.913 47.6719 109.23 47.8135 108.593 48.0862C107.956 48.3588 107.378 48.7573 106.891 49.2587C106.405 49.7602 106.02 50.3548 105.758 51.0086C105.496 51.6625 105.362 52.3628 105.365 53.0695C105.367 53.7762 105.505 54.4755 105.772 55.1275C106.038 55.7795 106.428 56.3714 106.918 56.8695C107.408 57.3675 107.989 57.7618 108.628 58.0301C109.267 58.2983 109.951 58.4351 110.641 58.4327Z" fill="white"/>
<path d="M155.643 62.3765C155.061 62.9089 154.396 63.294 153.649 63.5319C151.708 64.1464 149.832 64.1884 148.019 63.6577C146.456 63.199 145.02 62.3132 143.711 61.0003C141.016 58.2975 140.067 54.8459 140.864 50.6453C141.547 47.0456 143.391 44.5465 146.396 43.148C148.06 42.3743 149.716 42.0337 151.365 42.1261C153.756 42.2613 155.778 43.3551 157.43 45.4075C157.607 45.6266 157.696 45.5949 157.696 45.3125V43.0504C157.696 43.0194 157.702 42.9887 157.714 42.9601C157.726 42.9314 157.743 42.9053 157.765 42.8834C157.787 42.8615 157.813 42.8441 157.841 42.8322C157.87 42.8203 157.901 42.8142 157.931 42.8142H163.415C163.437 42.8142 163.459 42.8186 163.48 42.8271C163.5 42.8356 163.519 42.8481 163.534 42.8639C163.55 42.8796 163.563 42.8983 163.571 42.9188C163.58 42.9394 163.584 42.9614 163.584 42.9837V63.1442C163.584 63.1946 163.563 63.2429 163.527 63.2786C163.49 63.3142 163.441 63.3342 163.389 63.3342L157.88 63.3368C157.831 63.3368 157.784 63.3181 157.75 63.2849C157.715 63.2517 157.696 63.2066 157.696 63.1596V60.3995C157.696 59.9716 157.59 59.9433 157.379 60.3148C157.153 60.7085 156.889 61.0756 156.585 61.4163C156.264 61.7757 155.95 62.0958 155.643 62.3765ZM152.111 58.4314C152.802 58.4156 153.482 58.2609 154.114 57.976C154.746 57.6911 155.316 57.2816 155.793 56.7709C156.27 56.2602 156.644 55.6583 156.893 54.9995C157.142 54.3407 157.263 53.638 157.247 52.9315C157.214 51.5046 156.629 50.1487 155.621 49.1621C154.612 48.1756 153.262 47.6392 151.868 47.6709C151.178 47.6866 150.497 47.8413 149.866 48.1262C149.234 48.4111 148.663 48.8206 148.186 49.3313C147.71 49.842 147.336 50.444 147.086 51.1027C146.837 51.7615 146.717 52.4642 146.733 53.1708C146.765 54.5977 147.35 55.9536 148.359 56.9401C149.367 57.9267 150.717 58.4631 152.111 58.4314Z" fill="white"/>
<path d="M206.869 47.5026C207.285 46.847 207.694 46.1863 208.095 45.5204C209.131 43.8019 210.656 42.9032 212.672 42.8245C213.425 42.7954 214.176 42.8048 214.925 42.8527C214.962 42.8553 214.997 42.8708 215.023 42.8961C215.049 42.9213 215.063 42.9544 215.063 42.9888L215.117 48.0084C215.117 48.0434 215.103 48.0769 215.077 48.1019C215.052 48.1269 215.017 48.1412 214.981 48.1419C214.215 48.1505 213.452 48.1299 212.693 48.0803C210.523 47.9399 208.9 48.6931 207.823 50.3397C207.134 51.3959 206.788 52.7173 206.787 54.3041C206.785 57.2568 206.784 60.2026 206.784 63.1416C206.784 63.1639 206.78 63.1859 206.771 63.2065C206.762 63.227 206.75 63.2457 206.734 63.2615C206.718 63.2772 206.699 63.2897 206.678 63.2982C206.657 63.3067 206.635 63.3111 206.613 63.3111L200.497 63.3573C200.465 63.3577 200.434 63.3519 200.405 63.3403C200.376 63.3287 200.349 63.3115 200.327 63.2898C200.304 63.2681 200.287 63.2422 200.274 63.2137C200.262 63.1852 200.256 63.1546 200.256 63.1237L200.207 42.9888C200.207 42.9662 200.212 42.9438 200.22 42.923C200.229 42.9021 200.241 42.8831 200.257 42.8672C200.273 42.8512 200.291 42.8385 200.312 42.8299C200.332 42.8212 200.354 42.8168 200.376 42.8168L206.607 42.8579C206.642 42.8585 206.676 42.8725 206.701 42.8969C206.726 42.9213 206.74 42.9543 206.741 42.9888L206.799 47.482C206.801 47.5676 206.824 47.5745 206.869 47.5026Z" fill="white"/>
<path d="M43.6659 48.6144C43.7006 48.5797 43.7477 48.5603 43.797 48.5603C43.8463 48.5603 43.8939 48.5797 43.9296 48.6144L50.2886 54.964C50.4371 55.1112 50.4064 55.1848 50.1964 55.1848L37.3734 55.1565C37.1703 55.1548 37.1404 55.0838 37.2838 54.9434L43.6659 48.6144Z" fill="white"/>
<path d="M59.4355 55.7419C59.468 58.1041 59.4739 60.545 59.4535 63.0646C59.4528 63.1241 59.429 63.1809 59.3873 63.2227C59.3456 63.2646 59.2894 63.288 59.2307 63.288L45.4375 63.229C45.3521 63.229 45.3402 63.1973 45.4016 63.134L59.2563 49.21C59.3826 49.0817 59.4475 49.1082 59.4509 49.2896C59.468 50.4125 59.468 51.4883 59.4509 52.5171C59.4287 53.8368 59.4236 54.9118 59.4355 55.7419Z" fill="white"/>
<path d="M43.6813 63.0852C43.5483 63.2167 43.3681 63.2905 43.1795 63.2906H29.1609C29.0278 63.2906 29.0082 63.2427 29.102 63.1468L35.7222 56.5096C35.7701 56.4616 35.8266 56.4235 35.8886 56.3975C35.9505 56.3715 36.0166 56.3581 36.0832 56.3582H50.263C50.3978 56.3582 50.4175 56.4061 50.3219 56.5019L43.6813 63.0852Z" fill="white"/>
</svg>
