<svg width="256" height="77" viewBox="0 0 256 77" fill="none" xmlns="http://www.w3.org/2000/svg">
<path d="M82.8394 26.6002C84.7722 26.6997 86.6872 26.7033 88.5845 26.6109C88.6183 26.6091 88.652 26.6141 88.6837 26.6254C88.7154 26.6368 88.7444 26.6543 88.7688 26.6769C88.7932 26.6995 88.8125 26.7267 88.8256 26.7568C88.8386 26.7869 88.8452 26.8192 88.8448 26.8519L88.8064 29.6013C88.8062 29.63 88.7999 29.6585 88.7877 29.6848C88.7756 29.7112 88.758 29.7349 88.7359 29.7546C88.7137 29.7744 88.6876 29.7897 88.659 29.7996C88.6304 29.8095 88.6 29.8139 88.5696 29.8124C86.6396 29.7214 84.7388 29.7314 82.8672 29.8423C82.8383 29.8439 82.8112 29.8563 82.7914 29.877C82.7715 29.8976 82.7605 29.9249 82.7605 29.9532L82.72 50.5086C82.72 50.5482 82.7045 50.5862 82.6768 50.6142C82.6492 50.6422 82.6118 50.6579 82.5728 50.6579H79.2405C79.1873 50.6579 79.1363 50.6368 79.0987 50.5992C79.0611 50.5616 79.04 50.5106 79.04 50.4574V30.0535C79.04 30.0143 79.0322 29.9754 79.0172 29.9392C79.0022 29.903 78.9802 29.87 78.9525 29.8423C78.9247 29.8146 78.8918 29.7926 78.8556 29.7776C78.8193 29.7626 78.7805 29.7549 78.7413 29.7549H76.0554C76.009 29.755 75.9642 29.7376 75.9299 29.706C75.8955 29.6744 75.8741 29.631 75.8698 29.5842C75.7717 28.5547 75.7625 27.6212 75.8421 26.7836C75.8453 26.7537 75.859 26.7261 75.8807 26.706C75.9023 26.6859 75.9304 26.6748 75.9594 26.6749L78.7925 26.6621C78.8583 26.6615 78.9212 26.6354 78.9676 26.5895C79.0139 26.5435 79.0399 26.4814 79.04 26.4168C79.0371 25.3233 79.1175 24.2625 79.281 23.2344C79.5953 21.2735 80.4451 19.7065 81.8304 18.5333C82.7477 17.7584 83.8499 17.2223 85.137 16.9251C86.3189 16.6521 87.5704 16.5824 88.8917 16.716C88.9835 16.7255 89.0685 16.7685 89.1304 16.8366C89.1923 16.9048 89.2265 16.9933 89.2266 17.085V19.7619C89.2267 19.8054 89.2172 19.8484 89.1988 19.8878C89.1804 19.9272 89.1536 19.9621 89.1202 19.99C89.0868 20.0179 89.0477 20.0381 89.0056 20.0492C88.9636 20.0603 88.9196 20.062 88.8768 20.0541C87.2568 19.7555 85.8666 20.0413 84.7061 20.9116C84.0263 21.4207 83.5185 22.1238 83.1829 23.0211C82.7733 24.116 82.6204 25.2721 82.7242 26.4893C82.7268 26.5189 82.7399 26.5465 82.7612 26.567C82.7824 26.5874 82.8102 26.5992 82.8394 26.6002Z" fill="white"/>
<path d="M99.7462 29.9831C99.7305 34.0485 99.727 38.114 99.7355 42.1794C99.7384 43.1634 99.9261 44.087 100.299 44.9501C100.688 45.8531 101.268 46.5548 102.037 47.0553C103.204 47.8147 104.548 48.0436 106.072 47.7422C106.098 47.7368 106.126 47.7375 106.153 47.7443C106.179 47.751 106.204 47.7636 106.225 47.7811C106.246 47.7986 106.263 47.8207 106.275 47.8457C106.287 47.8706 106.293 47.8979 106.293 47.9256V50.9096C106.293 50.972 106.27 51.0322 106.229 51.0786C106.188 51.125 106.131 51.1545 106.069 51.1613C105.392 51.2409 104.753 51.2658 104.152 51.236C103.536 51.2047 102.904 51.1265 102.255 51.0013C99.567 50.4823 97.7131 48.9281 96.6934 46.3387C96.2041 45.0959 95.9574 43.6917 95.9531 42.1261C95.9403 38.0777 95.951 34.0571 95.9851 30.0641C95.9854 30.0376 95.9804 30.0113 95.9705 29.9868C95.9605 29.9622 95.9458 29.9398 95.9271 29.921C95.9085 29.9021 95.8863 29.8872 95.8618 29.877C95.8373 29.8668 95.8111 29.8615 95.7846 29.8615H93.0176C92.9633 29.8615 92.9112 29.8404 92.8728 29.8028C92.8344 29.7652 92.8128 29.7142 92.8128 29.661L92.8 26.7858C92.8001 26.7522 92.8142 26.72 92.8393 26.696C92.8645 26.6721 92.8986 26.6584 92.9344 26.6578L95.9361 26.6023C95.9632 26.6023 95.9893 26.5904 96.0085 26.5692C96.0277 26.548 96.0384 26.5193 96.0384 26.4893L96.0128 19.8174C96.0128 19.7919 96.0179 19.7667 96.0278 19.7431C96.0377 19.7196 96.0521 19.6982 96.0703 19.6801C96.0886 19.6621 96.1102 19.6478 96.134 19.6381C96.1578 19.6283 96.1833 19.6233 96.2091 19.6233H99.6267C99.655 19.6233 99.6821 19.6345 99.7021 19.6545C99.7221 19.6745 99.7334 19.7017 99.7334 19.7299L99.7206 26.5149C99.7206 26.5437 99.7316 26.5714 99.7512 26.5918C99.7708 26.6122 99.7974 26.6237 99.8251 26.6237L105.641 26.6599C105.686 26.6599 105.73 26.6779 105.763 26.7099C105.795 26.7419 105.813 26.7853 105.813 26.8306V29.6461C105.813 29.6995 105.792 29.7507 105.754 29.7886C105.716 29.8266 105.665 29.8482 105.611 29.8487L99.855 29.8743C99.8261 29.8743 99.7985 29.8858 99.7781 29.9062C99.7576 29.9266 99.7462 29.9542 99.7462 29.9831Z" fill="white"/>
<path d="M34.3082 47.8594C35.7916 48.0329 37.0979 47.7883 38.2272 47.1257C39.1089 46.6066 39.6224 45.8651 39.7674 44.901C39.8784 44.1615 39.7319 43.4847 39.328 42.8704C38.9354 42.2717 38.3772 41.7925 37.6533 41.4328C36.0675 40.645 34.7121 40.0442 33.5872 39.6304C32.5319 39.2422 31.5271 38.7609 30.5728 38.1864C29.4108 37.4868 28.5646 36.7786 28.0341 36.062C27.2803 35.0438 26.9134 33.8657 26.9333 32.5276C26.9603 30.6478 27.6316 29.1149 28.9472 27.929C29.7792 27.1768 30.8181 26.6236 32.064 26.2695C35.4944 25.2926 38.7221 25.7121 41.7472 27.528C42.1198 27.7527 42.4746 28.0591 42.8117 28.4473C42.8335 28.4721 42.8473 28.5026 42.8511 28.5344C42.8549 28.5661 42.8486 28.5976 42.833 28.6243L41.3696 31.1689C41.3585 31.1886 41.343 31.2055 41.3243 31.2185C41.3055 31.2314 41.2839 31.2401 41.2608 31.2439C41.2378 31.2478 41.2138 31.2467 41.1906 31.2407C41.1674 31.2348 41.1455 31.2241 41.1264 31.2095C39.0826 29.6382 36.8938 28.94 34.56 29.1149C33.782 29.1732 33.0816 29.3687 32.4586 29.7015C31.8044 30.0499 31.3258 30.517 31.0229 31.1028C30.6759 31.7697 30.6041 32.4793 30.8074 33.2315C30.9511 33.7633 31.2334 34.2305 31.6544 34.6329C32.0483 35.0069 32.5148 35.3225 33.0538 35.5799C34.1433 36.1004 34.9155 36.4423 35.3706 36.6059C37.0474 37.2074 38.6609 37.9461 40.2112 38.822C41.4442 39.5174 42.3495 40.4509 42.9269 41.6226C43.4844 42.7517 43.665 43.9731 43.4688 45.287C43.1744 47.2536 42.0921 48.7972 40.2218 49.9177C39.7184 50.2192 39.1929 50.4694 38.6453 50.6685C38.1504 50.8477 37.5865 50.9806 36.9536 51.0674C33.0951 51.5978 29.6085 50.5768 26.4938 48.0044C26.2279 47.7854 26.1418 47.565 26.2357 47.3432C26.2428 47.3261 26.363 47.1648 26.5962 46.859C27.0542 46.2561 27.4922 45.666 27.9104 45.0887C27.9279 45.0644 27.9503 45.044 27.9762 45.0289C28.0021 45.0138 28.0308 45.0044 28.0606 45.0012C28.0904 44.9979 28.1205 45.001 28.149 45.0102C28.1776 45.0194 28.2038 45.0345 28.2261 45.0545C29.9925 46.6585 32.0199 47.5935 34.3082 47.8594Z" fill="white"/>
<path d="M50.2059 46.3984C48.2063 43.9341 47.2932 41.0702 47.4667 37.8068C47.6615 34.1523 49.1015 31.1662 51.7867 28.8483C53.2658 27.5714 54.949 26.6855 56.8363 26.1907C58.176 25.838 59.5862 25.7029 61.0667 25.7854C64.3648 25.9674 67.1645 27.2038 69.4656 29.4946C70.4754 30.5014 71.2882 31.6575 71.904 32.9628C73.3888 36.1111 73.5524 39.3425 72.3947 42.6572C71.9055 44.0578 71.2342 45.3027 70.3808 46.392C69.199 47.8978 67.7462 49.0717 66.0224 49.9135C64.7723 50.5235 63.4148 50.9224 61.9499 51.1101C58.8381 51.5068 55.9808 50.8769 53.3782 49.2203C52.1607 48.4453 51.1033 47.5047 50.2059 46.3984ZM60.2573 47.8957C62.6744 47.9041 64.9959 46.9212 66.7112 45.1631C68.4265 43.405 69.395 41.0159 69.4037 38.5211C69.4124 36.0264 68.4606 33.6306 66.7576 31.8606C65.0547 30.0906 62.7401 29.0915 60.323 29.083C57.9059 29.0746 55.5844 30.0575 53.8691 31.8156C52.1539 33.5737 51.1853 35.9628 51.1766 38.4575C51.1679 40.9523 52.1198 43.3481 53.8227 45.1181C55.5257 46.8881 57.8403 47.8872 60.2573 47.8957Z" fill="white"/>
<path d="M114.313 27.7754C115.25 27.0403 116.294 26.5184 117.446 26.2098C118.421 25.9482 119.561 25.801 120.866 25.7683C123.763 25.6944 126.448 26.5312 128.922 28.2788C128.999 28.3337 129.055 28.4145 129.078 28.5065C129.101 28.5985 129.09 28.6956 129.047 28.78L127.042 32.7708C127.027 32.7994 127.007 32.8243 126.981 32.844C126.956 32.8636 126.927 32.8773 126.895 32.8843C126.864 32.8912 126.832 32.8911 126.801 32.8841C126.77 32.877 126.741 32.8631 126.716 32.8433C125.029 31.5422 123.057 30.8995 120.8 30.9151C120.197 30.9208 119.643 31.0516 119.138 31.3076C118.603 31.5792 118.233 31.9745 118.027 32.4935C117.752 33.1846 117.883 33.7897 118.419 34.3087C118.661 34.5419 119.145 34.8334 119.87 35.1832C121.062 35.7577 122.416 36.3521 123.934 36.9664C125.073 37.4271 126.18 38.0819 127.253 38.9308C128.046 39.5565 128.651 40.3023 129.071 41.1683C129.472 41.9973 129.682 42.9088 129.7 43.9028C129.73 45.4954 129.23 46.9074 128.201 48.1388C127.42 49.0716 126.455 49.794 125.306 50.3059C124.357 50.7282 123.213 51.0091 121.873 51.1484C117.956 51.5551 114.399 50.4808 111.202 47.9255C111.131 47.8689 111.083 47.788 111.068 47.6985C111.053 47.609 111.072 47.5174 111.121 47.4413L113.587 43.6575C113.606 43.6292 113.63 43.6053 113.659 43.5874C113.688 43.5694 113.72 43.5578 113.754 43.5534C113.787 43.5489 113.821 43.5517 113.854 43.5616C113.886 43.5715 113.916 43.5881 113.941 43.6105C115.777 45.2103 117.939 46.0307 120.427 46.072C121.229 46.0848 121.926 45.9063 122.517 45.5366C123.066 45.1939 123.395 44.7453 123.503 44.1907C123.632 43.5195 123.376 42.9337 122.733 42.4331C122.194 42.0137 121.5 41.6255 120.651 41.2685C119.465 40.7694 118.281 40.2639 117.101 39.752C115.994 39.2728 114.993 38.6478 114.097 37.8771C113.261 37.1576 112.661 36.404 112.297 35.6162C111.878 34.7161 111.687 33.7399 111.723 32.6876C111.755 31.6681 112.001 30.7345 112.461 29.887C112.876 29.1206 113.493 28.4167 114.313 27.7754Z" fill="white"/>
<path d="M136.787 29.742C138.869 27.4071 141.452 26.1053 144.535 25.8366C146.044 25.7043 147.46 25.7783 148.783 26.0584C151.357 26.6044 153.403 28.0186 154.921 30.3009C155.585 31.3005 156.075 32.5078 156.393 33.9226C156.812 35.7911 156.905 37.629 156.672 39.4363C156.664 39.4983 156.633 39.5552 156.587 39.5964C156.54 39.6375 156.48 39.6603 156.418 39.6603L140.109 39.6731C140.081 39.6732 140.053 39.6792 140.027 39.6909C140.002 39.7026 139.979 39.7196 139.96 39.7407C139.942 39.7619 139.928 39.7868 139.919 39.8138C139.911 39.8407 139.909 39.8691 139.913 39.8971C140.095 41.2707 140.563 42.4488 141.318 43.4314C142.047 44.3756 143.03 45.0866 144.269 45.5643C145.919 46.1985 147.666 46.2711 149.51 45.7819C151.149 45.3454 152.644 44.6088 153.997 43.5722C154.021 43.5541 154.048 43.5414 154.077 43.5349C154.106 43.5284 154.136 43.5283 154.166 43.5346C154.195 43.5409 154.222 43.5534 154.246 43.5713C154.27 43.5892 154.29 43.612 154.304 43.6383L156.399 47.5459C156.434 47.6118 156.445 47.6882 156.429 47.761C156.413 47.8339 156.371 47.8984 156.311 47.9426C152.494 50.7837 148.356 51.7848 143.898 50.9458C142.384 50.6614 141.048 50.1943 139.889 49.5445C137.815 48.3827 136.217 46.7098 135.093 44.5256C134.377 43.1321 133.934 41.6553 133.766 40.0954C133.616 38.6891 133.658 37.2714 133.892 35.8423C134.273 33.5117 135.238 31.4783 136.787 29.742ZM141.314 32.5618C140.67 33.405 140.277 34.3499 140.134 35.3965C140.133 35.4096 140.134 35.4229 140.137 35.4355C140.141 35.4482 140.148 35.4599 140.156 35.4698C140.165 35.4797 140.176 35.4877 140.188 35.493C140.2 35.4984 140.213 35.5012 140.226 35.501L150.496 35.5138C150.519 35.5138 150.542 35.5092 150.564 35.5001C150.585 35.491 150.604 35.4777 150.621 35.461C150.637 35.4442 150.649 35.4244 150.658 35.4027C150.666 35.381 150.67 35.3579 150.669 35.3347C150.63 34.0207 150.244 32.9301 149.51 32.0627C148.798 31.2223 147.851 30.7068 146.671 30.5163C145.486 30.3257 144.308 30.5127 143.136 31.0773C142.411 31.4271 141.803 31.9219 141.314 32.5618Z" fill="white"/>
<path d="M209.64 29.5821C210.437 28.7062 211.324 27.9988 212.301 27.4598C215.569 25.6553 218.918 25.265 222.347 26.2888C224.324 26.879 225.923 27.9831 227.144 29.6013C227.944 30.6621 228.555 31.9376 228.979 33.4279C229.54 35.3973 229.668 37.4101 229.363 39.4663C229.355 39.5238 229.326 39.5763 229.282 39.6143C229.238 39.6524 229.182 39.6733 229.124 39.6732H212.772C212.746 39.6733 212.721 39.6789 212.697 39.6894C212.674 39.7 212.653 39.7153 212.636 39.7345C212.619 39.7536 212.606 39.7761 212.598 39.8004C212.59 39.8248 212.588 39.8505 212.591 39.8758C212.905 42.4652 214.241 44.3131 216.599 45.4194C218.039 46.0934 219.663 46.2555 221.472 45.9057C223.403 45.5317 225.168 44.7404 226.765 43.5317C226.783 43.5177 226.804 43.5079 226.827 43.503C226.85 43.4981 226.873 43.4981 226.896 43.5032C226.918 43.5083 226.94 43.5182 226.959 43.5323C226.977 43.5465 226.993 43.5644 227.004 43.585L229.103 47.5054C229.14 47.5767 229.152 47.6584 229.136 47.7361C229.12 47.8138 229.077 47.8824 229.015 47.9299C226.67 49.7486 224.057 50.8236 221.175 51.1549C218.842 51.4237 216.614 51.1706 214.492 50.3956C213.105 49.8908 211.877 49.1912 210.807 48.2968C208.798 46.6174 207.464 44.4332 206.805 41.7443C206.273 39.5758 206.28 37.3035 206.827 34.9273C207.289 32.9152 208.227 31.1335 209.64 29.5821ZM213.544 33.3084C213.175 33.9511 212.927 34.6501 212.8 35.4051C212.798 35.4185 212.799 35.4321 212.802 35.4451C212.806 35.4581 212.812 35.4702 212.821 35.4806C212.83 35.4909 212.84 35.4992 212.853 35.505C212.865 35.5107 212.878 35.5138 212.892 35.5139L223.014 35.5011C223.063 35.5011 223.111 35.4909 223.155 35.471C223.199 35.4512 223.239 35.4223 223.271 35.3861C223.303 35.3499 223.328 35.3073 223.343 35.2609C223.358 35.2146 223.363 35.1656 223.358 35.1172C223.196 33.5715 222.65 32.3927 221.722 31.5807C220.838 30.8086 219.711 30.4296 218.338 30.4438C217.089 30.4581 215.968 30.8619 214.974 31.6554C214.385 32.1246 213.909 32.6756 213.544 33.3084Z" fill="white"/>
<path d="M168.751 32.05C168.768 32.0418 168.784 32.0305 168.797 32.0165C168.81 32.0026 168.82 31.9864 168.826 31.9689C169.505 30.0123 170.649 28.4758 172.256 27.3596C173.037 26.8178 173.838 26.4424 174.658 26.2334C175.534 26.0115 176.432 25.9575 177.35 26.0713C177.404 26.0775 177.454 26.1036 177.49 26.1445C177.527 26.1854 177.547 26.2382 177.547 26.2931V31.7492C177.547 31.7877 177.538 31.8258 177.523 31.8609C177.507 31.8961 177.484 31.9276 177.456 31.9535C177.427 31.9794 177.394 31.9991 177.357 32.0113C177.321 32.0235 177.282 32.0279 177.244 32.0244C175.358 31.8537 173.729 32.2234 172.356 33.1335C171.359 33.7933 170.558 34.7268 169.952 35.9341C169.37 37.0902 169.057 38.3187 169.013 39.6199C168.954 41.3646 168.932 45.0042 168.947 50.5385C168.947 50.5668 168.936 50.5939 168.917 50.6139C168.897 50.6339 168.87 50.6451 168.843 50.6451L163.061 50.6579C163.013 50.6579 162.967 50.6388 162.933 50.6048C162.899 50.5708 162.88 50.5247 162.88 50.4766V26.5299C162.88 26.4801 162.9 26.4323 162.935 26.3971C162.97 26.3619 163.018 26.3422 163.068 26.3422H168.521C168.548 26.3422 168.576 26.3477 168.602 26.3584C168.628 26.3692 168.651 26.3849 168.671 26.4048C168.69 26.4246 168.706 26.4481 168.716 26.474C168.727 26.4999 168.732 26.5275 168.732 26.5555L168.655 31.986C168.654 32.0015 168.658 32.0167 168.667 32.0288C168.675 32.0409 168.686 32.0491 168.7 32.0521C168.721 32.0578 168.738 32.0571 168.751 32.05Z" fill="white"/>
<path d="M192.429 44.178C192.533 44.5491 192.625 44.5463 192.706 44.1695C192.904 43.2438 193.152 42.333 193.451 41.4371C195.093 36.5072 196.75 31.5438 198.421 26.5469C198.441 26.4874 198.479 26.4356 198.529 26.3988C198.58 26.3621 198.641 26.3423 198.703 26.3422L204.672 26.355C204.695 26.355 204.718 26.3606 204.738 26.3712C204.758 26.3817 204.776 26.397 204.789 26.4156C204.802 26.4342 204.811 26.4557 204.814 26.4782C204.817 26.5007 204.814 26.5235 204.806 26.5448L196.183 50.5449C196.173 50.5743 196.153 50.5997 196.128 50.6177C196.102 50.6356 196.072 50.6452 196.041 50.6452L189.186 50.658C189.127 50.6581 189.069 50.6395 189.02 50.6048C188.971 50.57 188.934 50.5208 188.913 50.4639L180.243 26.5512C180.235 26.5289 180.233 26.5051 180.236 26.4818C180.239 26.4584 180.248 26.4361 180.261 26.4169C180.274 26.3977 180.292 26.382 180.313 26.3712C180.333 26.3604 180.356 26.3549 180.38 26.355L186.466 26.3806C186.497 26.3804 186.528 26.3903 186.553 26.4087C186.578 26.4271 186.597 26.4531 186.607 26.4829C188.194 31.1541 189.761 35.8317 191.309 40.5157C191.734 41.804 192.107 43.0248 192.429 44.178Z" fill="white"/>
</svg>
