<svg width="59" height="33" viewBox="0 0 59 33" fill="none" xmlns="http://www.w3.org/2000/svg">
<g clip-path="url(#clip0_379_1546)">
<path d="M0 0C19.5052 0 39.0104 0 58.5156 0C58.5156 10.9835 58.5156 21.967 58.5156 32.9505C39.0104 32.9505 19.5052 32.9505 0 32.9505C0 32.3776 0 31.8046 0 31.2316C0.0243815 31.7585 0.0318483 32.2987 0.0224005 32.8521C0.0222182 32.8616 0.0239165 32.8711 0.0273957 32.8799C0.030875 32.8887 0.0360656 32.8967 0.0426636 32.9035C0.0492617 32.9103 0.0571348 32.9157 0.0658224 32.9193C0.0745099 32.923 0.0838375 32.9249 0.0932592 32.9249L58.4626 32.9276C58.4683 32.9276 58.4737 32.9254 58.4778 32.9213C58.4818 32.9173 58.4841 32.9118 58.4841 32.9061C58.499 29.3969 58.4984 25.8836 58.4822 22.3661C58.4819 22.2614 58.4848 22.1022 58.4909 21.8883C58.4958 21.7287 58.4968 21.5693 58.4941 21.4101C58.4862 20.9689 58.4822 20.7298 58.4822 20.6929C58.4947 16.6251 58.4993 12.5572 58.4959 8.48934C58.4938 5.67878 58.4927 2.87844 58.4927 0.0883257C58.4927 0.0716973 58.4861 0.0557499 58.4744 0.0439919C58.4626 0.0322338 58.4467 0.0256282 58.4301 0.0256282H0.0745159C0.0675944 0.0256282 0.060742 0.0269963 0.0543588 0.0296527C0.0479755 0.0323091 0.0421892 0.0362006 0.0373377 0.0410999C0.0324862 0.0459993 0.0286666 0.0518083 0.026102 0.0581881C0.0235374 0.0645678 0.0222791 0.0713904 0.0224005 0.0782575C0.0288006 0.685096 0.0213338 1.2721 0 1.83928C0 1.22603 0 0.612941 0 0Z" fill="#1B1C1C"/>
<path d="M15.3789 9.09483C16.5827 9.09483 17.5586 8.11789 17.5586 6.91277C17.5586 5.70765 16.5827 4.73071 15.3789 4.73071C14.1751 4.73071 13.1992 5.70765 13.1992 6.91277C13.1992 8.11789 14.1751 9.09483 15.3789 9.09483Z" fill="white"/>
<path d="M30.9608 4.93299L30.8579 4.95221C29.833 4.94275 28.7587 4.9815 27.635 5.06845C24.373 5.32077 21.1596 5.88291 17.9945 6.75488C17.9905 6.75598 17.9862 6.75618 17.9821 6.75549C17.978 6.75479 17.974 6.75321 17.9706 6.75085C17.9672 6.7485 17.9643 6.74543 17.9622 6.74185C17.9601 6.73828 17.9588 6.73429 17.9584 6.73017C17.9222 6.34941 17.8216 6.00038 17.6567 5.68307C17.6555 5.68084 17.6548 5.67834 17.6548 5.67578C17.6548 5.67322 17.6554 5.67067 17.6566 5.66834C17.6578 5.66601 17.6596 5.66397 17.6617 5.6624C17.6639 5.66082 17.6664 5.65975 17.6691 5.65928C18.5699 5.49574 19.3547 5.37126 20.0234 5.28584C23.623 4.82575 27.2688 4.70813 30.9608 4.93299Z" fill="white"/>
<path d="M30.9608 4.9329C30.9961 4.92618 31.0307 4.9271 31.0645 4.93564C31.0895 4.94205 31.0895 4.94556 31.0645 4.94617L30.8579 4.95212L30.9608 4.9329Z" fill="#6D8F85"/>
<path d="M11.7346 27.2097C10.8718 26.9223 10.0553 26.6163 9.28513 26.2917C8.03162 25.7632 6.83159 25.1331 5.68505 24.4011C4.69364 23.768 3.7996 23.0338 3.00294 22.1985C2.53816 21.7112 2.12733 21.1686 1.77045 20.5706C1.31756 19.8112 1.0323 18.9983 0.91466 18.1318C0.872907 17.8252 0.856602 17.5207 0.865745 17.2184C0.890126 16.4199 1.06628 15.6459 1.39421 14.8963C1.6807 14.2412 2.0356 13.6426 2.45892 13.1005C3.15806 12.2053 3.96052 11.4151 4.86629 10.7299C6.00948 9.8649 7.2281 9.12397 8.52214 8.50707C9.88202 7.85874 11.2929 7.30758 12.7549 6.85359C12.7589 6.85245 12.7631 6.85223 12.7671 6.85296C12.7712 6.85369 12.775 6.85534 12.7783 6.85779C12.7816 6.86023 12.7842 6.8634 12.7861 6.86704C12.7879 6.87068 12.7888 6.8747 12.7888 6.87876C12.7912 7.40841 12.9328 7.89443 13.2134 8.33682C13.2156 8.34029 13.217 8.34418 13.2175 8.34824C13.218 8.35229 13.2176 8.35641 13.2163 8.36029C13.2151 8.36418 13.213 8.36773 13.2102 8.37072C13.2074 8.3737 13.204 8.37603 13.2002 8.37755C11.648 8.9969 10.1652 9.74256 8.75164 10.6145C7.73005 11.2446 6.81224 11.9597 5.9982 12.76C5.75347 13.0007 5.54669 13.2246 5.37785 13.4318C5.03071 13.8577 4.73616 14.3125 4.49417 14.796C4.25218 15.2799 4.10102 15.7905 4.04067 16.3278C4.00837 16.6155 4.01096 16.9197 4.04844 17.2403C4.13866 18.008 4.36556 18.7376 4.72915 19.4293C4.92694 19.8054 5.15125 20.1639 5.40207 20.5047C5.5697 20.7326 5.76475 20.9668 5.98723 21.2072C6.67235 21.9477 7.45088 22.6043 8.32283 23.1769C9.25725 23.7905 10.2039 24.3111 11.1627 24.7389C12.2918 25.2426 13.4472 25.6763 14.6288 26.04C15.8479 26.4152 17.1497 26.744 18.5343 27.0262C18.8244 27.0854 19.1241 27.1423 19.4335 27.1969C22.1883 27.6838 25.0363 27.9846 27.9777 28.0994C31.2545 28.2272 34.5271 28.1569 37.7955 27.8884C40.4311 27.6715 43.0431 27.2934 45.6315 26.7543C47.0463 26.4596 48.5418 26.0622 50.118 25.5622C51.5197 25.1176 52.9055 24.5485 54.2754 23.8547C55.4481 23.2607 56.517 22.5498 57.4819 21.7221C57.4858 21.719 57.5006 21.7033 57.5262 21.6749C57.564 21.6331 57.5995 21.6491 57.6327 21.723C57.6384 21.7356 57.64 21.7496 57.6372 21.7631C57.6344 21.7766 57.6274 21.7889 57.6172 21.798C57.0302 22.3249 56.4187 22.8116 55.7826 23.2579C54.7613 23.9746 53.6942 24.6148 52.5812 25.1787C51.2582 25.849 49.8982 26.4326 48.5011 26.9296C47.0604 27.4422 45.5971 27.8789 44.1111 28.2399C42.2081 28.7018 40.2853 29.0563 38.3427 29.3034C35.3389 29.6857 32.2839 29.8564 29.1777 29.8155C27.2921 29.7908 25.4822 29.7068 23.7481 29.5634C20.794 29.3193 17.8766 28.8485 14.9959 28.1511C13.9329 27.8936 12.8457 27.5798 11.7346 27.2097Z" fill="white"/>
<path d="M22.4092 13.847L21.969 13.8314C21.9628 13.8312 21.957 13.8285 21.9527 13.8239C21.9485 13.8193 21.9461 13.8131 21.9461 13.8067L21.9434 13.0699C21.9434 13.0598 21.9475 13.0501 21.9549 13.0429C21.9622 13.0357 21.9722 13.0316 21.9827 13.0315L22.4028 13.0292C22.4113 13.0291 22.4195 13.0255 22.4255 13.0194C22.4314 13.0132 22.4348 13.0049 22.4348 12.9962C22.4348 12.4095 22.4348 11.8378 22.4348 11.281C22.4348 11.0168 22.451 10.7744 22.4833 10.5538C22.5247 10.2688 22.5969 10.0543 22.6999 9.91032C22.8411 9.71262 23.0459 9.5857 23.3144 9.52956C23.6341 9.46213 23.9618 9.49966 24.2977 9.64214C24.3078 9.64645 24.3165 9.65364 24.3226 9.66284C24.3287 9.67203 24.332 9.68282 24.332 9.69385V10.6654C24.332 10.6702 24.3308 10.675 24.3285 10.6791C24.3261 10.6833 24.3227 10.6868 24.3186 10.6892C24.3145 10.6917 24.3098 10.693 24.305 10.6931C24.3002 10.6932 24.2955 10.692 24.2913 10.6897C24.2011 10.6397 24.1049 10.6055 24.0028 10.5872C23.8919 10.567 23.7935 10.5768 23.7075 10.6165C23.5429 10.6924 23.4597 10.8386 23.4579 11.0549C23.4524 11.6794 23.4504 12.3246 23.452 12.9903C23.4521 13.0015 23.4567 13.0122 23.4647 13.0201C23.4728 13.028 23.4836 13.0324 23.4949 13.0324L24.2323 13.0392C24.2386 13.0392 24.2447 13.0417 24.2491 13.0461C24.2536 13.0505 24.2561 13.0564 24.2561 13.0626V13.8118C24.2561 13.8182 24.2535 13.8244 24.2489 13.8291C24.2443 13.8337 24.238 13.8363 24.2314 13.8365L23.4789 13.8401C23.4718 13.8401 23.4649 13.8429 23.4599 13.8478C23.4548 13.8527 23.452 13.8593 23.452 13.8662V18.2596C23.452 18.2779 23.4544 18.2959 23.4593 18.3136C23.4727 18.3627 23.466 18.3852 23.4392 18.3809C23.4245 18.3785 23.4157 18.3772 23.4126 18.3772C23.0954 18.3754 22.778 18.3736 22.4604 18.3717C22.4543 18.3717 22.4484 18.3693 22.4441 18.3651C22.4397 18.3608 22.4372 18.355 22.4371 18.3489C22.4304 18.0105 22.4279 17.672 22.4298 17.3333C22.4319 16.927 22.4322 16.6217 22.4307 16.4176C22.4243 15.5682 22.4246 14.7188 22.4316 13.8694C22.4317 13.8637 22.4294 13.8581 22.4252 13.8539C22.421 13.8497 22.4153 13.8472 22.4092 13.847Z" fill="white"/>
<path d="M15.931 10.3999H14.8585C14.8517 10.3999 14.8462 10.4054 14.8462 10.4123V18.3616C14.8462 18.3684 14.8517 18.3739 14.8585 18.3739H15.931C15.9378 18.3739 15.9434 18.3684 15.9434 18.3616V10.4123C15.9434 10.4054 15.9378 10.3999 15.931 10.3999Z" fill="white"/>
<path d="M25.827 12.0925C26.1964 12.0925 26.4958 11.7927 26.4958 11.423C26.4958 11.0532 26.1964 10.7534 25.827 10.7534C25.4576 10.7534 25.1582 11.0532 25.1582 11.423C25.1582 11.7927 25.4576 12.0925 25.827 12.0925Z" fill="white"/>
<path d="M18.5495 13.5336C18.5476 13.612 18.5664 13.6166 18.6057 13.5473C18.8586 13.1013 19.2474 12.8988 19.7719 12.94C20.034 12.9605 20.2434 13.0485 20.4 13.2041C20.5213 13.3246 20.6117 13.5087 20.6711 13.7565C20.7202 13.9603 20.7445 14.1687 20.7442 14.3816C20.7421 15.6963 20.7427 17.0193 20.7461 18.3508C20.7461 18.3539 20.7456 18.357 20.7444 18.3599C20.7433 18.3627 20.7416 18.3654 20.7394 18.3676C20.7372 18.3698 20.7346 18.3716 20.7318 18.3728C20.7289 18.374 20.7259 18.3746 20.7228 18.3746H19.7614C19.7567 18.3746 19.7521 18.3737 19.7478 18.3719C19.7435 18.3701 19.7396 18.3675 19.7363 18.3642C19.733 18.361 19.7305 18.3571 19.7287 18.3528C19.727 18.3485 19.7261 18.344 19.7262 18.3393C19.7317 17.0823 19.7286 15.8386 19.717 14.6082C19.7149 14.3864 19.6917 14.2314 19.6475 14.1432C19.5927 14.034 19.5087 13.9524 19.3956 13.8983C19.2929 13.8492 19.1828 13.8326 19.0651 13.8485C18.8341 13.8802 18.6849 14.0198 18.6176 14.2672C18.6099 14.295 18.5967 14.3635 18.5778 14.4727C18.5662 14.5404 18.5601 14.6098 18.5595 14.6809C18.547 15.89 18.5435 17.1121 18.549 18.3471C18.5491 18.3507 18.5484 18.3543 18.5471 18.3576C18.5457 18.3609 18.5438 18.364 18.5413 18.3665C18.5387 18.3691 18.5358 18.3711 18.5325 18.3725C18.5291 18.3739 18.5256 18.3746 18.522 18.3746L17.5803 18.3718C17.5742 18.3718 17.5684 18.3694 17.5641 18.3651C17.5598 18.3608 17.5574 18.355 17.5574 18.349L17.5547 13.0393C17.5547 13.0312 17.558 13.0234 17.5638 13.0177C17.5696 13.0119 17.5775 13.0087 17.5858 13.0087H18.5271C18.5316 13.0087 18.5361 13.0096 18.5403 13.0115C18.5445 13.0133 18.5483 13.016 18.5515 13.0194C18.5547 13.0228 18.5572 13.0269 18.5589 13.0313C18.5606 13.0358 18.5614 13.0405 18.5613 13.0453L18.5495 13.5336Z" fill="white"/>
<path d="M28.8191 13.5372C28.9801 13.2321 29.2198 13.0437 29.5382 12.972C29.8034 12.9125 30.0498 12.9184 30.2775 12.9898C30.5481 13.0746 30.7339 13.2678 30.8347 13.5692C30.9246 13.8377 30.9702 14.1542 30.9714 14.5188C30.9757 15.7993 30.9711 17.0798 30.9577 18.3603C30.9577 18.3632 30.9571 18.3661 30.956 18.3688C30.9548 18.3715 30.9531 18.3739 30.951 18.376C30.9489 18.378 30.9463 18.3796 30.9436 18.3807C30.9408 18.3818 30.9378 18.3823 30.9349 18.3823L29.957 18.3717C29.9511 18.3716 29.9454 18.3692 29.9413 18.365C29.9372 18.3608 29.9349 18.3551 29.9351 18.3493C29.9448 17.2632 29.9511 16.177 29.9538 15.0909C29.9544 14.8501 29.9437 14.6099 29.9218 14.3701C29.9093 14.2313 29.8612 14.1156 29.7773 14.0232C29.6978 13.9356 29.5946 13.8784 29.4678 13.8516C29.3237 13.821 29.1926 13.8445 29.0747 13.922C28.9729 13.9888 28.8963 14.0914 28.8447 14.2296C28.7987 14.3534 28.7759 14.4842 28.7762 14.6218C28.7774 15.8678 28.7731 17.1138 28.7634 18.3598C28.7634 18.3628 28.7628 18.3658 28.7616 18.3685C28.7605 18.3713 28.7588 18.3738 28.7567 18.3758C28.7545 18.3779 28.752 18.3796 28.7492 18.3807C28.7465 18.3818 28.7435 18.3823 28.7405 18.3823L27.7627 18.3717C27.7568 18.3716 27.7512 18.3691 27.7471 18.3649C27.743 18.3606 27.7407 18.3548 27.7407 18.3488L27.7462 13.0401C27.7462 13.0338 27.7486 13.0278 27.7529 13.0233C27.7572 13.0189 27.763 13.0164 27.7691 13.0164L28.7263 13.009C28.7369 13.009 28.747 13.0133 28.7545 13.0208C28.7619 13.0284 28.7661 13.0386 28.7661 13.0493V13.5239C28.7661 13.5995 28.7838 13.604 28.8191 13.5372Z" fill="white"/>
<path d="M33.2601 15.9406C33.2507 16.3342 33.2842 16.6955 33.3607 17.0244C33.3811 17.1125 33.4183 17.2027 33.4722 17.2948C33.5311 17.3952 33.5945 17.4669 33.6624 17.5099C33.7624 17.5731 33.8742 17.5895 33.998 17.5593C34.1546 17.5206 34.2698 17.4201 34.3436 17.2578C34.4359 17.0536 34.4816 16.8395 34.4807 16.6152C34.4807 16.61 34.4817 16.6047 34.4837 16.5999C34.4857 16.595 34.4886 16.5906 34.4923 16.5869C34.4959 16.5832 34.5003 16.5803 34.505 16.5783C34.5098 16.5763 34.5149 16.5753 34.52 16.5754L35.3978 16.5859C35.404 16.5861 35.4099 16.5886 35.4143 16.5931C35.4186 16.5975 35.4211 16.6035 35.4211 16.6097C35.4232 16.9173 35.3734 17.216 35.2716 17.5058C35.1305 17.907 34.8873 18.1856 34.542 18.3415C34.2765 18.4611 33.9783 18.5013 33.6473 18.4623C33.0238 18.3881 32.6123 18.0118 32.413 17.3333C32.3359 17.0712 32.2847 16.8054 32.2594 16.536C32.242 16.3512 32.2323 16.0816 32.2302 15.7274C32.2277 15.3268 32.2503 14.9506 32.2978 14.5988C32.3359 14.3169 32.4278 14.0259 32.5735 13.7256C32.845 13.1673 33.2979 12.9042 33.9321 12.9362C34.3411 12.9569 34.664 13.1116 34.9008 13.4003C35.1041 13.6486 35.2451 13.9606 35.3237 14.3361C35.4304 14.8463 35.4781 15.3619 35.4668 15.883C35.4667 15.8892 35.4642 15.8951 35.4598 15.8995C35.4555 15.9039 35.4496 15.9063 35.4435 15.9063L33.2834 15.9173C33.2773 15.9174 33.2714 15.9199 33.2671 15.9243C33.2627 15.9286 33.2602 15.9345 33.2601 15.9406ZM33.2821 15.1736L34.3879 15.1819C34.3967 15.1819 34.4051 15.1784 34.4114 15.1723C34.4177 15.1662 34.4214 15.1578 34.4218 15.1489C34.4333 14.846 34.4035 14.5634 34.3321 14.3014C34.284 14.1247 34.1938 13.9957 34.0615 13.9142C33.9521 13.8468 33.8384 13.8291 33.7205 13.8611C33.5961 13.8947 33.4988 13.9752 33.4284 14.1027C33.3671 14.2132 33.3302 14.3032 33.3177 14.3728C33.2729 14.6217 33.2531 14.8807 33.2583 15.1498C33.2584 15.1562 33.261 15.1622 33.2654 15.1667C33.2699 15.1711 33.2758 15.1736 33.2821 15.1736Z" fill="white"/>
<path d="M37.3011 18.16C37.0091 17.9281 36.8179 17.6026 36.7273 17.1834C36.5469 16.3477 36.521 15.4853 36.6496 14.5963C36.6838 14.3592 36.7404 14.1391 36.8197 13.9359C36.9117 13.7007 37.0295 13.51 37.1731 13.3638C37.4562 13.0764 37.8312 12.9352 38.2981 12.9401C38.9067 12.9465 39.3439 13.2143 39.6097 13.7437C39.7359 13.9951 39.8221 14.2738 39.8684 14.5798C39.9297 14.9856 39.9548 15.4725 39.9439 16.0406C39.9356 16.4638 39.8823 16.8604 39.7839 17.2305C39.7354 17.4132 39.6606 17.5884 39.5594 17.7559C39.45 17.9371 39.3273 18.079 39.1914 18.1815C38.964 18.3529 38.6853 18.4478 38.3553 18.4661C37.938 18.4893 37.5866 18.3873 37.3011 18.16ZM38.1454 17.5234C38.3374 17.585 38.5108 17.5147 38.6657 17.3124C38.7214 17.2395 38.763 17.159 38.7905 17.0708C38.8587 16.8508 38.8974 16.6256 38.9066 16.3953C38.9273 15.8727 38.9205 15.3503 38.886 14.8283C38.8726 14.6273 38.8284 14.4334 38.7534 14.2466C38.7047 14.1252 38.6311 14.0296 38.5326 13.9597C38.4327 13.8886 38.323 13.8604 38.2035 13.875C38.0359 13.8958 37.9069 13.9907 37.8167 14.1597C37.7134 14.354 37.6529 14.5462 37.6352 14.7363C37.5779 15.352 37.5789 15.9994 37.638 16.6786C37.6551 16.8738 37.7055 17.0482 37.7893 17.2017C37.8804 17.3695 37.9991 17.4767 38.1454 17.5234Z" fill="white"/>
<path d="M42.2477 13.5826C42.4964 13.1094 42.9017 12.895 43.4637 12.9396C43.8502 12.9701 44.1159 13.1542 44.261 13.492C44.3265 13.6451 44.3683 13.835 44.3863 14.0617C44.4195 14.4767 44.4349 14.8922 44.4324 15.3084C44.4267 16.3152 44.4238 17.3278 44.4238 18.3462C44.4238 18.3499 44.423 18.3535 44.4217 18.3568C44.4203 18.3602 44.4183 18.3632 44.4157 18.3658C44.4131 18.3684 44.4101 18.3704 44.4068 18.3717C44.4035 18.3731 44.3999 18.3737 44.3963 18.3737L43.4267 18.3668C43.4206 18.3667 43.4147 18.3641 43.4104 18.3597C43.406 18.3553 43.4035 18.3493 43.4034 18.343C43.3949 16.6055 43.3921 15.4452 43.3952 14.8622C43.3964 14.6498 43.3891 14.4849 43.3732 14.3674C43.3446 14.1514 43.2477 13.9993 43.0825 13.9112C42.9581 13.845 42.8277 13.8247 42.6912 13.8503C42.5394 13.8787 42.4245 13.9652 42.3465 14.1098C42.2663 14.2584 42.2267 14.4405 42.2276 14.6562C42.2331 15.8891 42.231 17.122 42.2212 18.3549C42.2211 18.3579 42.2205 18.3609 42.2193 18.3636C42.2181 18.3664 42.2163 18.3689 42.2142 18.371C42.212 18.373 42.2095 18.3747 42.2067 18.3758C42.2039 18.3769 42.2009 18.3774 42.1979 18.3773L41.2324 18.3664C41.2263 18.3664 41.2204 18.3639 41.2161 18.3595C41.2117 18.3552 41.2092 18.3492 41.2091 18.343C41.2002 17.0451 41.2004 15.7471 41.2095 14.4489C41.2107 14.2985 41.2083 14.063 41.2022 13.7423C41.1979 13.5065 41.1982 13.2706 41.2031 13.0348C41.2032 13.0284 41.2057 13.0224 41.2101 13.0179C41.2145 13.0135 41.2203 13.011 41.2264 13.011L42.1979 13.0165C42.2011 13.0165 42.2042 13.0171 42.2072 13.0182C42.2101 13.0194 42.2128 13.0211 42.215 13.0233C42.2173 13.0255 42.2191 13.028 42.2203 13.0309C42.2215 13.0337 42.2221 13.0367 42.2221 13.0398L42.2253 13.5762C42.2253 13.6085 42.2328 13.6106 42.2477 13.5826Z" fill="white"/>
<path d="M26.3203 13.0315H25.3493C25.3427 13.0315 25.3374 13.0368 25.3374 13.0434V18.3631C25.3374 18.3696 25.3427 18.375 25.3493 18.375H26.3203C26.3268 18.375 26.3322 18.3696 26.3322 18.3631V13.0434C26.3322 13.0368 26.3268 13.0315 26.3203 13.0315Z" fill="white"/>
<path d="M0 14.3445C0.0167623 14.7265 0.0254482 15.1088 0.0260577 15.4913C0.0297149 17.1407 0.0248386 18.7901 0.0114288 20.4394C0.0114288 20.4416 0.011886 20.4452 0.0128003 20.4504C0.0143241 20.4592 0.0100574 20.4643 0 20.4655C0 18.425 0 16.3847 0 14.3445Z" fill="#1B1C1C"/>
<path d="M22.4068 20.9063C22.5269 20.7742 22.6684 20.6964 22.8315 20.6729C22.9991 20.6491 23.1461 20.6819 23.2726 20.7713C23.4177 20.8738 23.4948 21.0322 23.5039 21.2463C23.5204 21.6353 23.5256 22.0414 23.5195 22.4646C23.5195 22.4715 23.5168 22.4781 23.5121 22.483C23.5074 22.4879 23.501 22.4907 23.4943 22.4907L23.2374 22.492C23.2345 22.4921 23.2315 22.4914 23.2288 22.4902C23.2261 22.489 23.2236 22.4873 23.2216 22.485C23.2195 22.4828 23.2179 22.4802 23.2169 22.4773C23.2158 22.4744 23.2154 22.4713 23.2155 22.4683C23.2243 22.0915 23.2225 21.7147 23.21 21.3379C23.2027 21.1277 23.1186 21.0021 22.9576 20.9612C22.8235 20.9274 22.7013 20.9498 22.591 21.0285C22.477 21.1096 22.417 21.2357 22.4109 21.4065C22.3987 21.7458 22.3953 22.0986 22.4008 22.465C22.401 22.471 22.3997 22.477 22.3971 22.4824C22.3946 22.4878 22.3908 22.4926 22.386 22.4963C22.3813 22.5 22.3758 22.5026 22.3698 22.5038C22.3639 22.5051 22.3578 22.505 22.3519 22.5035C22.2928 22.4882 22.2276 22.4898 22.1563 22.5081C22.1487 22.5101 22.1408 22.5103 22.1331 22.5088C22.1254 22.5072 22.1181 22.5039 22.1119 22.4991C22.1057 22.4943 22.1006 22.4881 22.0971 22.481C22.0937 22.4739 22.0918 22.4661 22.0918 22.4582L22.0945 19.3961C22.0945 19.3893 22.0968 19.3828 22.1008 19.3776C22.1049 19.3723 22.1106 19.3687 22.1169 19.3672C22.2044 19.3465 22.2907 19.3497 22.3757 19.3768C22.3821 19.3788 22.3877 19.3828 22.3917 19.3883C22.3956 19.3937 22.3977 19.4003 22.3976 19.4071L22.3921 20.9008C22.3921 20.9152 22.397 20.917 22.4068 20.9063Z" fill="white"/>
<path d="M31.0931 19.364H30.828C30.8189 19.364 30.8115 19.3714 30.8115 19.3805V22.4879C30.8115 22.497 30.8189 22.5044 30.828 22.5044H31.0931C31.1022 22.5044 31.1096 22.497 31.1096 22.4879V19.3805C31.1096 19.3714 31.1022 19.364 31.0931 19.364Z" fill="white"/>
<path d="M38.7887 20.249C38.9066 20.249 39.0022 20.1533 39.0022 20.0353C39.0022 19.9172 38.9066 19.8215 38.7887 19.8215C38.6708 19.8215 38.5752 19.9172 38.5752 20.0353C38.5752 20.1533 38.6708 20.249 38.7887 20.249Z" fill="white"/>
<path d="M15.1459 21.0202L15.1464 22.4673C15.1464 22.4738 15.1439 22.4801 15.1395 22.4847C15.1352 22.4894 15.1292 22.492 15.123 22.492H14.8716C14.8655 22.492 14.8597 22.4894 14.8554 22.4849C14.8512 22.4803 14.8488 22.4741 14.8488 22.4677L14.846 21.0165C14.846 21.012 14.845 21.0075 14.8431 21.0034C14.8412 20.9993 14.8384 20.9956 14.835 20.9927C14.8315 20.9898 14.8275 20.9878 14.8231 20.9867C14.8188 20.9855 14.8143 20.9854 14.8099 20.9863C14.7581 20.9961 14.7171 20.9968 14.6869 20.9886C14.6806 20.9868 14.675 20.9828 14.6711 20.9772C14.6671 20.9715 14.665 20.9646 14.665 20.9575L14.6641 20.7525C14.664 20.7445 14.6659 20.7366 14.6694 20.7295C14.673 20.7223 14.6782 20.7161 14.6846 20.7112C14.691 20.7064 14.6984 20.703 14.7064 20.7014C14.7143 20.6998 14.7225 20.7001 14.7304 20.7021C14.8166 20.7244 14.8568 20.7052 14.851 20.6444C14.8477 20.6097 14.846 20.5912 14.846 20.5891C14.846 20.4335 14.846 20.2695 14.846 20.0971C14.846 20.0936 14.8467 20.0901 14.8479 20.0868C14.8492 20.0836 14.8511 20.0806 14.8534 20.0782C14.8558 20.0757 14.8585 20.0738 14.8616 20.0724C14.8646 20.0711 14.8679 20.0705 14.8712 20.0706L15.1121 20.0738C15.1181 20.0738 15.1239 20.0765 15.1282 20.0813C15.1326 20.086 15.1351 20.0925 15.1354 20.0994L15.1509 20.6769C15.1512 20.6837 15.1537 20.6902 15.1582 20.6949C15.1626 20.6997 15.1685 20.7024 15.1747 20.7026L15.4307 20.7067C15.4378 20.7068 15.4446 20.7091 15.4496 20.7132C15.4546 20.7173 15.4575 20.7229 15.4577 20.7287L15.4659 20.9653C15.466 20.9686 15.4653 20.972 15.4637 20.9752C15.4621 20.9784 15.4597 20.9813 15.4567 20.9838C15.4537 20.9862 15.4501 20.9882 15.4461 20.9896C15.4421 20.991 15.4378 20.9917 15.4335 20.9918L15.1683 20.995C15.1654 20.995 15.1624 20.9957 15.1597 20.9969C15.157 20.9982 15.1545 21 15.1525 21.0024C15.1504 21.0047 15.1487 21.0075 15.1476 21.0105C15.1465 21.0136 15.1459 21.0169 15.1459 21.0202Z" fill="white"/>
<path d="M16.7591 21.6956C16.781 21.9393 16.8869 22.107 17.0768 22.1985C17.2209 22.2684 17.3665 22.2789 17.5134 22.2301C17.6657 22.1795 17.7837 22.0728 17.8672 21.9102C17.8689 21.9068 17.8714 21.9038 17.8744 21.9014C17.8774 21.899 17.8808 21.8972 17.8845 21.8962C17.8882 21.8952 17.8921 21.895 17.8959 21.8956C17.8997 21.8962 17.9033 21.8976 17.9065 21.8997L18.1145 22.0342C18.1205 22.0381 18.1247 22.0442 18.1263 22.0513C18.1278 22.0584 18.1265 22.0659 18.1227 22.0722C18.0194 22.2391 17.889 22.3625 17.7314 22.4424C17.579 22.5196 17.4105 22.5517 17.2258 22.5386C16.9268 22.5169 16.7021 22.3674 16.5515 22.0901C16.4436 21.8911 16.4157 21.6594 16.4678 21.3949C16.5352 21.0529 16.7089 20.83 16.989 20.7263C17.1926 20.6506 17.3951 20.6465 17.5966 20.7139C17.8157 20.7874 17.9745 20.9389 18.0729 21.1684C18.1016 21.2346 18.1226 21.3113 18.136 21.3986C18.1485 21.4791 18.1564 21.5587 18.1598 21.6374C18.16 21.6416 18.1593 21.6457 18.1578 21.6496C18.1564 21.6535 18.1542 21.657 18.1513 21.66C18.1484 21.663 18.145 21.6654 18.1412 21.667C18.1374 21.6687 18.1333 21.6695 18.1291 21.6695L16.7801 21.6722C16.7772 21.6722 16.7743 21.6728 16.7716 21.674C16.7689 21.6752 16.7665 21.677 16.7645 21.6791C16.7625 21.6813 16.761 21.6839 16.7601 21.6868C16.7592 21.6896 16.7588 21.6926 16.7591 21.6956ZM17.6048 21.0466C17.4759 20.9517 17.3334 20.9269 17.1773 20.972C16.9933 21.0254 16.8621 21.1472 16.7837 21.3372C16.7806 21.3448 16.7793 21.3531 16.7801 21.3613C16.7809 21.3695 16.7837 21.3773 16.7883 21.3842C16.7929 21.391 16.7991 21.3966 16.8063 21.4005C16.8136 21.4044 16.8217 21.4064 16.8299 21.4063H17.7963C17.8009 21.4063 17.8053 21.4053 17.8094 21.4033C17.8135 21.4013 17.817 21.3984 17.8198 21.3949C17.8226 21.3913 17.8245 21.3871 17.8254 21.3827C17.8263 21.3782 17.8262 21.3737 17.8251 21.3693C17.7931 21.2387 17.7197 21.1311 17.6048 21.0466Z" fill="white"/>
<path d="M19.415 22.1341C19.3156 21.9935 19.2623 21.8377 19.255 21.6669C19.2446 21.4298 19.31 21.2167 19.4511 21.0276C19.5983 20.8305 19.8081 20.7127 20.0806 20.6743C20.3064 20.6425 20.5201 20.6927 20.7215 20.8248C20.7284 20.8292 20.7341 20.8346 20.7381 20.8407C20.7421 20.8468 20.7443 20.8533 20.7444 20.8596L20.7489 21.201C20.7493 21.2242 20.741 21.2272 20.7243 21.2102C20.5021 20.9856 20.2679 20.9086 20.0216 20.979C19.8896 21.0169 19.783 21.086 19.7016 21.1864C19.6154 21.2928 19.5703 21.4196 19.5663 21.5667C19.5581 21.88 19.6762 22.0916 19.9206 22.2014C20.0589 22.2637 20.199 22.2788 20.3407 22.2467C20.4922 22.2123 20.6179 22.1306 20.7179 22.0019C20.7502 21.9601 20.7659 21.9651 20.7649 22.017L20.7599 22.3474C20.7598 22.3543 20.7577 22.3611 20.7538 22.3672C20.75 22.3733 20.7445 22.3784 20.738 22.3822C20.407 22.5765 20.087 22.5962 19.778 22.4412C19.6271 22.3656 19.5061 22.2632 19.415 22.1341Z" fill="white"/>
<path d="M25.2968 20.8754C25.3979 20.7769 25.5069 20.7136 25.6236 20.6855C25.9708 20.6022 26.2069 20.7242 26.3322 21.0516C26.3569 21.116 26.3703 21.2228 26.3724 21.372C26.3773 21.7372 26.3782 22.1024 26.3752 22.4676C26.3752 22.4738 26.3728 22.4798 26.3687 22.4842C26.3645 22.4887 26.3588 22.4912 26.3528 22.4914L26.1045 22.4927C26.0982 22.4927 26.0922 22.4902 26.0877 22.4856C26.0833 22.4811 26.0808 22.4749 26.0808 22.4685C26.0808 22.1265 26.0834 21.7915 26.0885 21.4635C26.0904 21.3534 26.0721 21.2467 26.0337 21.1436C26.009 21.0774 25.9691 21.0278 25.9139 20.9949C25.8706 20.9689 25.8121 20.9547 25.7384 20.9523C25.4488 20.9425 25.2954 21.0978 25.278 21.4182C25.2594 21.7611 25.2529 22.1146 25.2584 22.4786C25.2584 22.482 25.2578 22.4853 25.2565 22.4885C25.2552 22.4917 25.2533 22.4945 25.2509 22.497C25.2485 22.4994 25.2456 22.5013 25.2424 22.5026C25.2392 22.504 25.2358 22.5046 25.2323 22.5046H24.9813C24.9751 22.5046 24.9692 22.5022 24.9648 22.4978C24.9605 22.4934 24.958 22.4875 24.958 22.4813L24.9608 20.7551C24.9608 20.747 24.9627 20.739 24.9665 20.7318C24.9702 20.7246 24.9757 20.7185 24.9823 20.7138C24.989 20.7092 24.9966 20.7063 25.0046 20.7052C25.0127 20.7042 25.0208 20.7051 25.0284 20.7079C25.0784 20.7268 25.1282 20.727 25.1779 20.7084C25.2559 20.6794 25.2826 20.7099 25.2579 20.7999C25.25 20.8289 25.2526 20.8536 25.2657 20.874C25.2673 20.8764 25.2694 20.8783 25.2719 20.8797C25.2744 20.8811 25.2773 20.8819 25.2802 20.882C25.2832 20.8821 25.2862 20.8816 25.2891 20.8805C25.2919 20.8793 25.2946 20.8776 25.2968 20.8754Z" fill="white"/>
<path d="M29.5352 21.6035C29.5352 21.852 29.4366 22.0903 29.2611 22.266C29.0856 22.4417 28.8476 22.5404 28.5994 22.5404C28.3512 22.5404 28.1132 22.4417 27.9377 22.266C27.7622 22.0903 27.6636 21.852 27.6636 21.6035C27.6636 21.3551 27.7622 21.1168 27.9377 20.9411C28.1132 20.7654 28.3512 20.6667 28.5994 20.6667C28.8476 20.6667 29.0856 20.7654 29.2611 20.9411C29.4366 21.1168 29.5352 21.3551 29.5352 21.6035ZM28.6182 22.2623C28.7011 22.26 28.7827 22.2407 28.8584 22.2055C28.9341 22.1704 29.0024 22.12 29.0594 22.0574C29.1163 21.9948 29.1608 21.921 29.1903 21.8405C29.2198 21.7599 29.2338 21.674 29.2314 21.5877C29.229 21.5015 29.2102 21.4165 29.1763 21.3377C29.1423 21.2589 29.0938 21.1877 29.0334 21.1284C28.9731 21.069 28.9021 21.0226 28.8246 20.9917C28.747 20.9608 28.6644 20.9461 28.5815 20.9485C28.414 20.9531 28.2553 21.0268 28.1403 21.1534C28.0253 21.2799 27.9634 21.4488 27.9683 21.623C27.9731 21.7973 28.0443 21.9625 28.1662 22.0824C28.2881 22.2023 28.4507 22.267 28.6182 22.2623Z" fill="white"/>
<path d="M36.8045 22.2838C36.6613 22.4241 36.4969 22.5064 36.3112 22.5305C36.1345 22.5537 35.964 22.5207 35.7997 22.4316C35.5452 22.2934 35.3989 22.0623 35.3608 21.7383C35.3288 21.4655 35.3895 21.223 35.5428 21.0106C35.6251 20.8968 35.7194 20.814 35.8258 20.7621C35.9352 20.7087 36.0612 20.6785 36.2038 20.6715C36.4028 20.6614 36.5915 20.7406 36.7698 20.909C36.8045 20.942 36.8223 20.9348 36.8233 20.8875L36.8265 20.7456C36.8266 20.7385 36.829 20.7318 36.8331 20.7267C36.8373 20.7217 36.8429 20.7188 36.8489 20.7186L37.0944 20.7122C37.0993 20.7121 37.1042 20.7131 37.1088 20.7151C37.1134 20.7172 37.1176 20.7202 37.1211 20.7241C37.1246 20.728 37.1274 20.7326 37.1294 20.7377C37.1313 20.7428 37.1323 20.7483 37.1323 20.7539C37.1323 21.3644 37.13 21.9785 37.1254 22.5964C37.1221 23.0809 36.8996 23.3745 36.458 23.4773C36.2453 23.5268 36.0392 23.5017 35.8399 23.4023C35.7022 23.3336 35.5976 23.2432 35.5263 23.1309C35.4523 23.0143 35.4073 22.8774 35.3915 22.7199C35.3909 22.7147 35.3915 22.7095 35.393 22.7045C35.3946 22.6996 35.3971 22.695 35.4005 22.6911C35.4038 22.6872 35.408 22.6841 35.4125 22.682C35.4171 22.6799 35.4221 22.6788 35.4271 22.6787L35.6548 22.6778C35.6611 22.6778 35.6673 22.6802 35.6723 22.6847C35.6772 22.6891 35.6806 22.6953 35.6818 22.7021C35.7378 23.0148 35.9044 23.1838 36.1814 23.2092C36.3469 23.2244 36.4862 23.1915 36.5993 23.1103C36.7279 23.0182 36.7998 22.8774 36.815 22.6879C36.8254 22.5555 36.8277 22.4229 36.8219 22.2902C36.8213 22.2753 36.8155 22.2731 36.8045 22.2838ZM36.2557 22.2637C36.3335 22.2635 36.4104 22.2463 36.4822 22.213C36.554 22.1797 36.6191 22.1309 36.674 22.0695C36.7289 22.0081 36.7723 21.9352 36.802 21.855C36.8316 21.7749 36.8467 21.689 36.8466 21.6022C36.8464 21.5155 36.831 21.4297 36.8011 21.3496C36.7712 21.2695 36.7274 21.1968 36.6724 21.1356C36.6173 21.0744 36.5519 21.0258 36.4801 20.9928C36.4082 20.9597 36.3312 20.9428 36.2534 20.9429C36.1757 20.943 36.0987 20.9602 36.0269 20.9936C35.9552 21.0269 35.89 21.0756 35.8351 21.137C35.7803 21.1985 35.7368 21.2713 35.7072 21.3515C35.6776 21.4317 35.6624 21.5176 35.6625 21.6043C35.6627 21.691 35.6782 21.7769 35.7081 21.8569C35.7379 21.937 35.7817 22.0097 35.8368 22.071C35.8918 22.1322 35.9572 22.1807 36.0291 22.2138C36.101 22.2468 36.178 22.2638 36.2557 22.2637Z" fill="white"/>
<path d="M40.5615 22.3097C40.4146 22.1669 40.3255 22.0015 40.2941 21.8136C40.2639 21.6351 40.2746 21.4559 40.3261 21.2759C40.373 21.1114 40.4615 20.9738 40.5917 20.8631C40.7096 20.7627 40.8526 20.7001 41.0205 20.6754C41.4121 20.6181 41.7076 20.7825 41.9069 21.1688C41.9712 21.2936 41.9965 21.4499 41.9828 21.6379C41.9823 21.6442 41.9795 21.6502 41.9748 21.6545C41.9701 21.6588 41.964 21.6612 41.9576 21.6612L40.6269 21.669C40.6216 21.6691 40.6165 21.6703 40.6118 21.6724C40.6071 21.6746 40.6029 21.6778 40.5995 21.6817C40.5961 21.6856 40.5936 21.6902 40.5922 21.6951C40.5908 21.7 40.5904 21.7051 40.5912 21.7102C40.6211 21.91 40.7035 22.0581 40.8385 22.1545C40.972 22.2497 41.1221 22.2805 41.2888 22.247C41.4629 22.2113 41.5991 22.1024 41.6975 21.9202C41.6999 21.9159 41.7031 21.912 41.7069 21.9089C41.7107 21.9058 41.7151 21.9035 41.7198 21.9022C41.7245 21.9009 41.7293 21.9005 41.7341 21.9012C41.7388 21.9018 41.7433 21.9035 41.7474 21.906L41.9535 22.0351C41.9587 22.0384 41.9624 22.0437 41.9638 22.0498C41.9652 22.056 41.9641 22.0625 41.9608 22.068C41.7612 22.4 41.4661 22.557 41.0753 22.539C40.8812 22.5301 40.7099 22.4537 40.5615 22.3097ZM41.4808 21.08C41.4177 21.026 41.3478 20.9885 41.271 20.9674C41.1972 20.9473 41.12 20.9467 41.0392 20.9656C40.8439 21.011 40.7037 21.1406 40.6186 21.3541C40.6163 21.3599 40.6155 21.3661 40.6161 21.3723C40.6168 21.3785 40.6189 21.3844 40.6224 21.3896C40.6259 21.3947 40.6306 21.3989 40.636 21.4019C40.6415 21.4048 40.6476 21.4063 40.6538 21.4063H41.6404C41.644 21.4063 41.6475 21.4054 41.6508 21.4038C41.654 21.4022 41.6568 21.3999 41.659 21.3971C41.6611 21.3942 41.6626 21.391 41.6633 21.3875C41.6639 21.384 41.6638 21.3804 41.6628 21.377C41.6289 21.254 41.5683 21.155 41.4808 21.08Z" fill="white"/>
<path d="M34.2439 21.6068C34.2439 21.8548 34.1455 22.0926 33.9704 22.268C33.7952 22.4433 33.5576 22.5418 33.3099 22.5418C33.0622 22.5418 32.8247 22.4433 32.6495 22.268C32.4744 22.0926 32.376 21.8548 32.376 21.6068C32.376 21.4841 32.4001 21.3625 32.4471 21.249C32.494 21.1356 32.5628 21.0325 32.6495 20.9457C32.7363 20.8589 32.8392 20.79 32.9525 20.743C33.0658 20.6961 33.1873 20.6719 33.3099 20.6719C33.4326 20.6719 33.554 20.6961 33.6674 20.743C33.7807 20.79 33.8836 20.8589 33.9704 20.9457C34.0571 21.0325 34.1259 21.1356 34.1728 21.249C34.2197 21.3625 34.2439 21.4841 34.2439 21.6068ZM33.3097 22.2627C33.3926 22.2628 33.4747 22.2459 33.5514 22.2131C33.628 22.1802 33.6977 22.1319 33.7565 22.071C33.8152 22.01 33.8618 21.9377 33.8937 21.858C33.9256 21.7783 33.942 21.6929 33.9422 21.6066C33.9423 21.5203 33.9262 21.4348 33.8946 21.355C33.863 21.2752 33.8166 21.2027 33.7581 21.1416C33.6996 21.0804 33.63 21.0319 33.5535 20.9987C33.477 20.9656 33.3949 20.9484 33.312 20.9483C33.2291 20.9481 33.147 20.965 33.0703 20.9979C32.9937 21.0308 32.924 21.0791 32.8652 21.14C32.8065 21.2009 32.7599 21.2733 32.728 21.353C32.6962 21.4326 32.6797 21.5181 32.6795 21.6044C32.6794 21.6907 32.6956 21.7762 32.7271 21.8559C32.7587 21.9357 32.8051 22.0083 32.8636 22.0694C32.9221 22.1305 32.9917 22.179 33.0682 22.2122C33.1447 22.2454 33.2268 22.2625 33.3097 22.2627Z" fill="white"/>
<path d="M43.4266 21.5235C43.3138 21.4558 43.2527 21.3517 43.2433 21.2114C43.2345 21.0741 43.2671 20.9577 43.3411 20.8622C43.4082 20.7756 43.5036 20.7173 43.6273 20.6874C43.8632 20.63 44.0576 20.7179 44.2106 20.951C44.214 20.9562 44.2162 20.962 44.2169 20.9683C44.2177 20.9745 44.2171 20.981 44.215 20.9873C44.213 20.9937 44.2097 20.9997 44.2052 21.005C44.2008 21.0103 44.1953 21.0148 44.1891 21.0183L44.0593 21.091C44.0391 21.1023 44.0163 21.1068 43.9955 21.1036C43.9747 21.1003 43.9576 21.0896 43.9478 21.0737C43.9054 21.005 43.8496 20.9644 43.7804 20.9519C43.7198 20.9412 43.6605 20.9588 43.6026 21.0045C43.4978 21.0872 43.4915 21.1742 43.5839 21.2654C43.6204 21.3017 43.6844 21.3395 43.7759 21.3789C43.9959 21.4738 44.1309 21.5449 44.1809 21.5922C44.3141 21.7188 44.3674 21.8695 44.3409 22.0443C44.3217 22.1712 44.2684 22.2779 44.1809 22.3642C44.1041 22.4402 44.0035 22.4919 43.8792 22.5194C43.5653 22.5886 43.3164 22.4641 43.1327 22.1459C43.1295 22.1406 43.1275 22.1346 43.1268 22.1285C43.126 22.1224 43.1266 22.1162 43.1283 22.1104C43.1301 22.1046 43.1331 22.0992 43.1371 22.0947C43.141 22.0902 43.1459 22.0866 43.1514 22.0841L43.3544 21.9949C43.3594 21.9927 43.3649 21.9916 43.3704 21.9917C43.376 21.9917 43.3814 21.993 43.3865 21.9953C43.3916 21.9976 43.3962 22.0009 43.4001 22.0051C43.4039 22.0093 43.4069 22.0142 43.4088 22.0196C43.456 22.1496 43.547 22.2259 43.6817 22.2484C43.8835 22.2826 44.0013 22.2079 44.0351 22.0242C44.0476 21.9555 44.031 21.8935 43.9853 21.8379C43.9581 21.805 43.9081 21.7711 43.8353 21.7363C43.6595 21.6527 43.5232 21.5818 43.4266 21.5235Z" fill="white"/>
<path d="M38.919 20.7085H38.6594C38.649 20.7085 38.6406 20.7169 38.6406 20.7273V22.48C38.6406 22.4904 38.649 22.4988 38.6594 22.4988H38.919C38.9294 22.4988 38.9378 22.4904 38.9378 22.48V20.7273C38.9378 20.7169 38.9294 20.7085 38.919 20.7085Z" fill="white"/>
<path d="M17.6052 21.0466C17.7201 21.1311 17.7935 21.2387 17.8255 21.3693C17.8266 21.3737 17.8267 21.3782 17.8258 21.3827C17.8249 21.3871 17.8229 21.3913 17.8202 21.3949C17.8174 21.3984 17.8138 21.4013 17.8098 21.4033C17.8057 21.4053 17.8012 21.4063 17.7967 21.4063H16.8303C16.8221 21.4064 16.814 21.4044 16.8067 21.4005C16.7994 21.3966 16.7933 21.391 16.7887 21.3842C16.7841 21.3773 16.7813 21.3695 16.7805 21.3613C16.7797 21.3531 16.781 21.3448 16.7841 21.3372C16.8624 21.1472 16.9937 21.0254 17.1777 20.972C17.3338 20.9269 17.4763 20.9517 17.6052 21.0466Z" fill="black"/>
<path d="M41.4807 21.0801C41.5681 21.1551 41.6288 21.2541 41.6626 21.3771C41.6636 21.3805 41.6638 21.3841 41.6631 21.3875C41.6624 21.391 41.661 21.3943 41.6588 21.3972C41.6566 21.4 41.6538 21.4023 41.6506 21.4039C41.6474 21.4055 41.6438 21.4063 41.6402 21.4064H40.6537C40.6475 21.4064 40.6413 21.4048 40.6359 21.4019C40.6304 21.399 40.6257 21.3948 40.6222 21.3896C40.6187 21.3845 40.6166 21.3786 40.6159 21.3724C40.6153 21.3662 40.6161 21.36 40.6185 21.3542C40.7035 21.1406 40.8437 21.0111 41.039 20.9656C41.1198 20.9467 41.1971 20.9473 41.2708 20.9675C41.3476 20.9885 41.4176 21.0261 41.4807 21.0801Z" fill="black"/>
</g>
<defs>
<clipPath id="clip0_379_1546">
<rect width="58.5156" height="32.9505" fill="white"/>
</clipPath>
</defs>
</svg>
