<svg width="233" height="120" viewBox="0 0 233 120" fill="none" xmlns="http://www.w3.org/2000/svg">
<path d="M190.735 39.4106C190.736 39.9532 190.629 40.4907 190.419 40.9924C190.21 41.4941 189.903 41.9501 189.515 42.3345C189.127 42.7189 188.666 43.024 188.158 43.2326C187.651 43.4411 187.107 43.5489 186.557 43.5499C185.447 43.5518 184.382 43.1183 183.596 42.3447C182.809 41.5712 182.367 40.521 182.365 39.4251C182.364 38.8824 182.471 38.3449 182.681 37.8433C182.89 37.3416 183.197 36.8855 183.585 36.5012C183.973 36.1168 184.434 35.8116 184.942 35.6031C185.449 35.3945 185.993 35.2867 186.543 35.2858C187.653 35.2839 188.718 35.7173 189.504 36.4909C190.291 37.2644 190.733 38.3147 190.735 39.4106ZM186.538 42.8443C187.428 42.8474 188.282 42.4895 188.914 41.8493C189.545 41.2092 189.902 40.3393 189.905 39.4309C189.908 38.5225 189.558 37.6501 188.931 37.0056C188.304 36.3611 187.452 35.9973 186.562 35.9942C186.121 35.9927 185.685 36.0798 185.277 36.2505C184.869 36.4212 184.499 36.6722 184.186 36.9892C183.873 37.3061 183.625 37.6829 183.455 38.0978C183.285 38.5128 183.196 38.9579 183.195 39.4076C183.192 40.316 183.542 41.1884 184.169 41.8329C184.796 42.4774 185.648 42.8412 186.538 42.8443Z" fill="#79C126"/>
<path d="M187.357 39.6825C187.343 39.685 187.33 39.6908 187.319 39.6994C187.308 39.7081 187.3 39.7193 187.294 39.732C187.289 39.7448 187.287 39.7587 187.288 39.7725C187.289 39.7863 187.294 39.7996 187.301 39.8111L188.503 41.6487C188.578 41.7625 188.548 41.8145 188.413 41.8049L187.848 41.7629C187.824 41.7612 187.801 41.7542 187.781 41.7426C187.761 41.7311 187.744 41.7153 187.733 41.6964L186.68 40.0078C186.581 39.8497 186.464 39.7687 186.33 39.7649L185.749 39.7461C185.741 39.7459 185.733 39.7481 185.725 39.7528C185.717 39.7574 185.71 39.7643 185.704 39.773C185.698 39.7818 185.693 39.7922 185.69 39.8037C185.687 39.8152 185.685 39.8276 185.685 39.8401V41.6849C185.685 41.7069 185.677 41.728 185.663 41.7437C185.649 41.7593 185.63 41.7683 185.609 41.7687L185.056 41.7716C185.036 41.7716 185.017 41.7629 185.002 41.7475C184.988 41.732 184.98 41.7111 184.98 41.6892V37.1567C184.98 37.1369 184.988 37.1179 185.001 37.1034C185.015 37.0889 185.033 37.0801 185.053 37.0786C185.805 37.0246 186.558 37.029 187.31 37.0916C187.69 37.1234 187.982 37.2661 188.185 37.5196C188.356 37.7316 188.451 38.0131 188.471 38.3639C188.511 39.0936 188.139 39.5331 187.357 39.6825ZM187.179 37.761C186.797 37.6454 186.34 37.6246 185.81 37.6989C185.782 37.703 185.756 37.7171 185.737 37.7386C185.719 37.7601 185.708 37.7876 185.708 37.816V39.0058C185.708 39.0331 185.719 39.0592 185.739 39.0784C185.758 39.0977 185.784 39.1085 185.812 39.1085C186.228 39.1085 186.606 39.1061 186.946 39.1013C187.246 39.0974 187.462 38.9885 187.593 38.7745C187.736 38.5403 187.755 38.3196 187.65 38.1123C187.566 37.9475 187.409 37.8304 187.179 37.761Z" fill="#79C126"/>
<path d="M162.454 37.1183L158.307 37.1255C157.914 37.1262 157.595 37.4432 157.596 37.8337L157.603 41.986C157.604 42.3764 157.923 42.6924 158.317 42.6917L162.464 42.6845C162.857 42.6839 163.176 42.3668 163.175 41.9763L163.168 37.824C163.167 37.4336 162.848 37.1176 162.454 37.1183Z" fill="#79C126"/>
<path d="M172.612 47.0877C174.606 47.0973 176.6 47.1002 178.593 47.0964C178.932 47.0964 179.159 47.1157 179.273 47.1542C179.542 47.2458 179.633 47.4371 179.547 47.7282C179.515 47.8381 179.428 48.0063 179.285 48.2328C178.664 49.2082 178.046 50.1841 177.428 51.1605C177.28 51.3957 177.114 51.6024 176.932 51.7807C176.827 51.8826 176.686 51.9397 176.54 51.9398H172.625C172.613 51.9398 172.6 51.9422 172.589 51.947C172.577 51.9518 172.566 51.9588 172.557 51.9677C172.548 51.9766 172.541 51.9871 172.537 51.9987C172.532 52.0102 172.529 52.0226 172.529 52.0352C172.529 59.3055 172.529 66.5605 172.529 73.8C172.529 74.3426 172.517 74.6593 172.491 74.7499C172.409 75.0439 172.206 75.2188 171.883 75.2747C171.824 75.2843 171.576 75.2892 171.137 75.2892C169.999 75.2892 168.861 75.2892 167.724 75.2892C167.289 75.2892 167.037 75.1094 166.969 74.7499C166.962 74.7161 166.959 74.4482 166.959 73.946C166.959 62.0964 166.959 50.2467 166.959 38.3971C166.959 37.9393 166.963 37.6921 166.972 37.6554C167.02 37.4463 167.145 37.2954 167.348 37.2029C167.466 37.148 167.649 37.1205 167.895 37.1205C169.113 37.1205 170.33 37.1205 171.548 37.1205C171.841 37.1205 172.052 37.1547 172.181 37.2231C172.413 37.3465 172.529 37.5533 172.529 37.8434C172.524 40.9007 172.527 43.9581 172.538 47.0154C172.538 47.0346 172.546 47.053 172.56 47.0665C172.574 47.0801 172.593 47.0877 172.612 47.0877Z" fill="#79C126"/>
<path d="M44.1987 75.399C43.7929 75.4096 43.3871 75.4029 42.9813 75.3788C42.7919 75.3672 42.6458 75.3166 42.5429 75.227C42.4575 75.1537 42.3881 75.0675 42.3347 74.9682C42.29 74.8872 42.2677 74.7831 42.2677 74.6559C42.2677 64.0429 42.2677 53.4299 42.2677 42.8169C42.2677 42.4969 42.3245 42.2289 42.4381 42.013C42.5517 41.7981 42.7041 41.5557 42.8953 41.2858C43.6613 40.2101 44.4278 39.1354 45.1948 38.0617C45.2016 38.053 45.255 37.9716 45.355 37.8174C45.588 37.4598 45.9049 37.2598 46.3059 37.2174C46.6554 37.1807 46.9486 37.186 47.1855 37.2333C47.4486 37.2863 47.6291 37.4419 47.7272 37.7002C47.7767 37.8304 47.8015 38.0492 47.8015 38.3566C47.8015 44.9754 47.8015 51.5937 47.8015 58.2116C47.8015 58.4362 47.8471 58.6043 47.9383 58.7162C48.1209 58.9427 48.3451 58.9036 48.6111 58.599C49.6489 57.4154 52.6085 53.9995 57.4899 48.3513C57.9481 47.8212 58.3364 47.4766 58.6549 47.3176C59.0859 47.1017 59.5573 47.0005 60.0689 47.014C60.3077 47.0207 60.4305 47.0241 60.4373 47.0241C61.5237 47.0241 62.6101 47.0241 63.6964 47.0241C64.076 47.0241 64.3488 47.0559 64.5148 47.1195C64.8769 47.2593 64.9619 47.5123 64.7697 47.8786C64.7085 47.9952 64.5668 48.1817 64.3445 48.4381C61.0912 52.1894 57.8462 55.947 54.6094 59.7109C54.3774 59.9807 54.2157 60.2034 54.1245 60.3788C53.9692 60.6786 54.007 60.9523 54.2381 61.2C58.0758 65.3051 61.9101 69.414 65.741 73.5268C65.9905 73.7957 66.189 74.0149 66.3366 74.1846C66.5133 74.388 66.5982 74.574 66.5914 74.7427C66.5846 74.9296 66.4978 75.0771 66.3308 75.1851C66.2259 75.2535 66.073 75.2901 65.8721 75.2949C64.776 75.3239 63.6794 75.3364 62.5824 75.3325C61.3902 75.3296 60.7116 75.3113 60.5465 75.2776C59.8621 75.1417 59.2515 74.787 58.7146 74.2135C55.3089 70.5817 51.9168 66.9374 48.5383 63.2805C48.2781 62.9981 48.0553 63.0039 47.8699 63.2978C47.8251 63.3687 47.8014 63.4509 47.8015 63.5349C47.8015 67.3316 47.8015 71.0227 47.8015 74.6082C47.8015 74.8106 47.765 74.9668 47.6922 75.0766C47.5854 75.2376 47.4398 75.3325 47.2554 75.3615C47.0486 75.3933 46.435 75.4005 45.4147 75.3831C45.1836 75.3793 44.7783 75.3846 44.1987 75.399Z" fill="#79C126"/>
<path d="M144.732 53.5157C143.18 52.5537 141.439 52.0993 139.509 52.1523C138.189 52.1899 136.953 52.4757 135.798 53.0096C134.918 53.4183 134.124 53.9658 133.419 54.652C132.098 55.9359 131.278 57.492 130.956 59.3205C130.858 59.8795 130.808 60.841 130.806 62.2048C130.797 67.8087 130.786 73.412 130.773 79.0149C130.772 79.3311 130.717 79.6082 130.61 79.8463C130.446 80.2087 130.242 80.5489 129.998 80.867C129.697 81.2583 129.546 81.4549 129.545 81.4569C128.857 82.4207 128.169 83.3851 127.483 84.3499C127.222 84.7171 126.861 84.8843 126.401 84.8516C126.272 84.8429 126.143 84.8371 126.014 84.8342C125.848 84.8304 125.721 84.8101 125.635 84.7735C125.321 84.6424 125.165 84.3725 125.165 83.9639C125.165 76.6501 125.165 69.3364 125.165 62.0226C125.165 60.7484 125.206 59.7875 125.29 59.1397C125.74 55.6236 127.237 52.6487 129.781 50.2149C130.492 49.5344 131.253 48.9398 132.066 48.4308C134.54 46.8819 137.253 46.1402 140.205 46.2058C141.184 46.2279 142.145 46.3504 143.085 46.573C145.55 47.1571 147.713 48.2945 149.574 49.9851C150.271 50.6183 150.916 51.3373 151.507 52.1422C153.923 55.4376 154.886 59.1441 154.396 63.2617C154.279 64.2506 154.082 65.1928 153.808 66.0882C152.949 68.8882 151.402 71.2352 149.165 73.1291C147.385 74.6376 145.282 75.6198 142.857 76.0757C140.015 76.6096 137.3 76.2617 134.71 75.0318C134.207 74.7928 133.739 74.4954 133.308 74.1397C133.256 74.0965 133.214 74.043 133.185 73.9827C133.155 73.9224 133.138 73.8567 133.136 73.7899C133.08 72.1176 133.078 70.4289 133.13 68.7238C133.136 68.533 133.183 68.3932 133.27 68.3046C133.425 68.1465 133.609 68.1643 133.821 68.3581C135.254 69.6737 136.894 70.4463 138.743 70.6757C142.642 71.1595 145.564 69.8149 147.509 66.6419C148.329 65.3051 148.788 63.7422 148.888 61.9532C149.029 59.4482 148.363 57.2761 146.89 55.4371C146.271 54.6641 145.552 54.0236 144.732 53.5157Z" fill="#79C126"/>
<path d="M101.24 68.319C102.221 69.3156 103.384 70.0202 104.726 70.4327C106.55 70.9937 108.385 71.0231 110.229 70.5209C112.341 69.9455 113.955 68.8091 115.071 67.1118C116.065 65.6014 116.614 63.9055 116.718 62.024C116.803 60.506 116.567 59.0867 116.011 57.7662C114.918 55.1773 113.109 53.4375 110.583 52.5469C109.648 52.2183 108.698 52.051 107.732 52.0452C105.912 52.0346 104.206 52.5277 102.615 53.5243C101.578 54.1749 100.712 54.9146 100.017 55.7436C99.4584 56.4096 98.8973 57.2342 98.3332 58.2173C96.6314 61.185 94.9339 64.1546 93.2407 67.1262C92.3447 68.7002 91.2695 70.131 90.0151 71.4187C89.3045 72.1493 88.5754 72.784 87.8279 73.3228C85.2445 75.1869 82.3383 76.1532 79.1093 76.2216C78.119 76.2428 77.154 76.1648 76.2143 75.9874C73.5251 75.4804 71.1727 74.3195 69.1573 72.5045C68.4525 71.8693 67.8078 71.1518 67.2234 70.3518C64.9876 67.2934 64.0255 63.8515 64.3371 60.026C64.4177 59.0457 64.5895 58.0992 64.8526 57.1865C65.7807 53.9739 67.6054 51.3195 70.3266 49.2231C72.4304 47.6028 74.7638 46.653 77.3268 46.3734C79.6248 46.1228 81.8781 46.4689 84.0868 47.4115C86.3323 48.3686 88.3074 49.7161 90.0122 51.4539C90.5889 52.0428 90.9569 52.6173 91.1161 53.1773C91.1782 53.399 91.17 53.6655 91.0913 53.9768C91.0408 54.1744 90.935 54.4139 90.7739 54.6954C89.471 56.972 87.9647 59.5383 86.2551 62.3942C86.0037 62.8144 85.6687 63.0809 85.2503 63.1937C85.1037 63.2332 84.6984 63.253 84.0343 63.253C80.4811 63.2568 76.9278 63.2539 73.3746 63.2443C73.1542 63.2443 72.9926 63.1985 72.8896 63.1069C72.7159 62.9508 72.7052 62.7493 72.8576 62.5026C73.9527 60.731 74.6323 59.6708 74.8964 59.3219C75.0925 59.0645 75.3658 58.9469 75.7162 58.9691C75.9143 58.9826 76.0177 58.9893 76.0264 58.9893C78.6428 59.0057 81.2165 58.9937 83.7475 58.9532C83.961 58.9503 84.1207 58.8568 84.2266 58.6727C84.7634 57.7416 85.278 56.8462 85.7702 55.9865C85.9119 55.7387 85.9187 55.5209 85.7906 55.333C85.7731 55.3079 85.6333 55.1725 85.3712 54.9267C84.1829 53.8154 82.8315 53.0052 81.317 52.4963C80.3753 52.1802 79.4219 52.0337 78.4569 52.0568C76.3997 52.106 74.592 52.773 73.0338 54.0578C72.2824 54.6775 71.6504 55.4024 71.1378 56.2322C70.2029 57.7484 69.7286 59.438 69.715 61.3012C69.7063 62.5975 69.917 63.8399 70.347 65.0284C70.6849 65.9624 71.1421 66.8077 71.7188 67.5643C73.1265 69.4101 75.0444 70.491 77.4725 70.8072C78.42 70.9305 79.5078 70.9156 80.7359 70.7624C82.5485 70.5368 84.0829 69.7696 85.3391 68.4607C86.2197 67.5431 87.0468 66.4607 87.8206 65.2134C88.6205 63.9257 89.2108 62.9445 89.5914 62.2698C90.8797 59.9855 92.182 57.7093 93.4985 55.4414C94.1305 54.3542 94.6514 53.5416 95.0611 53.0038C96.1018 51.6361 97.3187 50.4313 98.7119 49.3893C100.365 48.1527 102.193 47.2679 104.195 46.7349C106.392 46.1498 108.628 46.1277 110.905 46.6684C111.843 46.891 112.756 47.212 113.644 47.6313C116.577 49.0183 118.831 51.1739 120.406 54.0983C121.416 55.9768 122.007 57.9802 122.178 60.1084C122.425 63.2072 121.836 66.0819 120.409 68.7325C119.945 69.5932 119.407 70.3927 118.792 71.131C116.672 73.6785 113.939 75.2905 110.593 75.9672C108.866 76.3161 107.09 76.3103 105.264 75.9498C102.78 75.4583 100.571 74.4395 98.6347 72.8934C98.0483 72.424 97.543 71.9368 97.1187 71.4318C96.6556 70.8795 96.2595 70.2978 95.9304 69.6867C95.6838 69.2289 95.6062 68.7633 95.6974 68.2901C95.745 68.0443 95.9314 67.6346 96.2566 67.0612C98.1828 63.6655 99.4968 61.399 100.199 60.2616C100.341 60.0313 100.56 59.8597 100.855 59.7469C101.043 59.6746 101.309 59.6385 101.653 59.6385C105.389 59.6385 109.125 59.6385 112.859 59.6385C113.553 59.6385 113.728 59.9243 113.387 60.4958C112.758 61.5465 112.106 62.5836 111.429 63.6072C111.318 63.7759 111.16 63.8631 110.956 63.8689C110.032 63.892 109.092 63.8983 108.135 63.8877C106.669 63.8713 105.203 63.864 103.737 63.866C103.108 63.8669 102.783 63.8698 102.762 63.8746C102.444 63.9373 102.204 64.1248 102.042 64.4371C101.945 64.6269 101.894 64.7267 101.888 64.7363C101.456 65.4631 101.025 66.1903 100.596 66.918C100.42 67.2168 100.45 67.4925 100.688 67.745C100.87 67.9387 101.054 68.1301 101.24 68.319Z" fill="#79C126"/>
<path d="M162.439 47.0616H158.335C157.93 47.0616 157.601 47.3879 157.601 47.7903V74.5604C157.601 74.9629 157.93 75.2891 158.335 75.2891H162.439C162.844 75.2891 163.173 74.9629 163.173 74.5604V47.7903C163.173 47.3879 162.844 47.0616 162.439 47.0616Z" fill="#79C126"/>
</svg>
