<svg width="156" height="156" viewBox="0 0 156 156" fill="none" xmlns="http://www.w3.org/2000/svg">
<path d="M40.6328 53.1856L38.2772 50.31C38.1868 50.1997 38.1331 50.0661 38.1246 49.9304C38.1161 49.7947 38.1534 49.6647 38.2304 49.5612L46.124 38.948C46.1695 38.8863 46.2002 38.8135 46.2137 38.7352C46.2272 38.6569 46.2232 38.575 46.202 38.4956L44.7772 33.2696C44.7585 33.2023 44.7676 33.1301 44.8025 33.068C44.8374 33.006 44.8954 32.959 44.9644 32.9368L56.4668 29.1044C56.6284 29.0504 56.7645 28.9437 56.8516 28.8028L61.932 20.5348C62.027 20.3818 62.1738 20.2682 62.3457 20.2147C62.5176 20.1612 62.7031 20.1715 62.868 20.2436L71.3908 24.0188C71.5284 24.0795 71.6825 24.1033 71.8394 24.0878C71.9963 24.0724 72.1513 24.0183 72.2904 23.9304L77.9428 20.3216C78.0648 20.2426 78.2126 20.2044 78.3678 20.2118C78.5231 20.2192 78.6791 20.2718 78.8164 20.3632L84.4064 24.0448C84.4701 24.0879 84.5459 24.1134 84.6268 24.1188C84.7077 24.1243 84.7911 24.1095 84.8692 24.076L93.912 20.228C94.0076 20.1872 94.1149 20.1826 94.2142 20.2151C94.3135 20.2475 94.3983 20.3149 94.4528 20.4048L99.6736 28.8132C99.8214 29.0517 100.064 29.2375 100.36 29.3384L111.654 33.2176C111.723 33.2416 111.781 33.2903 111.816 33.3539C111.85 33.4174 111.86 33.4913 111.842 33.5608L110.495 38.3604C110.461 38.482 110.453 38.6071 110.472 38.7261C110.491 38.8451 110.536 38.9548 110.604 39.0468L118.477 49.6288C118.533 49.7031 118.56 49.7971 118.553 49.8953C118.547 49.9936 118.507 50.0902 118.44 50.1696L116.007 53.1076C115.974 53.1472 115.954 53.1947 115.947 53.2455C115.941 53.2963 115.949 53.3485 115.97 53.3969C115.991 53.4453 116.024 53.4882 116.067 53.5214C116.11 53.5546 116.161 53.5768 116.215 53.586L119.574 54.1788C119.606 54.1846 119.636 54.1976 119.662 54.2168C119.688 54.236 119.71 54.2609 119.725 54.2897C119.74 54.3186 119.749 54.3506 119.751 54.3836C119.753 54.4166 119.747 54.4496 119.735 54.4804C118.272 58.266 117.154 60.8729 116.381 62.3012C115.969 63.0708 115.825 63.8161 115.95 64.5372C115.96 64.5961 116.21 65.2721 116.698 66.5652C118.106 70.3022 119.564 74.1381 121.072 78.0728C121.133 78.229 121.156 78.3978 121.14 78.5658C121.124 78.7338 121.068 78.8962 120.978 79.04C119.023 82.1461 117.066 85.2609 115.107 88.3844C114.345 89.6012 113.455 90.688 112.44 91.6448C107.347 96.4461 102.116 101.097 96.746 105.596C96.4999 105.804 96.3612 105.747 96.33 105.425C96.0215 102.131 95.654 98.8415 95.2276 95.5551C95.2207 95.5066 95.2155 95.1565 95.212 94.5048C95.2086 93.8114 94.8376 93.4925 94.0992 93.5479C93.6347 93.5826 93.3885 93.6 93.3608 93.6C92.144 93.6 90.7487 93.6 89.1748 93.6C89.0609 93.5998 88.9483 93.6249 88.8449 93.6735C88.7416 93.722 88.65 93.7928 88.5768 93.8807L83.512 100.006C83.4533 100.076 83.381 100.133 83.3001 100.171C83.2193 100.21 83.1319 100.23 83.044 100.23L73.7412 100.199C73.6581 100.199 73.5763 100.181 73.5017 100.146C73.427 100.11 73.3614 100.059 73.3096 99.996L68.3072 93.9535C68.2178 93.8464 68.1102 93.7604 67.9923 93.7019C67.8743 93.6434 67.7492 93.6139 67.626 93.6156L61.8488 93.6832C61.7761 93.6829 61.7057 93.7103 61.6511 93.7602C61.5964 93.81 61.5613 93.8788 61.5524 93.9535L60.1848 105.206C60.1293 105.681 59.9196 105.766 59.5556 105.461C54.2447 100.989 49.147 96.4444 44.2624 91.8268C43.212 90.8353 42.2899 89.7156 41.496 88.4676C39.5339 85.3822 37.544 82.2484 35.5264 79.066C35.4376 78.9268 35.3825 78.7685 35.3654 78.6034C35.3482 78.4383 35.3695 78.2709 35.4276 78.1144L40.6016 64.0692C40.6586 63.9185 40.6567 63.7466 40.5964 63.5856L37.2684 54.4544C37.2576 54.4253 37.2535 54.3942 37.2562 54.3632C37.2589 54.3321 37.2685 54.3018 37.2842 54.2743C37.3 54.2468 37.3215 54.2226 37.3475 54.2034C37.3735 54.1843 37.4032 54.1705 37.4348 54.1632L40.5392 53.4612C40.5676 53.4545 40.5937 53.4407 40.6153 53.4212C40.6368 53.4016 40.653 53.3769 40.6624 53.3493C40.6718 53.3217 40.674 53.2922 40.6688 53.2636C40.6636 53.235 40.6512 53.2081 40.6328 53.1856ZM83.85 24.6012L78.5356 21.1588C78.4441 21.1012 78.3383 21.0707 78.2306 21.0707C78.1229 21.0707 78.0177 21.1012 77.9272 21.1588L72.6232 24.5856C72.5255 24.6487 72.4538 24.745 72.4213 24.8568C72.3888 24.9685 72.3978 25.0882 72.4464 25.194L78.104 37.4816C78.2323 37.7658 78.3606 37.7658 78.4888 37.4816L84.0164 25.1628C84.0601 25.0639 84.0673 24.953 84.0368 24.85C84.0063 24.7469 83.94 24.6587 83.85 24.6012ZM68.0524 41.4596C68.1911 42.0212 68.3107 42.0177 68.4112 41.4492L71.2556 25.3812C71.2825 25.2363 71.2602 25.0868 71.1921 24.9574C71.1241 24.8279 71.0145 24.7262 70.8812 24.6688L63.5648 21.4448C63.2285 21.2992 63.1037 21.4049 63.1904 21.762L68.0524 41.4596ZM90.5996 32.942C91.4455 29.2777 92.3382 25.5302 93.2776 21.6996C93.3747 21.2974 93.2308 21.183 92.846 21.3564L85.462 24.6532C85.3527 24.7022 85.2625 24.7841 85.2059 24.886C85.1494 24.9878 85.1297 25.1036 85.15 25.2148L88.1244 41.5688C88.1556 41.7456 88.1972 41.749 88.2492 41.5792C89.1436 38.733 89.9271 35.854 90.5996 32.942ZM57.6888 28.9016C57.6443 28.9718 57.6219 29.0537 57.6247 29.1363C57.6275 29.2189 57.6553 29.2985 57.7044 29.3644C60.7412 33.3233 63.7694 37.2822 66.7888 41.2412C66.8824 41.366 66.9673 41.4128 67.0436 41.3816C67.0853 41.3644 67.1172 41.3219 67.1334 41.2618C67.1496 41.2016 67.1491 41.1279 67.132 41.054L62.4 21.8452C62.3411 21.6025 62.2457 21.5869 62.114 21.7984L57.6888 28.9016ZM89.6064 41.5324L98.7272 29.6348C98.8172 29.5187 98.8694 29.3774 98.8769 29.2297C98.8843 29.082 98.8466 28.9349 98.7688 28.808L94.5204 21.944C94.3159 21.6146 94.1668 21.6389 94.0732 22.0168L89.2996 41.3868C89.1644 41.9276 89.2667 41.9761 89.6064 41.5324ZM79.3104 38.7244L87.178 43.0976C87.4449 43.2432 87.5524 43.1669 87.5004 42.8688L84.5572 26.3536C84.5122 26.097 84.4359 26.0884 84.3284 26.3276L79.092 38.0692C79.0395 38.1858 79.0328 38.318 79.0733 38.4394C79.1138 38.5608 79.1984 38.6625 79.3104 38.7244ZM71.8016 26.7384L68.9676 42.8792C68.9122 43.1981 69.0265 43.2796 69.3108 43.1236L77.35 38.6672C77.4518 38.6105 77.5283 38.5177 77.5641 38.4075C77.5998 38.2974 77.5921 38.1782 77.5424 38.0744L72.2228 26.6812C72.0252 26.2548 71.8848 26.2738 71.8016 26.7384ZM110.022 33.3788L99.7308 29.8896C99.6581 29.8651 99.5797 29.864 99.5068 29.8865C99.434 29.9089 99.3704 29.9536 99.3252 30.0144L89.7104 42.588C89.2771 43.1565 89.3846 43.2917 90.0328 42.9936L110.048 33.8884C110.464 33.6977 110.455 33.5278 110.022 33.3788ZM46.67 33.6544L66.4872 42.8792C67.1112 43.1704 67.2135 43.0421 66.794 42.4944L57.4236 30.2484C57.3078 30.098 57.1477 29.9874 56.9652 29.9315C56.7828 29.8756 56.5869 29.8773 56.4044 29.9364L46.7064 33.1032C46.2246 33.2592 46.2124 33.4429 46.67 33.6544ZM66.2688 43.68L45.994 34.2368C45.7687 34.1328 45.6907 34.2004 45.76 34.4396L48.5836 44.564C48.6026 44.6355 48.646 44.6984 48.7066 44.7419C48.7672 44.7855 48.8413 44.8071 48.9164 44.8032L66.2116 43.9556C66.6034 43.9348 66.6224 43.8429 66.2688 43.68ZM90.5112 43.966L107.604 44.6784C107.681 44.6811 107.757 44.659 107.819 44.6157C107.881 44.5724 107.926 44.5103 107.947 44.4392L110.682 34.788C110.765 34.4898 110.665 34.4066 110.38 34.5384C104.206 37.3776 98.1119 40.1249 92.0972 42.7804C91.5044 43.0404 90.955 43.3732 90.4488 43.7788C90.2998 43.8966 90.3205 43.959 90.5112 43.966ZM69.8724 44.5536L77.5476 51.194C77.8492 51.4574 78 51.3864 78 50.9808V39.4628C78 39.4354 77.9928 39.4084 77.9792 39.3847C77.9655 39.361 77.9458 39.3413 77.9221 39.3276C77.8983 39.3139 77.8714 39.3067 77.844 39.3067C77.8166 39.3066 77.7897 39.3139 77.766 39.3276L69.9608 43.706C69.8881 43.7476 69.8262 43.806 69.7804 43.8761C69.7346 43.9462 69.7062 44.0261 69.6975 44.1091C69.6889 44.1921 69.7003 44.2757 69.7307 44.3531C69.7611 44.4304 69.8097 44.4991 69.8724 44.5536ZM86.9284 43.8256L79.2584 39.546C79.209 39.5187 79.1534 39.5048 79.097 39.5057C79.0406 39.5067 78.9854 39.5224 78.937 39.5514C78.8885 39.5803 78.8486 39.6215 78.821 39.6707C78.7935 39.7199 78.7793 39.7755 78.78 39.832L78.8112 51.2304C78.8112 51.4002 78.8753 51.4297 79.0036 51.3188L86.9908 44.3872C87.0323 44.3511 87.0644 44.3055 87.0843 44.2542C87.1043 44.2029 87.1115 44.1474 87.1054 44.0924C87.0993 44.0373 87.08 43.9844 87.0492 43.9379C87.0184 43.8915 86.977 43.853 86.9284 43.8256ZM46.1708 40.1024L39.2184 49.4676C39.128 49.5909 39.0829 49.7426 39.0905 49.8982C39.098 50.0538 39.1577 50.2043 39.26 50.3256L41.4752 52.9464C41.5592 53.0445 41.667 53.1188 41.7875 53.1617C41.9081 53.2046 42.0371 53.2146 42.1616 53.1908L50.05 51.6204C50.1123 51.6078 50.171 51.5814 50.2218 51.5433C50.2726 51.5051 50.3142 51.4561 50.3436 51.3997C50.373 51.3434 50.3894 51.2812 50.3917 51.2177C50.394 51.1542 50.3821 51.091 50.3568 51.0328C48.8107 47.5765 47.5644 43.9642 46.618 40.196C46.5314 39.8493 46.3823 39.8181 46.1708 40.1024ZM106.319 51.4852L114.275 53.066C114.424 53.0942 114.572 53.0884 114.706 53.0491C114.839 53.0098 114.953 52.9384 115.034 52.8424L117.39 50.0136C117.436 49.9584 117.458 49.8853 117.455 49.8061C117.451 49.7268 117.421 49.646 117.369 49.5768L110.49 40.1232C110.261 39.8112 110.098 39.8424 110.001 40.2168C109.009 44.0544 107.732 47.7134 106.168 51.194C106.155 51.2227 106.149 51.254 106.15 51.2857C106.15 51.3173 106.158 51.3483 106.173 51.3764C106.187 51.4044 106.208 51.4288 106.233 51.4477C106.259 51.4665 106.288 51.4793 106.319 51.4852ZM105.695 45.5364L88.8888 44.694C88.8179 44.6896 88.7477 44.7127 88.6919 44.7588C88.6362 44.805 88.5988 44.8708 88.5872 44.9436C88.2094 47.3772 88.0066 49.8264 87.9788 52.2912C87.9788 52.3606 88.0054 52.4273 88.0531 52.4769C88.1007 52.5265 88.1655 52.555 88.2336 52.5564C89.6688 52.5945 91.1023 52.6222 92.534 52.6396C93.2447 52.6465 93.9137 52.4801 94.5412 52.1404C98.3615 50.0708 102.102 47.963 105.763 45.8172C106.051 45.6473 106.028 45.5537 105.695 45.5364ZM51.3084 46.0616C54.73 47.9752 58.2175 49.9373 61.7708 51.948C62.4642 52.3362 63.1921 52.5408 63.9548 52.5616C65.3727 52.6032 66.8529 52.5962 68.3956 52.5408C68.4344 52.5395 68.4725 52.5303 68.5075 52.5139C68.5425 52.4975 68.5737 52.4741 68.5991 52.4453C68.6245 52.4165 68.6436 52.3828 68.6551 52.3465C68.6666 52.3101 68.6703 52.2718 68.666 52.234L68.0004 45.1048C67.9886 44.9903 67.9336 44.8847 67.8467 44.8093C67.7598 44.734 67.6474 44.6946 67.5324 44.6992L51.4748 45.37C50.6047 45.4081 50.5492 45.6386 51.3084 46.0616ZM77.376 52.182L69.4304 45.3024C69.0283 44.9557 68.8498 45.0458 68.8948 45.5728L69.7476 55.692C69.7521 55.7389 69.7675 55.7842 69.7926 55.8239C69.8176 55.8637 69.8516 55.8968 69.8915 55.9203C69.9314 55.9439 69.9761 55.9571 70.0216 55.959C70.0672 55.9609 70.1124 55.9513 70.1532 55.9312L77.3188 52.6084C77.3572 52.5906 77.3904 52.5634 77.4154 52.5293C77.4404 52.4952 77.4565 52.4552 77.4621 52.4129C77.4678 52.3706 77.4629 52.3274 77.4479 52.2871C77.4328 52.2467 77.4082 52.2106 77.376 52.182ZM87.3756 45.2348L79.4872 52.2132C79.4645 52.2336 79.4471 52.2592 79.4366 52.2879C79.4261 52.3165 79.4227 52.3473 79.4268 52.3776C79.4309 52.4078 79.4424 52.4366 79.4601 52.4614C79.4779 52.4862 79.5015 52.5063 79.5288 52.52L86.5956 55.9312C86.6222 55.9437 86.6514 55.9495 86.6808 55.948C86.7102 55.9464 86.7389 55.9376 86.7645 55.9223C86.79 55.9069 86.8117 55.8855 86.8275 55.8599C86.8434 55.8343 86.853 55.8052 86.8556 55.7752L87.6928 45.4012C87.7171 45.0788 87.6114 45.0233 87.3756 45.2348ZM61.6096 52.7384L49.4156 45.8952C49.0482 45.6906 48.9442 45.7842 49.1036 46.176L56.7788 65.0104C56.8967 65.3016 57.0111 65.3016 57.122 65.0104L61.7344 53.0816C61.7588 53.0197 61.7596 52.9509 61.7366 52.8878C61.7137 52.8247 61.6686 52.7717 61.6096 52.7384ZM99.814 64.922L107.354 46.2124C107.465 45.935 107.39 45.8692 107.13 46.0148L95.2484 52.624C95.1075 52.7013 94.9996 52.8275 94.945 52.9788C94.8904 53.13 94.8929 53.296 94.952 53.4456L99.4396 64.9168C99.5644 65.2322 99.6892 65.234 99.814 64.922ZM39.6084 55.146L55.5308 65.4368C56.1098 65.8112 56.2727 65.6794 56.0196 65.0416L51.0276 52.5356C50.9986 52.4654 50.947 52.4074 50.8815 52.3714C50.8161 52.3353 50.7409 52.3235 50.6688 52.338L39.7176 54.5116C39.163 54.6225 39.1266 54.834 39.6084 55.146ZM117.302 54.4388L105.955 52.26C105.901 52.2499 105.845 52.259 105.797 52.2855C105.748 52.312 105.711 52.3544 105.69 52.4056L100.516 65.2756C100.287 65.8441 100.433 65.9637 100.953 65.6344L117.437 55.172C118.005 54.8114 117.96 54.567 117.302 54.4388ZM64.766 53.3988C64.1906 53.3918 64.1611 53.5253 64.6776 53.7992L68.874 56.0144C69.1826 56.1773 69.2796 56.0976 69.1652 55.7752C68.9503 55.1858 68.8654 54.5289 68.9104 53.8044C68.9133 53.7582 68.9068 53.712 68.8913 53.6685C68.8759 53.6251 68.8518 53.5853 68.8206 53.5517C68.7894 53.518 68.7518 53.4913 68.71 53.473C68.6682 53.4548 68.6231 53.4454 68.5776 53.4456L64.766 53.3988ZM69.706 57.4132L63.336 79.9812C63.2112 80.4318 63.3204 80.4994 63.6636 80.184L74.1728 70.5016C74.2977 70.3904 74.3819 70.2403 74.412 70.0752L77.74 53.5496C77.7678 53.4248 77.7209 53.3866 77.5996 53.4352C74.9927 54.4682 72.462 55.6694 70.0076 57.0388C69.8608 57.1224 69.7527 57.2565 69.706 57.4132ZM86.2524 56.7944L79.4456 53.5184C79.1614 53.3832 79.0504 53.4716 79.1128 53.7836L82.3992 70.044C82.433 70.213 82.5185 70.366 82.6436 70.4808L92.5496 79.5912C93.0557 80.0557 93.217 79.9534 93.0332 79.2844L87.1208 57.85C87.057 57.6196 86.9465 57.4064 86.7968 57.2244C86.647 57.0423 86.4615 56.8957 86.2524 56.7944ZM87.8748 53.69L87.6252 55.6088C87.5975 55.8133 87.6841 55.8636 87.8852 55.7596L91.8632 53.7368C92.2654 53.5322 92.2393 53.43 91.7852 53.43H88.2076C88.1253 53.4304 88.0463 53.457 87.9852 53.5047C87.9241 53.5524 87.8849 53.6182 87.8748 53.69ZM93.7976 53.638L88.0152 56.784C87.9878 56.7987 87.9646 56.8202 87.9479 56.8465C87.9311 56.8728 87.9212 56.9031 87.9192 56.9346C87.9171 56.9661 87.9229 56.9978 87.936 57.0269C87.9492 57.056 87.9692 57.0815 87.9944 57.1012L98.1864 65.1248C98.6614 65.4992 98.7914 65.4056 98.5764 64.844L94.3228 53.846C94.3023 53.7952 94.2718 53.7491 94.2334 53.7107C94.1951 53.6722 94.1496 53.6421 94.1001 53.6225C94.0506 53.6029 93.998 53.5941 93.9459 53.5968C93.8938 53.5994 93.8433 53.6135 93.7976 53.638ZM68.6296 56.7684L63.0084 53.6432C62.9436 53.6072 62.8718 53.5857 62.7979 53.58C62.7239 53.5744 62.6495 53.5847 62.5796 53.6103C62.5096 53.6359 62.4459 53.6762 62.3925 53.7285C62.3391 53.7808 62.2973 53.8439 62.27 53.9136L57.9436 64.844C57.7148 65.4229 57.8466 65.5217 58.3388 65.1404L68.6556 57.1012C68.6816 57.0801 68.7022 57.053 68.7155 57.0224C68.7288 56.9917 68.7344 56.9584 68.7319 56.9254C68.7293 56.8925 68.7186 56.8609 68.7008 56.8335C68.6829 56.8061 68.6585 56.7837 68.6296 56.7684ZM54.2516 65.494L38.8024 55.5308C38.4488 55.302 38.3466 55.3869 38.4956 55.7856L41.2672 63.2216C41.3024 63.3124 41.3586 63.3925 41.4304 63.4543C41.5023 63.5162 41.5875 63.5578 41.678 63.5752L54.106 65.8528C54.7612 65.9741 54.8098 65.8545 54.2516 65.494ZM115.222 63.1852L118.336 56.056C118.569 55.5221 118.44 55.4112 117.952 55.7232L102.43 65.6084C102.267 65.7124 102.281 65.747 102.471 65.7124L114.702 63.6116C114.813 63.5927 114.919 63.5437 115.01 63.4692C115.101 63.3947 115.174 63.2971 115.222 63.1852ZM77.558 69.9452C77.6383 69.9487 77.717 69.9164 77.7772 69.8551C77.8375 69.7939 77.8746 69.7086 77.8804 69.6176C78.13 65.8077 78.1006 61.9389 77.792 58.0112C77.7782 57.8378 77.7556 57.8378 77.7244 58.0112L75.4832 69.524C75.4752 69.5617 75.4741 69.6006 75.48 69.6382C75.4859 69.6757 75.4986 69.7109 75.5174 69.7414C75.5361 69.772 75.5604 69.7971 75.5886 69.8152C75.6167 69.8333 75.6482 69.844 75.6808 69.8464L77.558 69.9452ZM79.1284 69.9712L81.0888 69.9452C81.1223 69.9448 81.1552 69.9373 81.1854 69.9231C81.2157 69.909 81.2424 69.8886 81.2637 69.8633C81.285 69.838 81.3004 69.8085 81.3088 69.7768C81.3172 69.7451 81.3185 69.7121 81.3124 69.68L79.04 58.0996C78.8875 57.3334 78.8112 57.3421 78.8112 58.1256L78.78 69.6384C78.78 69.6825 78.789 69.7262 78.8066 69.7669C78.8242 69.8076 78.8499 69.8446 78.8823 69.8755C78.9147 69.9065 78.9532 69.9309 78.9954 69.9473C79.0377 69.9637 79.0829 69.9718 79.1284 69.9712ZM98.9196 66.7316L88.2804 58.2192C87.9823 57.9834 87.8852 58.0493 87.9892 58.4168L93.9016 79.8564C93.9952 80.2065 94.1062 80.2117 94.2344 79.872L99.0132 67.0748C99.0358 67.0156 99.0388 66.9506 99.0221 66.889C99.0053 66.8274 98.9694 66.7723 98.9196 66.7316ZM66.6172 59.6336L57.7408 66.5496C57.6582 66.6142 57.5989 66.7047 57.5718 66.8077C57.5446 66.9107 57.551 67.0207 57.59 67.1216L62.2752 79.5704C62.4174 79.9552 62.5456 79.95 62.66 79.5548C64.6118 72.7774 66.5652 65.9966 68.5204 59.2124C68.8498 58.0684 68.5603 57.921 67.652 58.7704C67.4024 59.0026 67.0575 59.2904 66.6172 59.6336ZM54.7352 66.7784L41.8028 64.4488C41.689 64.4284 41.5715 64.449 41.4708 64.507C41.3701 64.5649 41.2925 64.6566 41.2516 64.766L36.7484 76.8507C36.6028 77.239 36.7103 77.3309 37.0708 77.1264L54.7976 67.1528C55.1269 66.969 55.1062 66.8442 54.7352 66.7784ZM101.572 67.1528L119.543 77.1784C119.782 77.3136 119.853 77.2512 119.756 76.9912L115.294 64.9428C115.232 64.7733 115.111 64.6312 114.952 64.541C114.794 64.4508 114.608 64.4181 114.426 64.4488L101.655 66.69C101.19 66.7732 101.163 66.9274 101.572 67.1528ZM55.5828 67.5844L36.3792 78.3484C36.3365 78.3727 36.2993 78.4056 36.2697 78.4449C36.2402 78.4843 36.2189 78.5294 36.2073 78.5775C36.1956 78.6256 36.1938 78.6758 36.2019 78.7248C36.21 78.7739 36.2279 78.821 36.2544 78.8632L42.8324 89.1592C42.8628 89.2056 42.9044 89.2438 42.9533 89.27C43.0022 89.2963 43.0568 89.3098 43.1119 89.3093C43.167 89.3088 43.2209 89.2942 43.2684 89.2671C43.316 89.2399 43.3556 89.201 43.3836 89.154L55.9312 67.938C56.2536 67.3868 56.1375 67.2689 55.5828 67.5844ZM119.954 78.338L101.119 67.8548C100.62 67.5774 100.516 67.6849 100.807 68.1772L113.199 89.2164C113.221 89.2554 113.254 89.2879 113.293 89.3107C113.332 89.3335 113.376 89.3458 113.421 89.3463C113.466 89.3468 113.511 89.3356 113.55 89.3137C113.589 89.2919 113.623 89.2601 113.646 89.2216L120.125 79.0296C120.161 78.9725 120.185 78.9087 120.196 78.8423C120.207 78.7759 120.204 78.7082 120.188 78.6434C120.172 78.5786 120.143 78.5181 120.103 78.4656C120.062 78.413 120.012 78.3696 119.954 78.338ZM57.07 68.8012L54.366 96.2051C54.3487 96.3889 54.3816 96.3976 54.4648 96.2312L61.9008 81.6764C61.9713 81.539 62.0113 81.3857 62.0185 81.2263C62.0257 81.067 61.9998 80.905 61.9424 80.7507L57.4548 68.7492C57.2537 68.2188 57.1255 68.2361 57.07 68.8012ZM99.1588 69.3835L94.7232 81.4007C94.6954 81.4728 94.6838 81.5521 94.6891 81.6336C94.6945 81.7151 94.7167 81.7969 94.7544 81.874C97.0355 86.5886 99.4067 91.2582 101.868 95.8828C101.944 96.0318 102.015 96.0908 102.081 96.0596C102.111 96.0458 102.135 96.0113 102.15 95.9615C102.165 95.9117 102.17 95.8493 102.164 95.784L99.58 69.4408C99.5176 68.8064 99.3772 68.7873 99.1588 69.3835ZM44.096 90.4748L53.014 98.8364C53.1873 98.9993 53.2861 98.9612 53.3104 98.722L56.1496 69.9035C56.2155 69.2379 56.0803 69.1929 55.744 69.7684L43.9972 89.7624C43.9309 89.8762 43.9045 90.0087 43.9224 90.1381C43.9404 90.2675 44.0016 90.3862 44.096 90.4748ZM100.464 69.7424L103.272 98.8935C103.289 99.0703 103.364 99.0981 103.496 98.9768L112.674 90.4592C112.734 90.4035 112.773 90.3293 112.786 90.2489C112.798 90.1685 112.782 90.0867 112.741 90.0172L100.781 69.6384C100.521 69.2016 100.415 69.2362 100.464 69.7424ZM77.8752 75.0828L77.9116 72.41C77.9151 72.15 77.9272 71.9801 77.948 71.9004C78.1872 70.9644 77.5563 70.661 76.0552 70.9904C76.0129 70.9997 75.9733 71.0187 75.9393 71.0459C75.9054 71.0731 75.8779 71.108 75.859 71.1478C75.8401 71.1877 75.8301 71.2316 75.8299 71.2763C75.8296 71.321 75.8391 71.3655 75.8576 71.4064L77.5424 75.1244C77.7573 75.5958 77.8683 75.582 77.8752 75.0828ZM79.1492 75.1452L80.9016 71.2244C80.9152 71.1945 80.9215 71.162 80.9202 71.1291C80.9189 71.0963 80.9099 71.0639 80.8939 71.0344C80.8779 71.005 80.8554 70.9792 80.8279 70.959C80.8004 70.9387 80.7688 70.9246 80.7352 70.9176C80.2013 70.7962 79.6658 70.7876 79.1284 70.8916C79.0522 70.9058 78.9833 70.9446 78.9331 71.0014C78.8829 71.0582 78.8546 71.1296 78.8528 71.2035L78.806 75.0672C78.7956 75.653 78.91 75.679 79.1492 75.1452ZM63.7052 81.2448C63.5615 81.3766 63.4685 81.555 63.4419 81.7493C63.4154 81.9437 63.457 82.1422 63.5596 82.3107L66.066 86.4552C66.1054 86.5186 66.1626 86.5707 66.2319 86.6063C66.3012 86.6419 66.3803 86.6597 66.4612 86.6579L70.6212 86.5956C70.9887 86.5886 71.2799 86.5297 71.4948 86.4188L77.6724 83.2364C77.7428 83.1994 77.803 83.1438 77.8475 83.0748C77.892 83.0057 77.9194 82.9254 77.9272 82.8412C78.0347 81.6174 78.0572 80.3954 77.9948 79.1752C77.9463 78.1976 77.6794 77.2026 77.194 76.1904C76.4556 74.6512 75.6878 73.086 74.8904 71.4948C74.8702 71.4531 74.8406 71.4167 74.8038 71.3886C74.767 71.3604 74.7242 71.3413 74.6787 71.3327C74.6332 71.3241 74.5863 71.3263 74.5418 71.3391C74.4973 71.3519 74.4564 71.3749 74.4224 71.4064L63.7052 81.2448ZM93.1788 81.38L82.5812 71.7496C82.5168 71.6908 82.4398 71.6475 82.3563 71.6228C82.2729 71.5982 82.1853 71.593 82.1006 71.6076C82.0158 71.6222 81.9361 71.6563 81.8679 71.7071C81.7997 71.7579 81.7448 71.8241 81.7076 71.9004L79.1284 77.1835C78.9239 77.5995 78.8251 78.0121 78.832 78.4212L78.884 83.07C78.8837 83.1435 78.9068 83.2177 78.9508 83.2846C78.9948 83.3515 79.058 83.4085 79.1336 83.4496C80.7352 84.2989 82.349 85.1257 83.9748 85.93C84.994 86.4292 85.9803 86.6961 86.9336 86.7307C87.9771 86.7689 89.0188 86.7204 90.0588 86.5852C90.1416 86.5739 90.2205 86.5446 90.2897 86.4997C90.359 86.4547 90.4169 86.395 90.4592 86.3252L93.2516 81.874C93.3 81.7986 93.3192 81.7077 93.3059 81.6173C93.2926 81.5269 93.2476 81.4428 93.1788 81.38ZM93.7924 83.1272C93.7404 82.6626 93.5896 82.6366 93.34 83.0492L90.8648 87.1104C90.8255 87.1768 90.766 87.2319 90.6921 87.2702C90.6182 87.3085 90.5325 87.3287 90.4436 87.3288L86.2212 87.3912C86.193 87.3913 86.1651 87.3985 86.1403 87.412C86.1155 87.4255 86.0946 87.4449 86.0795 87.4683C86.0644 87.4917 86.0556 87.5184 86.054 87.5459C86.0525 87.5733 86.0581 87.6006 86.0704 87.6252L88.6964 92.6951C88.7294 92.7606 88.7831 92.8153 88.8512 92.8531C88.9193 92.8908 88.9991 92.91 89.0812 92.9084L94.6088 92.7835C94.6428 92.7829 94.6762 92.7754 94.707 92.7616C94.7379 92.7479 94.7654 92.7282 94.7879 92.7037C94.8104 92.6793 94.8274 92.6506 94.8377 92.6196C94.8481 92.5886 94.8516 92.5559 94.848 92.5235L93.7924 83.1272ZM65.6656 87.1104L63.4036 83.356C62.9876 82.6661 62.7328 82.7181 62.6392 83.512L61.594 92.4976C61.5896 92.5384 61.5936 92.5798 61.6057 92.6189C61.6178 92.658 61.6378 92.694 61.6643 92.7244C61.6908 92.7549 61.7233 92.7792 61.7596 92.7956C61.7959 92.8121 61.8352 92.8204 61.8748 92.82H67.6312C67.7125 92.8201 67.792 92.7977 67.8609 92.7555C67.9298 92.7132 67.9853 92.6527 68.0212 92.5807L70.4444 87.8124C70.4694 87.7648 70.4812 87.7116 70.4787 87.6579C70.4762 87.6042 70.4596 87.5518 70.4303 87.5058C70.401 87.4598 70.3602 87.4218 70.3116 87.3953C70.2631 87.3688 70.2085 87.3549 70.1532 87.3548L66.0712 87.334C65.9889 87.3341 65.9083 87.3137 65.8373 87.2745C65.7662 87.2353 65.7071 87.1788 65.6656 87.1104ZM55.4268 100.896C56.7303 101.994 58.0164 103.118 59.2852 104.265C59.417 104.383 59.4932 104.354 59.514 104.177L61.7708 84.3128C61.8402 83.6818 61.7344 83.6506 61.4536 84.2192C59.2558 88.6461 56.9937 93.1475 54.6676 97.7235C54.6572 97.7478 54.5341 97.961 54.2984 98.3632C53.9483 98.956 53.9258 99.4638 54.2308 99.8868C54.2343 99.8902 54.6329 100.226 55.4268 100.896ZM94.7492 84.2972L96.9748 103.636C97.0338 104.139 97.2574 104.225 97.6456 103.896L102.076 100.183C102.551 99.788 102.651 99.3165 102.378 98.7688L95.0612 84.2035C94.7804 83.6454 94.6764 83.6766 94.7492 84.2972ZM73.736 86.6268L77.61 86.58C77.6759 86.5798 77.7409 86.5637 77.7993 86.5331C77.8577 86.5025 77.9079 86.4584 77.9456 86.4043C77.9833 86.3502 78.0075 86.2879 78.0161 86.2225C78.0246 86.1572 78.0174 86.0907 77.9948 86.0288C77.8458 85.6474 77.8336 85.2037 77.9584 84.6976C78.059 84.2816 77.9151 84.1689 77.5268 84.3596L73.6528 86.2784C73.1744 86.5176 73.2022 86.6337 73.736 86.6268ZM82.7372 86.2316L79.144 84.4688C79.1111 84.4521 79.0745 84.443 79.0377 84.4422C79.0009 84.4414 78.9652 84.449 78.9342 84.4642C78.9032 84.4794 78.8779 84.5018 78.8609 84.529C78.8439 84.5563 78.8357 84.5875 78.8372 84.6196L78.8996 86.2732C78.903 86.3588 78.9467 86.4402 79.022 86.501C79.0973 86.5618 79.1985 86.5975 79.3052 86.6007L82.5916 86.6788C83.337 86.6961 83.3855 86.547 82.7372 86.2316ZM71.7392 87.4535C71.6577 87.4535 71.578 87.4753 71.5092 87.5166C71.4403 87.5579 71.385 87.6171 71.3492 87.6876L68.7596 92.8512C68.7238 92.9241 68.7083 93.004 68.7147 93.0814C68.7212 93.1588 68.7494 93.2305 68.796 93.2879L73.5384 99.1276C73.5951 99.1972 73.6628 99.2535 73.7366 99.2922C73.8105 99.3309 73.8885 99.3511 73.9648 99.3512L77.5112 99.4188C77.5751 99.4194 77.6385 99.4065 77.6978 99.3807C77.757 99.3548 77.811 99.3167 77.8564 99.2683C77.9019 99.2199 77.938 99.1624 77.9626 99.099C77.9873 99.0355 78 98.9675 78 98.8988V87.8124C78 87.7693 77.9915 87.7267 77.9751 87.687C77.9586 87.6472 77.9345 87.6111 77.9041 87.5807C77.8736 87.5503 77.8375 87.5261 77.7978 87.5097C77.758 87.4932 77.7154 87.4848 77.6724 87.4848L71.7392 87.4535ZM84.5364 87.4588L79.0712 87.5212C79.0364 87.5212 79.0019 87.5277 78.9697 87.5406C78.9376 87.5534 78.9083 87.5721 78.8837 87.5958C78.8591 87.6194 78.8395 87.6475 78.8262 87.6784C78.8129 87.7094 78.806 87.7425 78.806 87.776L78.8112 99.1588C78.8112 99.2291 78.8386 99.2965 78.8874 99.3463C78.9361 99.396 79.0023 99.424 79.0712 99.424L82.68 99.4551C82.7663 99.4553 82.8501 99.4381 82.9257 99.4048C83.0012 99.3716 83.0664 99.3231 83.1168 99.2628L87.724 93.6832C87.7732 93.6226 87.8057 93.5489 87.8184 93.4688C87.8312 93.3888 87.8237 93.3051 87.7968 93.2256C87.1104 91.2392 86.1588 89.388 84.942 87.672C84.8972 87.6063 84.8368 87.5526 84.7661 87.5155C84.6954 87.4783 84.6166 87.4589 84.5364 87.4588Z" fill="#55B12D"/>
<path d="M89.5388 135.481C89.5804 135.72 89.5267 135.911 89.3776 136.053C89.2736 136.153 89.1038 136.209 88.868 136.219C87.9251 136.247 86.9388 136.254 85.9092 136.24C85.7759 136.237 85.6489 136.182 85.5556 136.087C85.4623 135.992 85.41 135.864 85.41 135.73V118.212C85.4101 118.174 85.4171 118.136 85.4308 118.101C85.4445 118.066 85.4645 118.034 85.4897 118.007C85.5148 117.981 85.5447 117.96 85.5774 117.946C85.6102 117.932 85.6452 117.925 85.6804 117.926L89.0864 117.983C89.1578 117.984 89.2258 118.015 89.2763 118.068C89.3267 118.121 89.3556 118.193 89.3568 118.269L89.4348 125.278C89.4418 125.757 89.6324 125.857 90.0068 125.58C90.7244 125.05 91.5408 124.741 92.456 124.654C93.2534 124.582 94.0802 124.724 94.9364 125.081C97.2522 126.058 98.4568 127.773 98.5504 130.224C98.6059 131.676 98.3078 132.952 97.656 134.051C96.8934 135.337 95.758 136.153 94.25 136.5C92.7143 136.854 91.1907 136.483 89.6792 135.387C89.5614 135.304 89.5146 135.335 89.5388 135.481ZM94.4632 130.629C94.4632 129.964 94.1992 129.327 93.7291 128.857C93.2591 128.387 92.6216 128.123 91.9568 128.123C91.2921 128.123 90.6546 128.387 90.1845 128.857C89.7145 129.327 89.4504 129.964 89.4504 130.629C89.4504 131.294 89.7145 131.931 90.1845 132.401C90.6546 132.872 91.2921 133.136 91.9568 133.136C92.6216 133.136 93.2591 132.872 93.7291 132.401C94.1992 131.931 94.4632 131.294 94.4632 130.629Z" fill="#55B12D"/>
<path d="M103.002 122.538C104.234 122.538 105.232 121.539 105.232 120.307C105.232 119.075 104.234 118.076 103.002 118.076C101.77 118.076 100.771 119.075 100.771 120.307C100.771 121.539 101.77 122.538 103.002 122.538Z" fill="#55B12D"/>
<path d="M48.9112 132.454L53.5236 132.631C53.6055 132.634 53.683 132.662 53.7407 132.71C53.7985 132.757 53.8323 132.82 53.8356 132.886L53.9188 135.793C53.9209 135.851 53.9099 135.908 53.8866 135.962C53.8632 136.017 53.8279 136.066 53.7828 136.108C53.7377 136.149 53.6837 136.183 53.624 136.205C53.5642 136.228 53.5 136.24 53.4352 136.24H44.5848C44.5465 136.24 44.5087 136.233 44.4733 136.218C44.438 136.203 44.4059 136.182 44.3789 136.155C44.3518 136.128 44.3304 136.096 44.3157 136.06C44.3011 136.025 44.2936 135.987 44.2936 135.949L44.33 119.699C44.3299 119.65 44.3398 119.602 44.359 119.558C44.3783 119.513 44.4065 119.473 44.442 119.439C44.4774 119.406 44.5194 119.38 44.5654 119.363C44.6114 119.346 44.6605 119.338 44.7096 119.34L48.308 119.486C48.3917 119.488 48.471 119.524 48.5293 119.584C48.5875 119.644 48.62 119.724 48.62 119.808L48.6512 132.184C48.6511 132.255 48.6784 132.323 48.727 132.373C48.7756 132.424 48.8417 132.453 48.9112 132.454Z" fill="#55B12D"/>
<path d="M107.864 128.362C107.583 128.365 107.323 128.306 107.084 128.185C107.016 128.151 106.96 128.096 106.92 128.028C106.881 127.959 106.86 127.878 106.86 127.795V125.679C106.86 125.54 106.909 125.405 106.998 125.298C107.087 125.191 107.211 125.118 107.349 125.091C108.198 124.932 108.479 124.478 108.191 123.729C108.108 123.507 108.103 122.836 108.176 121.716C108.179 121.635 108.209 121.558 108.26 121.501C108.31 121.444 108.376 121.412 108.446 121.41L111.847 121.332C111.943 121.33 112.036 121.374 112.105 121.453C112.175 121.532 112.214 121.64 112.216 121.753L112.258 124.571C112.257 124.642 112.286 124.711 112.34 124.766C112.393 124.821 112.467 124.859 112.549 124.873L114.176 125.117C114.26 125.13 114.335 125.167 114.39 125.222C114.444 125.276 114.474 125.344 114.473 125.414L114.421 127.889C114.418 127.964 114.386 128.037 114.33 128.094C114.274 128.151 114.197 128.189 114.114 128.201L112.674 128.388C112.6 128.398 112.532 128.431 112.481 128.482C112.43 128.533 112.399 128.599 112.393 128.669C112.161 130.936 112.098 133.337 112.206 135.871C112.208 135.919 112.2 135.966 112.183 136.011C112.166 136.056 112.141 136.096 112.108 136.131C112.075 136.165 112.035 136.193 111.991 136.212C111.947 136.23 111.9 136.24 111.852 136.24H108.508C108.416 136.24 108.327 136.203 108.262 136.138C108.197 136.073 108.16 135.984 108.16 135.892L108.129 128.596C108.129 128.565 108.122 128.534 108.109 128.505C108.095 128.476 108.076 128.45 108.051 128.429C108.026 128.407 107.997 128.39 107.965 128.378C107.933 128.367 107.898 128.361 107.864 128.362Z" fill="#55B12D"/>
<path d="M65.5512 125.939C67.1181 127.183 67.7993 128.872 67.5948 131.004C67.5895 131.076 67.5571 131.143 67.504 131.193C67.451 131.242 67.3812 131.269 67.3088 131.269L59.8676 131.3C59.7899 131.301 59.7135 131.32 59.6447 131.356C59.5758 131.392 59.5166 131.444 59.4719 131.507C59.4271 131.57 59.3982 131.642 59.3874 131.718C59.3767 131.795 59.3844 131.872 59.41 131.945C60.034 133.727 61.5351 134.073 63.9132 132.985C64.2876 132.815 64.6793 132.73 65.0884 132.73H67.1476C67.1883 132.73 67.2284 132.74 67.2642 132.759C67.3 132.779 67.3304 132.807 67.3526 132.842C67.3748 132.876 67.3881 132.916 67.3914 132.957C67.3946 132.999 67.3877 133.04 67.3712 133.078C66.3624 135.318 64.662 136.457 62.27 136.495C57.85 136.564 55.5655 134.706 55.4164 130.92C55.3575 129.419 55.6591 128.171 56.3212 127.176C57.0943 126.015 58.24 125.24 59.7584 124.852C61.9909 124.28 63.9219 124.642 65.5512 125.939ZM62.7952 127.551C61.6061 127.003 60.6181 127.178 59.8312 128.076C59.3112 128.665 59.4429 128.96 60.2264 128.96H63.7468C63.783 128.96 63.8187 128.951 63.8504 128.933C63.8821 128.916 63.9089 128.891 63.9282 128.861C63.9474 128.83 63.9586 128.796 63.9605 128.761C63.9624 128.725 63.9551 128.69 63.9392 128.658C63.7035 128.163 63.3221 127.793 62.7952 127.551Z" fill="#55B12D"/>
<path d="M83.1522 130.464C83.1799 132.053 82.4928 133.589 81.2419 134.734C79.9911 135.879 78.2789 136.541 76.4822 136.572C74.6855 136.603 72.9514 136.002 71.6613 134.901C70.3712 133.8 69.6308 132.289 69.6031 130.701C69.5754 129.112 70.2625 127.576 71.5134 126.431C72.7643 125.285 74.4764 124.624 76.2731 124.593C78.0699 124.562 79.804 125.163 81.0941 126.264C82.3841 127.365 83.1245 128.876 83.1522 130.464ZM78.7593 130.66C78.7593 130.003 78.4979 129.372 78.0328 128.907C77.5676 128.441 76.9367 128.18 76.2789 128.18C75.621 128.18 74.9901 128.441 74.525 128.907C74.0598 129.372 73.7985 130.003 73.7985 130.66C73.7985 130.986 73.8626 131.309 73.9873 131.61C74.1119 131.911 74.2946 132.184 74.525 132.414C74.7553 132.645 75.0287 132.827 75.3296 132.952C75.6306 133.077 75.9531 133.141 76.2789 133.141C76.6046 133.141 76.9271 133.077 77.2281 132.952C77.529 132.827 77.8024 132.645 78.0328 132.414C78.2631 132.184 78.4458 131.911 78.5705 131.61C78.6951 131.309 78.7593 130.986 78.7593 130.66Z" fill="#55B12D"/>
<path d="M104.723 124.943L101.281 124.949C101.114 124.949 100.98 125.084 100.98 125.251L100.999 135.931C100.999 136.098 101.134 136.233 101.301 136.233L104.743 136.227C104.91 136.226 105.044 136.091 105.044 135.924L105.025 125.244C105.025 125.077 104.89 124.942 104.723 124.943Z" fill="#55B12D"/>
</svg>
