<svg width="283" height="103" viewBox="0 0 283 103" fill="none" xmlns="http://www.w3.org/2000/svg">
<path d="M52.0661 29.4248C52.0308 28.5025 52.0132 27.5797 52.0132 26.6565C52.0122 26.2854 51.9899 26.2399 51.9461 26.5198C51.9404 26.5543 51.9247 26.5596 51.8989 26.5356C51.8304 26.4714 51.7522 26.4292 51.6647 26.4091C51.5189 26.3765 51.4408 26.3583 51.4304 26.3544C50.6456 26.0687 49.8566 25.7965 49.0632 25.5376C48.9804 25.5107 48.9137 25.5069 48.8632 25.5261C48.7927 25.5529 48.7413 25.6062 48.7089 25.6857C48.5004 24.7241 48.5161 23.7654 48.7561 22.8095L49.2918 21.3915C49.2981 21.3746 49.3 21.3569 49.2971 21.3417C49.2942 21.3266 49.2867 21.3151 49.2761 21.3096C49.2599 21.3009 49.2413 21.2976 49.2204 21.2995C50.1004 20.1922 51.0142 19.139 51.9618 18.14C52.0352 18.0633 52.0718 18.0781 52.0718 18.1846L52.0661 29.4248Z" fill="#0086DA"/>
<path d="M101.817 21.156C101.759 21.1473 101.744 21.1665 101.771 21.2135C102.365 22.2748 102.646 23.4181 102.614 24.6434L102.578 25.0029C102.608 24.8552 102.584 24.7368 102.508 24.6477C102.495 24.6322 102.477 24.6194 102.455 24.61C102.434 24.6006 102.41 24.5948 102.384 24.593C102.127 24.5787 101.871 24.5906 101.618 24.629C101.216 24.6903 100.964 24.7249 100.861 24.7325C100.223 24.7795 99.8142 24.8308 99.6352 24.8864C99.4647 24.9391 99.3023 24.9305 99.148 24.8605C99.1137 24.8452 99.1004 24.8562 99.108 24.8936C99.1232 24.9741 99.1132 25.0465 99.078 25.1108L99.0723 18.1705C99.0723 18.0727 99.1057 18.0592 99.1723 18.1302C100.083 19.0947 100.964 20.1033 101.817 21.156Z" fill="#0086DA"/>
<path d="M101.815 21.1558C102.51 22.0906 103.033 22.9683 103.384 23.789C105.068 27.7246 105.151 31.6737 103.634 35.6361C103.145 36.9122 102.791 37.8997 102.571 38.5986C102.532 38.6465 102.493 38.6939 102.453 38.7409C102.413 38.787 102.381 38.8383 102.358 38.8948C102.119 39.4768 101.855 40.0473 101.565 40.6062L100.887 41.7567C100.61 41.8132 100.37 41.9216 100.167 42.0817C100.133 42.1085 100.095 42.1296 100.055 42.145C99.466 42.3712 98.9997 42.5313 98.6569 42.6253C98.575 42.6483 98.4855 42.6934 98.3883 42.7605C98.3026 42.8199 98.2102 42.8655 98.1111 42.8971C97.833 42.9862 97.6916 43.0318 97.6869 43.0337C97.4478 43.1411 97.2097 43.2499 96.9726 43.3602C96.7307 43.4723 96.4864 43.5668 96.2397 43.6435C95.174 43.9761 94.5255 44.2009 94.294 44.3179C93.956 44.4895 93.6697 44.6146 93.4355 44.6933C93.184 44.7767 92.9755 44.8601 92.8097 44.9435C92.6069 45.0461 92.3964 45.1305 92.1783 45.1966C92.0611 45.2321 91.9364 45.2954 91.804 45.3864C91.683 45.4698 91.5535 45.5331 91.4155 45.5763C91.0507 45.6923 90.8516 45.757 90.8183 45.7704C90.4611 45.9238 90.093 46.048 89.714 46.1429C89.6311 46.1639 89.4607 46.2708 89.2026 46.4636C89.0369 46.5863 88.863 46.6803 88.6811 46.7455C87.885 47.0311 87.0983 47.3413 86.3211 47.6759C85.9155 47.8513 85.5016 48.0023 85.0797 48.1289C84.7616 48.2248 84.5564 48.3057 84.464 48.372C84.2383 48.5321 83.9907 48.6389 83.7211 48.6926C83.6745 48.7013 83.6326 48.7205 83.5955 48.7502C83.3326 48.9582 83.0407 49.1077 82.7197 49.1989L83.0769 47.8686C83.635 45.9511 84.196 44.0346 84.7597 42.119C84.8045 41.9666 84.8111 41.8099 84.7797 41.6488L84.9226 41.3612C84.9683 41.3928 85.015 41.3779 85.0626 41.3166C87.7902 37.7798 91.3469 35.5719 95.7326 34.6927C96.363 34.5661 96.683 34.5019 96.6926 34.5C97.5697 34.3139 98.1035 34.2071 98.294 34.1793C99.654 33.9837 100.775 33.362 101.655 32.314C102.67 31.1071 103.259 29.7125 103.424 28.1306C103.545 26.9609 103.467 25.809 103.19 24.6749C103.171 24.5991 103.153 24.4989 103.135 24.3743C103.082 23.9994 102.969 23.9539 102.797 24.2377C102.79 24.2473 102.751 24.2957 102.68 24.3829C102.624 24.4491 102.601 24.5358 102.613 24.6432C102.645 23.418 102.364 22.2747 101.77 21.2133C101.743 21.1664 101.758 21.1472 101.815 21.1558Z" fill="#009EFC"/>
<path d="M49.2201 21.2998C49.2411 21.2979 49.2597 21.3013 49.2759 21.3099C49.2865 21.3155 49.294 21.327 49.2969 21.3421C49.2998 21.3572 49.2979 21.375 49.2916 21.3919L48.7559 22.8098C48.7311 22.7907 48.7039 22.7825 48.6744 22.7854C48.6564 22.7876 48.6381 22.7974 48.6214 22.8137C48.6047 22.8299 48.5905 22.852 48.5801 22.8774C48.0859 24.0893 47.7973 25.3131 47.7144 26.5489C47.5678 28.7483 48.1959 30.6926 49.5987 32.3819C50.0616 32.9399 50.6278 33.3785 51.2973 33.6977C51.7002 33.8895 52.3744 34.0798 53.3202 34.2686C54.7582 34.5544 55.6725 34.7403 56.063 34.8267C60.0802 35.7153 63.4073 37.8428 66.0444 41.2089C66.1207 41.3058 66.1873 41.3686 66.2444 41.3973L66.4344 41.8647L66.4587 42.2242L66.3273 42.2602C66.3074 42.2658 66.2865 42.2658 66.2673 42.2603C66.248 42.2546 66.2311 42.2436 66.2187 42.2286C66.1396 42.1355 66.0102 42.0593 65.8302 41.9999C59.9454 40.0633 53.9725 38.0954 47.9116 36.0965C47.8894 36.089 47.8696 36.076 47.8541 36.0586C47.8385 36.0412 47.8278 36.0201 47.823 35.9972C47.803 35.9053 47.7411 35.8837 47.6373 35.9325C46.8316 33.9883 46.4287 32.0108 46.4287 30.0003C46.4297 26.8184 47.3601 23.9182 49.2201 21.2998Z" fill="#00A6FC"/>
<path d="M48.7556 22.8102C48.5156 23.766 48.4999 24.7248 48.7085 25.6864C49.0485 27.4543 50.0028 28.7965 51.5713 29.7131C51.759 29.8223 51.9237 29.8822 52.0656 29.8928C54.437 30.912 56.2218 31.6459 57.4199 32.0946C59.5809 32.9056 61.4023 34.1281 62.8842 35.7618C63.1509 36.0561 63.3442 36.2469 63.4642 36.3341C63.4928 36.4606 63.5475 36.5704 63.6285 36.6635C63.759 36.813 63.8261 36.8902 63.8299 36.895C64.8079 38.3004 65.6128 39.8014 66.2442 41.3976C66.187 41.3689 66.1204 41.3061 66.0442 41.2092C63.407 37.8432 60.0799 35.7157 56.0628 34.827C55.6723 34.7406 54.7579 34.5547 53.3199 34.2689C52.3742 34.0801 51.6999 33.8898 51.297 33.6981C50.6275 33.3787 50.0613 32.9402 49.5985 32.3821C48.1956 30.6929 47.5675 28.7486 47.7142 26.5492C47.797 25.3134 48.0856 24.0896 48.5799 22.8778C48.5902 22.8523 48.6045 22.8302 48.6212 22.814C48.6378 22.7977 48.6562 22.7879 48.6742 22.7857C48.7037 22.7828 48.7308 22.791 48.7556 22.8102Z" fill="#5CD2FF"/>
<path d="M84.9229 41.3616C85.6676 39.5611 86.6099 37.8733 87.7499 36.2981C87.851 36.2261 87.979 36.1015 88.1343 35.9241C89.0066 34.9232 90.0119 34.069 91.1499 33.3615C91.7185 33.0086 92.5757 32.5934 93.7214 32.116C95.4595 31.3922 97.2043 30.6847 98.9557 29.9934C99.008 29.9723 99.0485 29.9387 99.0771 29.8927C99.1876 29.8975 99.3314 29.8524 99.5085 29.7575C100.338 29.3146 100.992 28.7484 101.47 28.0591C101.836 27.5549 102.109 27.0035 102.291 26.4053C102.453 25.9518 102.549 25.4844 102.577 25.0032L102.613 24.6436C102.601 24.5363 102.624 24.4495 102.68 24.3833C102.751 24.2961 102.79 24.2477 102.797 24.2381C102.969 23.9543 103.082 23.9999 103.136 24.3747C103.153 24.4994 103.171 24.5995 103.19 24.6753C103.467 25.8095 103.545 26.9614 103.424 28.1311C103.259 29.713 102.67 31.1074 101.656 32.3145C100.775 33.3624 99.6543 33.9841 98.2943 34.1797C98.1038 34.2075 97.5699 34.3144 96.6929 34.5004C96.6833 34.5023 96.3633 34.5666 95.7329 34.6931C91.3471 35.5723 87.7904 37.7802 85.0629 41.317C85.0152 41.3784 84.9685 41.3933 84.9229 41.3616Z" fill="#54D5FF"/>
<path d="M102.577 25.0027C102.549 25.4839 102.453 25.9513 102.291 26.4048C102.173 26.2188 102.04 26.1349 101.893 26.1531C101.074 26.2547 100.255 26.3597 99.4371 26.4681C99.3324 26.4815 99.2653 26.4389 99.2357 26.3401C99.2271 26.3084 99.22 26.3084 99.2143 26.3401L99.1571 26.6953C99.1486 26.7499 99.1429 26.7485 99.14 26.691C99.1286 26.4187 99.1076 26.515 99.0771 26.98V25.1105C99.1124 25.0463 99.1224 24.9739 99.1071 24.8934C99.0995 24.856 99.1129 24.8449 99.1471 24.8603C99.3015 24.9303 99.4638 24.9389 99.6343 24.8862C99.8134 24.8306 100.222 24.7793 100.86 24.7323C100.963 24.7246 101.215 24.6901 101.617 24.6288C101.87 24.5904 102.126 24.5784 102.383 24.5928C102.409 24.5946 102.433 24.6004 102.454 24.6098C102.476 24.6192 102.494 24.632 102.507 24.6474C102.583 24.7366 102.607 24.855 102.577 25.0027Z" fill="#007ACA"/>
<path d="M52.0662 29.4253V29.8927C51.9242 29.8822 51.7595 29.8223 51.5718 29.7129C50.0033 28.7964 49.049 27.4542 48.709 25.6862C48.7414 25.6067 48.7928 25.5535 48.8633 25.5266C48.9137 25.5075 48.9804 25.5113 49.0633 25.5381C49.8566 25.797 50.6457 26.0692 51.4304 26.355C51.4409 26.3588 51.519 26.377 51.6647 26.4096C51.7523 26.4297 51.8304 26.472 51.899 26.5361C51.9247 26.5602 51.9404 26.5549 51.9462 26.5204C51.9899 26.2404 52.0123 26.2859 52.0132 26.657C52.0132 27.5803 52.0309 28.503 52.0662 29.4253Z" fill="#0070BD"/>
<path d="M102.291 26.405C102.109 27.0032 101.836 27.5545 101.47 28.0588C101.464 27.8181 101.367 27.7103 101.178 27.7352C100.662 27.8043 100.146 27.8723 99.6284 27.9394C99.6151 27.9413 99.5556 27.9577 99.45 27.9883C99.3633 28.0142 99.2975 27.9908 99.2528 27.9178C99.2309 27.8814 99.2142 27.8828 99.2028 27.9222C99.1075 28.2693 99.0656 28.6263 99.077 28.9936V26.9802C99.1075 26.5152 99.1284 26.4189 99.14 26.6911C99.1428 26.7487 99.1484 26.7501 99.157 26.6955L99.2142 26.3403C99.22 26.3086 99.227 26.3086 99.2356 26.3403C99.2651 26.439 99.3323 26.4817 99.437 26.4682C100.255 26.3599 101.074 26.2549 101.893 26.1533C102.04 26.1351 102.173 26.219 102.291 26.405Z" fill="#0073C1"/>
<path d="M101.47 28.059C100.992 28.7484 100.338 29.3145 99.5084 29.7574C99.3314 29.8523 99.1875 29.8974 99.077 29.8926V28.9937C99.0656 28.6266 99.1075 28.2695 99.2028 27.9224C99.2142 27.8831 99.2309 27.8817 99.2528 27.9181C99.2975 27.9909 99.3633 28.0144 99.45 27.9886C99.5556 27.9579 99.6151 27.9416 99.6284 27.9397C100.146 27.8725 100.662 27.8045 101.178 27.7354C101.367 27.7105 101.464 27.8184 101.47 28.059Z" fill="#006CB8"/>
<path d="M66.4592 42.2243L68.1134 47.833L68.3577 48.762L68.3334 48.7749C68.324 48.7802 68.3148 48.7842 68.3068 48.7867C68.2988 48.7892 68.2923 48.7901 68.2877 48.7893C67.4029 48.5909 66.5453 48.308 65.7148 47.9409C65.4748 47.8344 64.8267 47.6278 63.7706 47.321C63.6144 47.275 63.3962 47.1868 63.1162 47.0564C62.9001 46.9548 62.6758 46.8766 62.4434 46.822C61.9758 46.7127 61.6706 46.6322 61.5277 46.5804C60.3792 46.1586 59.2181 45.776 58.0448 45.4328C57.7858 45.3571 57.5277 45.2784 57.2706 45.197C57.1067 45.1452 56.8544 45.0492 56.5134 44.9093C56.0925 44.7367 55.6587 44.6016 55.212 44.5038C55.1758 44.4961 55.1362 44.4736 55.0934 44.4362C55.0592 44.4055 55.0196 44.3829 54.9748 44.3686C53.9481 44.0235 52.9211 43.6802 51.8934 43.3389C51.7334 43.2861 51.6006 43.2981 51.4948 43.3749C51.2739 43.0863 51.0558 42.7962 50.8406 42.5048C50.8358 42.4981 50.7586 42.3782 50.6091 42.1453C50.5215 42.0092 50.4172 41.8864 50.2963 41.7772C50.2642 41.7484 50.2199 41.7326 50.172 41.7326C50.0015 41.7354 49.872 41.6937 49.7834 41.6075C49.7377 41.5631 49.6819 41.5309 49.6208 41.5133C49.5598 41.4958 49.4955 41.4935 49.4334 41.5068C49.2344 41.548 49.1001 41.5345 49.0306 41.4665C48.998 41.4338 48.9591 41.4122 48.9191 41.4046L48.4291 41.3198C48.8158 40.0514 48.7582 38.806 48.2563 37.5836C48.0325 37.04 47.8263 36.4897 47.6377 35.9326C47.7415 35.8838 47.8034 35.9054 47.8234 35.9974C47.8282 36.0202 47.839 36.0413 47.8545 36.0587C47.87 36.0761 47.8898 36.0892 47.912 36.0966C53.9729 38.0956 59.9458 40.0634 65.8306 42C66.0106 42.0594 66.1401 42.1357 66.2192 42.2287C66.2315 42.2438 66.2484 42.2547 66.2677 42.2604C66.2869 42.2659 66.3078 42.2659 66.3277 42.2603L66.4592 42.2243Z" fill="#0193FB"/>
<path d="M87.7496 36.2979C86.6096 37.873 85.6672 39.561 84.9225 41.3614L84.7796 41.6491L80.6481 50.5653L78.8567 54.4425L76.7439 58.9782L75.5767 61.5309L74.9939 60.2365L72.2081 54.2325L71.2439 52.1472L68.1481 45.5319L66.4339 41.8647L66.2439 41.3974C65.6125 39.8011 64.8076 38.3002 63.8296 36.8946C63.8258 36.8899 63.7586 36.8128 63.6281 36.6631C63.5472 36.5701 63.4925 36.4604 63.4639 36.3338C66.2839 37.7825 69.3106 38.7364 72.5439 39.1957C74.1781 39.4277 75.7467 39.4804 77.2496 39.3538C80.9572 39.0403 84.4572 38.0217 87.7496 36.2979Z" fill="#403061"/>
<path d="M173.589 53.3079C173.715 54.4631 173.775 55.6223 173.766 56.7852C173.756 58.1754 173.75 59.6241 173.75 61.1312C173.75 61.1459 173.747 61.1605 173.742 61.1741C173.736 61.1878 173.727 61.2001 173.717 61.2105C173.707 61.2209 173.694 61.2292 173.681 61.2348C173.668 61.2405 173.653 61.2433 173.639 61.2433H169.798C169.758 61.2433 169.718 61.2268 169.689 61.1975C169.66 61.168 169.643 61.1281 169.643 61.0866V37.6225C169.643 37.5962 169.653 37.571 169.672 37.5523C169.69 37.5337 169.714 37.5232 169.74 37.5232L173.625 37.5146C173.658 37.5146 173.689 37.528 173.712 37.5516C173.736 37.5753 173.75 37.6075 173.75 37.6412C173.761 41.1281 173.762 44.5853 173.753 48.0128C173.751 48.844 173.693 49.6565 173.577 50.4504C173.576 50.4646 173.577 50.4792 173.58 50.493C173.584 50.5068 173.591 50.5196 173.6 50.5305C173.61 50.5414 173.622 50.5502 173.634 50.5563C173.647 50.5622 173.661 50.5654 173.676 50.5654H175.308C175.341 50.5654 175.374 50.5577 175.404 50.5427C175.433 50.5277 175.46 50.506 175.48 50.4792L179.936 44.6117C179.948 44.596 179.963 44.5832 179.981 44.5746C179.998 44.5658 180.018 44.5613 180.037 44.5613L184.523 44.57C184.612 44.57 184.629 44.6049 184.573 44.6749C182.858 46.8072 181.17 48.9294 179.509 51.0414C179.361 51.2313 179.055 51.5131 178.592 51.887C178.585 51.8924 178.579 51.8992 178.576 51.907C178.572 51.9148 178.569 51.9234 178.569 51.9322C178.569 51.941 178.571 51.9497 178.575 51.9579C178.578 51.966 178.583 51.9732 178.59 51.9791C179.038 52.3779 179.386 52.7605 179.634 53.1267C181.417 55.7613 183.23 58.4079 185.073 61.0664C185.151 61.1786 185.123 61.2347 184.987 61.2347H180.581C180.56 61.2346 180.538 61.2292 180.519 61.2186C180.499 61.208 180.483 61.1928 180.472 61.1744L175.436 53.2892C175.424 53.2698 175.407 53.2539 175.387 53.2429C175.367 53.2318 175.345 53.226 175.323 53.226L173.65 53.2331C173.642 53.2331 173.632 53.2352 173.625 53.2391C173.617 53.243 173.61 53.2487 173.604 53.2557C173.598 53.2628 173.594 53.2711 173.591 53.28C173.589 53.289 173.588 53.2985 173.589 53.3079Z" fill="white"/>
<path d="M116.924 59.8136C116.209 58.9747 115.852 57.9652 115.853 56.785C115.855 50.5292 115.857 44.2403 115.857 37.9185C115.857 37.897 115.865 37.8766 115.88 37.8615C115.895 37.8464 115.916 37.8379 115.937 37.8379H119.964C119.983 37.8379 120.001 37.8454 120.014 37.8589C120.028 37.8724 120.035 37.8907 120.035 37.9098C120.035 43.6622 120.035 49.4147 120.035 55.167C120.035 55.6302 120.057 55.9882 120.1 56.2413C120.199 56.8319 120.471 57.2509 120.917 57.4982C121.179 57.6439 121.628 57.7211 122.264 57.7298C124.82 57.7633 127.448 57.7715 130.148 57.7542C130.182 57.7537 130.214 57.7666 130.239 57.7898C130.264 57.8131 130.279 57.8452 130.281 57.8793L130.467 60.8519C130.469 60.8866 130.458 60.9207 130.436 60.9471C130.414 60.9735 130.382 60.9899 130.348 60.9928C127.779 61.2076 125.203 61.3053 122.621 61.2862C122.612 61.2862 122.174 61.2943 121.31 61.3106C120.656 61.3231 120.005 61.277 119.357 61.1726C118.872 61.0939 118.421 60.9396 118.004 60.7095C117.604 60.487 117.244 60.1885 116.924 59.8136Z" fill="white"/>
<path d="M102.571 38.5986C102.472 39.1451 102.446 39.6945 102.494 40.2467C102.464 40.2908 102.445 40.3378 102.435 40.3876C102.43 40.4145 102.435 40.4629 102.451 40.5329C102.484 40.6777 102.391 40.7184 102.173 40.6551C102.15 40.6489 102.127 40.648 102.105 40.6525C102.082 40.657 102.061 40.6667 102.043 40.681C101.805 40.8661 101.646 40.8411 101.565 40.6063C101.855 40.0473 102.119 39.4768 102.358 38.8949C102.381 38.8384 102.413 38.787 102.453 38.741C102.493 38.694 102.532 38.6466 102.571 38.5986Z" fill="#025FCC"/>
<path d="M102.494 40.2471C102.683 41.2144 103.006 42.1353 103.464 43.0096C103.383 43.0892 103.297 43.1649 103.207 43.2369C103.103 43.3193 103.002 43.3624 102.903 43.3663C102.631 43.3788 102.483 43.1999 102.458 42.8299C102.458 42.818 102.454 42.8064 102.448 42.796C102.442 42.7857 102.434 42.7767 102.423 42.7697C102.413 42.7627 102.401 42.7579 102.388 42.7557C102.375 42.7534 102.361 42.7537 102.348 42.7565L101.918 42.8543C101.904 42.8579 101.884 42.8562 101.863 42.8494C101.841 42.8427 101.818 42.831 101.794 42.8155C101.735 42.7772 101.677 42.7791 101.621 42.8212C101.61 42.8305 101.6 42.8462 101.592 42.8673C101.584 42.8883 101.578 42.914 101.576 42.9421C101.569 43.0121 101.528 43.0557 101.453 43.0729C101.442 43.0755 101.432 43.0803 101.424 43.0867C101.417 43.0931 101.412 43.1008 101.411 43.1089L101.404 43.1405C101.401 43.1574 101.393 43.1732 101.382 43.1861C101.37 43.1991 101.355 43.2087 101.338 43.2139L101.028 43.3074C101.013 43.3122 100.996 43.311 100.981 43.3041C100.967 43.2972 100.956 43.2849 100.95 43.2699L100.717 42.6817C100.71 42.6661 100.697 42.6517 100.678 42.64C100.659 42.6284 100.635 42.6199 100.608 42.6156C100.488 42.5964 100.45 42.514 100.494 42.3682L100.887 41.7571L101.566 40.6066C101.647 40.8414 101.806 40.8664 102.043 40.6813C102.061 40.6671 102.082 40.6574 102.105 40.6528C102.127 40.6483 102.151 40.6492 102.173 40.6555C102.391 40.7188 102.484 40.678 102.451 40.5332C102.435 40.4632 102.43 40.4148 102.436 40.3879C102.445 40.3381 102.465 40.2911 102.494 40.2471Z" fill="#1863D7"/>
<path d="M48.4289 41.3198L48.9189 41.4046C48.9588 41.4121 48.9977 41.4337 49.0303 41.4664C49.0998 41.5345 49.2341 41.5479 49.4331 41.5067C49.4952 41.4935 49.5596 41.4957 49.6206 41.5132C49.6816 41.5308 49.7374 41.5631 49.7831 41.6074C49.8717 41.6937 50.0012 41.7354 50.1717 41.7326C50.2196 41.7325 50.2639 41.7484 50.296 41.7771C50.417 41.8864 50.5212 42.0092 50.6089 42.1453C50.7584 42.3782 50.8355 42.498 50.8403 42.5048C51.0555 42.7962 51.2736 43.0862 51.4946 43.3748L52.6074 44.8906C52.5693 44.9194 52.5555 44.9534 52.566 44.9927C52.5676 44.9991 52.5679 45.0059 52.5667 45.0123C52.5654 45.0188 52.5629 45.0247 52.5592 45.0296C52.5554 45.0345 52.5507 45.0382 52.5454 45.0403C52.5401 45.0424 52.5344 45.0428 52.5288 45.0416L51.6303 44.8072C51.5873 44.796 51.5408 44.7975 51.496 44.8115C51.3608 44.8556 51.2274 44.8441 51.096 44.777C51.0798 44.7682 51.0608 44.7653 51.0416 44.7687C51.0223 44.772 51.0039 44.7815 50.9889 44.7957C50.945 44.8378 50.9103 44.8417 50.8846 44.8072C50.8533 44.7636 50.8193 44.7329 50.7889 44.7209L50.036 44.406C50.0274 44.4025 50.0141 44.3912 49.9977 44.3738C49.9813 44.3562 49.9624 44.333 49.9431 44.3067C49.9174 44.2712 49.8793 44.254 49.8289 44.2549C49.8195 44.255 49.8101 44.2534 49.8015 44.2502C49.7928 44.247 49.7851 44.2424 49.7787 44.2364C49.7723 44.2306 49.7675 44.2237 49.7646 44.2162C49.7617 44.2088 49.7607 44.2009 49.7617 44.1931C49.7703 44.1376 49.7936 44.0877 49.8317 44.0436C49.8359 44.0387 49.8389 44.0329 49.8403 44.0266C49.8417 44.0204 49.8416 44.0139 49.8399 44.0078C49.8381 44.0017 49.8349 43.9962 49.8305 43.992C49.826 43.9877 49.8206 43.9846 49.8146 43.9831C49.645 43.9448 49.6236 43.8619 49.7503 43.7344C49.9084 43.5743 49.8955 43.4712 49.7117 43.4252C49.6998 43.4221 49.6814 43.422 49.6581 43.425C49.6348 43.4279 49.6071 43.434 49.5774 43.4425L49.4389 43.4827C49.422 43.4879 49.4021 43.4861 49.3815 43.4777C49.361 43.4694 49.3407 43.4545 49.3231 43.4352C49.2431 43.347 49.136 43.302 49.0017 43.3C48.9806 43.2996 48.9593 43.3051 48.9396 43.3159C48.9199 43.3267 48.9025 43.3425 48.8889 43.3619C48.7689 43.5316 48.6198 43.6653 48.4417 43.7631C48.4196 43.7754 48.3937 43.779 48.3689 43.7731C48.3442 43.7673 48.3223 43.7525 48.3074 43.7315C48.2103 43.5944 48.0979 43.5326 47.9703 43.546C47.8017 43.5632 47.697 43.5014 47.656 43.3605C47.6533 43.3513 47.6538 43.3368 47.6573 43.3181C47.6608 43.2995 47.6672 43.2775 47.676 43.2541C47.6893 43.2186 47.6665 43.197 47.6074 43.1894L48.4289 41.3198Z" fill="#2276EC"/>
<path d="M84.7799 41.6489C84.8114 41.81 84.8047 41.9668 84.7599 42.1192C84.1961 44.0347 83.6351 45.9513 83.077 47.8687L82.7799 47.7652C82.7683 47.7608 82.7582 47.7557 82.7505 47.7503C82.743 47.745 82.7383 47.7396 82.737 47.735C82.7351 47.7235 82.737 47.7115 82.7428 47.699C82.7561 47.6732 82.7503 47.6621 82.7256 47.6659C82.6199 47.6803 82.5484 47.7335 82.5114 47.8255C82.5024 47.8475 82.489 47.8665 82.4729 47.8802C82.4566 47.894 82.4383 47.9019 82.4199 47.9033C82.2199 47.9128 82.1775 47.8174 82.2928 47.617C82.3223 47.5662 82.3318 47.5298 82.3214 47.5078C82.2956 47.4569 82.2656 47.4703 82.2314 47.548L80.8514 50.637L80.6484 50.5652L84.7799 41.6489Z" fill="#046BDD"/>
<path d="M100.887 41.7568L100.494 42.3681L99.2199 44.0219C99.036 43.9557 98.8665 43.9639 98.7113 44.0464C98.5618 44.1249 98.4818 44.1662 98.4713 44.17C98.2751 44.2486 98.0818 44.333 97.8913 44.4232C97.7332 44.4969 97.537 44.5722 97.3027 44.6489C97.0246 44.74 96.6351 44.8876 96.1341 45.0918C91.6722 46.9029 87.2218 48.7408 82.7827 50.6055C82.6656 50.6554 82.5332 50.6477 82.3856 50.5825C82.3657 50.5738 82.3497 50.5583 82.3405 50.5389C82.3313 50.5196 82.3295 50.4978 82.3355 50.4775L82.7199 49.1991C83.0408 49.108 83.3327 48.9584 83.5956 48.7504C83.6327 48.7206 83.6746 48.7015 83.7213 48.6929C83.9908 48.6392 84.2385 48.5323 84.4641 48.3721C84.5565 48.306 84.7618 48.2249 85.0799 48.1291C85.5018 48.0026 85.9156 47.8516 86.3213 47.6761C87.0985 47.3416 87.8851 47.0314 88.6813 46.7457C88.8632 46.6804 89.037 46.5866 89.2027 46.4638C89.4608 46.2711 89.6313 46.1642 89.7141 46.1431C90.0932 46.0482 90.4613 45.924 90.8185 45.7706C90.8518 45.7572 91.0508 45.6925 91.4156 45.5765C91.5537 45.5333 91.6832 45.47 91.8041 45.3866C91.9365 45.2956 92.0613 45.2323 92.1785 45.1968C92.3965 45.1307 92.607 45.0463 92.8099 44.9437C92.9756 44.8603 93.1841 44.7769 93.4356 44.6934C93.6699 44.6149 93.956 44.4898 94.2941 44.3182C94.5256 44.2012 95.1741 43.9764 96.2399 43.6436C96.4865 43.5669 96.7308 43.4725 96.9727 43.3603C97.2099 43.2501 97.448 43.1413 97.687 43.0339C97.6918 43.032 97.8332 42.9865 98.1113 42.8973C98.2104 42.8656 98.3027 42.8201 98.3885 42.7607C98.4856 42.6935 98.5751 42.6485 98.657 42.6255C98.9999 42.5316 99.466 42.3715 100.056 42.1451C100.096 42.1299 100.133 42.1087 100.167 42.0819C100.37 41.9217 100.61 41.8134 100.887 41.7568Z" fill="#1A89FB"/>
<path d="M66.4346 41.8647L68.1488 45.5319C68.1346 45.6604 68.1541 45.7827 68.2074 45.8986C68.5017 46.54 68.7879 47.1847 69.066 47.8329C68.9517 47.9346 68.8436 47.9613 68.7417 47.9134C68.5113 47.8051 68.3017 47.7782 68.1132 47.8329L66.4588 42.2243L66.4346 41.8647Z" fill="#046BDD"/>
<path d="M100.494 42.3682C100.451 42.5138 100.489 42.5963 100.609 42.6155C100.635 42.6199 100.659 42.6283 100.678 42.64C100.697 42.6516 100.711 42.666 100.717 42.6817L100.95 43.2699C100.956 43.2849 100.967 43.297 100.982 43.304C100.996 43.3109 101.013 43.312 101.029 43.3072L101.339 43.2137C101.356 43.2085 101.371 43.199 101.382 43.186C101.394 43.1731 101.401 43.1573 101.404 43.1404L101.412 43.1087C101.413 43.1008 101.417 43.0931 101.425 43.0866C101.432 43.0801 101.442 43.0753 101.453 43.0728C101.528 43.0555 101.569 43.0119 101.576 42.9419C101.579 42.9138 101.584 42.8882 101.592 42.8672C101.6 42.8462 101.61 42.8303 101.622 42.8212C101.678 42.7789 101.735 42.777 101.794 42.8154C101.818 42.831 101.841 42.8426 101.863 42.8494C101.885 42.8561 101.904 42.8578 101.919 42.8542L102.349 42.7565C102.362 42.7535 102.375 42.7533 102.388 42.7555C102.401 42.7578 102.413 42.7626 102.423 42.7696C102.434 42.7766 102.443 42.7855 102.449 42.7959C102.455 42.8064 102.458 42.8179 102.459 42.8298C102.484 43.1999 102.632 43.3786 102.903 43.3662C103.002 43.3623 103.104 43.3192 103.207 43.2367C103.298 43.1649 103.384 43.0891 103.464 43.0095L104.607 45.5981C104.346 45.6374 104.085 45.6729 103.823 45.7046C103.526 45.7401 103.265 45.7832 103.042 45.8339C101.522 46.18 100.032 46.6287 98.5716 47.1801C98.4268 47.1292 98.3135 47.0228 98.2316 46.8608C98.224 46.8458 98.2134 46.8325 98.2005 46.8218C98.1876 46.8111 98.1726 46.8033 98.1565 46.7986C98.1404 46.794 98.1235 46.7929 98.1069 46.7951C98.0903 46.7974 98.0745 46.8031 98.0601 46.8118C97.9231 46.8963 97.8931 46.8646 97.9701 46.7169C98.035 46.5923 98.092 46.4025 98.1416 46.1475C98.1768 45.9663 98.1201 45.9299 97.9716 46.0382C97.8668 46.1158 97.7426 46.0976 97.5987 45.9835C97.5914 45.9777 97.5853 45.9704 97.581 45.962C97.5767 45.9537 97.5741 45.9445 97.5734 45.935C97.5727 45.9253 97.574 45.9157 97.5771 45.9065C97.5802 45.8973 97.5851 45.8887 97.5916 45.8815L99.2201 44.0219L100.494 42.3682Z" fill="#2D69E6"/>
<path d="M47.6071 43.189C47.6662 43.1966 47.6891 43.2181 47.6757 43.2536C47.6669 43.2771 47.6605 43.2992 47.657 43.3177C47.6535 43.3363 47.6531 43.3509 47.6557 43.3601C47.6967 43.5009 47.8014 43.5628 47.97 43.5456C48.0976 43.5322 48.21 43.594 48.3071 43.731C48.322 43.7521 48.3439 43.7669 48.3686 43.7727C48.3934 43.7786 48.4193 43.775 48.4414 43.7627C48.6195 43.6649 48.7686 43.5312 48.8886 43.3615C48.9022 43.3421 48.9196 43.3262 48.9393 43.3155C48.959 43.3047 48.9803 43.2992 49.0014 43.2996C49.1357 43.3016 49.2429 43.3466 49.3229 43.4348C49.3404 43.4542 49.3607 43.469 49.3812 43.4774C49.4018 43.4858 49.4217 43.4875 49.4386 43.4823L49.5771 43.442C49.6069 43.4336 49.6345 43.4276 49.6578 43.4245C49.6811 43.4216 49.6995 43.4216 49.7114 43.4248C49.8952 43.4708 49.9081 43.5739 49.75 43.734C49.6233 43.8615 49.6448 43.9444 49.8143 43.9827C49.8203 43.9842 49.8258 43.9873 49.8302 43.9916C49.8346 43.9959 49.8379 44.0013 49.8396 44.0075C49.8413 44.0135 49.8415 44.02 49.84 44.0262C49.8386 44.0325 49.8356 44.0383 49.8314 44.0431C49.7933 44.0873 49.77 44.1371 49.7614 44.1927C49.7604 44.2005 49.7614 44.2083 49.7643 44.2159C49.7673 44.2233 49.7721 44.2302 49.7784 44.236C49.7848 44.2419 49.7926 44.2466 49.8012 44.2498C49.8099 44.253 49.8192 44.2546 49.8286 44.2545C49.8791 44.2536 49.9171 44.2709 49.9429 44.3063C49.9621 44.3326 49.9811 44.3559 49.9975 44.3734C50.0138 44.3909 50.0271 44.402 50.0357 44.4056L50.7886 44.7205C50.819 44.7325 50.853 44.7632 50.8843 44.8068C50.91 44.8413 50.9448 44.8375 50.9886 44.7953C51.0036 44.781 51.0221 44.7716 51.0413 44.7683C51.0605 44.7649 51.0796 44.7678 51.0957 44.7766C51.2271 44.8437 51.3605 44.8552 51.4957 44.8111C51.5405 44.797 51.587 44.7956 51.63 44.8068L52.5286 45.0412C52.5341 45.0425 52.5398 45.042 52.5452 45.0399C52.5504 45.0378 52.5552 45.0342 52.5589 45.0292C52.5626 45.0243 52.5653 45.0184 52.5664 45.0119C52.5676 45.0054 52.5673 44.9987 52.5657 44.9923C52.5553 44.953 52.569 44.919 52.6071 44.8902L53.65 45.8005C53.6804 45.8274 53.6871 45.8221 53.67 45.7847C53.6309 45.7003 53.6786 45.6778 53.8129 45.7171C54.9814 46.0642 56.1434 46.4313 57.2986 46.8187C58.9043 47.3585 59.8086 47.6614 60.0114 47.7275C64.4171 49.1647 67.3209 50.1196 68.7229 50.5923C68.7934 50.6162 68.8481 50.6072 68.8871 50.5649L69.2086 51.6435C68.1867 51.3645 67.1729 51.0587 66.1671 50.726C64.5967 50.2064 63.0281 49.6825 61.4614 49.1542C60.9548 48.9825 60.0471 48.6916 58.7386 48.2812C57.3481 47.845 55.9724 47.3657 54.6114 46.8431C54.5734 46.8288 54.5357 46.8014 54.4986 46.7611C54.4386 46.6959 54.3671 46.6505 54.2843 46.6245C54.1204 46.5747 54.0362 46.5483 54.0314 46.5455C53.76 46.4294 53.4781 46.3566 53.1857 46.3269C53.16 46.324 53.1324 46.3173 53.1029 46.3067C52.9943 46.2675 52.9748 46.2991 53.0443 46.4016C53.0748 46.4476 53.0629 46.4692 53.0086 46.4663C52.8857 46.4616 52.7962 46.4184 52.74 46.3369C52.639 46.1931 52.6138 46.2046 52.6643 46.3714L52.8129 46.8733C52.82 46.8966 52.8219 46.9212 52.8183 46.9453C52.8148 46.9693 52.8059 46.9921 52.7925 47.0119C52.7791 47.0316 52.7615 47.0478 52.7409 47.0592C52.7204 47.0707 52.6976 47.0769 52.6743 47.0776C52.5114 47.0814 52.3562 47.0464 52.2086 46.9725C51.9286 46.8336 51.6329 46.7487 51.3214 46.718C51.0738 46.6941 50.6452 46.5623 50.0357 46.3225C49.4586 46.0953 48.5186 45.8753 47.2157 45.6625C47.2071 45.6615 47.1105 45.6558 46.9257 45.6452C46.8019 45.6376 46.6857 45.5996 46.5771 45.5316L47.6071 43.189Z" fill="#3580F9"/>
<path d="M68.3579 48.762L68.8879 50.5654C68.8489 50.6076 68.7942 50.6166 68.7237 50.5926C67.3217 50.12 64.4179 49.1651 60.0122 47.7279C59.8094 47.6618 58.9051 47.3589 57.2994 46.8191C56.1442 46.4318 54.9822 46.0645 53.8137 45.7175C53.6794 45.6782 53.6317 45.7008 53.6708 45.7851C53.6879 45.8225 53.6812 45.8277 53.6508 45.8009L52.6079 44.8906L51.4951 43.3748C51.6008 43.2981 51.7337 43.2861 51.8937 43.3389C52.9212 43.6802 53.9484 44.0234 54.9751 44.3686C55.0198 44.3829 55.0594 44.4055 55.0937 44.4361C55.1365 44.4735 55.1761 44.496 55.2122 44.5038C55.6589 44.6015 56.0927 44.7367 56.5137 44.9092C56.8546 45.0492 57.107 45.1451 57.2708 45.1969C57.5279 45.2784 57.7861 45.357 58.0451 45.4327C59.2184 45.7759 60.3794 46.1585 61.5279 46.5804C61.6708 46.6322 61.9761 46.7126 62.4437 46.822C62.6761 46.8766 62.9003 46.9547 63.1165 47.0563C63.3965 47.1868 63.6146 47.275 63.7708 47.3209C64.827 47.6277 65.4751 47.8343 65.7151 47.9408C66.5456 48.308 67.4031 48.5909 68.2879 48.7892C68.2925 48.7901 68.2991 48.7892 68.3071 48.7867C68.315 48.7842 68.3242 48.7801 68.3337 48.7749L68.3579 48.762Z" fill="#2887FB"/>
<path d="M99.2206 44.0217L97.592 45.8811C97.5856 45.8885 97.5806 45.8971 97.5775 45.9062C97.5744 45.9155 97.5731 45.9251 97.5738 45.9346C97.5745 45.9443 97.577 45.9535 97.5814 45.9618C97.5858 45.9702 97.5918 45.9775 97.5991 45.9833C97.743 46.0974 97.8672 46.1156 97.972 46.0379C98.1205 45.9295 98.1772 45.966 98.142 46.1472C98.0925 46.4023 98.0353 46.5921 97.9706 46.7167C97.8934 46.8644 97.9234 46.896 98.0606 46.8116C98.0748 46.8028 98.0908 46.7972 98.1073 46.7949C98.1239 46.7926 98.1408 46.7938 98.1569 46.7984C98.173 46.8029 98.188 46.8109 98.2009 46.8215C98.2138 46.8323 98.2244 46.8455 98.232 46.8605C98.3139 47.0226 98.4272 47.129 98.572 47.1798C97.8406 47.4501 97.1181 47.743 96.4048 48.0585C96.3448 48.0853 96.2263 48.1654 96.0491 48.2986C95.9415 48.3792 95.8091 48.4425 95.652 48.4884C95.4777 48.5402 95.2872 48.6323 95.0806 48.7645C94.8653 48.9036 94.6811 49.0043 94.5277 49.0666C90.3144 50.776 86.1 52.483 81.8848 54.1877C81.6172 54.296 81.4058 54.3329 81.2506 54.2984C81.2686 54.1326 81.2511 54.0918 81.1977 54.1761C81.1892 54.1891 81.1772 54.1993 81.1631 54.2057C81.1489 54.212 81.1331 54.2143 81.1177 54.2121C81.0063 54.1948 80.9339 54.2346 80.9006 54.3314C80.8925 54.3552 80.8799 54.376 80.8644 54.391C80.8489 54.4061 80.8311 54.415 80.8134 54.4163C80.7467 54.4211 80.7272 54.3894 80.7548 54.3214C80.8158 54.166 80.8496 54.0146 80.8563 53.867C80.8591 53.8065 80.8381 53.7965 80.7934 53.8368C80.6391 53.9787 80.5591 53.9911 80.5534 53.8742C80.543 53.6364 80.6434 53.2936 80.8548 52.8459C80.8565 52.8422 80.8571 52.838 80.8563 52.8341C80.8555 52.8302 80.8535 52.8268 80.8506 52.8243C80.7077 52.7102 80.6658 52.5664 80.7248 52.3929C80.7299 52.3774 80.7403 52.3603 80.7556 52.3427C80.7708 52.3252 80.7904 52.3076 80.8134 52.2908C80.8886 52.2361 80.922 52.1551 80.9134 52.0477C80.9086 51.995 80.9148 51.949 80.932 51.9097C81.0691 51.5933 81.0086 51.5076 80.7506 51.6523C80.7191 51.6695 80.6867 51.7022 80.6534 51.7501C80.583 51.8517 80.52 51.8024 80.4648 51.602L80.852 50.637L82.232 47.5479C82.2663 47.4703 82.2963 47.4569 82.322 47.5077C82.3325 47.5297 82.323 47.5661 82.2934 47.617C82.1781 47.8174 82.2206 47.9127 82.4206 47.9031C82.439 47.9019 82.4573 47.894 82.4735 47.8802C82.4897 47.8664 82.5031 47.8475 82.512 47.8255C82.5491 47.7334 82.6205 47.6802 82.7263 47.6659C82.7511 47.662 82.7567 47.673 82.7434 47.699C82.7377 47.7114 82.7358 47.7234 82.7377 47.7349C82.7389 47.7395 82.7436 47.7449 82.7512 47.7502C82.7588 47.7556 82.769 47.7608 82.7806 47.7651L83.0777 47.8686L82.7206 49.1989L82.3363 50.4774C82.3302 50.4976 82.3319 50.5194 82.3412 50.5387C82.3504 50.5581 82.3664 50.5736 82.3863 50.5824C82.5339 50.6476 82.6663 50.6552 82.7834 50.6053C87.2225 48.7406 91.673 46.9027 96.1348 45.0916C96.6358 44.8875 97.0253 44.7398 97.3034 44.6487C97.5377 44.572 97.7339 44.4967 97.892 44.4229C98.0825 44.3328 98.2758 44.2484 98.472 44.1698C98.4825 44.166 98.5625 44.1247 98.712 44.0461C98.8672 43.9637 99.0367 43.9556 99.2206 44.0217Z" fill="#3280FA"/>
<path d="M153.921 49.4997C153.891 49.5171 153.866 49.5423 153.848 49.5726C153.831 49.6029 153.821 49.6373 153.821 49.6722V61.1009C153.821 61.1386 153.806 61.1749 153.78 61.2015C153.753 61.2282 153.718 61.2432 153.68 61.2432H149.83C149.799 61.2432 149.77 61.231 149.748 61.2091C149.726 61.1873 149.714 61.1577 149.714 61.1267V44.6792C149.714 44.6479 149.726 44.6179 149.748 44.5958C149.77 44.5736 149.8 44.5613 149.831 44.5613H152.948C152.98 44.5613 153.01 44.5729 153.035 44.5938C153.058 44.6148 153.073 44.6435 153.077 44.6749L153.367 46.9772C153.381 47.0904 153.432 47.111 153.519 47.0391C154.729 46.0411 156.064 45.2698 157.524 44.7251C159.08 44.1461 160.608 44.0076 162.107 44.3096C163.714 44.6336 164.702 45.6283 165.071 47.2936C165.12 47.5161 165.159 47.8032 165.187 48.155C165.205 48.3842 165.214 48.6732 165.214 49.0222C165.214 53.048 165.214 57.079 165.214 61.1152C165.214 61.132 165.211 61.1485 165.204 61.164C165.198 61.1795 165.189 61.1934 165.177 61.2052C165.166 61.217 165.153 61.2263 165.137 61.2326C165.122 61.2388 165.106 61.242 165.089 61.2418L161.204 61.2173C161.186 61.2173 161.168 61.2095 161.154 61.1955C161.14 61.1815 161.133 61.1625 161.133 61.1426C161.12 57.1859 161.099 53.2287 161.071 49.271C161.068 48.7782 160.893 48.3881 160.55 48.1004C160.293 47.8866 159.926 47.7499 159.448 47.6905C158.716 47.6004 158.021 47.6748 157.366 47.9134C156.155 48.3554 155.007 48.8842 153.921 49.4997Z" fill="white"/>
<path d="M197.515 57.4163C197.673 57.0644 197.715 56.6981 197.643 56.3175C197.533 55.7461 197.175 55.3717 196.567 55.1944C194.848 54.6939 193.114 54.2563 191.364 53.8814C190.215 53.636 189.239 53.2348 188.437 52.6777C187.739 52.1916 187.278 51.4793 187.053 50.5407C186.723 49.1505 186.78 47.8313 187.223 46.583C187.346 46.2398 187.544 45.9214 187.816 45.6281C188.048 45.3798 188.342 45.1626 188.7 44.9766C189.467 44.5787 190.329 44.3444 191.286 44.2734C192.454 44.1871 193.538 44.1531 194.539 44.1713C195.311 44.1857 196.262 44.2302 197.392 44.305C198.578 44.3836 199.759 44.5174 200.936 44.7063C200.977 44.7128 201.014 44.7345 201.039 44.7669C201.065 44.7993 201.076 44.8398 201.072 44.8803L200.829 47.3107C200.825 47.3461 200.808 47.3787 200.781 47.4024C200.754 47.4261 200.719 47.439 200.683 47.4386C199.548 47.4262 198.465 47.4022 197.429 47.3667C195.668 47.3064 194.014 47.3059 192.465 47.3653C192.238 47.374 192.006 47.4118 191.769 47.4789C191.507 47.5528 191.31 47.6673 191.176 47.8227C191.037 47.9847 190.948 48.1735 190.912 48.3893C190.887 48.536 190.871 48.7397 190.864 49.0004C190.844 49.6754 191.166 50.1428 191.829 50.4026C191.986 50.4649 192.143 50.5258 192.3 50.5852C192.454 50.6428 192.614 50.6921 192.781 50.7333C194.229 51.0891 195.681 51.4294 197.134 51.7544C197.751 51.8934 198.357 52.0717 198.948 52.2894C199.704 52.5664 200.311 53.0003 200.767 53.5909C201.165 54.1057 201.428 54.7725 201.555 55.5913C201.705 56.5625 201.663 57.5409 201.428 58.5265C201.212 59.4286 200.732 60.1155 199.992 60.5872C199.531 60.8797 198.984 61.0901 198.353 61.2186C196.917 61.511 195.466 61.6476 194 61.6284C191.765 61.5997 189.548 61.4214 187.348 61.0934C187.307 61.0873 187.271 61.0661 187.247 61.0342C187.222 61.0023 187.21 60.9622 187.215 60.9223L187.462 58.4689C187.465 58.4399 187.479 58.4131 187.5 58.3939C187.522 58.3748 187.55 58.3645 187.579 58.3654C189.979 58.4018 192.333 58.4047 194.643 58.374C194.977 58.3692 195.31 58.3611 195.643 58.3496C196.083 58.3342 196.493 58.235 196.873 58.0518C197.174 57.9071 197.388 57.6952 197.515 57.4163Z" fill="white"/>
<path d="M208.904 54.4584C208.946 55.3453 209.171 56.142 209.581 56.8485C209.862 57.3328 210.29 57.674 210.867 57.8725C211.564 58.1141 212.274 58.2516 212.998 58.2852C213.201 58.2948 213.918 58.2771 215.149 58.232C216.535 58.1812 217.917 58.0733 219.293 57.9084C219.316 57.9062 219.337 57.9123 219.355 57.9253C219.372 57.9384 219.385 57.9576 219.387 57.9789L219.776 60.4525C219.78 60.4733 219.776 60.4946 219.767 60.5133C219.756 60.532 219.741 60.5469 219.722 60.556C219.468 60.6835 219.264 60.7688 219.108 60.812C216.367 61.5627 213.629 61.8024 210.893 61.5311C210.258 61.4677 209.616 61.3296 208.965 61.1168C208.271 60.8896 207.685 60.6034 207.203 60.2583C206.191 59.5306 205.495 58.5498 205.117 57.316C204.776 56.2057 204.581 55.0457 204.529 53.8357C204.487 52.8348 204.507 51.8775 204.589 50.9638C204.683 49.9265 204.894 48.9457 205.223 48.0214C205.719 46.6332 206.588 45.6385 207.831 45.0374C208.518 44.7057 209.352 44.4712 210.334 44.3342C212.035 44.0974 213.733 44.1151 215.428 44.3874C216.267 44.5226 217.062 44.7872 217.814 45.1812C218.808 45.7027 219.498 46.5536 219.885 47.7339C220.208 48.7204 220.289 49.7496 220.131 50.8214C220.001 51.6844 219.754 52.3674 219.389 52.8708C218.932 53.5007 218.29 53.9187 217.465 54.1248C216.766 54.3002 216.003 54.3861 215.179 54.3822C213.111 54.3736 211.041 54.3745 208.972 54.3851C208.963 54.385 208.954 54.387 208.946 54.3907C208.937 54.3944 208.93 54.3998 208.923 54.4067C208.918 54.4135 208.912 54.4216 208.909 54.4306C208.906 54.4394 208.904 54.4489 208.904 54.4584ZM209.639 48.3307C209.398 48.6278 209.218 49.0224 209.099 49.5143C208.906 50.3128 208.821 51.0381 208.845 51.6901C208.846 51.7092 208.853 51.7273 208.868 51.7407C208.882 51.754 208.901 51.7616 208.92 51.762C210.792 51.7927 212.664 51.8037 214.536 51.795C214.868 51.7931 215.166 51.7136 215.426 51.5563C215.666 51.4126 215.841 51.1805 215.955 50.8603C216.21 50.147 216.211 49.4126 215.958 48.6571C215.754 48.0511 215.355 47.6658 214.759 47.5009C213.925 47.2698 213.069 47.1936 212.192 47.2722C211.559 47.3288 211.101 47.4045 210.818 47.4994C210.358 47.6528 209.965 47.9299 209.639 48.3307Z" fill="white"/>
<path d="M227.505 47.0344C227.514 47.1025 227.544 47.1145 227.596 47.0703C229.176 45.7415 230.966 44.8332 232.965 44.3451C234.03 44.0853 235.168 44.0949 236.379 44.3739C237.673 44.6731 238.544 45.4214 238.992 46.6188C239.235 47.2717 239.357 48.0118 239.355 48.8392C239.346 52.9407 239.327 57.0422 239.296 61.1436C239.296 61.1633 239.288 61.1821 239.275 61.1961C239.262 61.21 239.244 61.2181 239.225 61.2184L235.318 61.2357C235.29 61.2357 235.265 61.2245 235.245 61.2045C235.226 61.1846 235.215 61.1575 235.215 61.1293C235.215 57.2982 235.215 53.5011 235.215 49.7381C235.215 49.4533 235.161 49.1216 235.053 48.7429C234.963 48.4246 234.797 48.1763 234.555 47.998C234.372 47.8628 234.107 47.7693 233.759 47.7175C232.865 47.5871 231.988 47.6912 231.131 48.0296C230.062 48.4504 229.017 48.9514 227.993 49.5324C227.974 49.5433 227.957 49.5593 227.946 49.5787C227.935 49.5982 227.929 49.6204 227.929 49.6432L227.92 61.1609C227.92 61.1803 227.913 61.199 227.9 61.2128C227.887 61.2266 227.869 61.2343 227.851 61.2343L223.919 61.2429C223.893 61.2429 223.868 61.2324 223.851 61.2138C223.833 61.1952 223.822 61.1699 223.822 61.1436V44.6558C223.822 44.6306 223.832 44.6065 223.85 44.5887C223.868 44.5709 223.891 44.5609 223.917 44.5609L227.093 44.5695C227.121 44.5694 227.149 44.58 227.169 44.5994C227.19 44.6187 227.204 44.6455 227.208 44.6745L227.505 47.0344Z" fill="white"/>
<path d="M137.022 61.2493C136.849 61.2407 136.651 61.2354 136.428 61.2334C135.97 61.2296 135.608 61.0844 135.341 60.7977C135.2 60.6462 135.039 60.3193 134.857 59.8169C133.035 54.8017 131.203 49.7597 129.361 44.691C129.356 44.6763 129.354 44.6608 129.356 44.6454C129.358 44.63 129.364 44.6153 129.373 44.6026C129.382 44.5899 129.393 44.5795 129.407 44.5724C129.421 44.5652 129.436 44.5615 129.451 44.5615H133.593C133.622 44.5615 133.65 44.5708 133.673 44.5878C133.697 44.6049 133.714 44.6289 133.723 44.6564C134.859 48.2009 135.984 51.7175 137.097 55.2063C137.421 56.2226 137.693 57.2528 137.914 58.2968C137.919 58.3192 137.929 58.3394 137.944 58.3553C137.958 58.3711 137.977 58.3818 137.997 58.386C138.186 58.4244 138.308 58.3491 138.366 58.1602C139.743 53.6676 141.15 49.1677 142.586 44.6608C142.594 44.632 142.612 44.6069 142.637 44.5891C142.661 44.5712 142.689 44.5616 142.72 44.5615H146.903C146.917 44.5616 146.931 44.5652 146.943 44.5717C146.956 44.5783 146.967 44.5878 146.974 44.5994C146.983 44.611 146.989 44.6243 146.99 44.6381C146.992 44.6521 146.99 44.6662 146.986 44.6794C145.16 49.7493 143.334 54.8061 141.508 59.85C140.967 61.3476 140.525 62.4741 140.186 63.2295C139.447 64.8642 138.406 66.1168 137.063 66.9873C135.731 67.8482 134.232 68.2197 132.564 68.1018C132.531 68.0997 132.499 68.0858 132.475 68.0625C132.45 68.0392 132.434 68.0078 132.43 67.9738L132.12 65.7491C132.115 65.7119 132.123 65.6743 132.143 65.6432C132.164 65.6122 132.194 65.5899 132.23 65.5809C134.584 64.9768 136.21 63.5785 137.108 61.3859C137.114 61.3711 137.117 61.3552 137.115 61.3394C137.114 61.3234 137.108 61.3082 137.1 61.2948C137.091 61.2814 137.08 61.2703 137.066 61.2624C137.053 61.2544 137.037 61.2499 137.022 61.2493Z" fill="white"/>
<path d="M46.5769 45.5317C46.6855 45.5999 46.8017 45.6377 46.9255 45.6454C47.1102 45.6559 47.2069 45.6616 47.2155 45.6626C48.5183 45.8755 49.4583 46.0955 50.0355 46.3227C50.645 46.5624 51.0736 46.6942 51.3212 46.7182C51.6326 46.7489 51.9283 46.8337 52.2083 46.9728C52.3559 47.0466 52.5112 47.0816 52.6741 47.0777C52.6974 47.0771 52.7202 47.0708 52.7408 47.0594C52.7612 47.0481 52.7789 47.0318 52.7923 47.012C52.8057 46.9923 52.8145 46.9695 52.818 46.9454C52.8216 46.9215 52.8197 46.8968 52.8126 46.8735L52.6641 46.3716C52.6136 46.2048 52.6388 46.1932 52.7397 46.3371C52.7959 46.4186 52.8855 46.4617 53.0083 46.4665C53.0626 46.4694 53.0745 46.4479 53.0441 46.4018C52.9745 46.2992 52.9941 46.2676 53.1026 46.3069C53.1322 46.3175 53.1597 46.3242 53.1855 46.327C53.4778 46.3567 53.7597 46.4297 54.0312 46.5456C54.0359 46.5485 54.1202 46.5749 54.2841 46.6248C54.3669 46.6506 54.4383 46.6962 54.4983 46.7614C54.5355 46.8016 54.5731 46.8289 54.6112 46.8433C55.9722 47.3658 57.3478 47.8452 58.7383 48.2815C60.0469 48.6917 60.9545 48.9828 61.4612 49.1544C63.0278 49.6826 64.5964 50.2066 66.1669 50.7262C67.1726 51.0589 68.1864 51.3648 69.2083 51.6437L69.8569 53.8426L70.4341 55.9163C70.4769 56.0697 70.4245 56.1219 70.2769 56.0731C62.6559 53.5497 55.1474 51.0766 47.7512 48.6539C47.5559 48.5897 47.3612 48.5772 47.1669 48.6165C47.1494 48.6199 47.1302 48.6179 47.1109 48.6103C47.0917 48.6028 47.0731 48.59 47.0569 48.5733C47.0188 48.535 46.974 48.5278 46.9226 48.5517L46.434 48.0125C46.075 47.1573 46.1226 46.3304 46.5769 45.5317Z" fill="#477CFA"/>
<path d="M68.149 45.5317L71.2448 52.147C71.161 52.1595 71.0896 52.1954 71.0305 52.2549L70.7805 51.7516L69.0662 47.8328C68.7881 47.1847 68.502 46.5399 68.2076 45.8984C68.1543 45.7825 68.1348 45.6602 68.149 45.5317Z" fill="#4DB9F7"/>
<path d="M104.607 45.5981C104.977 46.2846 105.046 47.0056 104.816 47.7611C104.385 48.3986 103.853 48.9379 103.22 49.3789C103.175 49.3579 103.127 49.354 103.079 49.3674C103.074 49.3684 103.07 49.3683 103.066 49.367C103.061 49.3657 103.058 49.3632 103.054 49.3598C103.051 49.3564 103.049 49.3522 103.047 49.3475C103.046 49.3428 103.045 49.3378 103.046 49.3329C103.052 49.2907 103.016 49.2849 102.937 49.3156C99.926 50.5026 98.0074 51.2643 97.1817 51.6008C91.6541 53.8529 86.0503 56.1361 80.3703 58.4505C80.1236 58.5512 80.0374 58.4745 80.1118 58.2204L81.2503 54.2987C81.4055 54.3331 81.6169 54.2963 81.8846 54.188C86.0998 52.4833 90.3141 50.7763 94.5274 49.0668C94.6808 49.0046 94.8651 48.9039 95.0803 48.7648C95.2869 48.6326 95.4774 48.5405 95.6518 48.4887C95.8088 48.4427 95.9413 48.3795 96.0488 48.2989C96.226 48.1656 96.3446 48.0856 96.4046 48.0587C97.1179 47.7433 97.8403 47.4504 98.5717 47.18C100.032 46.6288 101.522 46.1801 103.042 45.834C103.266 45.7831 103.526 45.74 103.823 45.7046C104.085 45.673 104.346 45.6375 104.607 45.5981Z" fill="#4874F9"/>
<path d="M104.815 47.7607C104.51 49.5823 104.25 51.0444 104.035 52.147C103.811 53.3041 103.506 54.5184 103.123 55.7897C102.759 56.992 102.289 58.1506 101.714 59.2656C100.917 60.8121 99.7168 62.1936 98.114 63.4102C96.3568 64.7439 94.5163 65.9494 92.5926 67.0271C92.2744 67.2054 91.9578 67.3866 91.6426 67.5706C91.2663 67.7902 90.9678 67.9992 90.7468 68.1976C89.9059 68.956 89.3349 69.8898 89.034 70.999C88.873 71.5944 88.7916 71.8955 88.7897 71.9023C88.0163 74.2339 86.614 76.102 84.5826 77.5065C83.2473 78.4298 81.9102 79.3502 80.5711 80.2676C80.4863 80.2676 80.4716 80.2389 80.5268 80.1814C81.6468 79.0059 82.2787 77.5707 82.4226 75.8757C82.4568 75.6446 82.4707 75.345 82.464 74.9769C82.4382 73.6049 82.4521 71.999 82.5054 70.1592C82.7311 67.9705 83.564 66.1316 85.004 64.6426C85.2107 64.4289 85.933 63.8042 87.1711 62.7689C87.9949 62.0795 88.8187 61.3892 89.6426 60.6979L93.7854 57.1861C94.1311 56.9291 94.8782 56.3252 96.0268 55.374C98.4307 53.3828 100.828 51.3843 103.22 49.3787C103.852 48.9376 104.384 48.3983 104.815 47.7607Z" fill="#403061"/>
<path d="M69.0661 47.8327L70.7805 51.7515L70.4333 51.8478C70.4166 51.8525 70.4017 51.864 70.3906 51.8805C70.3796 51.897 70.373 51.9179 70.3719 51.9399C70.37 52.0013 70.3442 52.0401 70.2947 52.0564C70.2721 52.0641 70.2524 52.0758 70.2377 52.0901C70.223 52.1043 70.214 52.1206 70.2119 52.1369C70.1909 52.2903 70.2019 52.4422 70.2447 52.5928C70.2459 52.5979 70.2486 52.6025 70.2522 52.6064C70.2559 52.6102 70.2606 52.6132 70.266 52.615C70.2714 52.6168 70.2772 52.6174 70.2832 52.6168C70.2892 52.6162 70.2951 52.6144 70.3005 52.6115C70.3185 52.6029 70.3361 52.5985 70.3533 52.5985C70.3711 52.5989 70.3884 52.6089 70.4014 52.6266C70.4144 52.6442 70.4222 52.6682 70.4233 52.6935C70.4319 52.8593 70.4361 53.0247 70.4361 53.1896C70.4361 53.2702 70.4009 53.3118 70.3304 53.3147C70.3109 53.3156 70.2925 53.3228 70.2788 53.3348C70.265 53.3467 70.257 53.3626 70.2561 53.3794L70.2447 53.7562C70.2444 53.7632 70.2424 53.7699 70.2388 53.7757C70.2351 53.7816 70.2299 53.7865 70.2237 53.7899C70.2174 53.7933 70.2104 53.7952 70.203 53.7953C70.1957 53.7954 70.1885 53.7939 70.1819 53.7907C70.0742 53.738 69.9661 53.7552 69.8575 53.8425L69.2089 51.6436L68.8875 50.5651L68.3575 48.7617L68.1133 47.8327C68.3019 47.778 68.5114 47.8049 68.7419 47.9132C68.8438 47.9611 68.9519 47.9343 69.0661 47.8327Z" fill="#2D69E6"/>
<path d="M46.4346 48.0127L46.9231 48.552L56.9646 56.9348L61.4231 60.6681C63.2089 62.1838 64.446 63.2173 65.1346 63.7686C66.9098 65.1914 68.0084 66.978 68.4303 69.1285C68.5417 69.6969 68.6017 70.6523 68.6103 71.9946C68.6189 73.3003 68.6436 74.6062 68.6846 75.9119C68.7884 77.33 69.2598 78.5671 70.0989 79.6237C70.2884 79.8634 70.4103 80.0384 70.4646 80.1486C68.4436 78.7968 67.0536 77.8371 66.2946 77.2695C64.2603 75.747 62.9036 73.7759 62.2246 71.356C62.0122 70.5986 61.8469 70.102 61.7289 69.8662C61.205 68.8231 60.4112 68.0134 59.3474 67.4372C57.4094 66.3884 55.5527 65.2139 53.7774 63.9138C52.8279 63.2187 52.095 62.6071 51.5789 62.0788C50.2512 60.7241 49.2531 59.1321 48.5846 57.3029C47.9884 55.675 47.505 53.8874 47.1346 51.9402C46.8069 50.2251 46.5736 48.9159 46.4346 48.0127Z" fill="#403061"/>
<path d="M69.8571 53.8427C69.9657 53.7555 70.0738 53.7382 70.1814 53.791C70.1881 53.7941 70.1953 53.7957 70.2026 53.7955C70.2099 53.7954 70.2169 53.7935 70.2233 53.7901C70.2295 53.7867 70.2347 53.7818 70.2384 53.776C70.2419 53.77 70.244 53.7633 70.2443 53.7564L70.2557 53.3797C70.2566 53.3629 70.2646 53.3469 70.2784 53.3349C70.292 53.323 70.3105 53.3159 70.33 53.3149C70.4004 53.312 70.4357 53.2703 70.4357 53.1898C70.4357 53.0249 70.4314 52.8596 70.4229 52.6937C70.4218 52.6683 70.4139 52.6445 70.4009 52.6268C70.3879 52.6092 70.3707 52.5991 70.3529 52.5987C70.3357 52.5987 70.3181 52.603 70.3 52.6117C70.2947 52.6146 70.2887 52.6163 70.2828 52.617C70.2769 52.6176 70.2709 52.617 70.2656 52.6152C70.2602 52.6133 70.2555 52.6104 70.2519 52.6066C70.2481 52.6028 70.2455 52.5981 70.2443 52.593C70.2014 52.4425 70.1904 52.2905 70.2114 52.1371C70.2136 52.1208 70.2226 52.1046 70.2373 52.0903C70.2519 52.076 70.2718 52.0643 70.2943 52.0565C70.3438 52.0403 70.3695 52.0014 70.3715 51.9401C70.3726 51.918 70.3791 51.8973 70.3902 51.8808C70.4012 51.8642 70.4162 51.8528 70.4329 51.848L70.78 51.7517L71.03 52.255L71.9343 54.3044C72.8295 56.3196 73.6709 58.3569 74.4586 60.4163L75.6071 63.478L75.53 65.3059C75.5129 65.2196 75.4681 65.1697 75.3957 65.1563C75.3167 65.1419 75.2738 65.1332 75.2671 65.1304C74.3652 64.8121 73.8 64.6309 73.5715 64.5868C73.3676 64.5475 73.2567 64.4065 73.2385 64.164C73.2368 64.1394 73.2231 64.1167 73.2006 64.1008C73.1782 64.0849 73.1486 64.0771 73.1185 64.0792L72.8529 64.0949C72.8369 64.0962 72.8219 64.1025 72.8106 64.1128C72.7993 64.123 72.7925 64.1366 72.7914 64.1511C72.7895 64.1769 72.7824 64.1999 72.77 64.22C72.7606 64.2363 72.7441 64.2483 72.7234 64.2541C72.7026 64.2598 72.6787 64.259 72.6557 64.2517C70.6804 63.6439 68.7162 63.0029 66.7629 62.329C66.579 62.2657 66.37 62.213 66.1357 62.1708C65.8043 62.1094 65.5952 62.049 65.5085 61.9896C64.9695 61.6128 64.419 61.2542 63.8571 60.9139C61.679 59.562 59.47 58.2625 57.23 57.0151C57.2252 57.0123 57.1995 56.9931 57.1529 56.9577C57.1014 56.9193 57.0385 56.9116 56.9643 56.9346L46.9229 48.5519C46.9743 48.528 47.019 48.5351 47.0571 48.5735C47.0733 48.5902 47.0919 48.6029 47.1112 48.6104C47.1304 48.618 47.1497 48.6201 47.1671 48.6166C47.3614 48.5773 47.5562 48.5898 47.7514 48.654C55.1476 51.0767 62.6562 53.5498 70.2771 56.0732C70.4248 56.1221 70.4771 56.0698 70.4343 55.9164L69.8571 53.8427Z" fill="#5D6EF9"/>
<path d="M103.22 49.379C100.829 51.3847 98.4313 53.3832 96.0274 55.3744C94.8789 56.3256 94.1318 56.9295 93.786 57.1865C93.6651 57.219 93.4718 57.3102 93.206 57.4597C90.8784 58.7703 88.9508 59.9117 87.4232 60.8839L84.8732 62.5233C84.833 62.5496 84.7875 62.564 84.7418 62.565C84.4951 62.5698 84.2837 62.6086 84.1074 62.6815C81.4046 63.806 78.6918 64.9062 75.9689 65.9819C75.9613 65.9857 75.9041 66.003 75.7974 66.0337C75.6374 66.0788 75.5523 66.1957 75.5418 66.3846L75.5303 65.306L75.6074 63.4782C75.6732 63.3536 75.7108 63.2198 75.7203 63.077L77.1732 59.1222L79.1489 54.5202L80.4646 51.6023C80.5198 51.8027 80.5827 51.8521 80.6532 51.7505C80.6865 51.7025 80.7189 51.6699 80.7503 51.6526C81.0084 51.5079 81.0689 51.5937 80.9318 51.9101C80.9146 51.9493 80.9084 51.9954 80.9132 52.0481C80.9218 52.1555 80.8884 52.2365 80.8132 52.2911C80.7902 52.3079 80.7706 52.3256 80.7554 52.3431C80.7401 52.3607 80.7297 52.3777 80.7246 52.3933C80.6656 52.5668 80.7074 52.7107 80.8503 52.8247C80.8533 52.8272 80.8553 52.8306 80.856 52.8344C80.8568 52.8384 80.8563 52.8425 80.8546 52.8463C80.6432 53.294 80.5427 53.6368 80.5532 53.8745C80.5589 53.9915 80.6389 53.979 80.7932 53.8372C80.8379 53.7969 80.8589 53.8069 80.856 53.8674C80.8493 54.015 80.8156 54.1664 80.7546 54.3218C80.727 54.3898 80.7465 54.4215 80.8132 54.4167C80.8308 54.4154 80.8487 54.4065 80.8641 54.3914C80.8797 54.3763 80.8923 54.3556 80.9003 54.3319C80.9337 54.235 81.006 54.1952 81.1174 54.2124C81.1329 54.2146 81.1487 54.2124 81.1628 54.206C81.177 54.1997 81.189 54.1894 81.1974 54.1765C81.2508 54.0922 81.2684 54.1329 81.2503 54.2988L80.1118 58.2205C80.0374 58.4745 80.1237 58.5512 80.3703 58.4506C86.0503 56.1362 91.6541 53.8529 97.1818 51.6008C98.0074 51.2643 99.926 50.5026 102.937 49.3157C103.016 49.2851 103.052 49.2908 103.046 49.333C103.045 49.3378 103.046 49.3428 103.047 49.3475C103.049 49.3523 103.051 49.3565 103.054 49.3599C103.058 49.3633 103.062 49.3657 103.066 49.3671C103.07 49.3684 103.075 49.3686 103.079 49.3675C103.127 49.354 103.175 49.3579 103.22 49.379Z" fill="#5965F7"/>
<path d="M80.6488 50.5654L80.8517 50.6373L80.4646 51.6022L79.1488 54.5201C79.0869 54.3946 78.9898 54.3687 78.8574 54.4425L80.6488 50.5654Z" fill="#4DB9F7"/>
<path d="M71.2435 52.147L72.2078 54.2323L71.9335 54.3041L71.0293 52.2549C71.0883 52.1955 71.1598 52.1594 71.2435 52.147Z" fill="#4DB9F7"/>
<path d="M72.2089 54.2324L74.9946 60.2365L74.4589 60.4162C73.6713 58.3569 72.8299 56.3196 71.9346 54.3043L72.2089 54.2324Z" fill="#89BCFD"/>
<path d="M79.1484 54.52L77.1727 59.122C77.0937 59.097 77.0603 59.0511 77.0727 58.9839C77.0742 58.9758 77.074 58.9674 77.0723 58.9594C77.0706 58.9514 77.0672 58.9441 77.0625 58.9379C77.0579 58.9319 77.0522 58.9273 77.0457 58.9245C77.0393 58.9218 77.0323 58.921 77.0256 58.9221L76.7441 58.9781L78.857 54.4424C78.9893 54.3685 79.0865 54.3945 79.1484 54.52Z" fill="#73BFFD"/>
<path d="M56.9648 56.9348C57.0391 56.9118 57.102 56.9195 57.1534 56.9578C57.2 56.9933 57.2258 57.0125 57.2305 57.0153C59.4705 58.2627 61.6796 59.5622 63.8577 60.9141C63.7853 60.9178 63.771 60.9351 63.8148 60.9658C63.9072 61.0291 63.8786 61.0521 63.7291 61.0348C63.6986 61.031 63.6672 61.0214 63.6348 61.0061C63.4548 60.9208 63.2681 60.869 63.0748 60.8508C62.8386 60.8287 62.651 60.798 62.512 60.7587C62.2072 60.6744 61.8672 60.623 61.492 60.6048C61.4434 60.6029 61.4205 60.624 61.4234 60.6681L56.9648 56.9348Z" fill="#504AD5"/>
<path d="M93.7855 57.186L89.6427 60.6978C89.5741 60.6317 89.4941 60.6029 89.4027 60.6116C88.7931 60.6691 88.1941 60.7812 87.6055 60.9481C87.4607 60.9893 87.3997 60.9677 87.4227 60.8834C88.9502 59.9112 90.8779 58.7698 93.2055 57.4592C93.4713 57.3097 93.6646 57.2186 93.7855 57.186Z" fill="#4D43D7"/>
<path d="M77.1732 59.1218L75.7204 63.0766C75.526 62.5761 75.4785 62.0608 75.5775 61.5306L76.7446 58.978L77.026 58.9219C77.0329 58.9207 77.0398 58.9216 77.0462 58.9244C77.0527 58.9272 77.0585 58.9318 77.0631 58.9378C77.0677 58.9439 77.071 58.9512 77.0728 58.9592C77.0746 58.9672 77.0747 58.9756 77.0732 58.9838C77.0608 59.0508 77.0941 59.0969 77.1732 59.1218Z" fill="#8BAEFE"/>
<path d="M74.9947 60.2363L75.5776 61.5307C75.4785 62.0609 75.5262 62.5761 75.7204 63.0766C75.7109 63.2194 75.6733 63.3532 75.6076 63.4778L74.459 60.4161L74.9947 60.2363Z" fill="#9EB1FE"/>
<path d="M63.8573 60.9138C64.4192 61.2541 64.9697 61.6127 65.5088 61.9895C65.5955 62.0489 65.8045 62.1093 66.1359 62.1706C66.3702 62.2129 66.5792 62.2656 66.7631 62.3289C68.7164 63.0029 70.6806 63.6438 72.6559 64.2516C72.6789 64.2589 72.7028 64.2597 72.7236 64.2539C72.7443 64.2482 72.7608 64.2362 72.7702 64.22C72.7826 64.1999 72.7897 64.1769 72.7916 64.1509C72.7927 64.1366 72.7995 64.123 72.8108 64.1127C72.8221 64.1024 72.8371 64.0961 72.8531 64.0949L73.1188 64.079C73.1489 64.0771 73.1784 64.0848 73.2008 64.1007C73.2233 64.1166 73.237 64.1393 73.2388 64.1639C73.2569 64.4065 73.3678 64.5474 73.5717 64.5867C73.8002 64.6308 74.3655 64.812 75.2673 65.1303C75.274 65.1332 75.3169 65.1418 75.3959 65.1562C75.4683 65.1696 75.5131 65.2195 75.5302 65.3057L75.5416 66.3843V72.7839L75.5359 77.8978C75.5359 77.9191 75.5312 77.9396 75.5222 77.9571C75.5131 77.9746 75.5001 77.9884 75.4845 77.9971L75.4288 78.0272C73.065 77.9572 70.8945 77.2799 68.9173 75.9952C68.8459 75.9482 68.7683 75.9204 68.6845 75.9118C68.6436 74.6059 68.6188 73.3002 68.6102 71.9944C68.6017 70.6522 68.5416 69.6968 68.4302 69.1282C68.0083 66.9778 66.9097 65.1912 65.1345 63.7684C64.4459 63.2172 63.2088 62.1837 61.4231 60.6679C61.4202 60.6238 61.4431 60.6027 61.4917 60.6046C61.8669 60.6228 62.2069 60.6741 62.5117 60.7585C62.6506 60.7978 62.8383 60.8285 63.0745 60.8505C63.2678 60.8688 63.4545 60.9205 63.6345 61.0058C63.6669 61.0212 63.6983 61.0307 63.7288 61.0346C63.8783 61.0519 63.9069 61.0289 63.8145 60.9656C63.7706 60.9349 63.785 60.9176 63.8573 60.9138Z" fill="#7957F7"/>
<path d="M89.6424 60.6981C88.8186 61.3894 87.9948 62.0797 87.171 62.769C85.9329 63.8044 85.2105 64.429 85.0038 64.6428C83.5638 66.1318 82.731 67.9706 82.5053 70.1594C82.2729 70.193 81.9824 70.2859 81.6338 70.4384C80.0653 71.121 78.1048 71.9096 75.7524 72.8041C75.72 72.8166 75.6834 72.8438 75.6424 72.886C75.5834 72.9474 75.5495 72.9134 75.541 72.7839V66.3844C75.5515 66.1955 75.6367 66.0786 75.7967 66.0335C75.9034 66.0028 75.9605 65.9855 75.9681 65.9817C78.691 64.906 81.4038 63.8058 84.1067 62.6813C84.2829 62.6084 84.4943 62.5696 84.741 62.5648C84.7868 62.5638 84.8322 62.5494 84.8724 62.5231L87.4224 60.8837C87.3995 60.968 87.4605 60.9896 87.6053 60.9484C88.1938 60.7815 88.7929 60.6693 89.4024 60.6119C89.4938 60.6032 89.5738 60.632 89.6424 60.6981Z" fill="#6D4DF4"/>
<path d="M82.5059 70.1592C82.4526 71.999 82.4387 73.6049 82.4645 74.9768C82.4712 75.345 82.4573 75.6447 82.4231 75.8757C80.3126 77.2936 77.9812 78.0108 75.4287 78.0271L75.4845 77.9969C75.5 77.9882 75.513 77.9745 75.5221 77.9569C75.5312 77.9395 75.5359 77.919 75.5359 77.8977L75.5416 72.7837C75.5501 72.9131 75.584 72.9472 75.6431 72.8859C75.684 72.8437 75.7206 72.8163 75.7531 72.8039C78.1054 71.9094 80.0659 71.1208 81.6345 70.4382C81.9831 70.2858 82.2735 70.1928 82.5059 70.1592Z" fill="#7E46F4"/>
<path d="M82.4232 75.876C82.2793 77.571 81.6474 79.0063 80.5274 80.1816C80.4722 80.2392 80.4869 80.268 80.5717 80.268L75.6417 83.741C75.6207 83.7557 75.596 83.7637 75.5709 83.764C75.5458 83.7643 75.5216 83.7567 75.5017 83.7424L70.4646 80.1485C70.4103 80.0383 70.2883 79.8633 70.0988 79.6236C69.2599 78.5671 68.7883 77.3298 68.6846 75.9119C68.7683 75.9205 68.846 75.9483 68.9174 75.9953C70.8946 77.28 73.065 77.9574 75.4288 78.0274C77.9813 78.0111 80.3127 77.2939 82.4232 75.876Z" fill="#743DD2"/>
</svg>
