<svg width="212" height="75" viewBox="0 0 212 75" fill="none" xmlns="http://www.w3.org/2000/svg">
<path d="M10.6697 14.1006C10.6323 13.123 10.6136 12.1448 10.6136 11.1662C10.6126 10.7729 10.5889 10.7246 10.5425 11.0213C10.5364 11.0579 10.5198 11.0635 10.4925 11.0381C10.4198 10.97 10.337 10.9253 10.2442 10.904C10.0897 10.8694 10.0069 10.8501 9.99582 10.846C9.16397 10.5432 8.32758 10.2546 7.48665 9.98019C7.39882 9.95173 7.32815 9.94767 7.27465 9.96799C7.19994 9.99645 7.14543 10.0529 7.11111 10.1372C6.89002 9.11789 6.90668 8.10163 7.16108 7.08842L7.72893 5.58537C7.73565 5.56743 7.73767 5.54863 7.73459 5.53259C7.73152 5.51655 7.72357 5.5044 7.71228 5.49848C7.69512 5.48934 7.67543 5.48578 7.65322 5.48781C8.58602 4.31403 9.55466 3.19767 10.5591 2.13873C10.6369 2.05742 10.6757 2.07318 10.6757 2.18598L10.6697 14.1006Z" fill="#0086DA"/>
<path d="M63.4047 5.33531C63.3441 5.32617 63.3279 5.34649 63.3562 5.39629C63.9862 6.52129 64.284 7.73318 64.2496 9.03196L64.2118 9.41306C64.2431 9.25655 64.2183 9.13104 64.1376 9.03653C64.1233 9.02014 64.1042 9.00655 64.0816 8.9966C64.0589 8.98664 64.0332 8.98052 64.0058 8.97861C63.7333 8.96336 63.4627 8.97607 63.1942 9.01672C62.7682 9.08176 62.5006 9.11834 62.3916 9.12647C61.7152 9.17627 61.2821 9.23064 61.0924 9.28958C60.9117 9.34548 60.7395 9.33633 60.576 9.26214C60.5396 9.24588 60.5255 9.25757 60.5336 9.2972C60.5497 9.38257 60.5391 9.4593 60.5018 9.52739L60.4957 2.17068C60.4957 2.06702 60.5311 2.05279 60.6017 2.128C61.5668 3.15035 62.5011 4.21946 63.4047 5.33531Z" fill="#0086DA"/>
<path d="M63.4047 5.33538C64.1406 6.32623 64.6948 7.25662 65.0673 8.12654C66.8522 12.2983 66.9405 16.4843 65.3323 20.6845C64.8145 22.0371 64.4389 23.0839 64.2057 23.8247C64.1643 23.8755 64.1224 23.9258 64.08 23.9756C64.0376 24.0244 64.0043 24.0788 63.9801 24.1387C63.7267 24.7556 63.4466 25.3603 63.1397 25.9528L62.4204 27.1723C62.1266 27.2322 61.8722 27.3471 61.6572 27.5168C61.6208 27.5452 61.5815 27.5676 61.5391 27.5839C60.9142 27.8237 60.42 27.9934 60.0566 28.093C59.9698 28.1174 59.8749 28.1652 59.7719 28.2363C59.681 28.2993 59.5831 28.3476 59.4781 28.3811C59.1833 28.4756 59.0334 28.5239 59.0284 28.5259C58.775 28.6398 58.5226 28.7551 58.2712 28.872C58.0148 28.9909 57.7559 29.091 57.4944 29.1723C56.3647 29.5249 55.6773 29.7632 55.4319 29.8872C55.0736 30.0691 54.7702 30.2017 54.5219 30.2851C54.2553 30.3735 54.0343 30.4619 53.8586 30.5503C53.6436 30.6591 53.4205 30.7485 53.1893 30.8186C53.0651 30.8562 52.9329 30.9233 52.7925 31.0198C52.6643 31.1082 52.527 31.1753 52.3807 31.2211C51.994 31.344 51.783 31.4126 51.7477 31.4268C51.3691 31.5894 50.9789 31.7211 50.5771 31.8217C50.4893 31.844 50.3086 31.9573 50.035 32.1616C49.8594 32.2917 49.6751 32.3913 49.4823 32.4604C48.6384 32.7632 47.8045 33.092 46.9807 33.4467C46.5507 33.6326 46.112 33.7927 45.6648 33.9268C45.3276 34.0285 45.1101 34.1143 45.0121 34.1845C44.7729 34.3542 44.5104 34.4675 44.2247 34.5244C44.1753 34.5336 44.1308 34.5539 44.0915 34.5854C43.8128 34.8059 43.5034 34.9644 43.1632 35.061L43.5418 33.6509C44.1334 31.6184 44.728 29.5869 45.3256 27.5564C45.3731 27.3948 45.3801 27.2287 45.3468 27.0579L45.4982 26.7531C45.5467 26.7866 45.5962 26.7708 45.6466 26.7058C48.5379 22.9568 52.308 20.6164 56.9568 19.6845C57.6251 19.5503 57.9643 19.4822 57.9744 19.4802C58.9042 19.283 59.47 19.1697 59.6719 19.1403C61.1135 18.9329 62.3013 18.2739 63.2351 17.1631C64.3102 15.8837 64.9351 14.4055 65.1097 12.7287C65.238 11.4888 65.1552 10.2678 64.8614 9.06556C64.8412 8.98528 64.822 8.87908 64.8039 8.74697C64.7473 8.34961 64.6277 8.30134 64.445 8.60215C64.4379 8.61231 64.3965 8.66363 64.3208 8.75611C64.2612 8.82623 64.2375 8.91821 64.2496 9.03203C64.284 7.73325 63.9861 6.52136 63.3562 5.39636C63.3279 5.34656 63.3441 5.32623 63.4047 5.33538Z" fill="#009EFC"/>
<path d="M7.65325 5.48786C7.67546 5.48583 7.69515 5.48938 7.71231 5.49853C7.7236 5.50445 7.73155 5.5166 7.73462 5.53264C7.7377 5.54868 7.73568 5.56748 7.72896 5.58542L7.16111 7.08847C7.13486 7.06814 7.10609 7.05951 7.07479 7.06255C7.05569 7.06491 7.03624 7.07527 7.01859 7.0925C7.00094 7.10973 6.9858 7.13313 6.97485 7.16012C6.45091 8.44467 6.14502 9.74192 6.05719 11.0519C5.90173 13.3832 6.56751 15.4442 8.05454 17.2348C8.54516 17.8263 9.14533 18.2912 9.85502 18.6296C10.2821 18.8329 10.9968 19.0346 11.9993 19.2348C13.5236 19.5377 14.4928 19.7348 14.9067 19.8263C19.1649 20.7683 22.6916 23.0234 25.487 26.5915C25.5678 26.6942 25.6384 26.7607 25.699 26.7912L25.9004 27.2866L25.9261 27.6677L25.7868 27.7058C25.7657 27.7118 25.7436 27.7118 25.7232 27.7059C25.7028 27.6999 25.6849 27.6883 25.6717 27.6723C25.5879 27.5737 25.4507 27.4929 25.2599 27.4299C19.022 25.3771 12.6908 23.2912 6.26616 21.1723C6.24269 21.1644 6.22168 21.1506 6.20522 21.1321C6.18875 21.1137 6.1774 21.0913 6.17228 21.0671C6.15108 20.9696 6.08546 20.9467 5.97542 20.9985C5.12136 18.9376 4.69434 16.8415 4.69434 14.7104C4.69535 11.3375 5.68165 8.26327 7.65325 5.48786Z" fill="#00A6FC"/>
<path d="M7.16102 7.0884C6.90662 8.10161 6.88996 9.11787 7.11105 10.1372C7.47145 12.0112 8.48299 13.4339 10.1457 14.4055C10.3446 14.5213 10.5192 14.5848 10.6696 14.596C13.1833 15.6763 15.0752 16.4543 16.3452 16.9299C18.6358 17.7896 20.5665 19.0854 22.1373 20.8171C22.42 21.1291 22.6249 21.3313 22.7521 21.4238C22.7824 21.5579 22.8404 21.6743 22.9263 21.7729C23.0646 21.9314 23.1357 22.0132 23.1398 22.0183C24.1765 23.5081 25.0296 25.0991 25.6989 26.7911C25.6383 26.7607 25.5677 26.6941 25.4869 26.5914C22.6915 23.0234 19.1648 20.7683 14.9066 19.8262C14.4927 19.7347 13.5235 19.5376 11.9992 19.2347C10.9967 19.0345 10.282 18.8328 9.85494 18.6296C9.14524 18.2911 8.54508 17.8262 8.05445 17.2347C6.56742 15.4441 5.90164 13.3831 6.05711 11.0518C6.14494 9.74186 6.45082 8.4446 6.97476 7.16005C6.98572 7.13306 7.00086 7.10966 7.0185 7.09243C7.03615 7.07521 7.05561 7.06484 7.07471 7.06249C7.106 7.05944 7.13477 7.06808 7.16102 7.0884Z" fill="#5CD2FF"/>
<path d="M45.4982 26.753C46.2876 24.8445 47.2865 23.0554 48.4949 21.3857C48.602 21.3094 48.7377 21.1773 48.9023 20.9893C49.827 19.9283 50.8926 19.0229 52.0989 18.2729C52.7016 17.8989 53.6102 17.4588 54.8247 16.9527C56.667 16.1855 58.5165 15.4355 60.373 14.7027C60.4285 14.6804 60.4714 14.6448 60.5017 14.596C60.6188 14.6011 60.7713 14.5533 60.959 14.4527C61.8383 13.9832 62.5314 13.3831 63.0381 12.6524C63.4258 12.1179 63.716 11.5335 63.9089 10.8994C64.0805 10.4187 64.1814 9.92326 64.2117 9.4131L64.2496 9.032C64.2375 8.91818 64.2612 8.82621 64.3207 8.75609C64.3965 8.66361 64.4378 8.61229 64.4449 8.60213C64.6276 8.30131 64.7473 8.34959 64.8038 8.74694C64.822 8.87906 64.8411 8.98526 64.8613 9.06554C65.1551 10.2678 65.2379 11.4888 65.1097 12.7287C64.935 14.4055 64.3101 15.8836 63.235 17.1631C62.3012 18.2739 61.1135 18.9329 59.6719 19.1402C59.47 19.1697 58.9041 19.283 57.9744 19.4802C57.9643 19.4822 57.6251 19.5503 56.9568 19.6844C52.3079 20.6164 48.5378 22.9568 45.6466 26.7058C45.5961 26.7708 45.5466 26.7866 45.4982 26.753Z" fill="#54D5FF"/>
<path d="M64.2117 9.4131C64.1814 9.92326 64.0805 10.4187 63.9089 10.8994C63.7837 10.7022 63.6428 10.6133 63.4864 10.6326C62.6182 10.7403 61.7505 10.8516 60.8833 10.9665C60.7723 10.9807 60.7011 10.9355 60.6698 10.8308C60.6607 10.7972 60.6531 10.7972 60.6471 10.8308L60.5865 11.2073C60.5774 11.2652 60.5714 11.2637 60.5683 11.2027C60.5562 10.9141 60.534 11.0162 60.5017 11.5091V9.52743C60.5391 9.45934 60.5497 9.38261 60.5335 9.29725C60.5254 9.25761 60.5396 9.24592 60.5759 9.26218C60.7395 9.33637 60.9116 9.34552 61.0923 9.28962C61.2821 9.23068 61.7152 9.17631 62.3915 9.12651C62.5006 9.11838 62.7681 9.0818 63.1941 9.01676C63.4626 8.97611 63.7332 8.9634 64.0058 8.97865C64.0331 8.98057 64.0589 8.98669 64.0815 8.99664C64.1041 9.0066 64.1232 9.02018 64.1375 9.03657C64.2183 9.13109 64.243 9.2566 64.2117 9.4131Z" fill="#007ACA"/>
<path d="M10.6697 14.1006V14.5961C10.5192 14.5849 10.3446 14.5214 10.1457 14.4055C8.48303 13.434 7.47148 12.0112 7.11108 10.1372C7.14541 10.0529 7.19992 9.99648 7.27463 9.96803C7.32813 9.9477 7.3988 9.95177 7.48663 9.98022C8.32756 10.2546 9.16395 10.5432 9.9958 10.8461C10.0069 10.8501 10.0897 10.8694 10.2441 10.904C10.337 10.9253 10.4198 10.9701 10.4925 11.0381C10.5197 11.0636 10.5364 11.058 10.5425 11.0214C10.5889 10.7246 10.6126 10.7729 10.6136 11.1662C10.6136 12.1449 10.6323 13.123 10.6697 14.1006Z" fill="#0070BD"/>
<path d="M63.909 10.8994C63.7161 11.5335 63.4259 12.1179 63.0383 12.6524C63.0322 12.3973 62.9292 12.283 62.7293 12.3094C62.1822 12.3826 61.6345 12.4547 61.0863 12.5259C61.0722 12.5279 61.0091 12.5452 60.8971 12.5777C60.8052 12.6051 60.7355 12.5803 60.6881 12.503C60.6649 12.4644 60.6472 12.4659 60.6351 12.5076C60.5341 12.8755 60.4897 13.254 60.5018 13.6433V11.5091C60.5341 11.0162 60.5563 10.9141 60.5685 11.2027C60.5715 11.2637 60.5775 11.2652 60.5866 11.2073L60.6472 10.8308C60.6533 10.7972 60.6608 10.7972 60.6699 10.8308C60.7012 10.9354 60.7724 10.9807 60.8834 10.9664C61.7506 10.8516 62.6183 10.7403 63.4865 10.6326C63.643 10.6133 63.7838 10.7022 63.909 10.8994Z" fill="#0073C1"/>
<path d="M63.0383 12.6525C62.5315 13.3832 61.8384 13.9833 60.9591 14.4528C60.7714 14.5534 60.6189 14.6012 60.5018 14.5961V13.6433C60.4897 13.2541 60.5341 12.8756 60.6351 12.5077C60.6472 12.466 60.6649 12.4645 60.6881 12.5031C60.7355 12.5803 60.8052 12.6052 60.8971 12.5778C61.0091 12.5453 61.0722 12.528 61.0863 12.526C61.6345 12.4548 62.1822 12.3827 62.7293 12.3095C62.9292 12.2831 63.0322 12.3974 63.0383 12.6525Z" fill="#006CB8"/>
<path d="M25.9261 27.6677L27.6796 33.6129L27.9385 34.5976L27.9128 34.6113C27.9028 34.6169 27.8931 34.6212 27.8846 34.6238C27.8761 34.6265 27.8692 34.6274 27.8643 34.6266C26.9265 34.4162 26.0174 34.1164 25.1371 33.7272C24.8827 33.6144 24.1957 33.3954 23.0762 33.0702C22.9106 33.0214 22.6794 32.9279 22.3826 32.7897C22.1535 32.682 21.9157 32.5991 21.6694 32.5412C21.1737 32.4254 20.8502 32.34 20.6987 32.2851C19.4813 31.838 18.2506 31.4325 17.0069 31.0687C16.7323 30.9884 16.4587 30.905 16.1862 30.8187C16.0125 30.7638 15.745 30.6621 15.3836 30.5138C14.9374 30.3308 14.4776 30.1876 14.0041 30.0839C13.9657 30.0758 13.9238 30.0519 13.8784 30.0123C13.8421 29.9797 13.8002 29.9558 13.7527 29.9406C12.6644 29.5748 11.5757 29.2109 10.4864 28.8491C10.3168 28.7932 10.176 28.8059 10.0639 28.8873C9.8297 28.5814 9.59852 28.2739 9.37037 27.965C9.36532 27.9579 9.28355 27.8308 9.12506 27.5839C9.03218 27.4396 8.92164 27.3095 8.79343 27.1937C8.75939 27.1632 8.71246 27.1464 8.66169 27.1464C8.48098 27.1494 8.34368 27.1052 8.2498 27.0138C8.20131 26.9668 8.14215 26.9326 8.07748 26.914C8.01281 26.8954 7.94459 26.893 7.8788 26.9071C7.66781 26.9508 7.52547 26.9365 7.45177 26.8644C7.41726 26.8297 7.37602 26.8068 7.33366 26.7988L6.81426 26.7089C7.22412 25.3644 7.16305 24.0443 6.63103 22.7485C6.39379 22.1723 6.17523 21.589 5.97534 20.9985C6.08538 20.9467 6.151 20.9696 6.1722 21.0671C6.17732 21.0913 6.18867 21.1137 6.20514 21.1321C6.2216 21.1506 6.24261 21.1644 6.26608 21.1723C12.6907 23.2912 19.0219 25.3771 25.2598 27.4299C25.4506 27.4929 25.5879 27.5737 25.6717 27.6723C25.6848 27.6883 25.7027 27.6999 25.7231 27.7059C25.7435 27.7118 25.7656 27.7118 25.7867 27.7058L25.9261 27.6677Z" fill="#0193FB"/>
<path d="M48.4951 21.3856C47.2867 23.0553 46.2877 24.8445 45.4983 26.753L45.3469 27.0579L40.9675 36.5091L39.0686 40.6189L36.829 45.4268L35.5918 48.1326L34.974 46.7606L32.0211 40.3963L30.999 38.1859L27.7175 31.1737L25.9004 27.2865L25.699 26.7911C25.0297 25.099 24.1766 23.5081 23.1399 22.0182C23.1358 22.0132 23.0646 21.9314 22.9263 21.7728C22.8405 21.6742 22.7825 21.5579 22.7522 21.4237C25.7414 22.9593 28.9497 23.9705 32.377 24.4573C34.1093 24.7032 35.772 24.7591 37.3651 24.6249C41.2951 24.2926 45.0051 23.2129 48.4951 21.3856Z" fill="#403061"/>
<path d="M139.484 39.4161C139.618 40.6407 139.681 41.8694 139.672 43.1021C139.661 44.5757 139.655 46.1113 139.655 47.7088C139.655 47.7244 139.652 47.7399 139.646 47.7543C139.64 47.7688 139.631 47.7819 139.62 47.7929C139.609 47.8039 139.596 47.8127 139.582 47.8187C139.568 47.8247 139.552 47.8277 139.537 47.8277H135.466C135.423 47.8277 135.381 47.8102 135.35 47.7791C135.319 47.7479 135.301 47.7056 135.301 47.6616V22.7896C135.301 22.7617 135.312 22.735 135.332 22.7152C135.351 22.6955 135.377 22.6844 135.404 22.6844L139.522 22.6753C139.557 22.6753 139.59 22.6894 139.615 22.7145C139.64 22.7396 139.655 22.7737 139.655 22.8094C139.667 26.5056 139.668 30.1702 139.658 33.8033C139.656 34.6844 139.594 35.5457 139.472 36.3872C139.47 36.4023 139.471 36.4177 139.475 36.4323C139.479 36.447 139.486 36.4606 139.496 36.4721C139.506 36.4837 139.519 36.493 139.532 36.4994C139.546 36.5057 139.561 36.5091 139.576 36.5091H141.306C141.341 36.5091 141.376 36.5009 141.408 36.485C141.439 36.4691 141.467 36.4461 141.489 36.4177L146.212 30.1982C146.225 30.1815 146.241 30.168 146.26 30.1588C146.278 30.1495 146.299 30.1448 146.319 30.1448L151.074 30.154C151.169 30.154 151.187 30.191 151.127 30.2652C149.309 32.5254 147.52 34.7749 145.759 37.0137C145.602 37.2149 145.278 37.5137 144.787 37.91C144.78 37.9157 144.774 37.9229 144.77 37.9312C144.766 37.9395 144.763 37.9486 144.763 37.9579C144.763 37.9672 144.765 37.9765 144.769 37.9851C144.773 37.9937 144.778 38.0014 144.785 38.0076C145.26 38.4304 145.629 38.8359 145.892 39.2241C147.782 42.0168 149.704 44.8221 151.657 47.6402C151.74 47.7591 151.71 47.8186 151.566 47.8186H146.896C146.873 47.8185 146.85 47.8127 146.83 47.8015C146.809 47.7903 146.792 47.7741 146.78 47.7546L141.442 39.3963C141.429 39.3758 141.411 39.3589 141.39 39.3472C141.369 39.3355 141.346 39.3293 141.322 39.3293L139.549 39.3369C139.54 39.3369 139.53 39.3391 139.522 39.3432C139.514 39.3474 139.506 39.3534 139.5 39.3608C139.494 39.3683 139.489 39.3771 139.486 39.3866C139.484 39.3961 139.483 39.4062 139.484 39.4161Z" fill="white"/>
<path d="M79.4198 46.3125C78.6616 45.4233 78.2831 44.3532 78.2841 43.1022C78.2871 36.4711 78.2886 29.8049 78.2886 23.1037C78.2886 23.081 78.2975 23.0593 78.3134 23.0433C78.3293 23.0273 78.3509 23.0183 78.3734 23.0183H82.6422C82.6623 23.0183 82.6815 23.0263 82.6957 23.0406C82.7099 23.0549 82.7179 23.0743 82.7179 23.0945C82.7179 29.1921 82.7179 35.2897 82.7179 41.3872C82.7179 41.8781 82.7406 42.2576 82.786 42.5259C82.891 43.1519 83.1797 43.5961 83.6522 43.8582C83.9298 44.0127 84.4058 44.0945 85.0802 44.1037C87.7897 44.1392 90.5755 44.1479 93.4375 44.1296C93.4732 44.1291 93.5077 44.1427 93.5339 44.1673C93.5601 44.192 93.576 44.226 93.5783 44.2622L93.7752 47.4131C93.7778 47.4499 93.766 47.4861 93.7425 47.5141C93.719 47.542 93.6856 47.5594 93.6495 47.5625C90.9258 47.7902 88.1956 47.8938 85.4587 47.8735C85.4487 47.8735 84.9853 47.8821 84.0686 47.8994C83.3761 47.9126 82.6861 47.8638 81.9986 47.7531C81.4848 47.6697 81.0068 47.5061 80.5646 47.2622C80.1406 47.0264 79.759 46.7099 79.4198 46.3125Z" fill="white"/>
<path d="M64.2057 23.8247C64.1007 24.404 64.0735 24.9863 64.1239 25.5717C64.0926 25.6184 64.0719 25.6682 64.0618 25.721C64.0558 25.7495 64.0613 25.8008 64.0785 25.875C64.1128 26.0285 64.0144 26.0717 63.7832 26.0046C63.7597 25.998 63.735 25.997 63.7111 26.0018C63.6871 26.0066 63.6647 26.0169 63.6454 26.032C63.394 26.2282 63.2255 26.2017 63.1396 25.9528C63.4465 25.3603 63.7267 24.7556 63.9801 24.1387C64.0043 24.0788 64.0376 24.0244 64.08 23.9756C64.1224 23.9258 64.1643 23.8755 64.2057 23.8247Z" fill="#025FCC"/>
<path d="M64.124 25.5717C64.3239 26.5971 64.6666 27.5732 65.1522 28.5C65.0664 28.5844 64.9755 28.6646 64.8796 28.7409C64.7696 28.8283 64.6621 28.874 64.5571 28.8781C64.2694 28.8913 64.1124 28.7017 64.0861 28.3095C64.0855 28.2969 64.0818 28.2846 64.0754 28.2736C64.0689 28.2626 64.0598 28.2531 64.0487 28.2457C64.0376 28.2383 64.0248 28.2332 64.0111 28.2308C63.9974 28.2284 63.9832 28.2287 63.9695 28.2317L63.5137 28.3354C63.4979 28.3392 63.4776 28.3374 63.4547 28.3302C63.4318 28.3231 63.4068 28.3107 63.382 28.2942C63.3194 28.2536 63.2583 28.2556 63.1988 28.3003C63.1866 28.3101 63.1758 28.3268 63.1674 28.3491C63.159 28.3714 63.1531 28.3986 63.1503 28.4284C63.1432 28.5026 63.0998 28.5488 63.0201 28.5671C63.0084 28.5698 62.9979 28.5749 62.9901 28.5817C62.9822 28.5885 62.9774 28.5967 62.9762 28.6052L62.9686 28.6387C62.9654 28.6567 62.9572 28.6734 62.9449 28.6871C62.9326 28.7008 62.9167 28.711 62.8989 28.7165L62.5703 28.8156C62.5538 28.8207 62.536 28.8195 62.5205 28.8121C62.5051 28.8048 62.4931 28.7918 62.487 28.7759L62.2402 28.1524C62.2333 28.1359 62.219 28.1206 62.1988 28.1082C62.1785 28.0959 62.1531 28.0869 62.1251 28.0823C61.9979 28.062 61.9575 27.9746 62.004 27.8201L62.4204 27.1723L63.1397 25.9528C63.2255 26.2017 63.3941 26.2282 63.6455 26.032C63.6647 26.0169 63.6872 26.0066 63.7111 26.0018C63.7351 25.997 63.7598 25.998 63.7833 26.0046C64.0144 26.0717 64.1129 26.0285 64.0786 25.875C64.0614 25.8008 64.0558 25.7495 64.0619 25.721C64.072 25.6682 64.0927 25.6184 64.124 25.5717Z" fill="#1863D7"/>
<path d="M6.81432 26.7089L7.33372 26.7988C7.37608 26.8067 7.41732 26.8296 7.45183 26.8643C7.52553 26.9365 7.66787 26.9507 7.87886 26.907C7.94465 26.893 8.01287 26.8953 8.07754 26.9139C8.14221 26.9325 8.20138 26.9668 8.24986 27.0137C8.34375 27.1052 8.48104 27.1494 8.66175 27.1464C8.71252 27.1463 8.75945 27.1632 8.79349 27.1936C8.9217 27.3095 9.03224 27.4396 9.12512 27.5839C9.28361 27.8308 9.36538 27.9578 9.37043 27.965C9.59858 28.2739 9.82977 28.5813 10.064 28.8872L11.2436 30.4939C11.2032 30.5244 11.1886 30.5605 11.1997 30.6022C11.2014 30.6089 11.2017 30.6161 11.2004 30.6229C11.1991 30.6298 11.1964 30.6361 11.1925 30.6413C11.1885 30.6465 11.1835 30.6504 11.1779 30.6526C11.1722 30.6548 11.1662 30.6553 11.1603 30.654L10.2078 30.4055C10.1623 30.3936 10.113 30.3952 10.0655 30.4101C9.92214 30.4568 9.7808 30.4446 9.64149 30.3735C9.62436 30.3642 9.60418 30.3611 9.5838 30.3647C9.56341 30.3682 9.54386 30.3783 9.52792 30.3933C9.48148 30.438 9.44463 30.4421 9.41737 30.4055C9.38423 30.3593 9.34815 30.3268 9.31592 30.314L8.51789 29.9802C8.50875 29.9765 8.4947 29.9646 8.47732 29.9461C8.45994 29.9275 8.43991 29.9029 8.41946 29.875C8.3922 29.8374 8.35182 29.8191 8.29832 29.8201C8.28837 29.8202 8.27848 29.8185 8.26931 29.8151C8.26014 29.8117 8.2519 29.8068 8.24516 29.8005C8.23841 29.7943 8.23331 29.787 8.23021 29.7791C8.2271 29.7712 8.22606 29.7628 8.22715 29.7546C8.23623 29.6957 8.26097 29.6428 8.30135 29.5961C8.30581 29.5909 8.30895 29.5848 8.31047 29.5781C8.31198 29.5715 8.31181 29.5646 8.30999 29.5582C8.30816 29.5517 8.30473 29.5459 8.30003 29.5414C8.29534 29.5368 8.28953 29.5336 8.28318 29.532C8.10348 29.4914 8.08077 29.4035 8.21503 29.2683C8.38261 29.0986 8.36898 28.9894 8.17415 28.9406C8.16151 28.9373 8.14204 28.9372 8.11732 28.9404C8.0926 28.9435 8.06331 28.9499 8.0318 28.9589L7.88492 29.0015C7.86703 29.0071 7.84591 29.0052 7.82413 28.9963C7.80235 28.9874 7.78085 28.9717 7.76226 28.9512C7.67746 28.8577 7.56389 28.81 7.42155 28.8079C7.39918 28.8075 7.37657 28.8133 7.35571 28.8247C7.33485 28.8362 7.31638 28.8529 7.30192 28.8735C7.17472 29.0534 7.01673 29.1951 6.82795 29.2988C6.80451 29.3118 6.77705 29.3156 6.7508 29.3094C6.72455 29.3032 6.70134 29.2875 6.6856 29.2653C6.58263 29.1199 6.46351 29.0544 6.32823 29.0686C6.14955 29.0869 6.0385 29.0214 5.99509 28.872C5.99228 28.8623 5.99274 28.8469 5.99645 28.8271C6.00015 28.8074 6.00698 28.784 6.01629 28.7592C6.03042 28.7216 6.00619 28.6987 5.9436 28.6906L6.81432 26.7089Z" fill="#2276EC"/>
<path d="M45.3468 27.058C45.3802 27.2287 45.3731 27.3949 45.3256 27.5565C44.728 29.5869 44.1334 31.6185 43.5418 33.651L43.2268 33.5412C43.2146 33.5366 43.2038 33.5312 43.1957 33.5255C43.1877 33.5198 43.1827 33.5141 43.1814 33.5092C43.1794 33.497 43.1814 33.4843 43.1875 33.4711C43.2016 33.4437 43.1955 33.432 43.1693 33.436C43.0572 33.4513 42.9815 33.5077 42.9422 33.6052C42.9327 33.6285 42.9185 33.6486 42.9014 33.6632C42.8842 33.6778 42.8648 33.6862 42.8452 33.6876C42.6332 33.6977 42.5883 33.5966 42.7105 33.3842C42.7418 33.3303 42.7519 33.2917 42.7408 33.2684C42.7135 33.2145 42.6817 33.2287 42.6454 33.311L41.1826 36.5854L40.9675 36.5092L45.3468 27.058Z" fill="#046BDD"/>
<path d="M62.4203 27.1722L62.0039 27.8201L60.6532 29.5732C60.4583 29.503 60.2786 29.5117 60.1141 29.5991C59.9556 29.6824 59.8708 29.7261 59.8597 29.7302C59.6517 29.8135 59.4468 29.9029 59.2449 29.9985C59.0773 30.0767 58.8693 30.1565 58.621 30.2378C58.3262 30.3343 57.9133 30.4908 57.3823 30.7073C52.6527 32.627 47.9352 34.5752 43.2298 36.5518C43.1056 36.6047 42.9653 36.5965 42.8088 36.5274C42.7878 36.5182 42.7708 36.5017 42.761 36.4812C42.7513 36.4607 42.7494 36.4376 42.7558 36.4161L43.1632 35.061C43.5034 34.9644 43.8128 34.8059 44.0914 34.5854C44.1308 34.5538 44.1752 34.5335 44.2247 34.5244C44.5104 34.4675 44.7729 34.3542 45.0121 34.1844C45.11 34.1143 45.3276 34.0284 45.6648 33.9268C46.112 33.7927 46.5506 33.6326 46.9807 33.4466C47.8045 33.092 48.6383 32.7632 49.4823 32.4604C49.6751 32.3912 49.8593 32.2917 50.035 32.1616C50.3086 31.9573 50.4893 31.844 50.5771 31.8216C50.9789 31.721 51.3691 31.5894 51.7477 31.4268C51.783 31.4126 51.994 31.344 52.3806 31.221C52.527 31.1753 52.6643 31.1082 52.7925 31.0198C52.9328 30.9233 53.0651 30.8562 53.1893 30.8186C53.4204 30.7485 53.6435 30.659 53.8586 30.5503C54.0342 30.4619 54.2553 30.3735 54.5218 30.285C54.7702 30.2017 55.0735 30.0691 55.4319 29.8872C55.6772 29.7632 56.3647 29.5249 57.4944 29.1722C57.7558 29.0909 58.0148 28.9908 58.2712 28.8719C58.5226 28.7551 58.775 28.6397 59.0283 28.5259C59.0334 28.5239 59.1833 28.4756 59.4781 28.3811C59.5831 28.3475 59.681 28.2993 59.7719 28.2363C59.8748 28.1651 59.9697 28.1174 60.0565 28.093C60.42 27.9934 60.9141 27.8237 61.539 27.5838C61.5814 27.5676 61.6208 27.5452 61.6571 27.5168C61.8722 27.347 62.1266 27.2322 62.4203 27.1722Z" fill="#1A89FB"/>
<path d="M25.9004 27.2866L27.7175 31.1738C27.7024 31.31 27.7231 31.4396 27.7796 31.5625C28.0916 32.2424 28.3949 32.9258 28.6897 33.6128C28.5686 33.7206 28.454 33.749 28.346 33.6982C28.1017 33.5834 27.8796 33.5549 27.6797 33.6128L25.9261 27.6677L25.9004 27.2866Z" fill="#046BDD"/>
<path d="M62.004 27.8201C61.9575 27.9745 61.9979 28.0619 62.1251 28.0823C62.1531 28.0869 62.1785 28.0958 62.1987 28.1082C62.219 28.1205 62.2333 28.1358 62.2402 28.1524L62.487 28.7759C62.4931 28.7918 62.5051 28.8047 62.5205 28.8121C62.536 28.8194 62.5538 28.8206 62.5703 28.8155L62.8989 28.7164C62.9167 28.7109 62.9326 28.7008 62.9449 28.687C62.9572 28.6733 62.9654 28.6566 62.9686 28.6387L62.9761 28.6051C62.9773 28.5967 62.9822 28.5885 62.99 28.5816C62.9979 28.5748 63.0084 28.5697 63.0201 28.567C63.0998 28.5487 63.1432 28.5025 63.1503 28.4283C63.1531 28.3985 63.159 28.3713 63.1674 28.3491C63.1758 28.3268 63.1866 28.31 63.1987 28.3003C63.2583 28.2555 63.3194 28.2535 63.382 28.2942C63.4068 28.3107 63.4318 28.323 63.4547 28.3302C63.4776 28.3373 63.4978 28.3391 63.5137 28.3353L63.9695 28.2317C63.9832 28.2286 63.9974 28.2283 64.0111 28.2307C64.0248 28.2331 64.0376 28.2382 64.0487 28.2456C64.0598 28.253 64.0689 28.2625 64.0753 28.2735C64.0818 28.2846 64.0855 28.2968 64.0861 28.3094C64.1124 28.7017 64.2693 28.8912 64.5571 28.878C64.662 28.8739 64.7696 28.8282 64.8796 28.7408C64.9755 28.6646 65.0664 28.5843 65.1522 28.4999L66.3636 31.2438C66.087 31.2855 65.8099 31.3231 65.5323 31.3567C65.2173 31.3943 64.9412 31.44 64.7039 31.4938C63.0927 31.8607 61.5133 32.3363 59.9657 32.9207C59.8123 32.8668 59.6922 32.754 59.6053 32.5823C59.5973 32.5664 59.5861 32.5523 59.5724 32.541C59.5587 32.5296 59.5428 32.5213 59.5257 32.5164C59.5087 32.5115 59.4908 32.5103 59.4732 32.5127C59.4556 32.5151 59.4388 32.5211 59.4236 32.5304C59.2783 32.6199 59.2465 32.5863 59.3282 32.4298C59.3969 32.2977 59.4574 32.0965 59.5099 31.8262C59.5473 31.6341 59.4872 31.5955 59.3297 31.7103C59.2187 31.7926 59.087 31.7733 58.9345 31.6524C58.9267 31.6462 58.9203 31.6385 58.9157 31.6296C58.9111 31.6208 58.9084 31.611 58.9077 31.6009C58.9069 31.5907 58.9083 31.5805 58.9116 31.5707C58.9149 31.561 58.9201 31.5519 58.9269 31.5442L60.6532 29.5731L62.004 27.8201Z" fill="#2D69E6"/>
<path d="M5.94361 28.6906C6.0062 28.6987 6.03043 28.7215 6.01629 28.7591C6.00698 28.784 6.00016 28.8074 5.99645 28.8271C5.99275 28.8468 5.99228 28.8623 5.99509 28.872C6.0385 29.0213 6.14955 29.0869 6.32824 29.0686C6.46351 29.0544 6.58264 29.1199 6.68561 29.2652C6.70135 29.2875 6.72455 29.3032 6.7508 29.3094C6.77705 29.3156 6.80451 29.3118 6.82795 29.2988C7.01673 29.1951 7.17472 29.0534 7.30192 28.8735C7.31638 28.8529 7.33485 28.8361 7.35571 28.8247C7.37657 28.8133 7.39918 28.8075 7.42155 28.8079C7.56389 28.81 7.67746 28.8577 7.76226 28.9512C7.78086 28.9717 7.80236 28.9874 7.82414 28.9963C7.84591 29.0052 7.86703 29.007 7.88492 29.0015L8.03181 28.9588C8.06331 28.9499 8.0926 28.9435 8.11732 28.9403C8.14205 28.9372 8.16151 28.9372 8.17415 28.9406C8.36899 28.9893 8.38262 29.0986 8.21503 29.2683C8.08077 29.4035 8.10348 29.4914 8.28318 29.532C8.28953 29.5336 8.29534 29.5368 8.30004 29.5414C8.30473 29.5459 8.30816 29.5517 8.30999 29.5582C8.31182 29.5646 8.31198 29.5715 8.31047 29.5781C8.30896 29.5847 8.30581 29.5909 8.30135 29.596C8.26097 29.6428 8.23624 29.6956 8.22715 29.7546C8.22606 29.7628 8.2271 29.7711 8.23021 29.7791C8.23332 29.787 8.23841 29.7943 8.24516 29.8005C8.2519 29.8067 8.26014 29.8117 8.26931 29.8151C8.27848 29.8185 8.28837 29.8202 8.29832 29.8201C8.35183 29.8191 8.39221 29.8374 8.41946 29.875C8.43991 29.9029 8.45995 29.9275 8.47733 29.9461C8.49471 29.9646 8.50875 29.9764 8.51789 29.9802L9.31592 30.314C9.34815 30.3268 9.38423 30.3593 9.41738 30.4055C9.44463 30.4421 9.48148 30.438 9.52792 30.3933C9.54387 30.3782 9.56342 30.3682 9.5838 30.3647C9.60418 30.3611 9.62437 30.3642 9.64149 30.3735C9.78081 30.4446 9.92214 30.4568 10.0655 30.4101C10.113 30.3951 10.1623 30.3936 10.2078 30.4055L11.1603 30.654C11.1662 30.6553 11.1722 30.6548 11.1779 30.6526C11.1835 30.6504 11.1885 30.6465 11.1925 30.6413C11.1964 30.6361 11.1992 30.6298 11.2004 30.6229C11.2017 30.616 11.2014 30.6089 11.1997 30.6021C11.1886 30.5605 11.2032 30.5244 11.2436 30.4939L12.349 31.4588C12.3813 31.4873 12.3884 31.4817 12.3702 31.4421C12.3288 31.3526 12.3793 31.3288 12.5217 31.3704C13.7603 31.7383 14.992 32.1275 16.2165 32.5381C17.9186 33.1103 18.8771 33.4314 19.0921 33.5015C23.7622 35.0249 26.8402 36.0371 28.3263 36.5381C28.401 36.5635 28.459 36.5539 28.5004 36.5091L28.8411 37.6524C27.7579 37.3567 26.6833 37.0325 25.6172 36.6799C23.9525 36.1291 22.2898 35.5737 20.6291 35.0137C20.0921 34.8318 19.13 34.5234 17.7429 34.0884C16.269 33.626 14.8108 33.1179 13.3681 32.564C13.3278 32.5488 13.2879 32.5198 13.2485 32.4771C13.1849 32.408 13.1092 32.3598 13.0214 32.3323C12.8477 32.2795 12.7584 32.2515 12.7533 32.2485C12.4656 32.1255 12.1668 32.0483 11.8569 32.0168C11.8296 32.0137 11.8004 32.0066 11.7691 31.9954C11.654 31.9538 11.6333 31.9873 11.707 32.096C11.7393 32.1448 11.7267 32.1677 11.6691 32.1646C11.5389 32.1596 11.444 32.1138 11.3844 32.0274C11.2774 31.875 11.2507 31.8872 11.3042 32.064L11.4617 32.596C11.4692 32.6207 11.4712 32.6468 11.4674 32.6723C11.4637 32.6978 11.4543 32.7219 11.4401 32.7429C11.4259 32.7638 11.4072 32.781 11.3854 32.7931C11.3637 32.8052 11.3395 32.8118 11.3148 32.8125C11.1421 32.8166 10.9776 32.7795 10.8211 32.7012C10.5243 32.5539 10.2109 32.4639 9.88075 32.4314C9.61827 32.406 9.16399 32.2663 8.51789 32.0122C7.90612 31.7713 6.90972 31.5381 5.52869 31.3125C5.51961 31.3115 5.41714 31.3054 5.22129 31.2942C5.09005 31.2861 4.96689 31.2459 4.85181 31.1738L5.94361 28.6906Z" fill="#3580F9"/>
<path d="M27.9386 34.5976L28.5004 36.5092C28.459 36.5539 28.401 36.5635 28.3263 36.5381C26.8402 36.0371 23.7622 35.0249 19.0921 33.5015C18.8771 33.4314 17.9186 33.1103 16.2165 32.5381C14.992 32.1276 13.7603 31.7383 12.5217 31.3704C12.3793 31.3288 12.3288 31.3527 12.3702 31.4421C12.3884 31.4817 12.3813 31.4873 12.349 31.4589L11.2436 30.4939L10.064 28.8872C10.176 28.8059 10.3169 28.7932 10.4865 28.8491C11.5757 29.2109 12.6645 29.5747 13.7528 29.9406C13.8002 29.9558 13.8421 29.9797 13.8785 30.0122C13.9239 30.0518 13.9658 30.0757 14.0041 30.0839C14.4776 30.1875 14.9374 30.3308 15.3837 30.5137C15.7451 30.6621 16.0126 30.7637 16.1862 30.8186C16.4588 30.905 16.7324 30.9883 17.007 31.0686C18.2507 31.4324 19.4813 31.8379 20.6988 32.2851C20.8502 32.34 21.1738 32.4253 21.6695 32.5412C21.9158 32.5991 22.1535 32.6819 22.3827 32.7896C22.6795 32.9279 22.9107 33.0214 23.0762 33.0701C24.1958 33.3953 24.8828 33.6143 25.1372 33.7271C26.0175 34.1164 26.9265 34.4162 27.8644 34.6265C27.8692 34.6274 27.8762 34.6264 27.8847 34.6238C27.8931 34.6211 27.9028 34.6168 27.9129 34.6113L27.9386 34.5976Z" fill="#2887FB"/>
<path d="M60.6532 29.5732L58.9269 31.5442C58.9201 31.552 58.9148 31.5611 58.9115 31.5708C58.9082 31.5806 58.9069 31.5908 58.9076 31.6009C58.9083 31.6111 58.911 31.6209 58.9157 31.6297C58.9203 31.6386 58.9267 31.6463 58.9344 31.6525C59.0869 31.7734 59.2186 31.7927 59.3297 31.7104C59.4871 31.5955 59.5472 31.6342 59.5099 31.8262C59.4574 32.0966 59.3968 32.2978 59.3282 32.4299C59.2464 32.5864 59.2782 32.6199 59.4236 32.5305C59.4387 32.5212 59.4556 32.5152 59.4731 32.5128C59.4907 32.5103 59.5086 32.5116 59.5257 32.5165C59.5427 32.5213 59.5586 32.5297 59.5723 32.541C59.586 32.5524 59.5972 32.5664 59.6053 32.5823C59.6921 32.7541 59.8122 32.8669 59.9657 32.9208C59.1904 33.2073 58.4246 33.5178 57.6685 33.8522C57.6049 33.8806 57.4792 33.9655 57.2914 34.1067C57.1774 34.1921 57.037 34.2592 56.8705 34.3079C56.6857 34.3628 56.4838 34.4604 56.2648 34.6006C56.0366 34.748 55.8413 34.8547 55.6787 34.9208C51.2126 36.7327 46.7454 38.5422 42.2773 40.3491C41.9936 40.4639 41.7695 40.5031 41.605 40.4665C41.6241 40.2907 41.6055 40.2475 41.5489 40.3369C41.5399 40.3506 41.5272 40.3615 41.5122 40.3682C41.4972 40.3749 41.4805 40.3773 41.4641 40.375C41.346 40.3567 41.2693 40.3989 41.234 40.5015C41.2254 40.5267 41.2121 40.5487 41.1956 40.5647C41.1792 40.5807 41.1603 40.5901 41.1416 40.5915C41.0709 40.5966 41.0502 40.563 41.0795 40.4909C41.1441 40.3262 41.1799 40.1657 41.187 40.0092C41.19 39.9451 41.1678 39.9345 41.1204 39.9772C40.9568 40.1276 40.872 40.1408 40.866 40.0168C40.8549 39.7648 40.9614 39.4014 41.1855 38.9268C41.1873 38.9229 41.1879 38.9185 41.187 38.9143C41.1862 38.9102 41.1841 38.9066 41.181 38.904C41.0295 38.783 40.9851 38.6306 41.0477 38.4467C41.0531 38.4302 41.0641 38.4121 41.0803 38.3935C41.0964 38.3749 41.1172 38.3562 41.1416 38.3384C41.2213 38.2805 41.2567 38.1946 41.2476 38.0808C41.2425 38.0249 41.2491 37.9761 41.2673 37.9345C41.4126 37.5991 41.3485 37.5082 41.075 37.6616C41.0416 37.6799 41.0073 37.7145 40.972 37.7653C40.8973 37.873 40.8306 37.8207 40.7721 37.6083L41.1825 36.5854L42.6453 33.311C42.6816 33.2287 42.7134 33.2145 42.7407 33.2683C42.7518 33.2917 42.7417 33.3303 42.7104 33.3842C42.5882 33.5966 42.6332 33.6977 42.8452 33.6875C42.8647 33.6862 42.8841 33.6778 42.9013 33.6632C42.9185 33.6486 42.9326 33.6285 42.9421 33.6052C42.9814 33.5076 43.0571 33.4512 43.1692 33.436C43.1955 33.4319 43.2015 33.4436 43.1874 33.4711C43.1813 33.4843 43.1793 33.497 43.1813 33.5092C43.1826 33.5141 43.1876 33.5198 43.1956 33.5254C43.2037 33.5311 43.2145 33.5366 43.2268 33.5412L43.5417 33.6509L43.1632 35.061L42.7558 36.4162C42.7494 36.4376 42.7512 36.4607 42.761 36.4812C42.7708 36.5018 42.7878 36.5182 42.8088 36.5275C42.9653 36.5966 43.1056 36.6047 43.2298 36.5518C47.9352 34.5752 52.6527 32.6271 57.3823 30.7073C57.9133 30.4909 58.3262 30.3344 58.621 30.2378C58.8693 30.1565 59.0773 30.0767 59.2449 29.9985C59.4468 29.903 59.6517 29.8135 59.8597 29.7302C59.8708 29.7261 59.9556 29.6824 60.1141 29.5991C60.2786 29.5117 60.4583 29.5031 60.6532 29.5732Z" fill="#3280FA"/>
<path d="M118.637 35.3796C118.605 35.3981 118.578 35.4248 118.559 35.4569C118.541 35.489 118.531 35.5255 118.531 35.5625V47.6769C118.531 47.7169 118.515 47.7553 118.487 47.7836C118.459 47.8119 118.421 47.8278 118.381 47.8278H114.3C114.267 47.8278 114.236 47.8148 114.213 47.7916C114.19 47.7685 114.177 47.7371 114.177 47.7043V30.2699C114.177 30.2367 114.19 30.2049 114.213 30.1815C114.237 30.158 114.268 30.1449 114.301 30.1449H117.605C117.639 30.1449 117.671 30.1572 117.697 30.1794C117.722 30.2016 117.738 30.2321 117.742 30.2653L118.049 32.7058C118.064 32.8258 118.118 32.8476 118.21 32.7714C119.493 31.7135 120.908 30.8959 122.456 30.3186C124.105 29.7048 125.725 29.558 127.314 29.8781C129.017 30.2216 130.064 31.276 130.456 33.0412C130.508 33.277 130.549 33.5813 130.578 33.9543C130.598 34.1972 130.607 34.5036 130.607 34.8735C130.607 39.1408 130.607 43.4137 130.607 47.6921C130.607 47.7099 130.604 47.7274 130.597 47.7438C130.59 47.7602 130.581 47.775 130.568 47.7875C130.556 47.8 130.542 47.8098 130.526 47.8165C130.51 47.8231 130.493 47.8265 130.475 47.8263L126.357 47.8003C126.337 47.8003 126.318 47.792 126.304 47.7772C126.289 47.7624 126.281 47.7422 126.281 47.7211C126.267 43.527 126.245 39.3324 126.216 35.1372C126.212 34.6149 126.027 34.2013 125.663 33.8964C125.391 33.6698 125.002 33.5249 124.495 33.4619C123.719 33.3664 122.983 33.4452 122.288 33.6982C121.005 34.1667 119.788 34.7272 118.637 35.3796Z" fill="white"/>
<path d="M164.845 43.7714C165.013 43.3984 165.058 43.0102 164.981 42.6067C164.865 42.001 164.485 41.6042 163.841 41.4162C162.019 40.8857 160.18 40.4218 158.325 40.0244C157.107 39.7643 156.073 39.339 155.223 38.7485C154.483 38.2333 153.994 37.4782 153.756 36.4833C153.406 35.0097 153.466 33.6113 153.936 32.2881C154.066 31.9243 154.276 31.5869 154.565 31.2759C154.81 31.0127 155.122 30.7825 155.502 30.5854C156.315 30.1636 157.228 29.9152 158.243 29.84C159.481 29.7485 160.63 29.7124 161.691 29.7317C162.509 29.747 163.517 29.7942 164.715 29.8735C165.972 29.9568 167.224 30.0986 168.472 30.2988C168.515 30.3057 168.554 30.3287 168.581 30.3631C168.608 30.3974 168.62 30.4404 168.616 30.4833L168.358 33.0595C168.354 33.097 168.336 33.1316 168.308 33.1567C168.279 33.1818 168.242 33.1955 168.204 33.1951C167.001 33.1819 165.852 33.1565 164.754 33.1189C162.888 33.0549 161.134 33.0544 159.492 33.1174C159.252 33.1266 159.006 33.1667 158.755 33.2378C158.477 33.3161 158.268 33.4375 158.126 33.6022C157.979 33.7739 157.885 33.9741 157.846 34.2028C157.82 34.3583 157.803 34.5742 157.795 34.8506C157.774 35.5661 158.116 36.0615 158.818 36.3369C158.985 36.403 159.151 36.4675 159.318 36.5305C159.481 36.5915 159.65 36.6438 159.827 36.6875C161.362 37.0646 162.901 37.4253 164.442 37.7698C165.096 37.9172 165.738 38.1062 166.365 38.3369C167.166 38.6306 167.809 39.0905 168.293 39.7165C168.715 40.2622 168.993 40.969 169.128 41.8369C169.287 42.8664 169.242 43.9035 168.993 44.9482C168.764 45.9045 168.256 46.6326 167.471 47.1326C166.982 47.4426 166.403 47.6657 165.734 47.8019C164.212 48.1118 162.674 48.2566 161.12 48.2363C158.751 48.2058 156.4 48.0168 154.068 47.6692C154.025 47.6627 153.987 47.6402 153.961 47.6064C153.935 47.5726 153.922 47.5301 153.927 47.4878L154.189 44.8872C154.192 44.8565 154.207 44.8281 154.23 44.8077C154.253 44.7874 154.283 44.7765 154.313 44.7775C156.857 44.8161 159.353 44.8191 161.801 44.7866C162.155 44.7815 162.508 44.7729 162.861 44.7607C163.328 44.7444 163.762 44.6393 164.165 44.4451C164.484 44.2917 164.711 44.0671 164.845 43.7714Z" fill="white"/>
<path d="M176.918 40.6356C176.962 41.5757 177.201 42.4202 177.635 43.1691C177.933 43.6824 178.387 44.0441 178.998 44.2545C179.737 44.5106 180.49 44.6564 181.257 44.692C181.473 44.7022 182.233 44.6834 183.537 44.6356C185.006 44.5818 186.471 44.4674 187.93 44.2926C187.954 44.2903 187.977 44.2967 187.996 44.3105C188.014 44.3244 188.027 44.3447 188.03 44.3673L188.442 46.9893C188.446 47.0114 188.442 47.034 188.432 47.0538C188.421 47.0736 188.405 47.0894 188.385 47.099C188.116 47.2342 187.899 47.3246 187.734 47.3704C184.828 48.1661 181.926 48.4202 179.026 48.1326C178.353 48.0655 177.672 47.9191 176.982 47.6935C176.247 47.4527 175.625 47.1493 175.115 46.7835C174.042 46.0121 173.304 44.9725 172.903 43.6646C172.542 42.4877 172.335 41.2581 172.28 39.9755C172.236 38.9146 172.257 37.8998 172.344 36.9313C172.443 35.8318 172.667 34.7921 173.016 33.8124C173.542 32.3409 174.463 31.2865 175.78 30.6493C176.509 30.2977 177.393 30.0492 178.433 29.9039C180.236 29.6529 182.036 29.6717 183.833 29.9603C184.722 30.1036 185.565 30.3841 186.362 30.8018C187.416 31.3546 188.147 32.2565 188.557 33.5076C188.9 34.5533 188.986 35.6443 188.818 36.7804C188.681 37.6951 188.419 38.4191 188.032 38.9527C187.547 39.6204 186.867 40.0635 185.992 40.282C185.251 40.4679 184.443 40.5589 183.569 40.5548C181.377 40.5457 179.183 40.5467 176.99 40.5579C176.98 40.5578 176.971 40.5599 176.962 40.5638C176.953 40.5677 176.945 40.5735 176.938 40.5808C176.932 40.588 176.926 40.5966 176.923 40.6061C176.92 40.6155 176.918 40.6255 176.918 40.6356ZM177.697 34.1402C177.441 34.4552 177.251 34.8734 177.124 35.3948C176.92 36.2413 176.83 37.0101 176.855 37.7012C176.856 37.7214 176.864 37.7406 176.879 37.7548C176.894 37.7689 176.914 37.777 176.935 37.7774C178.919 37.8099 180.903 37.8216 182.888 37.8124C183.24 37.8104 183.555 37.7261 183.831 37.5594C184.085 37.407 184.271 37.161 184.392 36.8216C184.662 36.0655 184.663 35.287 184.395 34.4862C184.179 33.8439 183.756 33.4354 183.124 33.2606C182.24 33.0157 181.333 32.9349 180.403 33.0182C179.732 33.0782 179.246 33.1585 178.946 33.2591C178.459 33.4217 178.042 33.7154 177.697 34.1402Z" fill="white"/>
<path d="M196.635 32.7667C196.644 32.8389 196.676 32.8516 196.731 32.8048C198.406 31.3963 200.303 30.4334 202.422 29.9161C203.551 29.6407 204.757 29.6509 206.041 29.9466C207.413 30.2637 208.336 31.0569 208.811 32.3262C209.069 33.0183 209.198 33.8028 209.196 34.6798C209.186 39.0274 209.166 43.375 209.133 47.7225C209.133 47.7434 209.125 47.7633 209.111 47.7781C209.097 47.7929 209.078 47.8014 209.058 47.8018L204.916 47.8201C204.887 47.8201 204.86 47.8082 204.839 47.787C204.819 47.7659 204.807 47.7372 204.807 47.7073C204.807 43.6463 204.807 39.6214 204.807 35.6326C204.807 35.3308 204.75 34.9791 204.636 34.5777C204.54 34.2403 204.364 33.9771 204.108 33.7881C203.914 33.6448 203.633 33.5457 203.264 33.4908C202.316 33.3526 201.387 33.4629 200.478 33.8216C199.345 34.2677 198.237 34.7987 197.152 35.4146C197.132 35.4261 197.114 35.4431 197.102 35.4637C197.091 35.4844 197.084 35.5079 197.084 35.532L197.075 47.7408C197.075 47.7614 197.067 47.7812 197.053 47.7958C197.04 47.8104 197.021 47.8186 197.001 47.8186L192.834 47.8277C192.806 47.8277 192.78 47.8166 192.761 47.7969C192.742 47.7772 192.731 47.7504 192.731 47.7225V30.2454C192.731 30.2187 192.741 30.1931 192.76 30.1743C192.779 30.1554 192.804 30.1448 192.831 30.1448L196.198 30.1539C196.228 30.1538 196.257 30.1651 196.279 30.1856C196.301 30.2061 196.316 30.2345 196.32 30.2652L196.635 32.7667Z" fill="white"/>
<path d="M100.723 47.8338C100.54 47.8247 100.33 47.8191 100.094 47.817C99.6087 47.813 99.2246 47.659 98.9419 47.3551C98.7925 47.1946 98.6214 46.848 98.4285 46.3155C96.4973 40.9994 94.5555 35.6549 92.6031 30.282C92.5975 30.2665 92.5957 30.25 92.5978 30.2337C92.5999 30.2174 92.6059 30.2018 92.6153 30.1883C92.6246 30.1749 92.6371 30.1639 92.6516 30.1563C92.6661 30.1487 92.6822 30.1448 92.6985 30.1448H97.0884C97.1191 30.1448 97.149 30.1546 97.1738 30.1727C97.1986 30.1908 97.2169 30.2162 97.2262 30.2454C98.4306 34.0025 99.6228 37.7301 100.803 41.4283C101.146 42.5055 101.435 43.5975 101.669 44.7042C101.674 44.7279 101.685 44.7494 101.701 44.7662C101.716 44.783 101.736 44.7943 101.757 44.7987C101.957 44.8394 102.087 44.7596 102.148 44.5594C103.608 39.7972 105.099 35.0274 106.621 30.25C106.63 30.2195 106.649 30.1929 106.675 30.174C106.701 30.1551 106.731 30.1449 106.763 30.1448H111.197C111.212 30.1449 111.227 30.1487 111.24 30.1556C111.253 30.1626 111.265 30.1727 111.273 30.1849C111.282 30.1972 111.288 30.2113 111.29 30.226C111.292 30.2408 111.29 30.2558 111.285 30.2698C109.35 35.6438 107.414 41.004 105.479 46.3506C104.905 47.938 104.437 49.1321 104.077 49.9329C103.294 51.6656 102.191 52.9934 100.767 53.9161C99.3553 54.8287 97.7658 55.2225 95.9981 55.0975C95.9628 55.0953 95.9293 55.0805 95.9033 55.0558C95.8774 55.0311 95.8606 54.9979 95.8558 54.9618L95.5272 52.6036C95.5217 52.5642 95.5305 52.5243 95.5521 52.4914C95.5736 52.4585 95.6062 52.4349 95.6438 52.4253C98.1393 51.785 99.8631 50.3028 100.815 47.9786C100.821 47.963 100.824 47.9461 100.822 47.9293C100.821 47.9124 100.815 47.8963 100.806 47.8821C100.797 47.8679 100.785 47.8561 100.77 47.8477C100.756 47.8393 100.739 47.8345 100.723 47.8338Z" fill="white"/>
<path d="M4.85181 31.1738C4.9669 31.246 5.09006 31.2861 5.2213 31.2943C5.41714 31.3054 5.51961 31.3115 5.5287 31.3125C6.90973 31.5382 7.90613 31.7714 8.5179 32.0122C9.16399 32.2663 9.61828 32.406 9.88075 32.4314C10.2109 32.464 10.5243 32.5539 10.8211 32.7013C10.9776 32.7795 11.1422 32.8166 11.3148 32.8125C11.3395 32.8119 11.3637 32.8052 11.3855 32.7931C11.4072 32.7811 11.4259 32.7639 11.4401 32.7429C11.4543 32.722 11.4637 32.6978 11.4674 32.6723C11.4712 32.6469 11.4692 32.6208 11.4617 32.5961L11.3042 32.0641C11.2507 31.8872 11.2774 31.875 11.3844 32.0275C11.444 32.1139 11.5389 32.1596 11.6691 32.1647C11.7267 32.1677 11.7393 32.1449 11.707 32.0961C11.6333 31.9873 11.654 31.9538 11.7691 31.9955C11.8004 32.0067 11.8296 32.0138 11.8569 32.0168C12.1668 32.0483 12.4656 32.1256 12.7534 32.2485C12.7584 32.2516 12.8477 32.2795 13.0214 32.3324C13.1092 32.3598 13.1849 32.4081 13.2485 32.4772C13.2879 32.5199 13.3278 32.5488 13.3682 32.5641C14.8108 33.1179 16.269 33.6261 17.7429 34.0885C19.13 34.5234 20.0921 34.8319 20.6292 35.0138C22.2898 35.5737 23.9525 36.1291 25.6172 36.6799C26.6833 37.0326 27.7579 37.3568 28.8411 37.6525L29.5286 39.9833L30.1404 42.1814C30.1858 42.344 30.1303 42.3994 29.9738 42.3476C21.8956 39.6728 13.9365 37.0514 6.09655 34.4833C5.8896 34.4152 5.68315 34.402 5.47721 34.4436C5.4587 34.4473 5.43827 34.4451 5.41787 34.4371C5.39746 34.4291 5.37776 34.4156 5.36061 34.3979C5.32023 34.3573 5.27278 34.3496 5.21827 34.375L4.70038 33.8034C4.31979 32.8969 4.37027 32.0204 4.85181 31.1738Z" fill="#477CFA"/>
<path d="M27.7174 31.1738L30.9989 38.186C30.9101 38.1992 30.8344 38.2373 30.7718 38.3004L30.5068 37.7668L28.6896 33.6129C28.3948 32.9259 28.0915 32.2424 27.7795 31.5625C27.723 31.4396 27.7023 31.31 27.7174 31.1738Z" fill="#4DB9F7"/>
<path d="M66.3635 31.2439C66.7552 31.9715 66.8289 32.7358 66.5846 33.5366C66.1273 34.2124 65.5635 34.784 64.8932 35.2515C64.8447 35.2292 64.7947 35.2251 64.7432 35.2393C64.7386 35.2404 64.7339 35.2403 64.7293 35.2389C64.7248 35.2375 64.7206 35.2349 64.7172 35.2313C64.7137 35.2276 64.7111 35.2232 64.7096 35.2182C64.7081 35.2132 64.7077 35.2079 64.7084 35.2027C64.7145 35.158 64.6761 35.1519 64.5933 35.1844C61.4012 36.4426 59.3675 37.25 58.4923 37.6067C52.633 39.9939 46.693 42.4141 40.6722 44.8674C40.4107 44.9741 40.3193 44.8928 40.3981 44.6235L41.605 40.4665C41.7695 40.503 41.9936 40.4639 42.2773 40.3491C46.7454 38.5422 51.2126 36.7327 55.6787 34.9207C55.8413 34.8547 56.0366 34.748 56.2648 34.6006C56.4838 34.4604 56.6857 34.3628 56.8705 34.3079C57.037 34.2591 57.1774 34.1921 57.2914 34.1067C57.4792 33.9654 57.6049 33.8806 57.6685 33.8521C58.4246 33.5178 59.1904 33.2073 59.9657 32.9207C61.5133 32.3364 63.0927 31.8608 64.7039 31.4939C64.9411 31.44 65.2172 31.3943 65.5322 31.3567C65.8098 31.3232 66.0869 31.2856 66.3635 31.2439Z" fill="#4874F9"/>
<path d="M66.5846 33.5366C66.2606 35.4675 65.985 37.0173 65.7578 38.186C65.5196 39.4126 65.197 40.6997 64.7902 42.0473C64.4045 43.3217 63.9069 44.5498 63.2971 45.7317C62.4521 47.371 61.1801 48.8354 59.4811 50.125C57.6185 51.5387 55.6676 52.8166 53.6284 53.9589C53.2912 54.1479 52.9555 54.34 52.6214 54.5351C52.2226 54.7678 51.9061 54.9894 51.6719 55.1997C50.7805 56.0036 50.1753 56.9934 49.8563 58.1692C49.6857 58.8003 49.5994 59.1194 49.5974 59.1266C48.7776 61.5981 47.2911 63.5783 45.1378 65.0671C43.7224 66.0458 42.3051 67.0214 40.8857 67.9939C40.7958 67.9939 40.7802 67.9634 40.8387 67.9025C42.0259 66.6565 42.6957 65.1352 42.8482 63.3384C42.8845 63.0935 42.8992 62.7759 42.8921 62.3857C42.8648 60.9314 42.8795 59.2292 42.936 57.279C43.1753 54.9589 44.0581 53.0097 45.5845 51.4314C45.8036 51.2048 46.5693 50.5427 47.8817 49.4452C48.7549 48.7145 49.6281 47.9828 50.5014 47.25L54.8928 43.5275C55.2593 43.2551 56.0512 42.6149 57.2687 41.6067C59.8168 39.496 62.3582 37.3776 64.8932 35.2516C65.5635 34.7841 66.1273 34.2124 66.5846 33.5366Z" fill="#403061"/>
<path d="M28.6897 33.6128L30.5069 37.7667L30.1389 37.8688C30.1212 37.8738 30.1054 37.886 30.0937 37.9035C30.082 37.921 30.075 37.9431 30.0738 37.9664C30.0718 38.0315 30.0445 38.0726 29.992 38.0899C29.9681 38.0981 29.9472 38.1105 29.9316 38.1256C29.916 38.1407 29.9065 38.158 29.9042 38.1753C29.882 38.3379 29.8936 38.4989 29.939 38.6585C29.9403 38.6639 29.9431 38.6688 29.947 38.6729C29.9509 38.677 29.9559 38.6801 29.9616 38.682C29.9673 38.6839 29.9735 38.6846 29.9798 38.6839C29.9862 38.6833 29.9924 38.6814 29.9981 38.6783C30.0172 38.6692 30.0359 38.6646 30.0541 38.6646C30.073 38.665 30.0913 38.6756 30.1051 38.6943C30.1189 38.713 30.1272 38.7384 30.1283 38.7652C30.1374 38.941 30.1419 39.1163 30.1419 39.2911C30.1419 39.3765 30.1046 39.4207 30.0299 39.4237C30.0092 39.4247 29.9897 39.4323 29.9751 39.445C29.9605 39.4576 29.952 39.4745 29.9511 39.4923L29.939 39.8917C29.9387 39.8991 29.9366 39.9062 29.9327 39.9124C29.9288 39.9186 29.9233 39.9238 29.9167 39.9274C29.9101 39.931 29.9026 39.933 29.8948 39.9332C29.8871 39.9333 29.8794 39.9317 29.8724 39.9283C29.7583 39.8724 29.6437 39.8907 29.5286 39.9832L28.8411 37.6524L28.5004 36.5091L27.9386 34.5975L27.6797 33.6128C27.8796 33.5548 28.1017 33.5833 28.346 33.6981C28.454 33.7489 28.5686 33.7205 28.6897 33.6128Z" fill="#2D69E6"/>
<path d="M4.70032 33.8033L5.2182 34.375L15.8621 43.2607L20.5882 47.218C22.4811 48.8247 23.7924 49.9202 24.5223 50.5046C26.4041 52.0127 27.5686 53.9065 28.0158 56.186C28.1339 56.7886 28.1975 57.8013 28.2066 59.2241C28.2157 60.6082 28.2419 61.9924 28.2853 63.3765C28.3954 64.8796 28.8951 66.191 29.7845 67.311C29.9854 67.565 30.1146 67.7505 30.1721 67.8674C28.0299 66.4344 26.5565 65.4172 25.7519 64.8155C23.5956 63.2017 22.1575 61.1123 21.4377 58.5472C21.2126 57.7444 21.0374 57.218 20.9123 56.968C20.357 55.8623 19.5156 55.0041 18.3879 54.3933C16.3336 53.2815 14.3655 52.0366 12.4837 50.6585C11.4773 49.9217 10.7004 49.2734 10.1533 48.7134C8.74598 47.2774 7.688 45.5899 6.97932 43.6509C6.34736 41.9253 5.83502 40.0305 5.44232 37.9665C5.09504 36.1484 4.84771 34.7607 4.70032 33.8033Z" fill="#403061"/>
<path d="M29.5286 39.9832C29.6437 39.8908 29.7583 39.8725 29.8723 39.9284C29.8794 39.9317 29.8871 39.9334 29.8948 39.9332C29.9025 39.9331 29.91 39.9311 29.9167 39.9275C29.9233 39.9239 29.9288 39.9187 29.9327 39.9125C29.9365 39.9062 29.9387 39.8991 29.939 39.8918L29.9511 39.4924C29.952 39.4746 29.9605 39.4577 29.9751 39.445C29.9896 39.4323 30.0092 39.4248 30.0298 39.4238C30.1045 39.4207 30.1419 39.3765 30.1419 39.2912C30.1419 39.1164 30.1373 38.9411 30.1283 38.7653C30.1271 38.7384 30.1188 38.7131 30.105 38.6944C30.0912 38.6757 30.073 38.665 30.0541 38.6646C30.0359 38.6646 30.0172 38.6692 29.998 38.6784C29.9924 38.6814 29.9861 38.6833 29.9798 38.684C29.9735 38.6846 29.9672 38.684 29.9616 38.6821C29.9559 38.6801 29.9509 38.677 29.947 38.673C29.943 38.6689 29.9403 38.664 29.939 38.6585C29.8935 38.499 29.8819 38.3379 29.9041 38.1753C29.9065 38.158 29.916 38.1408 29.9316 38.1257C29.9471 38.1105 29.9681 38.0981 29.992 38.0899C30.0445 38.0727 30.0717 38.0315 30.0738 37.9665C30.075 37.9431 30.0819 37.9211 30.0936 37.9036C30.1053 37.886 30.1212 37.8739 30.1389 37.8689L30.5068 37.7668L30.7718 38.3003L31.7304 40.4726C32.6793 42.6087 33.5712 44.7683 34.4061 46.9512L35.6236 50.1967L35.5418 52.1342C35.5237 52.0427 35.4762 51.9898 35.3995 51.9756C35.3157 51.9604 35.2703 51.9512 35.2632 51.9482C34.3072 51.6108 33.708 51.4187 33.4658 51.372C33.2497 51.3303 33.1321 51.1809 33.1129 50.9238C33.111 50.8977 33.0965 50.8737 33.0727 50.8568C33.0489 50.84 33.0176 50.8317 32.9857 50.8339L32.7041 50.8506C32.6871 50.8519 32.6712 50.8586 32.6593 50.8695C32.6473 50.8804 32.6401 50.8948 32.6389 50.9101C32.6369 50.9375 32.6294 50.9619 32.6162 50.9832C32.6063 51.0005 32.5888 51.0132 32.5668 51.0193C32.5448 51.0254 32.5195 51.0245 32.4951 51.0168C30.4013 50.3725 28.3192 49.6931 26.2487 48.9787C26.0538 48.9116 25.8322 48.8557 25.5839 48.811C25.2326 48.7459 25.011 48.6819 24.9191 48.6189C24.3477 48.2195 23.7642 47.8394 23.1686 47.4787C20.8598 46.0457 18.5182 44.6682 16.1438 43.346C16.1388 43.343 16.1115 43.3227 16.0621 43.2851C16.0075 43.2444 15.9409 43.2363 15.8622 43.2607L5.21826 34.375C5.27278 34.3496 5.32022 34.3572 5.3606 34.3979C5.37775 34.4156 5.39746 34.429 5.41786 34.437C5.43826 34.4451 5.45869 34.4473 5.4772 34.4436C5.68315 34.4019 5.88959 34.4152 6.09655 34.4832C13.9365 37.0513 21.8956 39.6728 29.9738 42.3476C30.1303 42.3994 30.1858 42.344 30.1404 42.1814L29.5286 39.9832Z" fill="#5D6EF9"/>
<path d="M64.8931 35.2516C62.3582 37.3776 59.8168 39.496 57.2687 41.6067C56.0512 42.6149 55.2593 43.2551 54.8928 43.5275C54.7646 43.562 54.5597 43.6586 54.278 43.8171C51.8107 45.2063 49.7675 46.4162 48.1482 47.4467L45.4452 49.1845C45.4026 49.2124 45.3544 49.2277 45.3059 49.2287C45.0444 49.2338 44.8203 49.2749 44.6335 49.3522C41.7685 50.5442 38.8929 51.7104 36.0066 52.8506C35.9986 52.8547 35.938 52.873 35.8249 52.9055C35.6553 52.9533 35.565 53.0773 35.5539 53.2775L35.5417 52.1342L35.6235 50.1967C35.6932 50.0646 35.7331 49.9228 35.7431 49.7714L37.2832 45.5793L39.3774 40.7012L40.7721 37.6083C40.8306 37.8207 40.8973 37.873 40.972 37.7653C41.0073 37.7145 41.0416 37.6799 41.0749 37.6616C41.3485 37.5082 41.4126 37.5991 41.2673 37.9345C41.2491 37.9761 41.2425 38.0249 41.2476 38.0808C41.2567 38.1946 41.2213 38.2805 41.1416 38.3384C41.1172 38.3562 41.0964 38.3749 41.0803 38.3935C41.0641 38.4121 41.0531 38.4302 41.0477 38.4467C40.9851 38.6306 41.0295 38.7831 41.1809 38.904C41.1841 38.9066 41.1862 38.9102 41.187 38.9143C41.1878 38.9185 41.1873 38.9229 41.1855 38.9269C40.9614 39.4015 40.8549 39.7648 40.866 40.0168C40.872 40.1408 40.9568 40.1276 41.1204 39.9772C41.1678 39.9345 41.19 39.9451 41.187 40.0092C41.1799 40.1657 41.1441 40.3262 41.0795 40.4909C41.0502 40.563 41.0709 40.5966 41.1416 40.5915C41.1603 40.5901 41.1792 40.5807 41.1956 40.5647C41.2121 40.5487 41.2254 40.5267 41.2339 40.5016C41.2693 40.3989 41.346 40.3567 41.4641 40.375C41.4805 40.3773 41.4972 40.375 41.5122 40.3682C41.5272 40.3615 41.5399 40.3506 41.5489 40.3369C41.6055 40.2475 41.6241 40.2907 41.6049 40.4665L40.3981 44.6235C40.3193 44.8928 40.4107 44.9741 40.6721 44.8674C46.6929 42.4142 52.633 39.9939 58.4923 37.6067C59.3675 37.25 61.4012 36.4426 64.5933 35.1845C64.6761 35.152 64.7145 35.1581 64.7084 35.2028C64.7077 35.2079 64.7081 35.2132 64.7096 35.2182C64.7111 35.2232 64.7137 35.2277 64.7171 35.2313C64.7206 35.2349 64.7248 35.2375 64.7293 35.2389C64.7339 35.2403 64.7386 35.2405 64.7432 35.2394C64.7947 35.2251 64.8447 35.2292 64.8931 35.2516Z" fill="#5965F7"/>
<path d="M40.9675 36.5092L41.1825 36.5854L40.7722 37.6082L39.3775 40.7012C39.3119 40.5681 39.2089 40.5407 39.0686 40.6189L40.9675 36.5092Z" fill="#4DB9F7"/>
<path d="M30.999 38.186L32.0211 40.3964L31.7304 40.4726L30.7719 38.3004C30.8344 38.2374 30.9102 38.1992 30.999 38.186Z" fill="#4DB9F7"/>
<path d="M32.0211 40.3964L34.9739 46.7607L34.4061 46.9512C33.5712 44.7683 32.6793 42.6088 31.7303 40.4726L32.0211 40.3964Z" fill="#89BCFD"/>
<path d="M39.3775 40.7012L37.2833 45.5793C37.1995 45.5528 37.1641 45.5041 37.1773 45.4329C37.1789 45.4243 37.1787 45.4154 37.1768 45.4069C37.175 45.3985 37.1714 45.3907 37.1665 45.3842C37.1616 45.3778 37.1555 45.3729 37.1487 45.37C37.1419 45.3671 37.1345 45.3662 37.1273 45.3674L36.829 45.4268L39.0686 40.6189C39.2089 40.5406 39.3119 40.5681 39.3775 40.7012Z" fill="#73BFFD"/>
<path d="M15.8622 43.2607C15.9409 43.2363 16.0076 43.2444 16.0621 43.2851C16.1115 43.3227 16.1388 43.343 16.1438 43.346C18.5182 44.6682 20.8598 46.0457 23.1686 47.4787C23.0919 47.4827 23.0767 47.501 23.1232 47.5335C23.2211 47.6006 23.1908 47.625 23.0323 47.6067C23 47.6026 22.9667 47.5925 22.9324 47.5762C22.7416 47.4858 22.5437 47.4309 22.3388 47.4116C22.0884 47.3882 21.8895 47.3557 21.7422 47.314C21.4191 47.2246 21.0587 47.1702 20.661 47.1509C20.6095 47.1489 20.5852 47.1712 20.5883 47.218L15.8622 43.2607Z" fill="#504AD5"/>
<path d="M54.8929 43.5275L50.5015 47.25C50.4288 47.1799 50.344 47.1494 50.2471 47.1586C49.601 47.2195 48.966 47.3384 48.3421 47.5153C48.1886 47.559 48.124 47.5361 48.1483 47.4467C49.7675 46.4162 51.8108 45.2063 54.2781 43.8171C54.5598 43.6586 54.7647 43.562 54.8929 43.5275Z" fill="#4D43D7"/>
<path d="M37.2832 45.5792L35.7432 49.7713C35.5372 49.2408 35.4868 48.6946 35.5918 48.1326L36.8289 45.4268L37.1272 45.3673C37.1345 45.3661 37.1418 45.367 37.1486 45.37C37.1555 45.3729 37.1616 45.3778 37.1665 45.3842C37.1714 45.3907 37.1749 45.3984 37.1768 45.4069C37.1787 45.4154 37.1788 45.4243 37.1772 45.4329C37.1641 45.504 37.1994 45.5528 37.2832 45.5792Z" fill="#8BAEFE"/>
<path d="M34.974 46.7606L35.5918 48.1326C35.4868 48.6946 35.5373 49.2408 35.7432 49.7713C35.7331 49.9227 35.6933 50.0645 35.6236 50.1966L34.4061 46.9512L34.974 46.7606Z" fill="#9EB1FE"/>
<path d="M23.1686 47.4786C23.7642 47.8394 24.3477 48.2195 24.9191 48.6189C25.011 48.6819 25.2326 48.7459 25.5839 48.8109C25.8322 48.8557 26.0538 48.9116 26.2487 48.9786C28.3192 49.6931 30.4013 50.3724 32.4951 51.0167C32.5194 51.0245 32.5448 51.0253 32.5668 51.0192C32.5888 51.0131 32.6063 51.0004 32.6162 50.9832C32.6294 50.9619 32.6369 50.9375 32.6389 50.91C32.6401 50.8948 32.6473 50.8804 32.6593 50.8695C32.6712 50.8586 32.6871 50.8519 32.7041 50.8506L32.9857 50.8338C33.0176 50.8317 33.0489 50.8399 33.0727 50.8568C33.0965 50.8736 33.111 50.8977 33.1129 50.9237C33.1321 51.1809 33.2497 51.3303 33.4658 51.3719C33.708 51.4187 34.3072 51.6107 35.2632 51.9481C35.2703 51.9512 35.3157 51.9603 35.3995 51.9756C35.4762 51.9898 35.5237 52.0427 35.5418 52.1341L35.5539 53.2774V60.0609L35.5479 65.4817C35.5479 65.5043 35.5429 65.526 35.5333 65.5445C35.5237 65.5631 35.5099 65.5777 35.4934 65.5869L35.4343 65.6189C32.9287 65.5447 30.628 64.8267 28.5322 63.4649C28.4565 63.4151 28.3742 63.3856 28.2854 63.3765C28.242 61.9923 28.2157 60.6082 28.2066 59.2241C28.1976 57.8013 28.1339 56.7886 28.0158 56.1859C27.5686 53.9065 26.4041 52.0127 24.5224 50.5045C23.7925 49.9202 22.4811 48.8247 20.5883 47.218C20.5852 47.1712 20.6095 47.1489 20.661 47.1509C21.0587 47.1702 21.4191 47.2246 21.7422 47.314C21.8895 47.3557 22.0884 47.3882 22.3388 47.4116C22.5437 47.4309 22.7416 47.4857 22.9324 47.5762C22.9667 47.5925 23 47.6026 23.0323 47.6067C23.1908 47.625 23.2211 47.6006 23.1232 47.5335C23.0767 47.501 23.0919 47.4827 23.1686 47.4786Z" fill="#7957F7"/>
<path d="M50.5015 47.25C49.6282 47.9828 48.755 48.7145 47.8818 49.4452C46.5694 50.5427 45.8037 51.2048 45.5846 51.4314C44.0582 53.0097 43.1754 54.9589 42.9361 57.279C42.6898 57.3146 42.3819 57.4131 42.0124 57.5747C40.3497 58.2983 38.2716 59.1342 35.7781 60.0824C35.7437 60.0956 35.7049 60.1245 35.6615 60.1692C35.5989 60.2343 35.563 60.1982 35.554 60.061V53.2775C35.5651 53.0773 35.6554 52.9533 35.825 52.9055C35.9381 52.873 35.9987 52.8547 36.0067 52.8506C38.893 51.7104 41.7686 50.5442 44.6336 49.3522C44.8204 49.2749 45.0445 49.2338 45.306 49.2287C45.3545 49.2277 45.4027 49.2124 45.4453 49.1845L48.1483 47.4467C48.124 47.5361 48.1887 47.559 48.3421 47.5153C48.966 47.3384 49.601 47.2195 50.2471 47.1586C50.344 47.1494 50.4288 47.1799 50.5015 47.25Z" fill="#6D4DF4"/>
<path d="M42.9361 57.2789C42.8796 59.2291 42.8649 60.9314 42.8922 62.3856C42.8993 62.7759 42.8846 63.0935 42.8483 63.3384C40.6112 64.8414 38.1399 65.6016 35.4343 65.6189L35.4934 65.5869C35.5099 65.5777 35.5237 65.5631 35.5333 65.5445C35.5429 65.526 35.5479 65.5043 35.5479 65.4817L35.554 60.0609C35.563 60.1981 35.5989 60.2342 35.6615 60.1692C35.7049 60.1245 35.7437 60.0955 35.7781 60.0823C38.2716 59.1341 40.3497 58.2982 42.0124 57.5747C42.3819 57.4131 42.6898 57.3145 42.9361 57.2789Z" fill="#7E46F4"/>
<path d="M42.8483 63.3384C42.6958 65.1351 42.026 66.6565 40.8388 67.9024C40.7803 67.9634 40.7959 67.9939 40.8858 67.9939L35.66 71.6753C35.6377 71.6909 35.6115 71.6994 35.5849 71.6997C35.5583 71.7 35.5327 71.692 35.5116 71.6768L30.1722 67.8673C30.1147 67.7505 29.9854 67.565 29.7845 67.3109C28.8952 66.191 28.3954 64.8795 28.2854 63.3765C28.3742 63.3856 28.4565 63.4151 28.5322 63.4649C30.628 64.8267 32.9287 65.5447 35.4343 65.6189C38.1399 65.6016 40.6112 64.8414 42.8483 63.3384Z" fill="#743DD2"/>
</svg>
