<svg width="193" height="40" viewBox="0 0 193 40" fill="none" xmlns="http://www.w3.org/2000/svg">
<path d="M165.491 6.99616C167.306 6.99616 168.778 5.52124 168.778 3.70182C168.778 1.8824 167.306 0.407471 165.491 0.407471C163.675 0.407471 162.203 1.8824 162.203 3.70182C162.203 5.52124 163.675 6.99616 165.491 6.99616Z" fill="white"/>
<path d="M8.54711 29.1568C5.2605 27.4631 2.91878 25.0002 1.52193 21.7682C0.853349 20.2181 0.453396 18.5662 0.322068 16.8126C0.0645291 13.3311 0.892578 10.1624 2.80621 7.30645C3.78349 5.85027 4.95095 4.61713 6.30857 3.60703C8.51726 1.96456 11.0577 0.991212 13.9298 0.686987C16.5649 0.408399 19.0917 0.789532 21.5102 1.83039C24.2442 3.00969 26.4094 4.77693 28.0058 7.13211C28.937 8.50967 29.6346 10.059 30.0985 11.7801C31.0468 15.2958 30.7867 18.7038 29.3182 22.0041C28.6087 23.597 27.6681 25.013 26.4964 26.2521C23.5099 29.4106 19.6622 30.9266 14.9532 30.8001C12.6899 30.7386 10.5545 30.1908 8.54711 29.1568ZM9.24554 22.886C11.6094 24.9336 14.2394 25.6933 17.1354 25.1651C18.8478 24.8524 20.3291 24.1867 21.5793 23.168C22.9301 22.0673 23.8715 20.6599 24.4037 18.9456C25.1882 16.4144 25.0697 14.0165 24.048 11.7519C23.3249 10.1539 22.2589 8.84808 20.8501 7.83457C18.9706 6.47923 16.8583 5.94256 14.5131 6.22457C12.7445 6.4365 11.1728 7.04409 9.79814 8.04735C8.23585 9.18563 7.15623 10.6845 6.55929 12.5441C6.02033 14.219 5.90179 15.9068 6.20368 17.6074C6.57378 19.6925 7.58774 21.4521 9.24554 22.886Z" fill="white"/>
<path d="M62.4895 28.2057L62.5228 30.1489C62.5231 30.1778 62.518 30.2064 62.5076 30.2331C62.4972 30.2599 62.4818 30.2842 62.4623 30.3047C62.4428 30.3252 62.4195 30.3415 62.3939 30.3526C62.3683 30.3637 62.3408 30.3694 62.313 30.3694L57.3115 30.354C57.2769 30.354 57.2437 30.3408 57.2192 30.3172C57.1947 30.2937 57.181 30.2617 57.181 30.2284L57.1682 1.33815C57.1682 1.30347 57.1822 1.27022 57.2072 1.2457C57.2321 1.22118 57.266 1.2074 57.3012 1.2074L62.3616 1.19202C62.3956 1.19202 62.4281 1.20579 62.4521 1.23031C62.4761 1.25483 62.4895 1.28809 62.4895 1.32277L62.4742 11.8493C62.4742 11.9672 62.5126 11.9817 62.5893 11.8929C64.1243 10.0829 66.0908 9.11554 68.4888 8.99077C71.7703 8.81986 74.4719 9.92652 76.5936 12.3108C77.9359 13.8216 78.7989 15.6188 79.1827 17.7022C79.8018 21.0692 79.1835 24.0576 77.3279 26.6674C75.4569 29.3029 72.8934 30.7241 69.6375 30.9309C67.4885 31.0676 65.5792 30.5113 63.9094 29.2619C63.831 29.2021 63.6075 28.9919 63.2391 28.6312C63.0464 28.4432 62.8341 28.28 62.6021 28.1416C62.5254 28.0971 62.4878 28.1185 62.4895 28.2057ZM64.5055 24.4883C66.0814 25.7787 67.9038 26.1419 69.9727 25.5779C72.1387 24.9899 73.4512 23.5312 73.9099 21.2016C74.2476 19.4771 73.991 17.9449 73.1399 16.6049C72.2342 15.1812 70.8758 14.3583 69.0645 14.1361C67.4186 13.9327 66.0158 14.2643 64.856 15.1308C63.0447 16.4862 62.2823 18.3841 62.5689 20.8248C62.7479 22.3579 63.3935 23.579 64.5055 24.4883Z" fill="white"/>
<path d="M153.472 28.1672C153.468 28.0664 153.431 28.0518 153.362 28.1236C151.497 30.0447 149.329 30.995 146.856 30.9744C145.155 30.9608 143.523 30.5301 141.959 29.6823C139.982 28.6107 138.533 27.0076 137.61 24.8729C136.121 21.429 136.141 18.1235 137.669 14.9565C138.47 13.2918 139.518 11.9647 140.813 10.9751C142.675 9.54966 144.895 8.89677 147.472 9.0164C149.85 9.12579 151.809 10.0658 153.351 11.8365C153.442 11.9407 153.487 11.9236 153.487 11.7852L153.472 1.38429C153.472 1.34893 153.485 1.31502 153.508 1.29002C153.532 1.26502 153.564 1.25098 153.597 1.25098L158.637 1.20996C158.696 1.20996 158.752 1.23373 158.794 1.27604C158.836 1.31835 158.859 1.37573 158.859 1.43557V30.2233C158.859 30.262 158.844 30.2992 158.816 30.3266C158.788 30.354 158.75 30.3694 158.711 30.3694L153.661 30.3848C153.626 30.3848 153.593 30.3717 153.568 30.3482C153.543 30.3247 153.528 30.2927 153.528 30.2592L153.472 28.1672ZM144.098 24.5806C145.138 25.4044 146.328 25.8146 147.667 25.8112C149.11 25.806 150.332 25.4018 151.335 24.5985C152.292 23.8311 152.933 22.8074 153.259 21.5272C153.518 20.5154 153.522 19.4942 153.269 18.4636C153.014 17.4211 152.562 16.5409 151.916 15.823C151.026 14.8317 149.846 14.2575 148.375 14.1002C147.175 13.9703 146.069 14.1643 145.06 14.6822C143.468 15.5008 142.492 16.7109 142.13 18.3124C141.871 19.466 141.878 20.5812 142.151 21.658C142.441 22.8099 143.09 23.7841 144.098 24.5806Z" fill="white"/>
<path d="M107.419 24.7653C107.688 25.1498 108.056 25.3728 108.522 25.4344C109.499 25.5643 110.535 25.6044 111.63 25.5549C111.65 25.5538 111.67 25.5569 111.689 25.5639C111.708 25.5709 111.725 25.5817 111.74 25.5956C111.755 25.6095 111.766 25.6263 111.774 25.6448C111.782 25.6634 111.786 25.6834 111.786 25.7036V30.1695C111.786 30.2265 111.765 30.2816 111.727 30.3242C111.689 30.3668 111.636 30.3939 111.579 30.4002C110.428 30.5267 109.321 30.566 108.258 30.5182C106.938 30.4601 105.859 30.2473 105.022 29.8798C102.936 28.9654 101.854 27.1845 101.775 24.5371C101.683 21.3974 101.652 18.1689 101.683 14.8514C101.684 14.8273 101.679 14.8034 101.67 14.781C101.661 14.7586 101.648 14.7382 101.631 14.7211C101.614 14.7039 101.594 14.6903 101.572 14.681C101.549 14.6716 101.526 14.6669 101.502 14.6669H98.2294C98.1948 14.6669 98.1616 14.6531 98.1372 14.6286C98.1127 14.604 98.099 14.5708 98.099 14.5361L98.0811 9.67022C98.0811 9.65305 98.0844 9.63604 98.091 9.62017C98.0975 9.60431 98.1071 9.5899 98.1193 9.57776C98.1314 9.56562 98.1458 9.55599 98.1616 9.54942C98.1774 9.54285 98.1944 9.53946 98.2115 9.53946H101.537C101.575 9.53946 101.612 9.52434 101.639 9.49741C101.666 9.47049 101.681 9.43397 101.681 9.3959V5.93234C101.681 5.89495 101.693 5.85857 101.716 5.82889C101.74 5.79921 101.772 5.77789 101.809 5.76827L106.838 4.53514C106.864 4.52897 106.891 4.52882 106.917 4.5347C106.943 4.54058 106.967 4.55233 106.988 4.56909C107.009 4.58585 107.026 4.60718 107.038 4.63149C107.049 4.65579 107.056 4.68245 107.056 4.70947L107.097 9.36257C107.097 9.39793 107.11 9.43184 107.135 9.45684C107.159 9.48184 107.192 9.49588 107.227 9.49588L111.615 9.5369C111.66 9.5369 111.704 9.55473 111.736 9.58646C111.768 9.61819 111.786 9.66123 111.786 9.7061V14.4951C111.786 14.5406 111.768 14.5843 111.736 14.6165C111.704 14.6488 111.66 14.6669 111.615 14.6669H107.196C107.158 14.6669 107.122 14.682 107.095 14.7089C107.068 14.7358 107.053 14.7723 107.053 14.8104C107.053 17.6835 107.049 20.5411 107.04 23.3834C107.039 23.944 107.165 24.4046 107.419 24.7653Z" fill="white"/>
<path d="M83.2887 20.6659C81.6224 19.2046 80.8882 17.3971 81.086 15.2436C81.2088 13.902 81.6838 12.7372 82.511 11.7493C83.2393 10.8811 84.2268 10.1932 85.4736 9.68556C87.1638 8.99507 88.9631 8.79681 90.8717 9.09078C93.6295 9.51464 95.7188 10.9093 97.1396 13.2747C97.1482 13.2895 97.1539 13.3057 97.1564 13.3225C97.1589 13.3393 97.1581 13.3563 97.154 13.3726C97.15 13.3888 97.1428 13.4039 97.1328 13.4171C97.1229 13.4302 97.1104 13.4411 97.0961 13.4491L92.8364 15.7897C92.8058 15.8071 92.7693 15.8117 92.7343 15.8027C92.6992 15.7937 92.6681 15.7717 92.6471 15.741C91.4771 13.9994 90.0086 13.4098 88.2417 13.9721C87.4759 14.2148 86.9489 14.6036 86.6606 15.1385C86.2649 15.8752 86.4585 16.6315 87.2414 17.4074C87.4819 17.6433 87.8571 17.9142 88.367 18.2201C88.6706 18.4013 89.0834 18.6055 89.6053 18.8328C91.3074 19.5729 92.9601 20.4121 94.5633 21.3504C96.859 22.692 98.2516 24.549 98.7411 26.9213C99.0907 28.6116 98.9185 30.2814 98.2243 31.9307C96.9809 34.8824 94.5301 36.5625 90.8717 36.971C89.5157 37.1231 88.2042 37.0667 86.9369 36.8018C85.5998 36.5232 84.417 36.0104 83.3885 35.2635C81.2617 33.7202 80.0397 31.4718 79.7224 28.5185C79.7153 28.4518 79.7321 28.3849 79.7698 28.3302C79.8074 28.2755 79.8633 28.2367 79.9271 28.2211L84.6805 27.0854C84.7142 27.077 84.7494 27.0763 84.7834 27.0834C84.8175 27.0904 84.8496 27.105 84.8775 27.1261C84.9054 27.1471 84.9283 27.1742 84.9447 27.2053C84.961 27.2364 84.9704 27.2707 84.9721 27.3058C85.1904 30.9685 87.0666 32.5614 90.6005 32.0846C91.3339 31.9854 91.97 31.6744 92.509 31.1514C93.0275 30.6506 93.3635 30.0635 93.517 29.3901C93.6944 28.6107 93.575 27.8741 93.1588 27.1802C92.7154 26.4453 91.9862 25.7898 90.9714 25.2139C89.2164 24.2191 87.4401 23.262 85.6424 22.3425C84.9312 21.9768 84.1466 21.4179 83.2887 20.6659Z" fill="white"/>
<path d="M192.842 19.9531C192.842 22.8802 191.681 25.6874 189.616 27.7572C187.55 29.827 184.749 30.9898 181.828 30.9898C178.907 30.9898 176.106 29.827 174.04 27.7572C171.975 25.6874 170.814 22.8802 170.814 19.9531C170.814 17.026 171.975 14.2187 174.04 12.149C176.106 10.0792 178.907 8.91638 181.828 8.91638C184.749 8.91638 187.55 10.0792 189.616 12.149C191.681 14.2187 192.842 17.026 192.842 19.9531ZM182.032 25.7365C182.775 25.7131 183.506 25.5404 184.183 25.2283C184.86 24.9162 185.47 24.4707 185.979 23.9174C186.487 23.364 186.884 22.7136 187.146 22.0033C187.408 21.293 187.531 20.5367 187.507 19.7775C187.484 19.0184 187.314 18.2713 187.007 17.5788C186.701 16.8864 186.265 16.2623 185.722 15.742C185.18 15.2218 184.544 14.8156 183.848 14.5467C183.153 14.2778 182.413 14.1514 181.67 14.1748C180.927 14.1982 180.196 14.3709 179.519 14.683C178.842 14.9951 178.232 15.4406 177.723 15.9939C177.215 16.5473 176.818 17.1977 176.556 17.908C176.294 18.6183 176.171 19.3746 176.195 20.1338C176.219 20.8929 176.389 21.64 176.695 22.3324C177.001 23.0249 177.438 23.649 177.98 24.1693C178.522 24.6895 179.159 25.0957 179.854 25.3646C180.549 25.6335 181.29 25.7599 182.032 25.7365Z" fill="white"/>
<path d="M47.7254 28.3031C45.9618 30.2413 43.7361 31.1241 41.0481 30.9514C38.5427 30.7891 36.629 29.7568 35.3072 27.8545C34.272 26.3607 33.7535 24.5713 33.7518 22.4861C33.7467 18.1962 33.7535 13.9071 33.7722 9.61894C33.7722 9.5863 33.7857 9.555 33.8097 9.53192C33.8337 9.50884 33.8662 9.49588 33.9001 9.49588L38.9836 9.5369C39.0225 9.53757 39.0595 9.55326 39.0868 9.58059C39.1141 9.60792 39.1294 9.64471 39.1294 9.68303C39.1294 13.3525 39.1294 17.0092 39.1294 20.6531C39.1294 22.0238 39.253 23.0151 39.5003 23.627C40.186 25.3122 41.6383 26.065 43.8572 25.8856C45.5423 25.7488 46.7114 24.9524 47.3647 23.4962C47.6921 22.7647 47.8533 21.8939 47.8482 20.8838C47.8277 17.1289 47.826 13.3739 47.8431 9.61894C47.843 9.60256 47.8464 9.58634 47.853 9.57124C47.8596 9.55614 47.8692 9.54247 47.8814 9.53101C47.8935 9.51954 47.908 9.51053 47.9238 9.5045C47.9396 9.49847 47.9565 9.49553 47.9735 9.49588L53.0569 9.55484C53.0911 9.55552 53.1236 9.56905 53.1475 9.59253C53.1714 9.61602 53.1848 9.64759 53.1849 9.68046L53.2002 30.2567C53.2002 30.2737 53.1968 30.2906 53.1902 30.3063C53.1836 30.3221 53.174 30.3363 53.1618 30.3482C53.1497 30.3602 53.1353 30.3696 53.1195 30.3758C53.1037 30.3821 53.0867 30.3852 53.0697 30.3849L48.0324 30.3695C47.9785 30.3695 47.9269 30.3482 47.8886 30.3103C47.8502 30.2724 47.8284 30.2209 47.8277 30.1669L47.8149 28.3339C47.8149 28.2484 47.7851 28.2382 47.7254 28.3031Z" fill="white"/>
<path d="M168.128 9.53687H162.894C162.856 9.53687 162.825 9.56786 162.825 9.60609V30.3053C162.825 30.3436 162.856 30.3746 162.894 30.3746H168.128C168.166 30.3746 168.197 30.3436 168.197 30.3053V9.60609C168.197 9.56786 168.166 9.53687 168.128 9.53687Z" fill="white"/>
<path d="M128.315 28.2365C126.485 30.2908 124.216 31.1941 121.508 30.9463C118.277 30.6506 116.087 29.0432 114.935 26.124C114.494 25.0011 114.273 23.7244 114.273 22.2938C114.269 18.0911 114.277 13.8883 114.296 9.68556C114.296 9.65089 114.31 9.61763 114.334 9.59311C114.358 9.56859 114.392 9.55481 114.426 9.55481L119.51 9.55225C119.544 9.55225 119.576 9.56629 119.6 9.59129C119.624 9.6163 119.638 9.65021 119.638 9.68556C119.653 13.1722 119.659 16.6588 119.656 20.1454C119.654 21.9434 119.779 23.1467 120.032 23.7551C120.582 25.0882 121.714 25.8189 123.426 25.9471C125.681 26.1163 127.195 25.219 127.968 23.2552C128.259 22.5134 128.394 21.6366 128.372 20.6248C128.358 20.0454 128.351 19.7472 128.351 19.7301C128.351 16.4759 128.351 13.1448 128.351 9.73683C128.351 9.68856 128.37 9.64226 128.404 9.60812C128.437 9.57399 128.483 9.55481 128.53 9.55481L133.578 9.55225C133.613 9.55225 133.646 9.56575 133.67 9.58979C133.695 9.61383 133.708 9.64643 133.708 9.68043L133.724 30.2566C133.724 30.2913 133.71 30.3246 133.686 30.3491C133.661 30.3736 133.628 30.3874 133.593 30.3874H128.492C128.474 30.3874 128.456 30.384 128.44 30.3774C128.423 30.3707 128.408 30.3611 128.395 30.3489C128.383 30.3367 128.373 30.3223 128.366 30.3065C128.359 30.2906 128.356 30.2737 128.356 30.2566L128.39 28.2698C128.391 28.1912 128.367 28.1801 128.315 28.2365Z" fill="white"/>
<path d="M13.5947 37.8836C11.9659 37.7964 10.3319 37.9297 8.69289 38.2835C8.52404 38.3211 8.47459 38.2605 8.54451 38.1015L11.0184 32.446C11.0451 32.3832 11.0892 32.3293 11.1454 32.2908C11.2016 32.2522 11.2676 32.2304 11.3356 32.2281C13.5358 32.129 15.7155 32.334 17.8748 32.8434C18.9987 33.1083 20.1252 33.3621 21.2543 33.6048C22.6153 33.897 23.7555 34.0688 24.6748 34.1201C27.3355 34.2722 29.9578 33.962 32.5417 33.1895C32.5546 33.1855 32.5682 33.1846 32.5816 33.1868C32.5949 33.189 32.6075 33.1943 32.6184 33.2023C32.6294 33.2102 32.6383 33.2206 32.6445 33.2327C32.6507 33.2447 32.654 33.258 32.6542 33.2715L32.6568 38.8142C32.657 38.8507 32.6444 38.8863 32.6212 38.9152C32.598 38.944 32.5654 38.9645 32.5289 38.9732C27.9972 40.1217 23.4707 40.0926 18.9493 38.886C16.715 38.2895 14.9301 37.9554 13.5947 37.8836Z" fill="white"/>
</svg>
