<svg width="243" height="96" viewBox="0 0 243 96" fill="none" xmlns="http://www.w3.org/2000/svg">
<path d="M139.481 60.3606C139.397 60.2677 139.319 60.1691 139.247 60.0649C139.16 59.9368 139.116 59.9498 139.116 60.104L139.118 63.1318C139.118 63.159 139.107 63.1851 139.088 63.2043C139.069 63.2235 139.044 63.2343 139.017 63.2343H132.069C132.039 63.2343 132.009 63.2222 131.988 63.2006C131.966 63.179 131.954 63.1497 131.954 63.1192V24.7445C131.954 24.7308 131.957 24.7172 131.962 24.7045C131.967 24.6918 131.975 24.6803 131.985 24.6706C131.994 24.6609 132.006 24.6532 132.019 24.6479C132.031 24.6427 132.045 24.64 132.059 24.64C134.455 24.6435 136.836 24.6417 139.202 24.6347C139.366 24.634 139.528 24.6424 139.69 24.66C139.705 24.6617 139.718 24.6686 139.728 24.6794C139.739 24.6902 139.745 24.7043 139.746 24.7192C139.752 24.836 139.755 25.0254 139.755 25.2874C139.759 30.4975 139.759 35.6868 139.755 40.8554C139.755 40.9674 139.791 40.98 139.863 40.8934C140.751 39.8106 141.825 39.0333 143.085 38.5615C143.621 38.3602 144.298 38.1768 145.116 38.0113C146.658 37.6994 148.151 37.667 149.597 37.9142C151.658 38.2669 153.429 39.1139 154.91 40.4551C156.155 41.5824 157.142 42.9687 157.872 44.6141C158.486 45.9948 158.904 47.4951 159.128 49.1152C159.182 49.5088 159.209 49.9633 159.211 50.4786C159.212 50.7828 159.213 51.087 159.214 51.3911C159.215 51.7615 159.208 52.0656 159.191 52.3036C159.055 54.3017 158.516 56.1675 157.576 57.901C156.653 59.6027 155.352 60.9725 153.673 62.0103C152.319 62.8467 150.868 63.3881 149.32 63.6345C148.605 63.7486 147.906 63.812 147.223 63.8247C144.896 63.8662 142.762 63.1523 140.822 61.6829C140.361 61.3344 139.995 60.9883 139.723 60.6447C139.656 60.5595 139.575 60.4648 139.481 60.3606ZM140.754 54.4559C141.21 55.2375 141.825 55.8292 142.599 56.2313C143.589 56.7452 144.634 57.0082 145.735 57.0202C146.481 57.0279 147.178 56.9543 147.827 56.7994C148.671 56.5981 149.408 56.2239 150.039 55.6768C151.284 54.5953 151.953 53.1717 152.046 51.4059C152.081 50.7511 152.059 50.1375 151.981 49.5651C151.897 48.9512 151.724 48.3682 151.462 47.8162C150.545 45.8885 148.94 44.8193 146.649 44.6088C145.53 44.506 144.476 44.6243 143.488 44.9637C141.967 45.4861 140.892 46.5066 140.262 48.0253C140.055 48.5238 139.911 49.1138 139.828 49.7953C139.645 51.295 139.858 52.6922 140.466 53.987C140.515 54.0912 140.563 54.1764 140.608 54.2426C140.704 54.382 140.752 54.4531 140.754 54.4559Z" fill="white"/>
<path d="M213.197 31.2406C212.641 31.7778 211.991 32.1108 211.248 32.2397C209.762 32.4974 208.533 32.0809 207.562 30.9903C207.052 30.4165 206.747 29.7638 206.646 29.0323C206.55 28.3388 206.638 27.6544 206.91 26.9792C207.322 25.9541 208.091 25.2426 209.215 24.8448C209.975 24.5759 210.729 24.5421 211.475 24.7435C212.156 24.9272 212.756 25.2754 213.276 25.7879C213.892 26.3956 214.257 27.1338 214.371 28.0026C214.451 28.6165 214.391 29.1956 214.192 29.7399C213.985 30.3003 213.654 30.8006 213.197 31.2406ZM208.425 30.2584C208.966 30.9315 209.621 31.2857 210.39 31.3209C211 31.349 211.557 31.1917 212.063 30.8488C212.574 30.5031 212.942 30.0113 213.168 29.3734C213.362 28.8257 213.397 28.3018 213.27 27.8019C213.128 27.2401 212.85 26.7677 212.436 26.3846C212.083 26.0587 211.683 25.8397 211.237 25.7277C210.778 25.613 210.306 25.6204 209.823 25.7499C209.081 25.9478 208.526 26.3815 208.156 27.051C207.53 28.1874 207.619 29.2565 208.425 30.2584Z" fill="white"/>
<path d="M47.8531 26.1323C49.7105 26.2886 51.4348 26.6621 53.026 27.2528C53.7036 27.5049 54.3402 27.7995 54.9356 28.1368C55.746 28.5951 56.5103 29.1281 57.2287 29.7357C57.2494 29.753 57.2631 29.7773 57.2672 29.8042C57.2713 29.831 57.2655 29.8585 57.2508 29.8815C57.1574 30.0293 57.0454 30.1702 56.9148 30.3039C56.7681 30.4553 56.6936 30.532 56.6915 30.5342C55.1158 32.2465 53.5446 33.9626 51.9779 35.6827C51.9723 35.6883 51.9456 35.721 51.8979 35.7809C51.7729 35.9393 51.6317 35.9221 51.4744 35.7291C51.2202 35.4186 50.8274 35.0997 50.2958 34.7723C49.7017 34.4062 48.9841 34.1084 48.1428 33.8788C46.7658 33.5029 45.3944 33.4663 44.0286 33.769C43.4162 33.9049 42.8376 34.1295 42.2927 34.4428C41.6628 34.804 41.2046 35.206 40.9181 35.6489C40.5073 36.2818 40.3809 37.0218 40.5389 37.8688C40.6801 38.6285 41.0642 39.2312 41.6912 39.6769C42.5508 40.2866 43.6128 40.7889 44.8775 41.1839C46.2391 41.6085 47.606 42.0154 48.9781 42.4048C49.4928 42.5505 49.997 42.723 50.4906 42.9223C51.0306 43.1398 51.5176 43.3556 51.9516 43.5697C53.0506 44.1118 54.0435 44.8141 54.9304 45.6766C55.075 45.8174 55.2941 46.0737 55.5876 46.4454C55.8397 46.7644 56.0339 47.0397 56.1701 47.2713C56.6497 48.0873 56.9629 49.0012 57.1097 50.013C57.1785 50.4889 57.2227 50.8892 57.2424 51.2138C57.2431 51.2292 57.26 51.4401 57.293 51.8464C57.3133 52.097 57.3084 52.3473 57.2782 52.5973C57.2586 52.7613 57.2417 52.9672 57.2277 53.2151C57.2185 53.3777 57.1989 53.5844 57.1687 53.835C56.7698 57.1181 55.2425 59.6703 52.5867 61.4918C50.9773 62.5958 49.1463 63.3357 47.0937 63.7117C44.2385 64.2348 41.3914 64.1799 38.5524 63.547C35.6873 62.9091 33.1439 61.5734 30.9221 59.5401C30.9118 59.5307 30.9035 59.5194 30.8976 59.5067C30.8917 59.4941 30.8884 59.4804 30.8878 59.4664C30.8872 59.4525 30.8894 59.4386 30.8942 59.4255C30.899 59.4124 30.9064 59.4004 30.9158 59.3901L36.6122 53.2309C36.6167 53.226 36.6223 53.2221 36.6285 53.2196C36.6348 53.217 36.6415 53.2158 36.6482 53.2161C36.6549 53.2164 36.6615 53.2182 36.6674 53.2213C36.6734 53.2244 36.6786 53.2288 36.6827 53.2341C38.0942 55.0393 39.9199 56.1271 42.16 56.4975C42.596 56.57 43.1683 56.6175 43.8769 56.64C44.0243 56.645 44.1528 56.6397 44.2624 56.6242C44.4934 56.5911 44.6198 56.5735 44.6416 56.5714C44.9779 56.5488 45.3508 56.4883 45.7602 56.3897C46.4568 56.2215 47.0842 55.9497 47.6425 55.5744C48.1958 55.202 48.5968 54.7859 48.8454 54.3261C49.1319 53.7966 49.2442 53.2021 49.1824 52.5423C49.1094 51.7622 48.7804 51.1173 48.1955 50.6076C47.725 50.1971 47.0909 49.7944 46.2932 49.3994C45.5931 49.053 44.6781 48.703 43.5482 48.3496C42.7849 48.1109 42.0234 47.867 41.2636 47.6177C39.9891 47.2002 39.322 46.9809 39.2623 46.9598C37.7055 46.3951 36.312 45.622 35.0817 44.6406C34.5017 44.1773 33.9431 43.5591 33.4059 42.786C32.7851 41.8926 32.4003 40.9044 32.2514 39.8215C32.0583 38.4247 32.0429 37.1728 32.2051 36.066C32.3462 35.1036 32.5741 34.2238 32.8887 33.4268C33.1316 32.8122 33.4673 32.1961 33.8957 31.5786C35.1814 29.7255 36.865 28.361 38.9463 27.4852C41.7221 26.3171 44.6911 25.8662 47.8531 26.1323Z" fill="white"/>
<path d="M211.767 28.7038C211.678 28.7608 211.632 28.7812 211.48 28.822C211.304 28.875 211.285 28.9016 211.374 29.0396L212.217 30.3397C212.278 30.434 212.252 30.4812 212.139 30.4812H211.199C211.183 30.4812 211.167 30.4769 211.153 30.4688C211.139 30.4606 211.127 30.4489 211.118 30.4347L210.212 28.9868C210.141 28.8741 210.106 28.8875 210.107 29.0269L210.111 30.3407C210.111 30.3591 210.108 30.3774 210.102 30.3944C210.095 30.4114 210.085 30.4269 210.073 30.44C210.061 30.4531 210.046 30.4634 210.03 30.4705C210.014 30.4776 209.997 30.4812 209.98 30.4812L209.058 30.4833C209.031 30.4833 209.006 30.4725 208.987 30.4534C208.968 30.4342 208.957 30.4082 208.957 30.3809C208.949 29.9126 208.949 29.4652 208.958 29.0385C208.958 29.0315 208.96 26.4458 208.96 26.4458L210.798 26.4458C211.178 26.4535 211.52 26.568 211.825 26.789C212.071 26.9672 212.199 27.2122 212.211 27.5241C212.218 27.7438 212.212 27.9226 212.191 28.0606C212.162 28.2542 212.095 28.4024 211.959 28.5468C211.953 28.5518 211.865 28.6406 211.767 28.7038ZM210.11 27.3308L210.121 27.993C210.121 28.0119 210.129 28.0301 210.142 28.0441C210.156 28.0581 210.174 28.067 210.194 28.069C210.456 28.0972 210.667 28.0771 210.826 28.0088C210.999 27.9349 211.079 27.8223 211.065 27.6709C211.055 27.5568 210.99 27.4607 210.872 27.3826C210.66 27.2425 210.427 27.2006 210.172 27.2569C210.154 27.2608 210.139 27.2703 210.127 27.2838C210.116 27.2973 210.11 27.3139 210.11 27.3308Z" fill="white"/>
<path d="M62.607 60.0787C60.9982 58.4009 59.933 56.4249 59.4112 54.1508C59.1149 52.8574 58.9966 51.5464 59.0563 50.2178C59.1363 48.4147 59.5573 46.713 60.3192 45.1126C60.6162 44.4881 60.9761 43.8854 61.3988 43.3045C63.4556 40.4791 66.2764 38.7351 69.8612 38.0726C71.3667 37.7945 72.8154 37.7026 74.2072 37.797C76.4837 37.9526 78.5704 38.5482 80.467 39.5839C81.2528 40.0134 82.0154 40.5548 82.7548 41.2082C83.2955 41.6862 83.7825 42.1925 84.2158 42.7269C85.7642 44.637 86.6732 46.8288 86.9428 49.3022C86.9849 49.6838 87.0057 50.1713 87.005 50.7649C87.005 51.0902 87.0039 51.4158 87.0018 51.7418C86.999 52.1107 86.9814 52.436 86.9491 52.7176C86.8122 53.9005 86.5475 54.9703 86.1549 55.9271C84.9001 58.9856 82.7956 61.2277 79.8414 62.6535C78.7136 63.1977 77.5107 63.5916 76.2327 63.8352C73.0643 64.4386 69.9925 64.1679 67.0172 63.0231C65.3411 62.3782 63.871 61.3967 62.607 60.0787ZM69.2229 45.7494C68.8037 46.0627 68.4396 46.413 68.1306 46.8003C67.842 47.1622 67.5962 47.5976 67.3933 48.1067C66.7206 49.7936 66.6588 51.5249 67.2079 53.3006C67.6749 54.8087 68.5758 55.906 69.9107 56.5925C70.384 56.8354 70.9103 57.0103 71.4896 57.1174C72.0156 57.2152 72.5721 57.2673 73.1591 57.2737C73.3185 57.2758 73.4562 57.2691 73.572 57.2536C73.8178 57.2198 73.9435 57.2025 73.9491 57.2018C75.1239 57.1089 76.1484 56.703 77.0227 55.9841C77.4805 55.6075 77.8678 55.1657 78.1845 54.6587C78.5005 54.1532 78.7375 53.6058 78.8955 53.0165C79.2255 51.7844 79.2596 50.5434 78.9976 49.2937C78.7673 48.1911 78.286 47.2428 77.5536 46.4486C77.1498 46.0106 76.699 45.6551 76.2011 45.3819C75.6913 45.1024 75.1429 44.9067 74.5558 44.7947C73.2083 44.537 71.8836 44.6166 70.5817 45.0334C70.114 45.1827 69.6611 45.4213 69.2229 45.7494Z" fill="white"/>
<path d="M103.271 45.1021C102.843 44.7761 102.336 44.598 101.75 44.5677C101.29 44.5445 100.835 44.567 100.384 44.6353C99.9059 44.7085 99.4765 44.849 99.0959 45.0567C98.2441 45.5214 97.6346 46.2018 97.2674 47.0981C97.1185 47.4621 96.9973 47.9486 96.904 48.5577C96.8204 49.1047 96.7769 49.6053 96.7733 50.0594C96.7719 50.201 96.7656 50.3192 96.7544 50.4143C96.7319 50.6044 96.7203 50.7209 96.7196 50.7639C96.7028 54.8665 96.701 58.9839 96.7144 63.1161C96.7144 63.1474 96.7019 63.1775 96.6798 63.1997C96.6577 63.2219 96.6277 63.2344 96.5964 63.2344H89.0483C89.0106 63.2344 88.9744 63.2193 88.9478 63.1926C88.9211 63.1659 88.9061 63.1296 88.9061 63.0918V38.5046C88.9061 38.4617 88.923 38.4206 88.953 38.3903C88.983 38.36 89.0238 38.343 89.0662 38.343H96.2267C96.2492 38.343 96.2715 38.3475 96.2924 38.3563C96.3132 38.365 96.3321 38.3779 96.3481 38.394C96.364 38.4102 96.3767 38.4294 96.3853 38.4506C96.3939 38.4717 96.3984 38.4944 96.3984 38.5173V41.6349C96.3977 41.7356 96.4226 41.7423 96.4732 41.655C97.0848 40.5974 97.9064 39.7571 98.9379 39.134C100.759 38.0329 102.776 37.5999 104.989 37.835C106.367 37.9815 107.613 38.3701 108.727 39.001C109.346 39.3516 109.88 39.7754 110.328 40.2725C110.805 40.7999 111.188 41.3765 111.479 42.0024C111.531 42.1158 111.589 42.1182 111.651 42.0098C112.085 41.2614 112.585 40.6031 113.149 40.0349C113.658 39.5223 114.223 39.1097 114.844 38.7971C115.506 38.4648 116.232 38.2145 117.023 38.0462C118.176 37.8012 119.394 37.7375 120.677 37.8551C121.682 37.9466 122.601 38.1628 123.434 38.5035C124.671 39.0105 125.666 39.7842 126.418 40.8249C127.095 41.7634 127.584 42.8325 127.883 44.0322C128.097 44.8884 128.245 45.7541 128.33 46.6292C128.376 47.1129 128.399 47.8163 128.399 48.7393C128.399 53.5284 128.399 58.3252 128.399 63.1298C128.399 63.1435 128.396 63.1571 128.391 63.1698C128.386 63.1825 128.378 63.194 128.369 63.2037C128.359 63.2134 128.347 63.2211 128.335 63.2264C128.322 63.2317 128.309 63.2344 128.295 63.2344H120.719C120.689 63.2344 120.66 63.2222 120.638 63.2006C120.617 63.1791 120.605 63.1498 120.605 63.1192C120.605 58.2935 120.605 53.4562 120.605 48.6073C120.605 47.8103 120.435 47.0464 120.095 46.3155C119.829 45.7453 119.499 45.3263 119.103 45.0588C118.65 44.7525 118.115 44.5888 117.497 44.5677C116.799 44.5438 116.166 44.6156 115.598 44.7831C114.52 45.1021 113.724 45.7622 113.212 46.7633C112.958 47.2618 112.789 47.8149 112.705 48.4225C112.625 49.0026 112.584 49.5131 112.582 49.9538C112.561 54.3212 112.556 58.6889 112.567 63.0569C112.567 63.083 112.557 63.108 112.538 63.1264C112.52 63.1448 112.496 63.1552 112.47 63.1552L104.9 63.1499C104.866 63.1499 104.833 63.1361 104.809 63.1115C104.785 63.087 104.771 63.0536 104.771 63.0189C104.779 58.4396 104.781 53.9825 104.779 49.6476C104.779 49.4617 104.763 49.2448 104.733 48.997C104.707 48.7801 104.689 48.5626 104.677 48.3443C104.642 47.6156 104.506 46.9749 104.272 46.4222C104.038 45.8723 103.705 45.4323 103.271 45.1021Z" fill="white"/>
<path d="M168.982 42.1312C168.982 42.2988 169.022 42.3083 169.103 42.1597C169.443 41.5253 169.844 40.9329 170.305 40.3823C171.6 38.8368 173.258 37.98 175.278 37.8117C176.449 37.7138 177.612 37.7765 178.769 37.9997C178.785 38.0029 178.8 38.0116 178.81 38.0243C178.821 38.037 178.827 38.053 178.827 38.0694L178.852 44.9626C178.852 44.9744 178.849 44.986 178.844 44.9966C178.839 45.0072 178.832 45.0164 178.822 45.0237C178.813 45.0309 178.802 45.0359 178.79 45.0383C178.779 45.0407 178.767 45.0405 178.755 45.0376C177.823 44.8045 176.907 44.6479 176.009 44.5676C175.215 44.4965 174.388 44.5447 173.53 44.7123C172.748 44.8644 172.092 45.1024 171.562 45.4262C170.386 46.1451 169.639 47.2318 169.323 48.6864C169.221 49.1553 169.146 49.6274 169.099 50.1027C169.068 50.4251 169.036 50.9021 169.004 51.5337C168.969 52.2047 168.954 52.9739 168.958 53.8413C168.973 56.9547 168.971 60.0547 168.952 63.1414C168.952 63.166 168.942 63.1896 168.925 63.2071C168.907 63.2245 168.884 63.2343 168.859 63.2343L161.276 63.228C161.262 63.228 161.247 63.225 161.233 63.2194C161.22 63.2137 161.207 63.2053 161.197 63.1949C161.186 63.1844 161.178 63.1719 161.172 63.1582C161.167 63.1445 161.164 63.1298 161.164 63.1149V38.4475C161.164 38.4251 161.172 38.4036 161.188 38.3877C161.204 38.3719 161.225 38.363 161.247 38.363L168.781 38.3377C168.912 38.337 168.978 38.4042 168.978 38.5394L168.982 42.1312Z" fill="white"/>
<path d="M183.06 60.6004C182.31 59.8717 181.652 59.0268 181.085 58.0658C180.347 56.8153 179.838 55.3973 179.558 53.8118C179.497 53.4668 179.448 53.0405 179.413 52.5328C179.384 52.1047 179.355 51.6763 179.327 51.2475C179.312 51.0152 179.31 50.8434 179.321 50.7322C179.331 50.6202 179.336 50.5628 179.336 50.56C179.4 48.7407 179.772 46.9612 180.453 45.2214C180.928 44.0062 181.553 42.9015 182.327 41.9073C182.768 41.3399 183.249 40.8291 183.77 40.3749C185.685 38.7049 187.963 37.8396 190.605 37.779C191.787 37.7523 193.049 37.9029 194.389 38.231C195.472 38.4965 196.387 38.8904 197.134 39.4128C197.758 39.8486 198.302 40.3682 198.768 40.9716C198.812 41.0273 198.833 41.0195 198.832 40.9484L198.821 38.3937C198.821 38.3793 198.824 38.365 198.829 38.3516C198.835 38.3383 198.843 38.3262 198.853 38.316C198.864 38.3058 198.876 38.2977 198.89 38.2922C198.903 38.2867 198.918 38.2838 198.932 38.2838H206.496C206.528 38.2838 206.558 38.2963 206.58 38.3185C206.602 38.3407 206.614 38.3708 206.614 38.4021V63.1393C206.614 63.1645 206.604 63.1887 206.586 63.2065C206.569 63.2243 206.545 63.2343 206.519 63.2343H199.535C199.497 63.2343 199.461 63.2193 199.434 63.1926C199.408 63.1658 199.393 63.1296 199.393 63.0918V60.1442C199.393 59.9752 199.347 59.9615 199.256 60.103C198.927 60.6113 198.522 61.0644 198.039 61.4622C197.651 61.7818 197.155 62.1216 196.551 62.4813C195.2 63.2861 193.751 63.7307 192.204 63.8152C190.734 63.8955 189.263 63.7279 187.789 63.3125C187.076 63.1104 186.421 62.8601 185.824 62.5616C184.797 62.0469 183.875 61.3932 183.06 60.6004ZM187.642 54.6598C188.382 55.7011 189.332 56.3901 190.491 56.7266C191.092 56.9012 191.765 56.9977 192.509 57.016C193.201 57.0329 193.882 56.9554 194.554 56.7836C195.276 56.5999 195.91 56.3098 196.457 55.9134C197.626 55.0664 198.359 53.872 198.655 52.33C198.878 51.1719 198.859 50.0467 198.598 48.9547C198.428 48.2373 198.15 47.5962 197.764 47.0316C197 45.9107 195.957 45.1774 194.635 44.8317C193.991 44.6641 193.295 44.5782 192.548 44.574C191.6 44.5684 190.715 44.7356 189.893 45.0757C188.92 45.4784 188.14 46.1205 187.554 47.002C187.184 47.5582 186.905 48.2003 186.715 48.9283C186.459 49.907 186.404 50.9099 186.55 51.9372C186.689 52.925 187.053 53.8325 187.642 54.6598Z" fill="white"/>
</svg>
