<svg width="168" height="38" viewBox="0 0 168 38" fill="none" xmlns="http://www.w3.org/2000/svg">
<path d="M95.9011 27.2479L95.8828 36.9766C95.8828 36.9966 95.8789 37.0164 95.8712 37.0349C95.8636 37.0533 95.8523 37.0701 95.8382 37.0843C95.8241 37.0984 95.8073 37.1096 95.7888 37.1173C95.7703 37.125 95.7505 37.1289 95.7305 37.1289L87.0499 37.0558C87.0087 37.0558 86.9692 37.0394 86.94 37.0103C86.9109 36.9811 86.8945 36.9416 86.8945 36.9004V0.28609C86.8945 0.239221 86.9131 0.19428 86.9463 0.161139C86.9627 0.144729 86.9822 0.131711 87.0036 0.12283C87.0251 0.113949 87.048 0.109375 87.0713 0.109375H95.636C95.7015 0.109375 95.7642 0.135377 95.8105 0.18166C95.8568 0.227944 95.8828 0.290717 95.8828 0.356171V19.1706C95.8828 19.1982 95.8883 19.2256 95.8988 19.2511C95.9094 19.2766 95.9249 19.2998 95.9444 19.3193C95.9639 19.3388 95.9871 19.3543 96.0126 19.3648C96.0381 19.3754 96.0654 19.3809 96.093 19.3809H98.5976C98.646 19.3809 98.6936 19.3685 98.7358 19.3451C98.7779 19.3216 98.8132 19.2877 98.8383 19.2468L104.734 9.78015C104.759 9.73998 104.794 9.70688 104.834 9.68396C104.875 9.66104 104.92 9.64906 104.966 9.64914L114.167 9.63086C114.279 9.63086 114.305 9.67859 114.246 9.77406L106.526 22.4156C106.497 22.4603 106.482 22.5122 106.481 22.5655C106.481 22.6187 106.495 22.6713 106.522 22.7172L115.048 36.9522C115.096 37.0334 115.075 37.0741 114.984 37.0741L105.535 37.0771C105.49 37.0771 105.445 37.0648 105.404 37.0413C105.364 37.0179 105.329 36.984 105.304 36.9431L99.3715 27.2235C99.3462 27.1825 99.3117 27.1487 99.2711 27.1252C99.2306 27.1018 99.1854 27.0894 99.1399 27.0894H96.0534C96.0334 27.0894 96.0136 27.0936 95.9951 27.1015C95.9767 27.1095 95.9599 27.1212 95.9457 27.1359C95.9316 27.1506 95.9204 27.168 95.9127 27.1873C95.905 27.2065 95.9011 27.2271 95.9011 27.2479Z" fill="white"/>
<path d="M3.62043 9.45719L3.63871 4.09773C3.63871 4.02985 3.66503 3.96476 3.71189 3.91676C3.75874 3.86876 3.82229 3.8418 3.88855 3.8418L12.4564 3.86008C12.4968 3.86008 12.5355 3.87581 12.5641 3.90381C12.5927 3.93181 12.6087 3.96978 12.6087 4.00937L12.627 9.35664C12.627 9.42965 12.6564 9.49972 12.7089 9.55163C12.7614 9.60354 12.8327 9.63311 12.9073 9.63391L19.5769 9.68266C19.6192 9.68346 19.6595 9.7005 19.6891 9.73013C19.7187 9.75975 19.7353 9.7996 19.7353 9.84109V16.5077C19.7353 16.5483 19.7191 16.5874 19.69 16.6165C19.6609 16.6455 19.6214 16.6622 19.58 16.663L12.8007 16.7118C12.7543 16.7126 12.7102 16.7312 12.6777 16.7637C12.6452 16.7962 12.627 16.8399 12.627 16.8855V29.7341C12.627 29.7915 12.6495 29.8465 12.6895 29.8871C12.7295 29.9277 12.7837 29.9505 12.8403 29.9505L20.1071 29.9688C20.1491 29.9688 20.1894 29.9854 20.2191 30.0151C20.2488 30.0449 20.2655 30.0852 20.2655 30.1272L20.2442 36.8852C20.2442 36.9278 20.2277 36.9687 20.1982 36.9994C20.1686 37.0301 20.1283 37.0481 20.0857 37.0497C18.3876 37.1147 16.7139 37.136 15.0645 37.1137C11.325 37.0649 7.58542 37.0507 3.84589 37.071C3.80549 37.071 3.76674 37.0553 3.73817 37.0273C3.7096 36.9993 3.69355 36.9613 3.69355 36.9217L3.63871 16.8855C3.63871 16.8402 3.62105 16.7968 3.58963 16.7648C3.5582 16.7328 3.51557 16.7148 3.47113 16.7148L0.421209 16.7301C0.400797 16.7305 0.380506 16.727 0.361495 16.7197C0.342483 16.7124 0.325124 16.7015 0.31041 16.6876C0.295696 16.6738 0.283915 16.6572 0.275741 16.6389C0.267567 16.6205 0.263159 16.6008 0.26277 16.5808L0.214019 9.78625C0.213612 9.766 0.217411 9.74587 0.225191 9.72704C0.232971 9.70821 0.244577 9.69106 0.25933 9.67659C0.274083 9.66212 0.291687 9.65062 0.311112 9.64277C0.330537 9.63492 0.351391 9.63087 0.372458 9.63086L3.46808 9.61563C3.50878 9.61483 3.54753 9.59779 3.57602 9.56816C3.60451 9.53853 3.62045 9.49868 3.62043 9.45719Z" fill="white"/>
<path d="M160.263 9.6126L167.082 9.64916C167.123 9.64916 167.163 9.6649 167.192 9.69289C167.221 9.72089 167.238 9.75886 167.238 9.79846L167.256 16.5168C167.256 16.5702 167.234 16.6213 167.195 16.659C167.156 16.6967 167.104 16.7179 167.049 16.7179L160.303 16.7667C160.262 16.7675 160.223 16.7845 160.195 16.8141C160.166 16.8438 160.151 16.8836 160.151 16.9251L160.099 29.6824C160.098 29.7198 160.105 29.757 160.12 29.7917C160.134 29.8265 160.155 29.8581 160.182 29.8847C160.208 29.9113 160.24 29.9325 160.275 29.9469C160.31 29.9613 160.347 29.9688 160.385 29.9688H167.53C167.599 29.9688 167.665 29.9961 167.713 30.0446C167.762 30.0932 167.789 30.1591 167.789 30.2278L167.771 36.9583C167.771 36.9979 167.755 37.0359 167.727 37.0639C167.699 37.0919 167.661 37.1076 167.621 37.1076L151.33 37.0741C151.276 37.0733 151.225 37.0514 151.187 37.0132C151.15 36.975 151.129 36.9236 151.129 36.87L151.053 16.9251C151.053 16.8847 151.037 16.846 151.008 16.8174C150.979 16.7888 150.941 16.7728 150.9 16.7728L147.99 16.7941C147.908 16.7941 147.829 16.7617 147.771 16.704C147.712 16.6462 147.68 16.568 147.68 16.4864V9.88073C147.68 9.84792 147.686 9.81543 147.699 9.78512C147.711 9.7548 147.73 9.72726 147.753 9.70406C147.776 9.68086 147.804 9.66245 147.834 9.6499C147.864 9.63734 147.897 9.63088 147.93 9.63088H150.949C150.994 9.63088 151.038 9.61355 151.07 9.58269C151.102 9.55184 151.12 9.50999 151.12 9.46635L151.168 4.05206C151.169 4.01031 151.185 3.97049 151.213 3.94095C151.241 3.91141 151.278 3.89445 151.318 3.89362L159.895 3.84487C159.921 3.84447 159.947 3.84945 159.971 3.85953C159.996 3.8696 160.018 3.88458 160.037 3.90357C160.055 3.92257 160.07 3.94521 160.08 3.97018C160.09 3.99514 160.096 4.02194 160.096 4.04901L160.114 9.46331C160.114 9.50291 160.13 9.54087 160.158 9.56887C160.186 9.59687 160.224 9.6126 160.263 9.6126Z" fill="white"/>
<path d="M26.3196 22.8269C25.7956 22.3861 25.3711 21.8519 25.0461 21.2243C24.7881 20.7225 24.5484 20.0969 24.327 19.3474C23.6262 16.9688 24.0619 14.7903 25.6341 12.8118C26.7188 11.4448 28.1539 10.4576 29.9393 9.85028C32.8603 8.85497 35.8503 8.59497 38.9093 9.07028C41.3793 9.45215 43.6188 10.4708 45.6277 12.1263C47.5188 13.6843 48.7152 15.615 49.2169 17.9184C49.2205 17.936 49.22 17.9542 49.2156 17.9717C49.2111 17.9891 49.2028 18.0054 49.1911 18.0194C49.1795 18.0334 49.1648 18.0447 49.1482 18.0525C49.1316 18.0603 49.1134 18.0645 49.095 18.0646L40.9751 18.086C40.8904 18.0869 40.8074 18.0653 40.7349 18.0234C40.6624 17.9816 40.6033 17.921 40.5638 17.8483C39.9483 16.7311 39.1368 16.01 38.1293 15.685C37.5484 15.5002 36.8436 15.4088 36.0148 15.4108C35.1779 15.4129 34.4721 15.5997 33.8972 15.9714C33.365 16.3168 33.1528 16.7951 33.2604 17.4065C33.3295 17.8046 33.5407 18.1368 33.8942 18.4029C34.2253 18.6486 34.599 18.8284 35.0154 18.9422C36.2829 19.2854 37.5565 19.5993 38.8362 19.8836C40.8106 20.3204 42.7301 20.9257 44.5948 21.6996C46.1995 22.3638 47.4457 23.3622 48.3333 24.6947C49.2128 26.0129 49.6343 27.4693 49.5978 29.0639C49.5693 30.244 49.2799 31.3602 48.7294 32.4124C48.2317 33.365 47.5107 34.2283 46.5661 35.0022C45.0447 36.2454 43.2532 37.0558 41.1914 37.4336C39.1988 37.7993 37.2935 37.9465 35.4755 37.8754C32.6196 37.7637 29.9993 36.937 27.6146 35.3953C25.0938 33.7682 23.4668 31.4059 22.7335 28.3082C22.7293 28.2904 22.7293 28.2718 22.7334 28.2539C22.7374 28.236 22.7454 28.2193 22.7569 28.2049C22.7683 28.1906 22.7828 28.179 22.7993 28.171C22.8158 28.1631 22.834 28.1589 22.8523 28.1589L31.4567 28.1407C31.5044 28.1407 31.5511 28.1538 31.592 28.1785C31.6328 28.2032 31.666 28.2386 31.6882 28.2808C32.4439 29.7047 33.5336 30.5619 34.9575 30.8524C35.4857 30.9601 36.0889 31.0189 36.7674 31.0291C37.3828 31.0393 37.9892 30.9702 38.5864 30.8219C39.2648 30.6513 39.7655 30.374 40.0885 29.9901C40.5211 29.4762 40.5008 28.9491 40.0275 28.4088C39.7777 28.1244 39.3806 27.8736 38.8362 27.6562C37.5057 27.1261 36.1326 26.7289 34.7168 26.4649C34.0384 26.3389 32.8288 25.9936 31.088 25.4289C29.2721 24.8419 27.6826 23.9746 26.3196 22.8269Z" fill="white"/>
<path d="M135.187 12.6839C135.746 13.3481 136.025 13.2455 136.025 12.3761V9.78935C136.025 9.74733 136.042 9.70703 136.072 9.67732C136.101 9.64761 136.142 9.63091 136.184 9.63091H144.252C144.292 9.63091 144.331 9.64696 144.36 9.67553C144.388 9.7041 144.404 9.74285 144.404 9.78326V36.9462C144.404 36.9898 144.387 37.0316 144.355 37.0625C144.324 37.0934 144.281 37.1107 144.237 37.1107L136.19 37.0741C136.146 37.0741 136.104 37.0571 136.074 37.0268C136.043 36.9965 136.025 36.9555 136.025 36.9126V34.0059C136.025 33.9499 136.017 33.8967 136.001 33.8496C135.985 33.8025 135.961 33.7624 135.931 33.7317C135.772 33.5672 135.6 33.6058 135.413 33.8475C133.607 36.2098 131.247 37.5322 128.332 37.8145C126.772 37.9648 125.256 37.8003 123.783 37.3209C122.406 36.87 121.118 36.1235 119.92 35.0815C117.807 33.2472 116.402 30.9276 115.706 28.1224C115.157 25.9104 114.999 23.5785 115.23 21.1268C115.618 17.044 117.266 13.8265 120.172 11.4743C121.812 10.1458 123.634 9.312 125.639 8.97279C129.388 8.33904 132.571 9.57606 135.187 12.6839ZM128.323 29.3716C129.387 29.7352 130.454 29.7383 131.522 29.3808C132.495 29.0558 133.315 28.4931 133.981 27.6928C134.643 26.9006 135.08 25.9652 135.291 24.8866C135.659 23.0016 135.418 21.3441 134.569 19.9141C133.698 18.4455 132.458 17.5315 130.852 17.1719C129.013 16.7616 127.345 17.4055 125.846 19.1037C124.966 20.103 124.5 21.4142 124.447 23.0372C124.388 24.8815 124.85 26.41 125.834 27.6227C126.504 28.4494 127.334 29.0324 128.323 29.3716Z" fill="white"/>
<path d="M57.1997 35.6603C55.7209 34.468 54.7246 32.9527 54.2107 31.1144C53.8065 29.6702 53.6034 28.1965 53.6013 26.6934C53.5952 21.0627 53.6034 15.4321 53.6257 9.80148C53.6257 9.78148 53.6296 9.76167 53.6373 9.74318C53.6449 9.7247 53.6562 9.70791 53.6703 9.69376C53.6845 9.67962 53.7013 9.66839 53.7197 9.66073C53.7382 9.65308 53.758 9.64914 53.778 9.64914L62.3824 9.63086C62.4236 9.63086 62.4631 9.64755 62.4923 9.67727C62.5214 9.70698 62.5378 9.74727 62.5378 9.78929C62.548 14.5302 62.5642 19.2478 62.5866 23.942C62.5947 25.7295 62.7562 26.9828 63.071 27.7019C63.6276 28.9775 64.6076 29.7656 66.0112 30.0663C67.1975 30.3202 68.3512 30.1973 69.4725 29.6976C70.7603 29.1227 71.6449 28.1711 72.1263 26.8427C72.3823 26.1398 72.5194 24.9201 72.5376 23.1834C72.5803 18.7512 72.5986 14.2865 72.5925 9.78929C72.5925 9.74727 72.6092 9.70698 72.6389 9.67727C72.6686 9.64755 72.7089 9.63086 72.7509 9.63086H81.3888C81.4349 9.63086 81.479 9.64884 81.5116 9.68084C81.5442 9.71284 81.5625 9.75623 81.5625 9.80148V36.9522C81.5625 36.9764 81.5576 37.0005 81.5481 37.0228C81.5385 37.0452 81.5246 37.0655 81.507 37.0825C81.4894 37.0996 81.4686 37.113 81.4457 37.122C81.4228 37.131 81.3983 37.1354 81.3736 37.135L72.7875 37.0558C72.7511 37.0556 72.7152 37.0478 72.6821 37.0328C72.649 37.0178 72.6195 36.9961 72.5956 36.969C72.5717 36.9419 72.5539 36.9101 72.5433 36.8756C72.5328 36.8412 72.5298 36.805 72.5346 36.7694C72.6687 35.6827 72.688 34.7026 72.5925 33.8291C72.5214 33.1669 72.301 33.1131 71.9313 33.6677C70.5602 35.7192 68.729 37.0141 66.4378 37.5524C64.8351 37.9262 63.2467 37.979 61.6725 37.7109C60.0414 37.4346 58.5505 36.7511 57.1997 35.6603Z" fill="white"/>
<path d="M125.834 27.6227C124.85 26.41 124.388 24.8815 124.447 23.0371C124.5 21.4142 124.966 20.103 125.846 19.1036C127.345 17.4055 129.014 16.7616 130.852 17.1719C132.459 17.5314 133.698 18.4455 134.569 19.9141C135.418 21.3441 135.659 23.0016 135.291 24.8866C135.08 25.9652 134.643 26.9006 133.981 27.6928C133.315 28.4931 132.495 29.0557 131.522 29.3807C130.454 29.7382 129.387 29.7352 128.323 29.3716C127.334 29.0324 126.504 28.4494 125.834 27.6227Z" fill="#191C1E"/>
</svg>
