<svg width="175" height="51" viewBox="0 0 175 51" fill="none" xmlns="http://www.w3.org/2000/svg">
<path d="M13.5472 17.0177L33.9955 28.81C34.0218 28.8252 34.0435 28.8471 34.0583 28.8736C34.0732 28.9001 34.0808 28.9302 34.0803 28.9609C34.0798 28.9917 34.0713 29.022 34.0556 29.0488C34.0398 29.0756 34.0175 29.0981 33.9907 29.1139L25.9185 33.799C25.7809 33.8795 25.624 33.9219 25.4638 33.9219C25.3037 33.9219 25.1459 33.8795 25.0066 33.799L6.65226 23.1261C6.55098 23.0671 6.46694 22.9831 6.40852 22.8823C6.3501 22.7816 6.31935 22.6677 6.31934 22.5519V12.1251C6.31921 12.0166 6.34769 11.9099 6.4019 11.8159C6.45611 11.7219 6.53414 11.6438 6.62814 11.5895L25.1224 0.858731C25.2205 0.801508 25.332 0.771362 25.4456 0.771362C25.5592 0.771362 25.6708 0.801508 25.7689 0.858731L44.1666 11.4641C44.322 11.5533 44.4511 11.6823 44.5409 11.8382C44.6307 11.9941 44.678 12.1713 44.6781 12.3519V20.3324C44.6785 20.3688 44.6693 20.4047 44.6515 20.4364C44.6337 20.4681 44.6078 20.4946 44.5765 20.5131C44.5453 20.5317 44.5096 20.5417 44.4733 20.5422C44.4369 20.5427 44.401 20.5336 44.3693 20.5158L25.8654 9.85254C25.7555 9.78804 25.6306 9.75363 25.5035 9.75278C25.3764 9.75193 25.2516 9.78468 25.1417 9.84771L13.5424 16.5545C13.2754 16.7089 13.277 16.8633 13.5472 17.0177Z" fill="#11A3D9"/>
<path d="M37.8025 28.8438L17.2094 16.9598C17.1784 16.9414 17.1527 16.9153 17.1348 16.884C17.117 16.8527 17.1076 16.8173 17.1076 16.7813C17.1076 16.7452 17.117 16.7098 17.1348 16.6785C17.1527 16.6472 17.1784 16.6211 17.2094 16.6027L25.2575 11.9418C25.3237 11.9036 25.3981 11.8831 25.4734 11.8822C25.5488 11.8814 25.6224 11.9003 25.6869 11.937L44.2921 22.6581C44.4006 22.7212 44.4907 22.811 44.5533 22.9185C44.616 23.0261 44.649 23.1476 44.6491 23.2709L44.6733 33.3503C44.6749 33.4758 44.6422 33.5998 44.5785 33.7093C44.5148 33.8188 44.4226 33.9098 44.3114 33.9727L25.7593 44.718C25.6743 44.7667 25.5777 44.7918 25.4794 44.791C25.3811 44.7901 25.2846 44.7633 25.1996 44.7132L6.70534 34.0306C6.58796 33.963 6.49048 33.8663 6.42272 33.7502C6.35495 33.6342 6.31929 33.5029 6.31934 33.3696V25.447C6.31986 25.4166 6.32816 25.3868 6.34341 25.3605C6.35865 25.3343 6.38031 25.3125 6.4062 25.2973C6.4321 25.2822 6.46132 25.2742 6.49096 25.2742C6.52059 25.2743 6.54959 25.2822 6.57506 25.2974L25.2478 36.0572C25.3198 36.0982 25.401 36.1198 25.4831 36.1198C25.5653 36.1198 25.6455 36.0982 25.7158 36.0572L37.8073 29.0899C37.9456 29.0094 37.944 28.9274 37.8025 28.8438Z" fill="#119BD6"/>
<path d="M4.21084 35.3285L25.2913 47.4538C25.3543 47.4902 25.4259 47.5094 25.4987 47.5094C25.5716 47.5094 25.6431 47.4902 25.7062 47.4538L46.8735 35.232C46.9394 35.1956 46.9944 35.142 47.0326 35.0766C47.0708 35.0112 47.0908 34.9366 47.0906 34.8605L47.1196 13.7077C47.1193 13.6788 47.1258 13.6502 47.1384 13.6241C47.1511 13.5981 47.1695 13.5753 47.1924 13.5575C47.2153 13.5398 47.242 13.5276 47.2703 13.5218C47.2987 13.5161 47.328 13.5169 47.356 13.5244C48.2792 13.7624 49.0962 14.1999 49.8071 14.8368C49.8621 14.887 49.9062 14.9493 49.9369 15.0199C49.9676 15.0904 49.9842 15.1676 49.9856 15.2469L50.1062 36.5348C50.1062 36.6158 50.0852 36.6953 50.0455 36.7656C50.0057 36.8358 49.9485 36.8942 49.8795 36.9353L25.74 50.9036C25.674 50.9417 25.5991 50.9618 25.5229 50.9618C25.4466 50.9618 25.3718 50.9417 25.3057 50.9036L1.21934 36.9883C1.11959 36.9311 1.03672 36.8474 0.979108 36.7457C0.921495 36.6441 0.891182 36.528 0.891235 36.4093L0.92501 15.5171C0.924914 15.4398 0.94035 15.3642 0.970295 15.2951C1.00024 15.2261 1.04401 15.1652 1.09871 15.1166C1.88036 14.425 2.70704 13.8991 3.57876 13.5388C3.61464 13.5237 3.65369 13.5177 3.69244 13.5214C3.73119 13.525 3.76845 13.5381 3.80091 13.5596C3.83337 13.5811 3.86002 13.6102 3.87851 13.6445C3.89699 13.6788 3.90673 13.717 3.90686 13.756V34.8026C3.90693 34.9096 3.93508 35.0147 3.98846 35.107C4.04184 35.1994 4.11855 35.2758 4.21084 35.3285Z" fill="#1199D4"/>
<path d="M148.99 19.4977C148.221 18.7643 147.243 18.3686 146.056 18.3107C144.969 18.2592 144.054 18.3461 143.311 18.5713C142.249 18.8929 141.579 19.6344 141.299 20.7956C140.987 22.0887 141.517 22.9491 142.891 23.377C145.368 24.149 147.853 24.8968 150.346 25.6206C151.137 25.849 151.903 26.2784 152.642 26.9089C153.308 27.4782 153.791 28.1794 154.09 29.0126C154.804 31.0101 154.637 32.8002 153.588 34.3828C152.732 35.6759 151.401 36.6184 149.593 37.2102C147.197 37.9983 144.705 37.9967 142.119 37.2054C138.783 36.1889 137.035 33.9453 136.874 30.4745C136.872 30.4101 136.894 30.3471 136.938 30.2993C136.981 30.2515 137.041 30.2226 137.106 30.2188L139.996 30.0837C140.139 30.0767 140.279 30.1247 140.388 30.2178C140.497 30.3109 140.568 30.4423 140.585 30.5855C140.787 32.2903 141.604 33.466 143.036 34.1126C144.168 34.6208 145.358 34.8589 146.606 34.8267C147.645 34.801 148.554 34.5163 149.332 33.9727C150.149 33.4001 150.629 32.6828 150.77 31.8207C150.938 30.7817 150.505 29.8907 149.472 29.1477C149.102 28.8839 148.142 28.5719 146.592 28.2116C144.347 27.6937 142.351 27.0617 140.604 26.3154C139.661 25.9101 138.93 25.2877 138.409 24.4481C137.958 23.7211 137.711 22.8366 137.666 21.7944C137.556 19.2693 138.656 17.4181 140.966 16.2408C142.632 15.3948 144.596 15.0731 146.857 15.2758C150.91 15.6393 153.18 17.7912 153.665 21.7316C153.669 21.7641 153.667 21.7971 153.658 21.8285C153.649 21.8598 153.635 21.8887 153.615 21.9134C153.594 21.938 153.57 21.9577 153.542 21.9713C153.514 21.9849 153.484 21.992 153.453 21.9922L150.432 22.0453C150.367 22.0467 150.301 22.0233 150.247 21.9787C150.193 21.9341 150.153 21.8709 150.133 21.7992C149.831 20.7055 149.45 19.9383 148.99 19.4977Z" fill="#1386CC"/>
<path d="M158.924 17.5388C159.214 17.2011 159.548 16.9164 159.928 16.6848C161.437 15.752 163.082 15.2727 164.864 15.2469C166.775 15.218 168.402 15.5332 169.747 16.1926C171.664 17.1287 172.853 18.8721 173.313 21.4229C173.325 21.4934 173.319 21.566 173.296 21.6359C173.272 21.7059 173.231 21.7716 173.175 21.8289C173.119 21.8862 173.049 21.9338 172.971 21.9686C172.892 22.0034 172.807 22.0246 172.719 22.0309L170.529 22.1805C170.368 22.1912 170.211 22.1558 170.082 22.0799C169.952 22.0039 169.858 21.8916 169.814 21.7607C169.197 19.9722 168.187 18.8946 166.784 18.5279C166.193 18.3703 165.445 18.3012 164.541 18.3205C163.663 18.3398 162.921 18.5312 162.316 18.8946C161.255 19.5348 160.803 20.4499 160.961 21.6401C161.096 22.6501 161.699 23.295 162.77 23.5749C165.823 24.3726 168.266 25.0642 170.099 25.6496C171.498 26.0968 172.563 26.8865 173.293 28.0187C173.988 29.0867 174.279 30.2993 174.167 31.6568C174.064 32.9177 173.612 34.0339 172.811 35.0053C172.142 35.8191 171.194 36.4705 169.969 36.9594C167.322 38.0209 164.558 38.1046 161.68 37.2103C158.756 36.3 157.036 34.1111 156.522 30.6435C156.513 30.5908 156.517 30.537 156.532 30.4856C156.547 30.4342 156.573 30.3864 156.609 30.3454C156.644 30.3043 156.689 30.271 156.738 30.2475C156.788 30.224 156.843 30.211 156.898 30.2093L159.74 30.1079C159.851 30.1044 159.959 30.1391 160.044 30.2057C160.129 30.2722 160.186 30.3661 160.203 30.4698C160.493 32.3516 161.379 33.5996 162.862 34.214C164.608 34.9378 166.324 35.0085 168.01 34.4263C168.856 34.1368 169.482 33.7122 169.887 33.1525C170.398 32.4384 170.535 31.6294 170.297 30.7255C170.143 30.1369 169.805 29.656 169.284 29.2829C168.759 28.9065 168.196 28.6508 167.595 28.5157C163.838 27.6794 161.314 26.9058 160.025 26.1949C157.988 25.069 157.093 23.3095 157.337 20.9163C157.453 19.7583 157.982 18.6325 158.924 17.5388Z" fill="#147DC7"/>
<path d="M60.5091 15.6106L57.1799 15.6165C57.0653 15.6167 56.9726 15.7097 56.9728 15.8243L56.9813 20.7168C56.9815 20.8314 57.0746 20.9242 57.1892 20.924L60.5184 20.9181C60.633 20.9179 60.7257 20.8249 60.7255 20.7103L60.717 15.8178C60.7168 15.7032 60.6237 15.6104 60.5091 15.6106Z" fill="#525051"/>
<path d="M103.693 27.9463L103.635 33.7314C103.635 33.7972 103.659 33.8603 103.704 33.9072C103.748 33.9541 103.808 33.9811 103.871 33.9823L115.258 34.0595C115.314 34.0594 115.37 34.0723 115.422 34.0972C115.474 34.1222 115.521 34.1589 115.56 34.2051C115.6 34.2513 115.631 34.3062 115.652 34.3665C115.673 34.4268 115.683 34.4914 115.683 34.5565L115.663 37.051C115.663 37.115 115.641 37.1764 115.601 37.2216C115.561 37.2669 115.507 37.2923 115.451 37.2923L100.069 37.3502C99.9987 37.3502 99.9312 37.3227 99.8814 37.2739C99.8317 37.225 99.8037 37.1587 99.8037 37.0896V16.0382C99.8037 15.9563 99.8362 15.8777 99.8942 15.8198C99.9521 15.7619 100.031 15.7294 100.113 15.7294L115.089 15.7583C115.156 15.7582 115.221 15.783 115.268 15.8272C115.316 15.8714 115.344 15.9316 115.345 15.9947L115.355 18.5568C115.355 18.5971 115.348 18.6372 115.332 18.6746C115.317 18.712 115.294 18.7461 115.265 18.7748C115.235 18.8036 115.201 18.8264 115.162 18.842C115.124 18.8576 115.083 18.8656 115.041 18.8656H103.968C103.89 18.8656 103.815 18.8956 103.76 18.949C103.704 19.0024 103.673 19.0748 103.673 19.1503L103.741 24.3227C103.741 24.3884 103.768 24.4515 103.817 24.4984C103.866 24.5453 103.932 24.5723 104.001 24.5736L114.206 24.6508C114.322 24.6521 114.432 24.6979 114.514 24.7783C114.595 24.8587 114.641 24.9672 114.641 25.0802V27.3576C114.641 27.4408 114.607 27.5206 114.547 27.5794C114.488 27.6382 114.407 27.6712 114.322 27.6712L103.929 27.7002C103.866 27.7002 103.806 27.7261 103.762 27.7723C103.718 27.8184 103.693 27.881 103.693 27.9463Z" fill="#1199D4"/>
<path d="M64.7308 34.518C68.8257 35.1806 70.9068 33.4613 70.9744 29.36C71.0452 24.9275 71.0371 20.4933 70.9503 16.0575C70.9496 16.0239 70.9552 15.9905 70.9667 15.9592C70.9782 15.9279 70.9954 15.8994 71.0174 15.8752C71.0394 15.851 71.0656 15.8316 71.0947 15.8182C71.1237 15.8048 71.155 15.7976 71.1867 15.797L74.5642 15.7439C74.5956 15.7439 74.6268 15.7504 74.6558 15.763C74.6848 15.7757 74.7111 15.7942 74.7331 15.8176C74.7551 15.841 74.7724 15.8687 74.784 15.8991C74.7956 15.9295 74.8013 15.9621 74.8006 15.9948C74.7234 19.3369 74.688 22.6806 74.6945 26.026C74.7009 29.278 74.561 31.4075 74.2747 32.4143C73.5477 34.9747 71.9281 36.6024 69.4159 37.2972C66.9584 37.9791 64.5394 37.9711 62.1591 37.273C58.9392 36.3306 57.2344 33.7749 57.0446 29.6061C56.9481 27.5153 56.932 25.2379 56.9964 22.7739C57.0003 22.6415 57.0515 22.5158 57.1389 22.4238C57.2264 22.3318 57.3433 22.2808 57.4644 22.2818L60.48 22.33C60.5449 22.3303 60.6073 22.3586 60.6541 22.4089C60.7009 22.4593 60.7284 22.5279 60.7309 22.6002C60.8596 26.0131 60.8966 28.3066 60.8419 29.4807C60.71 32.395 62.0063 34.0741 64.7308 34.518Z" fill="#10AADB"/>
<path d="M88.5664 24.2938L85.9126 26.9475L83.3071 29.6351C83.097 29.8513 82.9775 30.1113 82.9742 30.3588L82.8391 37.0752C82.8378 37.1409 82.8123 37.2034 82.7681 37.2494C82.7239 37.2954 82.6645 37.3212 82.6027 37.3213H79.3072C79.2406 37.3213 79.1768 37.2949 79.1298 37.2478C79.0827 37.2007 79.0563 37.1369 79.0563 37.0704V16.0961C79.0563 16.0526 79.0641 16.0095 79.0793 15.9694C79.0944 15.9293 79.1165 15.8929 79.1443 15.8624C79.1722 15.8318 79.2052 15.8078 79.2414 15.7916C79.2777 15.7754 79.3164 15.7674 79.3554 15.768L82.6509 15.8404C82.6814 15.8409 82.7115 15.8486 82.7394 15.8632C82.7673 15.8778 82.7925 15.8989 82.8136 15.9254C82.8346 15.9518 82.8512 15.9831 82.8622 16.0174C82.8732 16.0516 82.8784 16.0882 82.8777 16.1251L82.7956 24.9982C82.7924 25.3424 82.9115 25.3907 83.1527 25.143L92.0259 16.0865C92.1279 15.9814 92.2465 15.898 92.3742 15.8416C92.502 15.7851 92.6364 15.7568 92.7689 15.7584L96.8798 15.8018C97.0535 15.8018 97.0776 15.8645 96.9522 15.99L88.5664 24.2938Z" fill="#11A3D9"/>
<path d="M122.988 34.0355L134.457 34.0644C134.489 34.0644 134.521 34.0708 134.55 34.0832C134.58 34.0957 134.607 34.1139 134.629 34.1368C134.652 34.1597 134.669 34.1869 134.681 34.2167C134.693 34.2465 134.699 34.2784 134.698 34.3105L134.64 37.0463C134.639 37.112 134.612 37.1746 134.565 37.2206C134.518 37.2666 134.455 37.2924 134.389 37.2923H119.253C119.222 37.2923 119.19 37.2861 119.161 37.274C119.132 37.2619 119.105 37.2441 119.083 37.2217C119.06 37.1993 119.043 37.1727 119.03 37.1434C119.018 37.1141 119.012 37.0828 119.012 37.0511L118.954 16.0623C118.954 16.03 118.96 15.998 118.972 15.9682C118.984 15.9383 119.002 15.9112 119.023 15.8883C119.045 15.8655 119.071 15.8474 119.1 15.835C119.129 15.8226 119.16 15.8163 119.191 15.8163L134.269 15.7535C134.335 15.7535 134.399 15.7795 134.446 15.8256C134.493 15.8718 134.52 15.9343 134.52 15.9996L134.544 18.6244C134.544 18.6884 134.518 18.7498 134.473 18.795C134.428 18.8402 134.367 18.8657 134.303 18.8657H123.113C123.01 18.8657 122.91 18.9068 122.837 18.9801C122.764 19.0534 122.723 19.1528 122.723 19.2565V24.2986C122.723 24.3938 122.761 24.4851 122.828 24.5528C122.896 24.6205 122.988 24.6592 123.084 24.6605L133.424 24.6846C133.492 24.6846 133.557 24.71 133.605 24.7553C133.653 24.8005 133.68 24.8619 133.68 24.9259V27.3963C133.68 27.4615 133.654 27.5241 133.608 27.5703C133.562 27.6164 133.499 27.6423 133.434 27.6423L123.046 27.6713C122.96 27.6713 122.878 27.7043 122.817 27.7631C122.757 27.822 122.723 27.9017 122.723 27.9849L122.747 33.799C122.748 33.8622 122.774 33.9223 122.819 33.9665C122.864 34.0107 122.925 34.0355 122.988 34.0355Z" fill="#1290D0"/>
<path d="M88.5663 24.2937L97.536 37.0172C97.6776 37.2199 97.6277 37.318 97.3864 37.3115L93.2611 37.2488C93.1879 37.2474 93.1148 37.2271 93.0477 37.1893C92.9806 37.1516 92.9215 37.0976 92.8751 37.0317L85.9126 26.9475L88.5663 24.2937Z" fill="#525051"/>
</svg>
