<svg width="201" height="65" viewBox="0 0 201 65" fill="none" xmlns="http://www.w3.org/2000/svg">
<g clip-path="url(#clip0_252_3257)">
<path d="M123.467 54.609C118.563 60.2787 112.35 63.5909 104.83 64.5454C98.5614 65.3424 92.6819 64.2105 87.1912 61.1499C84.499 59.6469 82.1092 57.7954 80.0217 55.5954C75.552 50.8893 72.9966 45.1984 72.3555 38.5227C72.0577 35.4378 72.4299 32.1893 73.4722 28.7772C76.064 20.2651 81.3876 14.1409 89.4428 10.4045C89.5095 10.3748 89.5684 10.3312 89.615 10.2768C89.6616 10.2225 89.6946 10.1589 89.7117 10.0909L91.7353 1.76812C91.746 1.724 91.7653 1.68244 91.7923 1.64588C91.8193 1.60932 91.8533 1.5785 91.8923 1.55521C91.9314 1.53193 91.9747 1.51665 92.0197 1.51028C92.0648 1.50392 92.1107 1.50658 92.1547 1.51812L99.3332 3.45903C99.5776 3.52353 99.847 3.49618 100.094 3.38176L106.835 0.227215C106.876 0.207763 106.92 0.197676 106.965 0.197632C107.01 0.197588 107.055 0.207587 107.097 0.226958C107.139 0.246329 107.177 0.274625 107.208 0.309948C107.239 0.345271 107.263 0.386804 107.278 0.43176L110.135 9.08176C110.155 9.14517 110.192 9.20384 110.244 9.25287C110.296 9.3019 110.36 9.33986 110.432 9.36358C115.497 11.0515 119.678 13.7545 122.975 17.4727C128.304 23.4787 130.764 30.3439 130.354 38.0681C130.029 44.1621 127.733 49.6757 123.467 54.609ZM108.855 23.6999L110.573 22.3227C110.628 22.2789 110.673 22.2209 110.704 22.1532C110.735 22.0855 110.751 22.0098 110.751 21.9318L110.732 18.0954C110.732 18.0141 110.711 17.9367 110.673 17.8768C110.634 17.8169 110.581 17.7784 110.523 17.7681L110.071 17.6999C109.813 17.6575 109.672 17.6272 109.648 17.609C109.298 17.3757 109.245 17.1363 109.488 16.8909C109.591 16.7878 109.769 16.6924 110.021 16.6045C111.161 16.1984 112.282 15.7469 113.385 15.2499C113.968 14.9893 113.994 14.8045 113.462 14.6954C113.344 14.6712 113.209 14.6666 113.057 14.6818C111.866 14.806 110.67 14.8818 109.47 14.909C109.405 14.9107 109.342 14.8909 109.289 14.8524C109.235 14.8139 109.195 14.7589 109.174 14.6954L105.76 4.37721C105.744 4.32864 105.718 4.28399 105.683 4.24624C105.649 4.20849 105.607 4.1785 105.56 4.15828C105.513 4.13806 105.462 4.12808 105.411 4.12899C105.36 4.1299 105.309 4.1417 105.263 4.16358L100.181 6.56358C99.8547 6.71886 99.4809 6.75113 99.1281 6.65449L93.7499 5.18631C93.7093 5.17511 93.6668 5.17252 93.625 5.1787C93.5832 5.18488 93.543 5.19969 93.5067 5.22223C93.4704 5.24477 93.439 5.27457 93.4142 5.30982C93.3894 5.34506 93.3718 5.385 93.3625 5.42721L90.9651 15.9909C90.9511 16.0572 90.915 16.1172 90.8623 16.1615C90.8095 16.2059 90.7432 16.2322 90.6734 16.2363L86.4073 16.4999C86.3617 16.5028 86.3193 16.5121 86.2831 16.527C86.2469 16.5419 86.2177 16.5622 86.1976 16.5863C86.1702 16.6227 86.152 16.6621 86.1429 16.7045C86.1329 16.7541 86.1514 16.8084 86.1945 16.8565C86.2376 16.9046 86.3022 16.9428 86.3753 16.9636C87.8126 17.3909 89.2483 17.8166 90.6825 18.2409C91.5059 18.4833 91.4285 18.6575 90.45 18.7636C90.3595 18.7737 90.2764 18.8194 90.2179 18.8913C90.1594 18.9632 90.1299 19.0558 90.1355 19.1499L90.4045 22.7272C90.4128 22.8508 90.4538 22.9691 90.523 23.0693C90.5921 23.1695 90.6867 23.2477 90.7964 23.2954C91.5743 23.6439 92.2777 24.1302 92.9067 24.7545C92.9554 24.8017 92.9936 24.8605 93.0187 24.9271C93.0438 24.9937 93.0554 25.0665 93.0526 25.1409C93.0343 25.759 93.1528 26.2136 93.4081 26.5045C94.7146 28.0045 96.0759 29.6045 97.4919 31.3045C97.5386 31.3613 97.5974 31.4067 97.6637 31.4374C97.73 31.4681 97.8022 31.4833 97.8747 31.4818L103.084 31.3681C103.297 31.3638 103.507 31.3136 103.698 31.221C103.889 31.1284 104.058 30.9956 104.192 30.8318C105.38 29.3772 106.6 28.0212 107.852 26.7636C108.493 26.1242 108.735 25.3151 108.577 24.3363C108.559 24.2245 108.575 24.1065 108.624 23.9946C108.673 23.8827 108.752 23.781 108.855 23.6999ZM101.817 53.7909C101.723 54.209 101.614 54.2121 101.489 53.7999C99.1616 46.003 96.8128 38.3439 94.4427 30.8227C93.9535 29.2681 93.2744 27.6802 92.4054 26.059C92.3696 25.9919 92.3096 25.9406 92.237 25.9154C92.1645 25.8901 92.0847 25.8927 92.0134 25.9227L82.0773 30.1681C81.737 30.3136 81.7355 30.453 82.0728 30.5863L86.266 32.2772C86.5789 32.4015 86.5759 32.5121 86.2568 32.609L79.6617 34.6181C79.5685 34.6473 79.4844 34.6994 79.4174 34.7694C79.3504 34.8394 79.3027 34.925 79.2788 35.0181L76.6535 45.2681C76.5198 45.7833 76.5821 46.2818 76.8404 46.7636C79.569 51.8666 83.3414 55.756 88.1575 58.4318C90.8435 59.9257 93.6983 60.9151 96.7216 61.3999C99.8179 61.8939 102.91 61.8742 105.997 61.3408C109.011 60.8196 111.854 59.7939 114.524 58.2636C119.608 55.3515 123.552 51.0772 126.357 45.4409C126.466 45.2207 126.493 44.962 126.434 44.709L123.626 32.759C123.604 32.6581 123.552 32.5662 123.477 32.495C123.402 32.4238 123.308 32.3765 123.207 32.359L116.489 31.2318C116.024 31.153 115.998 30.9954 116.411 30.759L118.658 29.4818C119.09 29.2393 119.058 29.0378 118.563 28.8772L114.588 27.609C114.427 27.5605 114.28 27.5469 114.146 27.5681L107.834 28.5863C107.711 28.6062 107.597 28.6623 107.507 28.7474C107.417 28.8325 107.354 28.9426 107.328 29.0636L101.817 53.7909ZM99.789 32.5863L98.8729 33.8999C98.7773 34.0405 98.718 34.1967 98.7019 34.3503C98.6858 34.5039 98.7134 34.6488 98.7817 34.7681L99.9075 36.7499C99.9924 36.8958 100.03 37.0419 100.012 37.159C99.827 38.4924 99.6037 39.8181 99.3424 41.1363C99.2056 41.8302 99.2223 42.509 99.3925 43.1727C99.988 45.4909 100.574 47.809 101.152 50.1272C101.358 50.9636 101.559 50.9606 101.753 50.1181L103.526 42.3772C103.559 42.2344 103.551 42.0849 103.504 41.9454L101.936 37.1454C101.915 37.0836 101.909 37.0155 101.917 36.9452C101.925 36.875 101.947 36.8039 101.981 36.7363L103.112 34.4999C103.146 34.4328 103.162 34.359 103.158 34.2868C103.154 34.2146 103.13 34.1468 103.089 34.0909L101.553 32.0181C101.082 31.3787 100.494 31.5681 99.789 32.5863Z" fill="white"/>
<path d="M1.28078 17.1864C0.518108 17.8197 0.708017 18.2561 1.85051 18.4955C2.56761 18.644 3.12518 19.0046 3.52323 19.5773C3.60841 19.7003 3.64417 19.8527 3.6235 20.0046C3.50196 20.8288 3.06289 21.3076 2.30629 21.4409C1.83228 21.5258 1.43575 21.5516 1.1167 21.5182C0.57584 21.4667 0.279582 21.1122 0.227926 20.4546C0.185387 19.894 0.337314 19.8182 0.683709 20.2273C1.33396 20.997 2.00396 21.0516 2.69371 20.3909C2.74434 20.3421 2.77896 20.2796 2.79283 20.2121C2.80671 20.1446 2.79915 20.0753 2.77119 20.0137C2.58888 19.5925 2.244 19.3516 1.73657 19.2909C0.864502 19.1849 0.399604 18.8152 0.341872 18.1819C0.235523 16.9758 0.726248 16.3546 1.81405 16.3182C2.28806 16.3 2.61623 16.3076 2.79854 16.3409C3.2604 16.4197 3.46854 16.7455 3.42296 17.3182C3.39561 17.6909 3.24065 17.7546 2.95806 17.5091C2.28958 16.9243 1.73049 16.8167 1.28078 17.1864Z" fill="#FAF8FA" fill-opacity="0.992"/>
<path d="M11.6225 17.1045C11.5337 17.0379 11.4242 17.005 11.3138 17.0116C11.2034 17.0183 11.0995 17.0642 11.0208 17.1409C10.407 17.7348 10.0774 17.6818 10.0318 16.9818C10.0277 16.9196 10.0346 16.8573 10.0519 16.7985C10.0693 16.7398 10.0968 16.6857 10.1329 16.6396C10.169 16.5935 10.2129 16.5561 10.2621 16.5298C10.3112 16.5035 10.3646 16.4887 10.4192 16.4863L13.514 16.3681C13.5925 16.3644 13.6708 16.3786 13.7438 16.4098C13.8169 16.4411 13.8831 16.4887 13.9381 16.5495C13.9931 16.6104 14.0357 16.6832 14.0632 16.7631C14.0906 16.8431 14.1022 16.9284 14.0974 17.0136C14.0579 17.7136 13.8102 17.7924 13.3544 17.25C13.0202 16.85 12.7437 16.8272 12.5249 17.1818C12.4544 17.293 12.4284 17.4453 12.452 17.6091C12.5523 18.403 12.5902 19.2 12.5659 20C12.5507 20.4818 12.7103 20.8863 13.0445 21.2136C13.1721 21.3378 13.1554 21.4 12.9944 21.4L11.308 21.3772C11.1074 21.3742 11.074 21.2984 11.2077 21.15L11.4766 20.8545C11.5933 20.7264 11.6637 20.5941 11.6726 20.4863C11.7425 19.7894 11.7683 19.0909 11.7501 18.3909C11.747 18.2727 11.7653 18.0591 11.8048 17.75C11.8443 17.4439 11.7835 17.2288 11.6225 17.1045Z" fill="#ECE7E6" fill-opacity="0.996"/>
<path d="M32.6386 19.6727C32.4927 20.0969 32.5732 20.4893 32.8801 20.8499C33.3845 21.4439 32.988 21.6181 31.6905 21.3727C31.6608 21.3668 31.6326 21.355 31.6077 21.3379C31.5827 21.3208 31.5615 21.2989 31.5453 21.2734C31.5291 21.2479 31.5182 21.2193 31.5134 21.1895C31.5086 21.1597 31.51 21.1292 31.5173 21.0999C31.9488 19.4545 31.923 17.9181 31.4399 16.4909C31.432 16.4664 31.43 16.4405 31.434 16.4151C31.4381 16.3898 31.4481 16.3657 31.4631 16.3449C31.4782 16.3241 31.498 16.3072 31.5209 16.2954C31.5438 16.2837 31.5691 16.2774 31.5948 16.2772C33.2083 16.2772 34.1852 16.3818 34.5255 16.5909C35.4006 17.1272 35.4902 17.8636 34.7944 18.7999C34.6842 18.9488 34.6196 19.1263 34.6083 19.311C34.5969 19.4957 34.6394 19.6797 34.7306 19.8409C35.0193 20.3499 35.2958 20.7015 35.5601 20.8954C35.9794 21.2075 35.9308 21.3969 35.4143 21.4636C34.9767 21.5212 34.5726 21.5015 34.2019 21.4045C34.1747 21.3969 34.1496 21.3833 34.1281 21.3648C34.1067 21.3463 34.0893 21.3232 34.0773 21.297C34.0652 21.2709 34.0587 21.2422 34.0582 21.2129C34.0577 21.1837 34.0632 21.1545 34.0743 21.1272C34.4602 20.109 34.0879 19.5575 32.9576 19.4727C32.8883 19.4678 32.8197 19.4847 32.7621 19.5208C32.7045 19.5569 32.6611 19.6102 32.6386 19.6727ZM33.9831 18.6636C34.764 17.5545 34.4875 16.9787 33.1536 16.9363C33.0829 16.9334 33.0128 16.9486 32.9505 16.9805C32.8881 17.0124 32.8355 17.0599 32.7981 17.1181C32.4152 17.7272 32.4593 18.3469 32.9303 18.9772C32.9797 19.0441 33.0497 19.0895 33.1347 19.1099C33.2198 19.1303 33.3174 19.125 33.4198 19.0945C33.5222 19.064 33.6266 19.0091 33.7244 18.9343C33.8222 18.8594 33.9109 18.7667 33.9831 18.6636Z" fill="#FAF8FA" fill-opacity="0.992"/>
<path d="M54.5982 20.9137C55.0114 21.0198 55.3518 20.8395 55.6192 20.3728C55.7559 20.1273 55.8288 19.7879 55.8379 19.3546C55.8471 18.9273 55.8638 18.5001 55.8881 18.0728C55.9276 17.4698 55.8258 17.0652 55.5827 16.8591C55.3153 16.6349 55.3548 16.4955 55.7012 16.441C56.7829 16.2652 57.1384 16.4455 56.7677 16.9819C56.6823 17.1084 56.6405 17.2493 56.6492 17.3819C56.7039 18.1758 56.672 18.9607 56.5535 19.7364C56.4411 20.491 56.1539 21.0061 55.6921 21.2819C55.13 21.6182 54.4554 21.644 53.6684 21.3591C53.1093 21.1591 52.8039 20.7349 52.7523 20.0864L52.4743 16.6228C52.4713 16.5879 52.4742 16.5527 52.4828 16.5195C52.4914 16.4864 52.5054 16.4561 52.524 16.4307C52.5426 16.4053 52.5652 16.3853 52.5905 16.3722C52.6157 16.3591 52.6429 16.3531 52.6702 16.3546L53.7231 16.4319C53.751 16.4339 53.7778 16.4429 53.8014 16.4582C53.825 16.4735 53.8448 16.4946 53.859 16.5198C53.8732 16.545 53.8815 16.5737 53.8832 16.6034C53.8849 16.6332 53.8801 16.6631 53.869 16.691C53.5499 17.5122 53.4815 18.5698 53.6639 19.8637C53.7398 20.4213 54.0513 20.7713 54.5982 20.9137Z" fill="#FAF8FA" fill-opacity="0.992"/>
<path d="M43.0851 16.9909C42.7752 17.0909 42.5564 17.2167 42.4288 17.3682C42.0672 17.7955 41.8925 17.7303 41.9046 17.1727C41.9168 16.5697 42.1933 16.2894 42.7342 16.3318C43.0076 16.353 43.1565 16.3636 43.1808 16.3636C43.8675 16.3636 44.5543 16.3636 45.241 16.3636C45.4019 16.3636 45.547 16.414 45.6466 16.5045C45.9535 16.7773 46.0036 17.0788 45.797 17.4091C45.7715 17.4501 45.7365 17.4844 45.6949 17.509C45.6533 17.5336 45.6063 17.5479 45.558 17.5506C45.5097 17.5533 45.4615 17.5443 45.4174 17.5244C45.3733 17.5045 45.3347 17.4743 45.3048 17.4364C44.8763 16.9 44.5451 16.8167 44.3112 17.1864C44.244 17.291 44.2211 17.4427 44.2474 17.6091C44.3537 18.3697 44.3674 19.1318 44.2884 19.8955C44.2367 20.3924 44.3583 20.7682 44.653 21.0227C45.0176 21.3439 44.9478 21.4955 44.4434 21.4773L43.0988 21.4318C43.07 21.4308 43.0415 21.4241 43.0155 21.4125C42.9895 21.4008 42.9668 21.3844 42.9491 21.3646C42.9314 21.3447 42.9193 21.322 42.9136 21.2982C42.908 21.2744 42.9089 21.2501 42.9165 21.2273C42.9651 21.0909 43.0547 20.9758 43.1854 20.8818C43.2518 20.8328 43.3078 20.7778 43.3501 20.72C43.3923 20.6623 43.42 20.6029 43.4315 20.5455C43.6473 19.4091 43.6214 18.2788 43.354 17.1545C43.3474 17.1252 43.335 17.0974 43.3176 17.0729C43.3002 17.0485 43.2782 17.028 43.2529 17.0126C43.2277 16.9972 43.1997 16.9874 43.1708 16.9836C43.142 16.9799 43.1128 16.9824 43.0851 16.9909Z" fill="#FAF8FA" fill-opacity="0.992"/>
<path d="M65.423 21.1045C65.5415 21.2318 65.5157 21.3136 65.3455 21.35C64.1301 21.5985 63.6029 21.5182 63.764 21.1091C63.8794 20.8091 63.9387 20.6455 63.9417 20.6182C64.1727 19.2697 64.1195 17.9333 63.7822 16.6091C63.7754 16.5829 63.7745 16.5554 63.7797 16.5288C63.7849 16.5022 63.796 16.4771 63.8121 16.4553C63.8283 16.4335 63.8492 16.4156 63.8732 16.4029C63.8972 16.3902 63.9237 16.383 63.9509 16.3818C64.5859 16.3576 65.2225 16.3561 65.8606 16.3773C66.763 16.4076 67.3312 16.7636 67.5652 17.4455C67.7354 17.9455 67.6533 18.4106 67.3191 18.8409C67.0942 19.1288 66.8086 19.3485 66.4622 19.5C66.3498 19.5485 66.014 19.6061 65.4549 19.6727C64.6376 19.7727 64.6269 20.25 65.423 21.1045ZM66.7368 17.6668C66.7399 17.4884 66.6718 17.3161 66.5476 17.1877C66.4233 17.0594 66.253 16.9855 66.0741 16.9824L65.4999 16.9724C65.4113 16.9709 65.3233 16.9867 65.2409 17.0191C65.1585 17.0515 65.0833 17.0998 65.0196 17.1611C64.9558 17.2225 64.9049 17.2958 64.8695 17.3768C64.8342 17.4578 64.8152 17.545 64.8137 17.6333L64.8021 18.2969C64.7989 18.4753 64.867 18.6476 64.9913 18.7759C65.1156 18.9043 65.2859 18.9781 65.4647 18.9812L66.0389 18.9912C66.1275 18.9928 66.2155 18.9769 66.2979 18.9445C66.3804 18.9121 66.4556 18.8639 66.5193 18.8025C66.583 18.7411 66.634 18.6679 66.6693 18.5868C66.7046 18.5058 66.7236 18.4187 66.7252 18.3303L66.7368 17.6668Z" fill="#FAF8FA" fill-opacity="0.992"/>
<path d="M23.1081 20.0909C22.5278 19.9788 21.9672 20.0394 21.4263 20.2728C21.3713 20.2967 21.3275 20.3418 21.3032 20.3995C21.2788 20.4573 21.2756 20.5237 21.2941 20.5864C21.5554 21.4894 21.1832 21.7652 20.1775 21.4137C20.1514 21.4049 20.1277 21.3904 20.1081 21.3711C20.0884 21.3519 20.0732 21.3284 20.0637 21.3023C20.0541 21.2763 20.0503 21.2483 20.0527 21.2204C20.055 21.1925 20.0634 21.1654 20.0772 21.1409C20.8368 19.7561 21.2805 18.2758 21.4081 16.7C21.4136 16.6343 21.4406 16.5725 21.4847 16.5253C21.5287 16.4781 21.587 16.4483 21.6496 16.4409C22.5187 16.3319 23.0504 16.7228 23.2449 17.6137C23.5032 18.7955 23.9954 19.9819 24.7216 21.1728C24.8249 21.3425 24.793 21.4258 24.6259 21.4228L23.1537 21.3955C22.9532 21.3925 22.9304 21.3182 23.0854 21.1728C23.3862 20.8909 23.4986 20.6152 23.4226 20.3455C23.4065 20.2843 23.3683 20.2278 23.3126 20.1827C23.2569 20.1376 23.1859 20.1058 23.1081 20.0909ZM22.1282 19.4728C22.8575 19.6576 23.1021 19.3773 22.862 18.6319C22.3576 17.0652 22.0097 17.197 21.8183 19.0273C21.8084 19.1268 21.8342 19.2265 21.8911 19.3082C21.948 19.3899 22.0321 19.4483 22.1282 19.4728Z" fill="#FAF8FA" fill-opacity="0.992"/>
<path d="M22.1283 19.4727C22.0321 19.4483 21.948 19.3899 21.8912 19.3081C21.8343 19.2264 21.8085 19.1268 21.8183 19.0272C22.0098 17.1969 22.3577 17.0651 22.8621 18.6318C23.1021 19.3772 22.8575 19.6575 22.1283 19.4727Z" fill="#B72025"/>
<path d="M145.044 26.0591C145.11 25.9985 145.018 25.7318 144.766 25.2591C144.733 25.1969 144.716 25.1274 144.718 25.0572C144.72 24.9869 144.74 24.9184 144.776 24.8581C144.813 24.7978 144.864 24.7478 144.925 24.713C144.986 24.6781 145.055 24.6595 145.126 24.6591H148.225C148.289 24.6589 148.351 24.6829 148.398 24.726C148.444 24.7691 148.472 24.8281 148.476 24.8909C148.634 27.3606 148.625 29.8197 148.448 32.2682C148.444 32.3313 148.415 32.3903 148.369 32.4333C148.322 32.4763 148.261 32.5002 148.198 32.5H145.112C145.038 32.5 144.967 32.4709 144.914 32.4191C144.861 32.3672 144.831 32.2967 144.829 32.2227C144.808 31.2773 144.662 30.4136 144.392 29.6318C143.976 28.4257 143.208 27.9045 142.09 28.0682C141.212 28.1985 140.726 28.8045 140.632 29.8864C140.458 31.8591 140.413 35.0788 140.495 39.5454C140.519 40.903 140.613 42.0151 140.777 42.8818C140.899 43.5303 141.177 44.0045 141.612 44.3045C142.262 44.753 142.898 44.7273 143.521 44.2273C143.91 43.9151 144.197 43.4364 144.383 42.7909C144.547 42.2121 144.652 41.6485 144.697 41.1C144.704 41.0196 144.691 40.9388 144.66 40.8642C144.629 40.7896 144.581 40.7233 144.52 40.6706C144.459 40.618 144.386 40.5804 144.308 40.561C144.229 40.5417 144.147 40.541 144.068 40.5591C143.284 40.7348 142.912 40.5106 142.952 39.8864C142.976 39.456 142.988 39.2288 142.988 39.2045C142.97 38.5864 142.994 37.9697 143.061 37.3545C143.069 37.29 143.099 37.2305 143.146 37.187C143.193 37.1435 143.253 37.1191 143.316 37.1182L149.574 37.0591C149.67 37.0579 149.763 37.096 149.832 37.1649C149.901 37.2338 149.941 37.3281 149.943 37.4273C149.971 39.1273 149.819 40.703 149.487 42.1545C149.096 43.8576 148.398 45.2394 147.395 46.3C145.806 47.9848 143.837 48.6242 141.489 48.2182C139.735 47.9121 138.277 47.1045 137.113 45.7954C135.952 44.4833 135.2 42.8954 134.857 41.0318C134.319 38.1136 134.337 34.8909 134.912 31.3636C135.231 29.397 135.939 27.7485 137.036 26.4182C138.06 25.1788 139.164 24.5 140.349 24.3818C141.686 24.2485 143.032 24.8076 144.387 26.0591C144.477 26.1405 144.594 26.1857 144.715 26.1857C144.837 26.1857 144.954 26.1405 145.044 26.0591Z" fill="white"/>
<path d="M41.2027 46.7182C41.1085 47.0454 41.0858 47.3863 41.1344 47.7409C41.1406 47.785 41.1361 47.83 41.1213 47.8725C41.1065 47.915 41.0817 47.9542 41.0487 47.9871C41.0157 48.02 40.9752 48.046 40.9302 48.0631C40.8851 48.0803 40.8366 48.0882 40.788 48.0863L38.0624 47.9772C37.9679 47.9726 37.8789 47.9346 37.8136 47.8712C37.7483 47.8077 37.7117 47.7237 37.7114 47.6363L37.7479 40.8272C37.7496 40.7609 37.7725 40.6976 37.8125 40.6486C37.8525 40.5995 37.9071 40.5678 37.9667 40.5591C38.939 40.3954 39.9114 40.3939 40.8837 40.5545C40.9437 40.5643 40.9979 40.5976 41.0358 40.648C41.0737 40.6983 41.0926 40.7622 41.0888 40.8272C41.0341 41.6666 41.1374 42.4742 41.3987 43.25C41.6023 43.8621 41.9533 44.3 42.4516 44.5636C43.1808 44.9515 43.8144 44.8909 44.3522 44.3818C44.8505 43.9091 45.0921 43.2515 45.0769 42.4091C45.0587 41.5333 44.7989 40.7394 44.2975 40.0272C43.6959 39.1788 42.8618 38.2682 41.7953 37.2954C40.7591 36.353 39.808 35.3318 38.9421 34.2318C38.1277 33.2045 37.6704 31.9833 37.5702 30.5682C37.4668 29.1651 37.7038 27.9363 38.2812 26.8818C39.0165 25.5333 40.1955 24.7166 41.818 24.4318C43.1277 24.2015 44.3051 24.6136 45.3504 25.6682C45.5904 25.9106 45.7712 26.0151 45.8927 25.9818C46.0902 25.9333 46.1632 25.6242 46.1115 25.0545C46.1071 25.0076 46.112 24.9603 46.126 24.9156C46.14 24.8709 46.1628 24.8299 46.1929 24.7951C46.223 24.7604 46.2597 24.7328 46.3006 24.7141C46.3416 24.6953 46.3858 24.6859 46.4306 24.6863L49.1379 24.7182C49.2016 24.7194 49.2624 24.7461 49.3075 24.7927C49.3525 24.8394 49.3783 24.9022 49.3795 24.9682L49.4296 31.3363C49.4302 31.3666 49.4248 31.3966 49.4136 31.4247C49.4024 31.4528 49.3857 31.4784 49.3645 31.5C49.3433 31.5216 49.3179 31.5387 49.29 31.5504C49.262 31.5621 49.232 31.5682 49.2017 31.5682L46.5855 31.5863C46.5061 31.5867 46.4275 31.5703 46.3547 31.5383C46.2819 31.5064 46.2164 31.4594 46.1625 31.4004C46.1085 31.3415 46.0672 31.2718 46.0412 31.1959C46.0151 31.1199 46.0049 31.0393 46.0112 30.9591C46.1237 29.5348 45.7074 28.5591 44.7624 28.0318C44.2185 27.7288 43.7004 27.7257 43.2082 28.0227C42.6552 28.356 42.3817 28.9015 42.3878 29.6591C42.3938 30.6469 42.8025 31.4894 43.6138 32.1863C44.2337 32.7227 45.2941 33.7606 46.7952 35.3C48.1504 36.6909 49.03 37.8712 49.4342 38.8409C50.1087 40.4621 50.2029 42.106 49.7168 43.7727C49.2063 45.5333 48.2719 46.8045 46.9137 47.5863C45.1999 48.5772 43.3783 48.2666 41.4489 46.6545C41.4291 46.6376 41.4055 46.6255 41.3802 46.6195C41.3549 46.6134 41.3287 46.6136 41.3042 46.6199C41.2796 46.6263 41.2574 46.6386 41.2397 46.6558C41.222 46.673 41.2092 46.6944 41.2027 46.7182Z" fill="white"/>
<path d="M196.789 25.7727L196.861 24.9682C196.868 24.9009 196.896 24.8384 196.939 24.7923C196.983 24.7463 197.04 24.7199 197.098 24.7182L199.847 24.6818C199.893 24.6812 199.939 24.6904 199.982 24.7089C200.026 24.7273 200.065 24.7547 200.098 24.7894C200.131 24.824 200.157 24.8653 200.175 24.9109C200.193 24.9564 200.202 25.0052 200.202 25.0546V31.4318C200.202 31.4837 200.181 31.5334 200.142 31.57C200.104 31.6067 200.052 31.6273 199.997 31.6273L197.331 31.5955C197.249 31.5944 197.169 31.5768 197.094 31.544C197.02 31.5111 196.953 31.4637 196.899 31.4047C196.844 31.3457 196.803 31.2764 196.778 31.2012C196.753 31.1261 196.744 31.0467 196.752 30.9682C196.828 30.2773 196.767 29.6727 196.57 29.1546C196.351 28.5758 195.95 28.1697 195.367 27.9364C194.689 27.6606 194.104 27.7834 193.612 28.3046C193.241 28.6955 193.08 29.194 193.129 29.8C193.22 30.9152 193.745 31.8621 194.706 32.6409C195.882 33.5985 197.147 34.8697 198.502 36.4546C200.675 39 201.239 41.6561 200.193 44.4228C199.573 46.0561 198.604 47.1682 197.285 47.7591C195.651 48.4924 193.985 48.1531 192.29 46.7409C192.224 46.6872 192.151 46.6495 192.081 46.6325C192.01 46.6155 191.945 46.62 191.893 46.6455C191.726 46.7303 191.723 46.9015 191.884 47.1591C192.264 47.7652 192.121 48.0591 191.456 48.0409L188.698 47.9637C188.636 47.9625 188.577 47.939 188.534 47.8982C188.49 47.8574 188.466 47.8026 188.466 47.7455V40.9364C188.466 40.8644 188.489 40.7952 188.532 40.7435C188.574 40.6917 188.632 40.6615 188.694 40.6591L191.465 40.5046C191.523 40.5025 191.58 40.5286 191.625 40.5776C191.67 40.6266 191.699 40.6947 191.707 40.7682C191.764 41.3803 191.848 41.9894 191.957 42.5955C192.088 43.3137 192.329 43.8606 192.682 44.2364C193.338 44.9334 194.064 45.0197 194.861 44.4955C195.441 44.1137 195.78 43.5712 195.877 42.8682C195.977 42.144 195.853 41.4621 195.503 40.8227C194.877 39.6864 193.946 38.6076 192.709 37.5864C192.357 37.2924 191.766 36.6955 190.936 35.7955C190.204 34.9985 189.687 34.3394 189.387 33.8182C188.572 32.4182 188.234 30.9303 188.37 29.3546C188.507 27.7637 189.139 26.4803 190.266 25.5046C192.074 23.944 194.177 24.0606 196.574 25.8546C196.702 25.9515 196.773 25.9243 196.789 25.7727Z" fill="white"/>
<path d="M165.248 28.441C165.221 32.3107 165.21 36.1804 165.217 40.0501C165.22 42.5652 164.993 44.3167 164.537 45.3046C163.516 47.5228 161.503 48.5197 158.498 48.2955C154.788 48.0167 152.913 45.9334 152.874 42.0455C152.825 37.5394 152.798 33.0319 152.792 28.5228C152.792 28.0773 152.439 27.9501 151.735 28.141C151.653 28.1627 151.568 28.1663 151.486 28.1515C151.403 28.1366 151.326 28.1038 151.259 28.0554C151.193 28.007 151.139 27.9444 151.102 27.8726C151.065 27.8007 151.046 27.7214 151.046 27.641L151.055 24.9682C151.055 24.9051 151.08 24.8445 151.125 24.7995C151.169 24.7544 151.229 24.7285 151.292 24.7273L158.658 24.6501C158.738 24.649 158.815 24.6813 158.873 24.7399C158.931 24.7986 158.965 24.879 158.968 24.9637C158.989 25.9091 158.936 26.7591 158.808 27.5137C158.574 28.8713 158.45 29.7061 158.434 30.0182C158.237 34.3061 158.144 38.6713 158.156 43.1137C158.16 43.9713 158.558 44.5667 159.351 44.9C160.262 45.2788 160.953 45.1031 161.424 44.3728C161.674 43.9849 161.81 43.3894 161.835 42.5864C162.011 36.8531 161.765 31.0819 161.096 25.2728C161.088 25.1955 161.096 25.1174 161.12 25.0435C161.144 24.9695 161.183 24.9014 161.235 24.8436C161.287 24.7857 161.351 24.7394 161.422 24.7076C161.493 24.6759 161.57 24.6593 161.648 24.6591H166.857C166.897 24.6591 166.936 24.6669 166.972 24.682C167.009 24.6971 167.042 24.7192 167.07 24.747C167.098 24.7749 167.12 24.8079 167.135 24.8443C167.15 24.8807 167.158 24.9197 167.158 24.9591V27.8455C167.158 27.9083 167.128 27.9687 167.077 28.0143C167.025 28.06 166.955 28.0874 166.88 28.091L165.467 28.1455C165.409 28.1479 165.353 28.18 165.312 28.235C165.272 28.29 165.249 28.3638 165.248 28.441Z" fill="white"/>
<path d="M12.2013 38.5454C12.1223 38.5666 12.0722 38.6257 12.0509 38.7227C11.4128 41.7227 10.7565 44.8212 10.0819 48.0182C10.0654 48.0916 10.0257 48.1573 9.96937 48.2043C9.91304 48.2514 9.84344 48.2771 9.772 48.2772H6.25792C6.17638 48.2769 6.09703 48.247 6.03315 48.1924C5.96926 48.1378 5.92471 48.0618 5.90696 47.9772C4.53354 41.7288 3.12973 35.4545 1.69553 29.1545C1.6925 29.1333 1.66819 28.9166 1.62261 28.5045C1.57095 28.0015 1.23671 27.8742 0.619888 28.1227C0.576716 28.1395 0.530097 28.1455 0.48401 28.1402C0.437924 28.1348 0.393739 28.1182 0.355228 28.0919C0.316717 28.0655 0.285024 28.0302 0.262855 27.9888C0.240685 27.9475 0.228698 27.9014 0.227916 27.8545L0.191453 24.8954C0.190845 24.8646 0.196173 24.8339 0.207124 24.8053C0.218075 24.7766 0.23443 24.7505 0.255229 24.7285C0.276028 24.7065 0.300854 24.689 0.328252 24.6771C0.35565 24.6652 0.385069 24.659 0.414786 24.6591H7.42928C7.45741 24.6591 7.48526 24.6652 7.51125 24.677C7.53724 24.6889 7.56086 24.7063 7.58075 24.7283C7.60064 24.7502 7.61642 24.7763 7.62719 24.805C7.63795 24.8336 7.64349 24.8644 7.64349 24.8954L7.63438 27.7181C7.63394 27.7821 7.61971 27.8455 7.59279 27.9032C7.56588 27.9608 7.52702 28.0113 7.47929 28.0505C7.43155 28.0897 7.37625 28.1167 7.31774 28.1292C7.25923 28.1417 7.19911 28.1395 7.14213 28.1227C6.57089 27.956 6.33236 28.0788 6.42656 28.4909C7.09807 31.4181 7.74377 34.2469 8.36363 36.9772C8.5581 37.8318 8.74193 37.8288 8.91513 36.9682C9.44687 34.2985 9.99229 31.6333 10.5514 28.9727C10.5575 28.9424 10.6046 28.7985 10.6927 28.5409C10.8264 28.156 10.5833 28.0075 9.96343 28.0954C9.90991 28.1028 9.85538 28.0971 9.80336 28.0789C9.75133 28.0607 9.70295 28.0303 9.66132 27.9896C9.61969 27.949 9.58573 27.899 9.56162 27.8428C9.53751 27.7867 9.52378 27.7256 9.52132 27.6636L9.43928 25.2409C9.43619 25.1657 9.44625 25.0906 9.46885 25.0203C9.49146 24.9499 9.52615 24.8856 9.57083 24.8313C9.61552 24.7769 9.66929 24.7337 9.72892 24.7041C9.78855 24.6745 9.85281 24.6592 9.91785 24.6591H15.6197C15.6584 24.6592 15.6965 24.6677 15.7316 24.6841C15.7667 24.7006 15.7978 24.7245 15.8229 24.7543C15.848 24.784 15.8664 24.819 15.877 24.8567C15.8875 24.8943 15.8899 24.9339 15.884 24.9727C15.7382 25.8242 15.7169 26.5924 15.8202 27.2772C15.9418 28.0681 15.5969 28.303 14.7856 27.9818C14.5425 27.8848 14.4498 27.9651 14.5076 28.2227L16.4401 36.8C16.6741 37.8394 16.905 37.8363 17.1329 36.7909L18.9606 28.3863C18.9739 28.3272 18.9713 28.2657 18.9529 28.2079C18.9345 28.1502 18.901 28.0982 18.8558 28.0572C18.8106 28.0163 18.7552 27.9877 18.6952 27.9745C18.6351 27.9612 18.5726 27.9638 18.5139 27.9818C17.9487 28.1575 17.6555 28.0712 17.6342 27.7227C17.5765 26.8166 17.5476 25.8803 17.5476 24.9136C17.5476 24.8461 17.5745 24.7813 17.6224 24.7336C17.6703 24.6859 17.7352 24.6591 17.8029 24.6591H23.9012C23.9689 24.6591 24.0339 24.6859 24.0817 24.7336C24.1296 24.7813 24.1565 24.8461 24.1565 24.9136C24.1565 25.6045 24.1565 26.2742 24.1565 26.9227C24.1565 26.9409 24.1884 27.1697 24.2522 27.6091C24.316 28.0545 24.0152 28.2075 23.3498 28.0681C23.2998 28.0575 23.2482 28.0568 23.1979 28.0662C23.1476 28.0755 23.0997 28.0947 23.057 28.1226C23.0142 28.1505 22.9773 28.1865 22.9486 28.2287C22.9198 28.2708 22.8997 28.3182 22.8894 28.3681L18.76 47.9863C18.7461 48.0569 18.7117 48.1206 18.6626 48.1662C18.6135 48.2119 18.5528 48.2367 18.4911 48.2363L14.9542 48.2909C14.8892 48.2911 14.8253 48.267 14.7732 48.2224C14.721 48.1778 14.6836 48.1154 14.6671 48.0454L12.4292 38.7363C12.422 38.7055 12.4103 38.676 12.3949 38.6496C12.3794 38.6232 12.3605 38.6005 12.3393 38.5827C12.318 38.5649 12.2948 38.5524 12.2712 38.546C12.2475 38.5396 12.2237 38.5394 12.2013 38.5454Z" fill="white"/>
<path d="M27.7845 28.0501L26.326 28.091C26.2345 28.0937 26.1431 28.0784 26.0586 28.0462C25.9741 28.014 25.8986 27.9658 25.8377 27.9051C25.7769 27.8445 25.7322 27.7729 25.7071 27.6956C25.6819 27.6184 25.677 27.5376 25.6925 27.4592C25.8323 26.7652 25.8095 25.9576 25.6241 25.0364C25.6147 24.9916 25.6153 24.9453 25.626 24.9008C25.6367 24.8562 25.6572 24.8146 25.686 24.779C25.7148 24.7433 25.7511 24.7145 25.7925 24.6945C25.8338 24.6746 25.879 24.6641 25.9249 24.6637L35.5739 24.7364C35.6419 24.7376 35.7067 24.7631 35.7544 24.8073C35.8022 24.8515 35.829 24.9109 35.8291 24.9728L35.8792 27.8364C35.8792 27.8979 35.8533 27.9569 35.8071 28.0003C35.761 28.0438 35.6984 28.0682 35.6331 28.0682H33.6915C33.6514 28.0682 33.6117 28.0761 33.5746 28.0914C33.5376 28.1067 33.5039 28.1292 33.4755 28.1574C33.4472 28.1857 33.4247 28.2193 33.4093 28.2562C33.394 28.2932 33.3861 28.3328 33.3861 28.3728V44.1364C33.3865 44.2223 33.4059 44.307 33.4429 44.3844C33.48 44.4619 33.5337 44.5303 33.6004 44.5846C33.667 44.6389 33.7449 44.6778 33.8284 44.6985C33.9119 44.7193 33.999 44.7214 34.0834 44.7046C34.6668 44.5834 35.188 44.5895 35.6468 44.7228C35.7116 44.7424 35.7683 44.7826 35.8085 44.8374C35.8487 44.8923 35.8703 44.9589 35.8701 45.0273L35.8975 47.5637C35.8975 47.6674 35.8552 47.7668 35.78 47.8401C35.7048 47.9134 35.6027 47.9546 35.4964 47.9546H26.0161C25.9589 47.9547 25.9024 47.9419 25.8508 47.917C25.7992 47.8922 25.7538 47.856 25.7179 47.8111C25.682 47.7662 25.6566 47.7137 25.6436 47.6575C25.6305 47.6013 25.6301 47.5429 25.6424 47.4864C25.8125 46.7016 25.808 45.897 25.6287 45.0728C25.495 44.4576 25.7259 44.2546 26.3215 44.4637C26.8715 44.6576 27.3591 44.7001 27.7845 44.591C27.8471 44.5739 27.9024 44.5349 27.942 44.4799C27.9815 44.4249 28.003 44.3569 28.0033 44.2864V28.3228C28.0032 28.2866 27.9974 28.2507 27.9863 28.2173C27.9752 28.1839 27.959 28.1537 27.9386 28.1283C27.9183 28.1029 27.8942 28.0829 27.8677 28.0695C27.8412 28.056 27.813 28.0494 27.7845 28.0501Z" fill="white"/>
<path d="M59.507 34.3227L61.7266 34.2772C61.8051 34.2754 61.8832 34.2877 61.9562 34.3134C62.0292 34.3391 62.0957 34.3776 62.1518 34.4268C62.2079 34.4759 62.2524 34.5347 62.2827 34.5995C62.313 34.6644 62.3285 34.7341 62.3283 34.8045V37.1591C62.3277 37.3163 62.2579 37.4673 62.1336 37.5802C62.0094 37.693 61.8405 37.7588 61.6628 37.7636L59.393 37.8227C59.3344 37.8239 59.2787 37.8532 59.2378 37.9042C59.1968 37.9552 59.174 38.0239 59.1743 38.0954L59.2381 44.2545C59.2388 44.3084 59.2493 44.3616 59.2691 44.411C59.2888 44.4605 59.3174 44.5051 59.353 44.5424C59.3887 44.5797 59.4308 44.6088 59.4768 44.628C59.5228 44.6473 59.5718 44.6563 59.6209 44.6545L62.4422 44.5454C62.7184 44.5347 62.9808 44.4691 63.1726 44.3628C63.3645 44.2565 63.4705 44.118 63.4677 43.9772L63.4176 40.8409C63.417 40.7903 63.4261 40.7402 63.4444 40.6933C63.4627 40.6465 63.4898 40.6038 63.5241 40.5679C63.5584 40.532 63.5993 40.5034 63.6444 40.484C63.6895 40.4645 63.7379 40.4545 63.7868 40.4545H67.1504C67.1897 40.4545 67.2286 40.4621 67.2649 40.4768C67.3011 40.4915 67.334 40.513 67.3616 40.54C67.3891 40.5671 67.4109 40.5992 67.4255 40.6345C67.4401 40.6697 67.4473 40.7074 67.4467 40.7454L67.3783 47.7545C67.3783 47.7844 67.3723 47.8139 67.3606 47.8415C67.349 47.8691 67.3318 47.8941 67.3102 47.9152C67.2887 47.9363 67.263 47.9531 67.2348 47.9645C67.2066 47.9759 67.1764 47.9818 67.1459 47.9818L51.9911 47.9272C51.9283 47.9272 51.868 47.9028 51.8235 47.8593C51.7791 47.8159 51.7541 47.7569 51.7541 47.6954L51.7313 45.0045C51.7312 44.9151 51.754 44.8271 51.7977 44.7489C51.8414 44.6708 51.9044 44.605 51.981 44.5577C52.0576 44.5104 52.1451 44.4832 52.2354 44.4787C52.3257 44.4742 52.4157 44.4924 52.497 44.5318C52.8586 44.7045 53.2081 44.7303 53.5453 44.6091C53.6065 44.5879 53.6597 44.5459 53.6972 44.4889C53.7348 44.4319 53.755 44.3626 53.755 44.2909V28.4545C53.7554 28.3703 53.7358 28.2873 53.6977 28.2121C53.6597 28.1369 53.6042 28.0716 53.5359 28.0216C53.4676 27.9716 53.3883 27.9382 53.3044 27.9242C53.2205 27.9102 53.1344 27.9159 53.0531 27.9409C52.2296 28.1954 51.8073 28.0848 51.786 27.6091C51.7496 26.7394 51.7313 25.8409 51.7313 24.9136C51.7313 24.8461 51.7582 24.7813 51.8061 24.7336C51.8539 24.6859 51.9189 24.6591 51.9866 24.6591H67.1504C67.2314 24.6591 67.3091 24.6911 67.3664 24.7483C67.4236 24.8054 67.4558 24.8828 67.4558 24.9636V31.6772C67.4558 31.7447 67.4289 31.8095 67.3811 31.8572C67.3332 31.905 67.2683 31.9318 67.2006 31.9318H63.7412C63.6694 31.9318 63.6006 31.9027 63.5494 31.8508C63.4983 31.7989 63.4689 31.7284 63.4677 31.6545L63.4449 28.3227C63.4449 28.2913 63.4388 28.2602 63.4268 28.2312C63.4148 28.2022 63.3973 28.1759 63.3752 28.1539C63.3531 28.1319 63.327 28.1146 63.2983 28.103C63.2695 28.0914 63.2388 28.0857 63.2079 28.0863L59.4477 28.1363C59.388 28.1375 59.3312 28.1639 59.2894 28.2098C59.2476 28.2557 59.2243 28.3175 59.2244 28.3818L59.2791 34.0636C59.2792 34.098 59.2851 34.1321 59.2967 34.1638C59.3082 34.1956 59.3251 34.2243 59.3463 34.2485C59.3675 34.2726 59.3927 34.2916 59.4202 34.3043C59.4478 34.3171 59.4773 34.3233 59.507 34.3227Z" fill="white"/>
<path d="M181.032 28.1L179.546 28.0091C179.481 28.0056 179.42 27.9776 179.374 27.9304C179.329 27.8833 179.302 27.8205 179.3 27.7545L179.204 24.9681C179.203 24.9382 179.208 24.9083 179.22 24.8802C179.231 24.8521 179.248 24.8265 179.269 24.8049C179.291 24.7832 179.317 24.766 179.346 24.7542C179.375 24.7424 179.406 24.7364 179.437 24.7363L186.369 24.6636C186.416 24.6628 186.463 24.6722 186.507 24.6913C186.55 24.7103 186.589 24.7385 186.622 24.7742C186.655 24.81 186.681 24.8524 186.698 24.8991C186.714 24.9457 186.722 24.9955 186.72 25.0454L186.616 27.8091C186.613 27.867 186.588 27.9219 186.546 27.9624C186.504 28.003 186.447 28.0262 186.388 28.0272L185.184 28.0727C185.12 28.0742 185.057 28.0969 185.001 28.138C184.945 28.179 184.9 28.2368 184.87 28.3045C182.719 33.2591 181.363 36.353 180.804 37.5863C180.455 38.356 180.279 39.0848 180.276 39.7727C180.266 41.2878 180.262 42.7848 180.262 44.2636C180.262 44.3413 180.282 44.4177 180.32 44.4857C180.358 44.5537 180.412 44.6112 180.478 44.6529C180.544 44.6945 180.619 44.719 180.697 44.724C180.774 44.7291 180.852 44.7146 180.923 44.6818C181.263 44.5212 181.572 44.4894 181.848 44.5863C181.911 44.6091 181.965 44.6528 182.004 44.7114C182.042 44.77 182.063 44.8406 182.062 44.9136L182.085 47.7272C182.085 47.7875 182.061 47.8453 182.018 47.8879C181.976 47.9306 181.918 47.9545 181.857 47.9545H173.188C173.108 47.9546 173.031 47.9241 172.974 47.8696C172.917 47.8152 172.884 47.7412 172.883 47.6636L172.855 45.0909C172.854 45.0014 172.875 44.9131 172.917 44.8337C172.958 44.7542 173.019 44.6861 173.094 44.635C173.169 44.584 173.256 44.5516 173.347 44.5408C173.438 44.5299 173.531 44.5409 173.617 44.5727C174.467 44.8848 174.875 44.6288 174.838 43.8045C174.814 43.3075 174.803 43.0424 174.806 43.0091C174.827 42.0606 174.817 41.1136 174.774 40.1682C174.729 39.2682 174.514 38.3575 174.132 37.4363C172.925 34.5333 171.711 31.6318 170.49 28.7318C170.35 28.3954 170.165 28.1863 169.934 28.1045C169.67 28.0136 169.361 28.0075 169.009 28.0863C168.962 28.0971 168.914 28.0972 168.867 28.0868C168.82 28.0764 168.776 28.0557 168.739 28.0261C168.701 27.9966 168.67 27.9589 168.648 27.9159C168.626 27.8729 168.614 27.8255 168.612 27.7772L168.512 24.8954C168.511 24.8648 168.515 24.8342 168.526 24.8056C168.536 24.7769 168.552 24.7508 168.573 24.7287C168.593 24.7066 168.618 24.689 168.645 24.6771C168.672 24.6651 168.701 24.659 168.731 24.6591L177.153 24.6863C177.216 24.6862 177.276 24.7093 177.321 24.7509C177.366 24.7924 177.393 24.8491 177.395 24.9091C177.416 25.5697 177.424 26.2288 177.418 26.8863C177.418 26.9197 177.432 27.0985 177.459 27.4227C177.517 28.053 177.052 28.2409 176.064 27.9863C175.444 27.8257 175.254 28.0333 175.494 28.6091L178.143 34.8818C178.203 35.0272 178.272 35.0272 178.348 34.8818C179.432 32.7515 180.377 30.5606 181.183 28.3091C181.191 28.2862 181.194 28.2616 181.19 28.2373C181.187 28.2131 181.178 28.1898 181.163 28.1694C181.148 28.149 181.129 28.1321 181.106 28.12C181.083 28.108 181.058 28.1011 181.032 28.1Z" fill="white"/>
</g>
<defs>
<clipPath id="clip0_252_3257">
<rect width="201" height="65" fill="white"/>
</clipPath>
</defs>
</svg>
