<svg width="283" height="103" viewBox="0 0 283 103" fill="none" xmlns="http://www.w3.org/2000/svg">
<g clip-path="url(#clip0_608_187)">
<mask id="mask0_608_187" style="mask-type:luminance" maskUnits="userSpaceOnUse" x="45" y="25" width="193" height="63">
<path d="M238 25.2935H45V87.7064H238V25.2935Z" fill="white"/>
</mask>
<g mask="url(#mask0_608_187)">
<path d="M163.552 77.7291C158.844 83.1732 152.878 86.3536 145.657 87.2701C139.638 88.0353 133.993 86.9485 128.72 84.0097C126.135 82.5665 123.841 80.7887 121.836 78.6763C117.544 74.1575 115.091 68.6931 114.475 62.2831C114.189 59.321 114.547 56.2018 115.547 52.9255C118.036 44.7522 123.148 38.8717 130.882 35.284C130.946 35.2555 131.003 35.2136 131.048 35.1614C131.093 35.1093 131.124 35.0482 131.141 34.9829L133.084 26.9914C133.094 26.949 133.112 26.9091 133.138 26.874C133.164 26.8389 133.197 26.8093 133.234 26.7869C133.272 26.7646 133.314 26.7499 133.357 26.7438C133.4 26.7377 133.444 26.7402 133.486 26.7513L140.379 28.615C140.614 28.6769 140.873 28.6507 141.11 28.5408L147.582 25.5118C147.622 25.4931 147.664 25.4834 147.707 25.4834C147.75 25.4834 147.794 25.493 147.834 25.5116C147.874 25.5302 147.911 25.5573 147.941 25.5912C147.97 25.6252 147.993 25.665 148.008 25.7082L150.751 34.0139C150.77 34.0748 150.806 34.1312 150.856 34.1782C150.906 34.2253 150.967 34.2618 151.036 34.2845C155.9 35.9053 159.914 38.5007 163.08 42.0709C168.197 47.8379 170.559 54.4298 170.165 61.8466C169.853 67.698 167.649 72.9922 163.552 77.7291ZM149.522 48.0503L151.172 46.7279C151.224 46.6858 151.268 46.6301 151.297 46.5651C151.327 46.5001 151.343 46.4274 151.343 46.3525L151.324 42.6688C151.324 42.5908 151.304 42.5164 151.268 42.4589C151.23 42.4014 151.179 42.3644 151.124 42.3545L150.69 42.2891C150.442 42.2483 150.306 42.2193 150.283 42.2018C149.947 41.9778 149.896 41.7479 150.13 41.5123C150.229 41.4133 150.4 41.3217 150.642 41.2373C151.736 40.8473 152.813 40.4138 153.872 39.9366C154.431 39.6863 154.456 39.5089 153.946 39.4041C153.832 39.3809 153.703 39.3765 153.557 39.3911C152.413 39.5103 151.265 39.5831 150.113 39.6092C150.05 39.6109 149.99 39.5919 149.939 39.5549C149.887 39.5179 149.848 39.4651 149.828 39.4041L146.55 29.4966C146.535 29.45 146.51 29.4071 146.476 29.3709C146.444 29.3346 146.403 29.3058 146.358 29.2864C146.313 29.267 146.264 29.2574 146.215 29.2583C146.166 29.2592 146.117 29.2705 146.073 29.2915L141.193 31.596C140.88 31.7451 140.521 31.7761 140.182 31.6833L135.018 30.2735C134.979 30.2628 134.938 30.2603 134.898 30.2662C134.858 30.2721 134.819 30.2864 134.785 30.308C134.75 30.3297 134.72 30.3583 134.696 30.3921C134.672 30.426 134.655 30.4643 134.646 30.5048L132.344 40.6481C132.331 40.7117 132.296 40.7694 132.245 40.8119C132.195 40.8545 132.131 40.8798 132.064 40.8837L127.968 41.1368C127.924 41.1396 127.883 41.1485 127.848 41.1628C127.814 41.1771 127.786 41.1966 127.766 41.2198C127.74 41.2547 127.723 41.2926 127.714 41.3333C127.704 41.3809 127.722 41.433 127.763 41.4792C127.805 41.5254 127.867 41.5621 127.937 41.5821C129.317 41.9924 130.696 42.4011 132.073 42.8085C132.863 43.0413 132.789 43.2085 131.85 43.3104C131.763 43.3201 131.683 43.364 131.627 43.433C131.57 43.5021 131.542 43.591 131.548 43.6813L131.806 47.1163C131.814 47.2349 131.853 47.3485 131.92 47.4448C131.986 47.541 132.077 47.6161 132.182 47.6619C132.929 47.9965 133.604 48.4634 134.208 49.0629C134.255 49.1082 134.292 49.1647 134.316 49.2286C134.34 49.2926 134.351 49.3625 134.349 49.4339C134.331 50.0274 134.445 50.4639 134.69 50.7432C135.944 52.1835 137.252 53.7198 138.611 55.3522C138.656 55.4067 138.712 55.4503 138.776 55.4798C138.84 55.5093 138.909 55.5239 138.979 55.5224L143.981 55.4132C144.185 55.4091 144.387 55.3609 144.57 55.272C144.754 55.1831 144.916 55.0556 145.045 54.8983C146.185 53.5016 147.357 52.1996 148.559 50.992C149.174 50.3781 149.407 49.6012 149.255 48.6613C149.238 48.554 149.253 48.4407 149.3 48.3332C149.347 48.2258 149.423 48.1281 149.522 48.0503ZM142.764 76.9436C142.674 77.3451 142.569 77.348 142.449 76.9522C140.214 69.4657 137.959 62.1114 135.683 54.8896C135.214 53.3968 134.562 51.8721 133.727 50.3155C133.693 50.251 133.635 50.2018 133.565 50.1776C133.496 50.1533 133.419 50.1558 133.351 50.1846L123.81 54.261C123.483 54.4007 123.482 54.5346 123.806 54.6626L127.832 56.2862C128.132 56.4055 128.13 56.5117 127.823 56.6048L121.491 58.5339C121.401 58.5619 121.32 58.612 121.256 58.6792C121.192 58.7464 121.146 58.8286 121.123 58.918L118.602 68.76C118.474 69.2547 118.534 69.7334 118.782 70.196C121.402 75.0959 125.024 78.8305 129.648 81.3998C132.227 82.8342 134.969 83.7842 137.872 84.2498C140.845 84.7241 143.814 84.7052 146.778 84.193C149.672 83.6926 152.402 82.7077 154.965 81.2383C159.847 78.4421 163.634 74.3379 166.327 68.9259C166.432 68.7145 166.458 68.4661 166.401 68.2232L163.705 56.7488C163.684 56.6519 163.634 56.5637 163.562 56.4953C163.49 56.4269 163.4 56.3815 163.303 56.3647L156.852 55.2824C156.406 55.2067 156.381 55.0554 156.777 54.8284L158.935 53.602C159.35 53.3692 159.319 53.1757 158.844 53.0215L155.027 51.8038C154.872 51.7572 154.731 51.7441 154.602 51.7645L148.542 52.7422C148.424 52.7613 148.314 52.8151 148.228 52.8969C148.141 52.9786 148.081 53.0843 148.056 53.2005L142.764 76.9436ZM140.817 56.583L139.937 57.8443C139.845 57.9793 139.788 58.1293 139.773 58.2768C139.758 58.4242 139.784 58.5634 139.85 58.6779L140.931 60.5809C141.012 60.7209 141.048 60.8612 141.031 60.9737C140.853 62.254 140.639 63.5269 140.388 64.7927C140.257 65.4589 140.273 66.1107 140.436 66.748C141.008 68.9739 141.571 71.1998 142.126 73.4257C142.323 74.2288 142.516 74.2259 142.703 73.417L144.405 65.9842C144.437 65.8471 144.429 65.7035 144.384 65.5696L142.878 60.9606C142.858 60.9013 142.852 60.8359 142.86 60.7684C142.868 60.701 142.889 60.6327 142.922 60.5678L144.008 58.4204C144.04 58.356 144.056 58.2851 144.052 58.2158C144.048 58.1465 144.025 58.0814 143.985 58.0277L142.511 56.0374C142.058 55.4234 141.494 55.6053 140.817 56.583Z" fill="white"/>
<path d="M46.2296 41.796C45.4972 42.4041 45.6796 42.8231 46.7766 43.053C47.4652 43.1956 48.0006 43.5419 48.3828 44.0918C48.4646 44.2099 48.4989 44.3562 48.479 44.5021C48.3623 45.2934 47.9407 45.7532 47.2143 45.8812C46.7591 45.9627 46.3784 45.9875 46.072 45.9554C45.5527 45.906 45.2682 45.5656 45.2186 44.9341C45.1778 44.3959 45.3236 44.3231 45.6563 44.7159C46.2806 45.455 46.924 45.5074 47.5863 44.873C47.6349 44.8261 47.6681 44.7661 47.6814 44.7013C47.6948 44.6365 47.6875 44.5699 47.6607 44.5108C47.4856 44.1064 47.1544 43.875 46.6672 43.8168C45.8299 43.715 45.3835 43.36 45.328 42.7519C45.2259 41.5938 45.6971 40.9973 46.7416 40.9624C47.1968 40.9449 47.5119 40.9522 47.6869 40.9842C48.1304 41.0598 48.3302 41.3727 48.2865 41.9226C48.2602 42.2804 48.1114 42.3416 47.8401 42.1059C47.1982 41.5444 46.6614 41.441 46.2296 41.796Z" fill="#FAF8FA" fill-opacity="0.992"/>
<path d="M56.1594 41.7174C56.0741 41.6535 55.9689 41.6219 55.8629 41.6282C55.7569 41.6346 55.6572 41.6787 55.5816 41.7524C54.9922 42.3226 54.6757 42.2717 54.632 41.5996C54.628 41.5399 54.6347 41.48 54.6513 41.4236C54.668 41.3672 54.6944 41.3153 54.729 41.271C54.7637 41.2267 54.8059 41.1908 54.8531 41.1656C54.9002 41.1403 54.9515 41.1261 55.0039 41.1238L57.9756 41.0103C58.0509 41.0068 58.1261 41.0204 58.1962 41.0504C58.2664 41.0804 58.33 41.1261 58.3828 41.1845C58.4356 41.243 58.4765 41.3129 58.5029 41.3896C58.5292 41.4664 58.5404 41.5483 58.5357 41.6301C58.4978 42.3023 58.26 42.3779 57.8223 41.8571C57.5014 41.473 57.2359 41.4511 57.0258 41.7916C56.9581 41.8984 56.9332 42.0446 56.9558 42.2019C57.0521 42.9642 57.0885 43.7295 57.0652 44.4977C57.0506 44.9603 57.2039 45.3487 57.5248 45.663C57.6473 45.7822 57.6312 45.8419 57.4766 45.8419L55.8574 45.8201C55.6648 45.8172 55.6327 45.7444 55.7611 45.6019L56.0193 45.3182C56.1313 45.1952 56.1989 45.0681 56.2075 44.9646C56.2746 44.2954 56.2993 43.6247 56.2819 42.9526C56.2789 42.8391 56.2965 42.634 56.3344 42.3372C56.3723 42.0433 56.3139 41.8368 56.1594 41.7174Z" fill="#ECE7E6" fill-opacity="0.996"/>
<path d="M76.3392 44.1832C76.1992 44.5905 76.2764 44.9673 76.5711 45.3136C77.0555 45.8839 76.6747 46.0512 75.4289 45.8155C75.4004 45.8099 75.3733 45.7985 75.3494 45.7821C75.3254 45.7657 75.305 45.7447 75.2895 45.7202C75.2739 45.6957 75.2634 45.6683 75.2588 45.6396C75.2542 45.611 75.2556 45.5817 75.2626 45.5536C75.6769 43.9737 75.6521 42.4984 75.1883 41.128C75.1807 41.1045 75.1787 41.0797 75.1826 41.0553C75.1865 41.031 75.1961 41.0078 75.2105 40.9879C75.225 40.9679 75.244 40.9517 75.266 40.9403C75.288 40.9291 75.3123 40.923 75.337 40.9229C76.8863 40.9229 77.8243 41.0233 78.151 41.2241C78.9913 41.739 79.0773 42.4461 78.4092 43.3451C78.3034 43.4881 78.2414 43.6586 78.2305 43.8359C78.2196 44.0133 78.2604 44.1899 78.348 44.3447C78.6252 44.8335 78.8907 45.1711 79.1445 45.3572C79.5471 45.6569 79.5004 45.8388 79.0045 45.9028C78.5843 45.9581 78.1963 45.9392 77.8403 45.8461C77.8142 45.8388 77.7901 45.8257 77.7695 45.808C77.7489 45.7902 77.7322 45.768 77.7207 45.7429C77.7091 45.7178 77.7028 45.6902 77.7023 45.6621C77.7019 45.6341 77.7071 45.606 77.7178 45.5798C78.0883 44.6021 77.7309 44.0726 76.6455 43.9912C76.579 43.9865 76.5131 44.0027 76.4578 44.0374C76.4025 44.072 76.3608 44.1232 76.3392 44.1832ZM77.6302 43.2143C78.3801 42.1493 78.1146 41.5964 76.8337 41.5557C76.7659 41.5529 76.6986 41.5675 76.6387 41.5982C76.5788 41.6288 76.5283 41.6744 76.4924 41.7303C76.1247 42.3151 76.1671 42.9102 76.6193 43.5154C76.6668 43.5796 76.734 43.6232 76.8156 43.6428C76.8973 43.6624 76.991 43.6573 77.0894 43.628C77.1877 43.5987 77.2879 43.546 77.3818 43.4742C77.4757 43.4023 77.5609 43.3133 77.6302 43.2143Z" fill="#FAF8FA" fill-opacity="0.992"/>
<path d="M97.4252 45.3749C97.822 45.4768 98.1488 45.3037 98.4056 44.8556C98.5369 44.6198 98.6069 44.2939 98.6156 43.8779C98.6244 43.4676 98.6405 43.0574 98.6638 42.6471C98.7017 42.0681 98.604 41.6796 98.3705 41.4817C98.1138 41.2664 98.1517 41.1326 98.4843 41.0802C99.523 40.9114 99.8643 41.0846 99.5084 41.5996C99.4264 41.7211 99.3862 41.8564 99.3946 41.9837C99.4471 42.746 99.4165 43.4997 99.3027 44.2445C99.1948 44.9691 98.919 45.4637 98.4756 45.7285C97.9359 46.0514 97.2881 46.0762 96.5324 45.8026C95.9956 45.6106 95.7023 45.2032 95.6528 44.5806L95.3859 41.2548C95.383 41.2213 95.3858 41.1875 95.394 41.1556C95.4023 41.1238 95.4157 41.0947 95.4336 41.0704C95.4514 41.046 95.4731 41.0268 95.4974 41.0142C95.5216 41.0016 95.5478 40.9958 95.574 40.9973L96.585 41.0715C96.6118 41.0734 96.6375 41.0821 96.6601 41.0968C96.6828 41.1115 96.7018 41.1317 96.7155 41.1559C96.7291 41.1801 96.7371 41.2077 96.7387 41.2362C96.7403 41.2648 96.7357 41.2935 96.7251 41.3203C96.4187 42.1088 96.353 43.1243 96.5281 44.3667C96.601 44.9021 96.9001 45.2382 97.4252 45.3749Z" fill="#FAF8FA" fill-opacity="0.992"/>
<path d="M86.3704 41.6081C86.0728 41.7041 85.8628 41.8249 85.7402 41.9704C85.393 42.3806 85.2253 42.318 85.2369 41.7826C85.2486 41.2036 85.5141 40.9345 86.0335 40.9752C86.296 40.9956 86.439 41.0057 86.4623 41.0057C87.1217 41.0057 87.7811 41.0057 88.4405 41.0057C88.595 41.0057 88.7343 41.0541 88.83 41.141C89.1246 41.403 89.1728 41.6925 88.9744 42.0096C88.9499 42.049 88.9163 42.0819 88.8763 42.1056C88.8364 42.1292 88.7913 42.1429 88.7449 42.1455C88.6985 42.1481 88.6522 42.1394 88.6099 42.1203C88.5675 42.1012 88.5305 42.0722 88.5018 42.0358C88.0903 41.5208 87.7723 41.4408 87.5477 41.7958C87.4832 41.8962 87.4612 42.0419 87.4864 42.2017C87.5885 42.932 87.6017 43.6638 87.5258 44.3971C87.4762 44.8742 87.5929 45.235 87.8759 45.4794C88.226 45.7878 88.159 45.9334 87.6746 45.9159L86.3836 45.8722C86.3559 45.8713 86.3285 45.8648 86.3036 45.8537C86.2786 45.8425 86.2568 45.8267 86.2398 45.8077C86.2228 45.7886 86.2112 45.7668 86.2057 45.7439C86.2004 45.7211 86.2012 45.6978 86.2085 45.6759C86.2552 45.5449 86.3412 45.4344 86.4667 45.3441C86.5305 45.2971 86.5842 45.2442 86.6249 45.1887C86.6654 45.1333 86.692 45.0763 86.703 45.0212C86.9102 43.93 86.8854 42.8447 86.6286 41.7652C86.6223 41.737 86.6104 41.7103 86.5937 41.6868C86.5769 41.6634 86.5558 41.6437 86.5315 41.6289C86.5073 41.6141 86.4804 41.6047 86.4527 41.6011C86.425 41.5975 86.397 41.5999 86.3704 41.6081Z" fill="#FAF8FA" fill-opacity="0.992"/>
<path d="M107.818 45.5582C107.932 45.6804 107.907 45.759 107.744 45.7939C106.577 46.0325 106.071 45.9554 106.225 45.5626C106.336 45.2746 106.393 45.1175 106.396 45.0912C106.618 43.7964 106.567 42.5132 106.243 41.2417C106.236 41.2166 106.235 41.1902 106.24 41.1646C106.245 41.1391 106.256 41.115 106.272 41.094C106.287 41.0731 106.307 41.0559 106.33 41.0437C106.353 41.0315 106.379 41.0246 106.405 41.0235C107.015 41.0002 107.626 40.9988 108.239 41.0191C109.105 41.0482 109.651 41.3901 109.875 42.0448C110.039 42.5249 109.96 42.9715 109.639 43.3847C109.423 43.6611 109.149 43.8721 108.816 44.0176C108.708 44.0641 108.386 44.1194 107.849 44.1834C107.064 44.2794 107.054 44.7377 107.818 45.5582ZM109.08 42.2573C109.083 42.086 109.017 41.9206 108.898 41.7973C108.779 41.6741 108.615 41.6031 108.444 41.6002L107.892 41.5906C107.807 41.5891 107.723 41.6043 107.644 41.6354C107.564 41.6665 107.492 41.7129 107.431 41.7717C107.37 41.8307 107.321 41.9011 107.287 41.9789C107.253 42.0566 107.235 42.1404 107.233 42.2252L107.222 42.8623C107.219 43.0336 107.284 43.1991 107.404 43.3223C107.523 43.4456 107.687 43.5164 107.858 43.5194L108.41 43.529C108.495 43.5305 108.579 43.5153 108.658 43.4842C108.738 43.4531 108.81 43.4068 108.871 43.3478C108.932 43.2889 108.981 43.2186 109.015 43.1407C109.049 43.0629 109.067 42.9793 109.069 42.8944L109.08 42.2573Z" fill="#FAF8FA" fill-opacity="0.992"/>
<path d="M67.1884 44.5848C66.6312 44.4772 66.0929 44.5354 65.5735 44.7595C65.5207 44.7824 65.4786 44.8257 65.4553 44.8811C65.4319 44.9366 65.4288 45.0004 65.4466 45.0606C65.6975 45.9277 65.3401 46.1925 64.3744 45.855C64.3493 45.8465 64.3266 45.8326 64.3078 45.8141C64.2889 45.7956 64.2743 45.7731 64.2651 45.748C64.2559 45.723 64.2523 45.6962 64.2546 45.6694C64.2568 45.6426 64.2649 45.6166 64.2781 45.593C65.0075 44.2634 65.4335 42.842 65.556 41.3289C65.5613 41.2658 65.5872 41.2065 65.6296 41.1611C65.6718 41.1158 65.7278 41.0872 65.7879 41.0801C66.6224 40.9754 67.133 41.3508 67.3197 42.2062C67.5677 43.341 68.0404 44.4802 68.7377 45.6237C68.8368 45.7866 68.8062 45.8666 68.6458 45.8637L67.2322 45.8375C67.0396 45.8346 67.0177 45.7633 67.1666 45.6237C67.4554 45.353 67.5633 45.0883 67.4904 44.8293C67.4749 44.7705 67.4382 44.7163 67.3847 44.673C67.3312 44.6297 67.2631 44.5991 67.1884 44.5848ZM66.2475 43.9913C66.9477 44.1688 67.1826 43.8996 66.9521 43.1839C66.4677 41.6796 66.1337 41.8061 65.9499 43.5636C65.9404 43.6591 65.9652 43.7548 66.0198 43.8333C66.0744 43.9117 66.1552 43.9678 66.2475 43.9913Z" fill="#FAF8FA" fill-opacity="0.992"/>
<path d="M66.2479 43.9912C66.1555 43.9678 66.0747 43.9117 66.0202 43.8332C65.9656 43.7547 65.9408 43.6591 65.9502 43.5634C66.1341 41.806 66.4681 41.6794 66.9525 43.1838C67.1829 43.8995 66.948 44.1686 66.2479 43.9912Z" fill="#B72025"/>
<path d="M184.272 50.3155C184.335 50.2574 184.247 50.0013 184.005 49.5474C183.973 49.4877 183.957 49.4209 183.959 49.3535C183.96 49.286 183.98 49.2202 184.014 49.1623C184.05 49.1044 184.099 49.0564 184.157 49.023C184.216 48.9895 184.282 48.9717 184.35 48.9713H187.326C187.387 48.9711 187.447 48.9941 187.492 49.0355C187.536 49.0769 187.563 49.1335 187.567 49.1938C187.719 51.5652 187.71 53.9265 187.54 56.2775C187.536 56.3381 187.508 56.3948 187.464 56.436C187.419 56.4773 187.361 56.5003 187.3 56.5001H184.337C184.266 56.5001 184.198 56.4722 184.147 56.4224C184.096 56.3726 184.067 56.3049 184.065 56.2338C184.045 55.3261 183.905 54.4967 183.646 53.746C183.246 52.588 182.509 52.0875 181.435 52.2447C180.592 52.3698 180.125 52.9517 180.035 53.9905C179.868 55.8847 179.825 58.9763 179.904 63.2651C179.927 64.5686 180.017 65.6365 180.174 66.4687C180.292 67.0914 180.558 67.5467 180.976 67.8348C181.6 68.2654 182.211 68.2407 182.809 67.7606C183.183 67.4609 183.458 67.0012 183.637 66.3814C183.794 65.8256 183.895 65.2845 183.938 64.7578C183.945 64.6806 183.933 64.603 183.903 64.5314C183.873 64.4598 183.827 64.3961 183.768 64.3455C183.71 64.295 183.64 64.2589 183.565 64.2403C183.489 64.2217 183.41 64.2211 183.334 64.2384C182.582 64.4071 182.224 64.1919 182.263 63.5925C182.286 63.1792 182.297 62.9611 182.297 62.9377C182.28 62.3442 182.303 61.7521 182.368 61.1614C182.375 61.0994 182.404 61.0423 182.449 61.0005C182.494 60.9588 182.552 60.9353 182.612 60.9345L188.621 60.8777C188.713 60.8766 188.803 60.9132 188.869 60.9793C188.935 61.0455 188.974 61.136 188.976 61.2313C189.002 62.8636 188.857 64.3766 188.538 65.7703C188.162 67.4056 187.492 68.7325 186.529 69.7508C185.003 71.3686 183.113 71.9825 180.858 71.5927C179.174 71.2988 177.774 70.5233 176.656 69.2663C175.541 68.0064 174.819 66.4817 174.49 64.6923C173.973 61.8903 173.991 58.7958 174.543 55.4089C174.849 53.5206 175.529 51.9377 176.582 50.6604C177.566 49.4703 178.626 48.8185 179.763 48.705C181.047 48.577 182.34 49.1139 183.641 50.3155C183.727 50.3937 183.839 50.4371 183.956 50.4371C184.073 50.4371 184.185 50.3937 184.272 50.3155Z" fill="white"/>
<path d="M84.5633 70.1527C84.4728 70.4669 84.451 70.7942 84.4977 71.1347C84.5036 71.177 84.4993 71.2202 84.4851 71.261C84.4709 71.3019 84.4471 71.3395 84.4154 71.3711C84.3837 71.4027 84.3448 71.4276 84.3016 71.4441C84.2583 71.4606 84.2117 71.4682 84.1651 71.4663L81.548 71.3616C81.4572 71.3572 81.3718 71.3207 81.3091 71.2598C81.2464 71.1988 81.2112 71.1182 81.2109 71.0342L81.246 64.4962C81.2476 64.4325 81.2696 64.3717 81.308 64.3247C81.3464 64.2775 81.3988 64.2471 81.4561 64.2387C82.3897 64.0815 83.3234 64.0801 84.257 64.2343C84.3146 64.2437 84.3666 64.2757 84.403 64.3241C84.4394 64.3724 84.4576 64.4337 84.4539 64.4962C84.4014 65.3021 84.5006 66.0776 84.7515 66.8225C84.947 67.4103 85.284 67.8307 85.7625 68.0838C86.4626 68.4563 87.071 68.3981 87.5874 67.9093C88.0659 67.4554 88.2979 66.824 88.2833 66.0151C88.2658 65.1741 88.0163 64.4118 87.5349 63.728C86.9572 62.9134 86.1563 62.039 85.1323 61.1049C84.1373 60.2 83.2241 59.2195 82.3926 58.1633C81.6107 57.1768 81.1716 56.0042 81.0754 54.6455C80.9761 53.2982 81.2036 52.1183 81.7581 51.1058C82.4641 49.811 83.5962 49.0268 85.1541 48.7533C86.4117 48.5322 87.5422 48.9279 88.5459 49.9405C88.7763 50.1732 88.9499 50.2736 89.0666 50.2416C89.2562 50.195 89.3263 49.8982 89.2767 49.3512C89.2725 49.3062 89.2772 49.2608 89.2906 49.2178C89.3041 49.1749 89.326 49.1356 89.3549 49.1021C89.3838 49.0688 89.419 49.0423 89.4583 49.0244C89.4976 49.0063 89.5401 48.9973 89.5831 48.9977L92.1826 49.0283C92.2438 49.0295 92.3022 49.0551 92.3455 49.0998C92.3887 49.1447 92.4135 49.205 92.4146 49.2684L92.4627 55.383C92.4633 55.4121 92.4581 55.4409 92.4474 55.4679C92.4366 55.4949 92.4206 55.5194 92.4002 55.5402C92.3799 55.5609 92.3555 55.5773 92.3287 55.5886C92.3018 55.5998 92.273 55.6057 92.2439 55.6057L89.7318 55.623C89.6556 55.6234 89.5801 55.6077 89.5102 55.577C89.4403 55.5463 89.3774 55.5012 89.3257 55.4445C89.2738 55.388 89.2342 55.3211 89.2092 55.2482C89.1841 55.1752 89.1743 55.0978 89.1804 55.0208C89.2884 53.6532 88.8887 52.7163 87.9813 52.21C87.459 51.9191 86.9616 51.9161 86.489 52.2013C85.958 52.5213 85.6953 53.0451 85.7012 53.7726C85.707 54.721 86.0994 55.53 86.8784 56.1992C87.4736 56.7142 88.4918 57.7108 89.9332 59.1889C91.2344 60.5245 92.079 61.6578 92.4672 62.5889C93.1148 64.1456 93.2053 65.7241 92.7385 67.3244C92.2483 69.0149 91.3511 70.2355 90.047 70.9862C88.4014 71.9377 86.6523 71.6395 84.7997 70.0915C84.7807 70.0753 84.758 70.0637 84.7337 70.0579C84.7094 70.0521 84.6843 70.0522 84.6607 70.0583C84.6371 70.0644 84.6158 70.0763 84.5988 70.0928C84.5818 70.1093 84.5695 70.1298 84.5633 70.1527Z" fill="white"/>
<path d="M233.957 50.0404L234.026 49.268C234.033 49.2033 234.059 49.1433 234.101 49.0991C234.143 49.0549 234.198 49.0296 234.253 49.0279L236.893 48.993C236.937 48.9924 236.981 49.0012 237.023 49.019C237.065 49.0367 237.102 49.063 237.134 49.0963C237.166 49.1295 237.191 49.1692 237.208 49.2129C237.225 49.2566 237.234 49.3035 237.234 49.3509V55.4743C237.234 55.5241 237.214 55.5719 237.176 55.607C237.14 55.6422 237.09 55.662 237.037 55.662L234.477 55.6315C234.398 55.6304 234.322 55.6135 234.25 55.582C234.179 55.5505 234.114 55.5049 234.062 55.4483C234.01 55.3916 233.97 55.3251 233.946 55.2529C233.922 55.1808 233.914 55.1045 233.921 55.0292C233.994 54.3658 233.936 53.7852 233.746 53.2877C233.536 52.732 233.151 52.342 232.591 52.118C231.94 51.8532 231.379 51.9711 230.906 52.4716C230.55 52.8469 230.395 53.3256 230.442 53.9075C230.53 54.9783 231.034 55.8875 231.957 56.6353C233.086 57.5548 234.3 58.7754 235.602 60.2972C237.688 62.7413 238.23 65.2917 237.225 67.9483C236.63 69.5165 235.7 70.5844 234.433 71.1518C232.864 71.8559 231.264 71.5301 229.637 70.1741C229.573 70.1225 229.503 70.0863 229.436 70.07C229.368 70.0537 229.306 70.058 229.256 70.0825C229.095 70.1639 229.092 70.3283 229.247 70.5756C229.612 71.1576 229.475 71.4398 228.836 71.4224L226.188 71.3482C226.128 71.3471 226.072 71.3245 226.03 71.2853C225.988 71.2462 225.965 71.1935 225.965 71.1387V64.6006C225.965 64.5315 225.987 64.465 226.028 64.4154C226.069 64.3657 226.124 64.3367 226.184 64.3344L228.845 64.186C228.9 64.184 228.955 64.209 228.998 64.2561C229.041 64.3031 229.069 64.3685 229.077 64.4391C229.132 65.0268 229.212 65.6117 229.317 66.1937C229.443 66.8833 229.674 67.4084 230.013 67.7693C230.643 68.4385 231.34 68.5214 232.105 68.0181C232.662 67.6515 232.988 67.1305 233.081 66.4555C233.177 65.7602 233.058 65.1054 232.722 64.4914C232.121 63.4004 231.227 62.3645 230.039 61.3839C229.701 61.1017 229.134 60.5285 228.337 59.6643C227.634 58.8991 227.137 58.2662 226.849 57.7657C226.067 56.4214 225.742 54.9928 225.873 53.4798C226.004 51.9522 226.611 50.7199 227.693 49.783C229.429 48.2845 231.449 48.3965 233.75 50.1191C233.873 50.2121 233.941 50.186 233.957 50.0404Z" fill="white"/>
<path d="M203.671 52.6029C203.645 56.3186 203.634 60.0343 203.641 63.75C203.644 66.165 203.426 67.8468 202.988 68.7953C202.008 70.9253 200.075 71.8825 197.19 71.6672C193.627 71.3995 191.827 69.3991 191.789 65.666C191.742 61.3392 191.716 57.0111 191.711 52.6815C191.711 52.2537 191.372 52.1316 190.696 52.3149C190.617 52.3357 190.535 52.3392 190.457 52.325C190.377 52.3107 190.303 52.2792 190.239 52.2327C190.175 52.1862 190.123 52.1261 190.088 52.0572C190.052 51.9881 190.034 51.912 190.034 51.8348L190.043 49.2684C190.043 49.2078 190.067 49.1496 190.11 49.1064C190.152 49.0631 190.21 49.0382 190.27 49.037L197.343 48.9629C197.42 48.9619 197.494 48.9929 197.55 49.0491C197.605 49.1055 197.638 49.1827 197.641 49.264C197.661 50.1718 197.61 50.988 197.487 51.7125C197.263 53.0161 197.143 53.8177 197.128 54.1174C196.939 58.2346 196.85 62.4261 196.861 66.6916C196.865 67.5151 197.247 68.0868 198.009 68.4069C198.883 68.7706 199.547 68.6019 199.999 67.9006C200.239 67.5282 200.37 66.9564 200.394 66.1853C200.563 60.6802 200.327 55.1387 199.684 49.5608C199.676 49.4866 199.684 49.4116 199.707 49.3407C199.73 49.2696 199.768 49.2042 199.818 49.1487C199.868 49.0931 199.929 49.0487 199.997 49.0181C200.065 48.9877 200.139 48.9717 200.214 48.9716H205.216C205.254 48.9716 205.292 48.979 205.326 48.9935C205.362 49.008 205.394 49.0293 205.42 49.056C205.447 49.0827 205.468 49.1144 205.483 49.1494C205.497 49.1843 205.505 49.2218 205.505 49.2596V52.0311C205.505 52.0914 205.476 52.1494 205.427 52.1932C205.377 52.2371 205.31 52.2634 205.238 52.2669L203.881 52.3192C203.826 52.3215 203.772 52.3523 203.732 52.4051C203.694 52.4579 203.672 52.5288 203.671 52.6029Z" fill="white"/>
<path d="M56.7155 62.3048C56.6396 62.3252 56.5915 62.3819 56.5711 62.475C55.9584 65.3556 55.3282 68.3308 54.6804 71.4006C54.6646 71.4711 54.6265 71.5341 54.5724 71.5793C54.5183 71.6245 54.4515 71.6492 54.3829 71.6493H51.0087C50.9304 71.649 50.8542 71.6203 50.7928 71.5678C50.7315 71.5154 50.6887 71.4424 50.6717 71.3612C49.3529 65.3615 48.005 59.3369 46.6279 53.2877C46.6249 53.2673 46.6016 53.0592 46.5578 52.6635C46.5082 52.1806 46.1873 52.0583 45.595 52.2969C45.5536 52.3131 45.5088 52.3188 45.4646 52.3137C45.4203 52.3086 45.3779 52.2926 45.3409 52.2674C45.3039 52.242 45.2735 52.2081 45.2522 52.1684C45.2309 52.1287 45.2194 52.0844 45.2187 52.0394L45.1836 49.1981C45.1831 49.1685 45.1882 49.139 45.1987 49.1116C45.2092 49.084 45.2249 49.059 45.2449 49.0378C45.2648 49.0167 45.2887 48.9999 45.315 48.9885C45.3413 48.977 45.3695 48.9711 45.3981 48.9712H52.1334C52.1604 48.9712 52.1871 48.9771 52.2121 48.9884C52.2371 48.9998 52.2597 49.0165 52.2788 49.0376C52.2979 49.0587 52.3131 49.0837 52.3234 49.1113C52.3338 49.1387 52.3391 49.1683 52.3391 49.1981L52.3303 51.9084C52.3299 51.9699 52.3162 52.0308 52.2904 52.0862C52.2646 52.1415 52.2272 52.19 52.1814 52.2276C52.1356 52.2653 52.0825 52.2912 52.0263 52.3032C51.9701 52.3152 51.9124 52.3131 51.8577 52.2969C51.3092 52.1369 51.0801 52.2548 51.1706 52.6505C51.8154 55.4612 52.4354 58.1774 53.0306 60.799C53.2173 61.6196 53.3938 61.6167 53.5601 60.7904C54.0707 58.2269 54.5944 55.6678 55.1312 53.1131C55.1371 53.084 55.1823 52.9458 55.2669 52.6985C55.3953 52.3289 55.1619 52.1863 54.5667 52.2707C54.5153 52.2778 54.4629 52.2724 54.413 52.2549C54.363 52.2374 54.3166 52.2082 54.2766 52.1691C54.2366 52.1302 54.204 52.0821 54.1809 52.0282C54.1577 51.9743 54.1445 51.9156 54.1422 51.8561L54.0634 49.5298C54.0604 49.4576 54.0701 49.3855 54.0918 49.318C54.1135 49.2504 54.1468 49.1887 54.1897 49.1365C54.2326 49.0843 54.2842 49.0428 54.3415 49.0144C54.3988 48.986 54.4605 48.9713 54.5229 48.9712H59.9978C60.035 48.9713 60.0716 48.9794 60.1053 48.9952C60.139 49.011 60.1688 49.034 60.1929 49.0626C60.217 49.0911 60.2347 49.1247 60.2449 49.1609C60.255 49.197 60.2573 49.2351 60.2516 49.2723C60.1116 50.0899 60.0912 50.8275 60.1903 51.4851C60.3071 52.2445 59.9759 52.4701 59.1969 52.1616C58.9635 52.0685 58.8745 52.1456 58.93 52.393L60.7856 60.6289C61.0103 61.6269 61.232 61.6239 61.4508 60.6201L63.2058 52.55C63.2185 52.4933 63.216 52.4342 63.1984 52.3787C63.1807 52.3233 63.1485 52.2734 63.1051 52.234C63.0617 52.1948 63.0085 52.1673 62.9509 52.1546C62.8932 52.1419 62.8332 52.1444 62.7768 52.1616C62.2341 52.3304 61.9526 52.2475 61.9321 51.9129C61.8767 51.0428 61.849 50.1438 61.849 49.2156C61.849 49.1508 61.8748 49.0885 61.9208 49.0427C61.9668 48.9969 62.0291 48.9712 62.0941 48.9712H67.9497C68.0147 48.9712 68.0771 48.9969 68.123 49.0427C68.169 49.0885 68.1949 49.1508 68.1949 49.2156C68.1949 49.879 68.1949 50.522 68.1949 51.1447C68.1949 51.1622 68.2255 51.3819 68.2867 51.8038C68.348 52.2315 68.0592 52.3784 67.4203 52.2445C67.3723 52.2343 67.3227 52.2337 67.2744 52.2427C67.2261 52.2516 67.1801 52.2701 67.1391 52.2968C67.098 52.3236 67.0626 52.3582 67.035 52.3987C67.0074 52.4391 66.9881 52.4847 66.9782 52.5326L63.0131 71.3699C62.9998 71.4377 62.9668 71.4989 62.9196 71.5427C62.8725 71.5866 62.8142 71.6104 62.7549 71.61L59.3588 71.6624C59.2964 71.6626 59.235 71.6395 59.185 71.5967C59.1349 71.5538 59.099 71.4939 59.0831 71.4267L56.9343 62.4881C56.9274 62.4585 56.9162 62.4302 56.9014 62.4049C56.8865 62.3795 56.8683 62.3577 56.848 62.3406C56.8275 62.3235 56.8053 62.3115 56.7826 62.3054C56.7598 62.2992 56.737 62.299 56.7155 62.3048Z" fill="white"/>
<path d="M71.6785 52.2277L70.2781 52.267C70.1902 52.2696 70.1025 52.2549 70.0213 52.2239C69.9402 52.193 69.8677 52.1467 69.8092 52.0885C69.7509 52.0303 69.7079 51.9615 69.6838 51.8873C69.6596 51.8132 69.6549 51.7356 69.6698 51.6603C69.804 50.9939 69.7822 50.2185 69.6041 49.3339C69.5951 49.2909 69.5957 49.2465 69.606 49.2037C69.6162 49.1609 69.6359 49.121 69.6636 49.0868C69.6912 49.0525 69.7261 49.0249 69.7658 49.0056C69.8055 48.9865 69.8489 48.9765 69.893 48.9761L79.1579 49.0459C79.2232 49.047 79.2854 49.0715 79.3312 49.114C79.3771 49.1564 79.4029 49.2134 79.403 49.2729L79.4511 52.0225C79.4511 52.0815 79.4262 52.1382 79.3818 52.1799C79.3376 52.2216 79.2775 52.2451 79.2148 52.2451H77.3504C77.3119 52.2451 77.2738 52.2527 77.2382 52.2673C77.2027 52.282 77.1703 52.3036 77.143 52.3307C77.1159 52.3579 77.0943 52.3902 77.0795 52.4256C77.0648 52.4611 77.0572 52.4991 77.0572 52.5375V67.6737C77.0576 67.7562 77.0762 67.8375 77.1117 67.9119C77.1474 67.9863 77.1989 68.052 77.263 68.1041C77.3269 68.1562 77.4017 68.1936 77.4819 68.2135C77.5621 68.2334 77.6457 68.2355 77.7267 68.2193C78.2869 68.103 78.7874 68.1088 79.2279 68.2368C79.2901 68.2556 79.3446 68.2942 79.3832 68.3468C79.4218 68.3996 79.4425 68.4635 79.4423 68.5292L79.4686 70.9646C79.4686 71.0642 79.428 71.1596 79.3558 71.23C79.2836 71.3004 79.1856 71.34 79.0835 71.34H69.9805C69.9256 71.3401 69.8714 71.3278 69.8218 71.3039C69.7723 71.2801 69.7287 71.2453 69.6942 71.2022C69.6597 71.1591 69.6353 71.1087 69.6229 71.0547C69.6103 71.0007 69.6099 70.9447 69.6217 70.8904C69.785 70.1368 69.7807 69.3643 69.6085 68.5729C69.4802 67.9822 69.7019 67.7872 70.2738 67.988C70.8019 68.1742 71.2701 68.215 71.6785 68.1102C71.7387 68.0938 71.7918 68.0564 71.8298 68.0036C71.8677 67.9508 71.8883 67.8855 71.8886 67.8178V52.4895C71.8885 52.4548 71.883 52.4203 71.8723 52.3882C71.8617 52.3562 71.8461 52.3272 71.8265 52.3028C71.807 52.2784 71.7839 52.2592 71.7584 52.2463C71.733 52.2334 71.7059 52.227 71.6785 52.2277Z" fill="white"/>
<path d="M102.139 58.2502L104.27 58.2065C104.346 58.2048 104.421 58.2166 104.491 58.2412C104.561 58.2659 104.625 58.3029 104.679 58.3501C104.732 58.3973 104.775 58.4537 104.804 58.516C104.833 58.5783 104.848 58.6452 104.848 58.7128V60.9737C104.848 61.1246 104.78 61.2696 104.661 61.378C104.542 61.4863 104.38 61.5495 104.209 61.5541L102.03 61.6109C101.973 61.612 101.92 61.6402 101.881 61.6891C101.841 61.7381 101.819 61.8041 101.82 61.8727L101.881 67.7867C101.882 67.8384 101.892 67.8895 101.911 67.9369C101.93 67.9845 101.957 68.0273 101.991 68.0631C102.025 68.0989 102.066 68.1269 102.11 68.1453C102.154 68.1638 102.201 68.1725 102.248 68.1708L104.957 68.066C105.223 68.0557 105.475 67.9927 105.659 67.8907C105.843 67.7886 105.945 67.6556 105.942 67.5204L105.894 64.5089C105.893 64.4604 105.902 64.4122 105.92 64.3672C105.937 64.3223 105.963 64.2813 105.996 64.2468C106.029 64.2123 106.068 64.1849 106.112 64.1662C106.155 64.1475 106.202 64.1379 106.249 64.1379H109.478C109.516 64.1379 109.553 64.1452 109.588 64.1593C109.623 64.1734 109.655 64.1941 109.681 64.22C109.707 64.246 109.728 64.2769 109.742 64.3108C109.756 64.3446 109.763 64.3808 109.763 64.4172L109.697 71.1474C109.697 71.1761 109.691 71.2044 109.68 71.2309C109.669 71.2574 109.652 71.2814 109.632 71.3017C109.611 71.3219 109.586 71.3381 109.559 71.349C109.532 71.36 109.503 71.3656 109.474 71.3656L94.9223 71.3132C94.862 71.3132 94.8041 71.2898 94.7614 71.248C94.7188 71.2063 94.6947 71.1497 94.6947 71.0906L94.6729 68.5068C94.6728 68.421 94.6946 68.3365 94.7366 68.2614C94.7786 68.1864 94.8391 68.1232 94.9126 68.0778C94.9862 68.0324 95.0702 68.0063 95.1569 68.002C95.2436 67.9976 95.33 68.0151 95.4081 68.0529C95.7553 68.2188 96.0909 68.2435 96.4147 68.1272C96.4734 68.1068 96.5245 68.0665 96.5605 68.0117C96.5966 67.957 96.616 67.8905 96.616 67.8216V52.6155C96.6164 52.5347 96.5976 52.455 96.561 52.3828C96.5245 52.3106 96.4712 52.2479 96.4056 52.1999C96.34 52.1519 96.2639 52.1198 96.1833 52.1063C96.1028 52.0929 96.0201 52.0984 95.942 52.1224C95.1513 52.3667 94.7458 52.2605 94.7254 51.8038C94.6904 50.9687 94.6729 50.106 94.6729 49.2156C94.6729 49.1507 94.6987 49.0885 94.7447 49.0427C94.7906 48.9969 94.853 48.9712 94.918 48.9712H109.478C109.556 48.9712 109.631 49.0019 109.686 49.0568C109.741 49.1117 109.772 49.186 109.772 49.2636V55.71C109.772 55.7748 109.746 55.837 109.7 55.8828C109.654 55.9287 109.591 55.9544 109.526 55.9544H106.205C106.136 55.9544 106.07 55.9265 106.021 55.8767C105.972 55.8268 105.943 55.7591 105.942 55.6882L105.92 52.489C105.92 52.4588 105.914 52.429 105.903 52.4011C105.891 52.3733 105.875 52.348 105.853 52.3269C105.832 52.3058 105.807 52.2892 105.779 52.278C105.752 52.2669 105.722 52.2614 105.693 52.262L102.082 52.31C102.025 52.3111 101.97 52.3365 101.93 52.3806C101.89 52.4246 101.868 52.484 101.868 52.5457L101.92 58.0014C101.92 58.0344 101.926 58.0672 101.937 58.0976C101.948 58.1281 101.964 58.1557 101.985 58.1789C102.005 58.2021 102.029 58.2203 102.056 58.2325C102.082 58.2448 102.111 58.2507 102.139 58.2502Z" fill="white"/>
<path d="M218.827 52.2751L217.4 52.1879C217.337 52.1845 217.279 52.1576 217.235 52.1123C217.191 52.0671 217.165 52.0068 217.163 51.9434L217.071 49.2679C217.07 49.2392 217.075 49.2105 217.087 49.1835C217.097 49.1565 217.114 49.1319 217.134 49.1112C217.155 49.0904 217.18 49.0738 217.208 49.0625C217.235 49.0512 217.265 49.0454 217.295 49.0453L223.951 48.9755C223.996 48.9747 224.041 48.9838 224.084 49.0021C224.125 49.0204 224.162 49.0474 224.194 49.0817C224.226 49.1161 224.251 49.1568 224.267 49.2016C224.282 49.2464 224.29 49.2942 224.288 49.3421L224.188 51.9958C224.185 52.0514 224.161 52.1041 224.121 52.143C224.081 52.182 224.026 52.2043 223.969 52.2052L222.813 52.2489C222.752 52.2504 222.691 52.2722 222.638 52.3116C222.584 52.351 222.541 52.4065 222.512 52.4715C220.446 57.2289 219.144 60.1997 218.608 61.3839C218.272 62.1229 218.103 62.8227 218.101 63.4833C218.091 64.9381 218.087 66.3755 218.087 67.7954C218.087 67.87 218.106 67.9434 218.143 68.0087C218.179 68.074 218.231 68.1292 218.295 68.1692C218.358 68.2092 218.43 68.2327 218.505 68.2375C218.579 68.2424 218.654 68.2285 218.722 68.197C219.048 68.0428 219.345 68.0122 219.61 68.1053C219.671 68.1272 219.722 68.1691 219.76 68.2254C219.796 68.2817 219.816 68.3495 219.816 68.4195L219.838 71.1212C219.838 71.1791 219.815 71.2346 219.773 71.2755C219.733 71.3165 219.677 71.3394 219.619 71.3394H211.295C211.218 71.3395 211.144 71.3102 211.089 71.2579C211.035 71.2057 211.003 71.1346 211.002 71.0601L210.975 68.5898C210.974 68.5039 210.994 68.4191 211.035 68.3428C211.074 68.2665 211.132 68.2011 211.204 68.152C211.276 68.1031 211.36 68.072 211.447 68.0616C211.535 68.0511 211.624 68.0617 211.707 68.0922C212.523 68.3919 212.915 68.1461 212.879 67.3546C212.856 66.8774 212.845 66.6228 212.848 66.5908C212.868 65.6801 212.859 64.7708 212.818 63.863C212.774 62.9988 212.568 62.1244 212.201 61.2398C211.042 58.4524 209.877 55.6664 208.704 52.8818C208.57 52.5588 208.392 52.358 208.17 52.2795C207.917 52.1922 207.62 52.1863 207.282 52.262C207.237 52.2724 207.191 52.2725 207.146 52.2625C207.101 52.2525 207.058 52.2326 207.023 52.2042C206.986 52.1759 206.957 52.1397 206.935 52.0984C206.914 52.0571 206.903 52.0116 206.901 51.9652L206.805 49.1981C206.804 49.1687 206.808 49.1393 206.818 49.1119C206.828 49.0843 206.843 49.0592 206.863 49.038C206.883 49.0168 206.907 48.9999 206.933 48.9885C206.958 48.977 206.986 48.9711 207.015 48.9712L215.102 48.9973C215.162 48.9972 215.22 49.0194 215.263 49.0593C215.306 49.0992 215.332 49.1536 215.334 49.2112C215.354 49.8455 215.362 50.4784 215.356 51.1097C215.356 51.1418 215.37 51.3135 215.396 51.6248C215.451 52.23 215.005 52.4104 214.056 52.166C213.461 52.0118 213.279 52.2111 213.509 52.764L216.053 58.787C216.11 58.9266 216.176 58.9266 216.249 58.787C217.29 56.7415 218.198 54.6378 218.972 52.4759C218.979 52.4539 218.982 52.4303 218.978 52.407C218.975 52.3837 218.967 52.3614 218.952 52.3418C218.938 52.3222 218.92 52.306 218.898 52.2943C218.876 52.2828 218.851 52.2762 218.827 52.2751Z" fill="white"/>
</g>
</g>
<defs>
<clipPath id="clip0_608_187">
<rect width="193" height="62.4129" fill="white" transform="translate(45 25.2935)"/>
</clipPath>
</defs>
</svg>
