<svg width="283" height="103" viewBox="0 0 283 103" fill="none" xmlns="http://www.w3.org/2000/svg">
<g clip-path="url(#clip0_608_163)">
<mask id="mask0_608_163" style="mask-type:luminance" maskUnits="userSpaceOnUse" x="25" y="29" width="234" height="45">
<path d="M259 29H25V74H259V29Z" fill="white"/>
</mask>
<g mask="url(#mask0_608_163)">
<path d="M25 29C39.8586 29 54.7171 29 69.5757 29C69.5935 44 69.5966 59 69.5848 74C54.723 74 39.8614 74 25 74C25 59 25 44 25 29ZM31.9248 55.0822C32.237 55.4249 32.6557 55.6312 33.1808 55.7009C33.9007 55.7964 34.7705 55.8336 35.7902 55.8127C36.1894 55.8042 36.5865 55.8218 36.9814 55.8654C37.4774 55.9205 37.8587 56.0209 38.1253 56.1666C38.7012 56.4823 39.0351 57.0199 39.1267 57.7794C39.1775 58.1952 39.2057 58.565 39.2114 58.8887C39.2175 59.2371 39.2205 59.4139 39.2205 59.4191C39.2314 59.7524 39.2339 60.0498 39.2283 60.3113C39.2142 60.9441 39.2455 61.5512 39.3221 62.1327C39.4288 62.9425 39.8228 63.4995 40.5041 63.8038C40.6818 63.8835 40.9058 63.9464 41.1762 63.9925C41.4225 64.0347 41.6548 64.0597 41.873 64.0672C42.7508 64.0986 43.7263 64.0998 44.7997 64.0708C45.332 64.0566 45.7831 63.9768 46.1531 63.8316C46.6073 63.6531 46.9392 63.3564 47.1489 62.9415C47.2834 62.6748 47.3788 62.2608 47.4352 61.6998C47.4799 61.2507 47.4961 60.7998 47.4839 60.3469C47.466 59.7037 47.4792 59.0617 47.5234 58.4209C47.5685 57.7687 47.6539 57.3051 47.7794 57.0303C48.0413 56.4555 48.5239 56.0933 49.2273 55.9438C49.5408 55.8778 49.8575 55.8384 50.1772 55.8256C51.0357 55.7919 51.8935 55.8023 52.7506 55.8569C52.982 55.8716 53.2116 55.902 53.4397 55.948C53.9766 56.0572 54.3835 56.3126 54.6605 56.7142C54.849 56.9866 54.9813 57.3858 55.0575 57.9118C55.1172 58.3248 55.1419 58.7508 55.1316 59.1899C55.1137 59.965 55.1308 60.7853 55.183 61.6506C55.1976 61.8918 55.2202 62.0895 55.2507 62.2438C55.2935 62.4607 55.3492 62.6517 55.4179 62.8169C55.6379 63.3448 56.0319 63.6965 56.5999 63.8722C57.0263 64.0041 57.5125 64.0751 58.0583 64.085C59.1326 64.1045 59.9613 64.1045 60.5443 64.085C60.9153 64.0727 61.2545 64.0362 61.562 63.9754C61.9461 63.8999 62.259 63.7746 62.5006 63.5994C62.9365 63.2828 63.2 62.8283 63.2912 62.2359C63.3448 61.8884 63.3754 61.5021 63.3829 61.0767C63.3998 60.1146 63.4074 59.3669 63.4055 58.8339C63.4041 58.447 63.373 58.002 63.3124 57.4988C63.2075 56.6278 62.7842 56.0425 62.0422 55.743C61.888 55.6808 61.6971 55.6302 61.4696 55.5913C61.2571 55.5552 61.0603 55.5324 60.8793 55.5229C60.7213 55.5149 60.2805 55.503 59.557 55.4873C58.9124 55.4736 58.4018 55.428 58.0252 55.3506C57.6495 55.2737 57.3075 55.133 56.999 54.9284C56.7 54.7295 56.4318 54.4824 56.1944 54.1872C55.9696 53.9076 55.7992 53.5969 55.6831 53.2551C55.5998 53.0093 55.5378 52.6649 55.4969 52.222C55.456 51.7791 55.44 51.3723 55.4489 51.0016C55.4625 50.4305 55.4372 49.8612 55.3727 49.2934C55.3318 48.9294 55.25 48.622 55.1273 48.3714C54.873 47.8535 54.4512 47.5195 53.8621 47.3695C53.5725 47.296 53.355 47.2547 53.2098 47.2456C52.3489 47.193 51.4878 47.1766 50.6265 47.1965C50.1196 47.2079 49.8204 47.2165 49.7287 47.2222C49.4019 47.2421 49.1048 47.2855 48.8373 47.3525C48.2359 47.5034 47.805 47.8288 47.5445 48.3286C47.3969 48.6125 47.2956 49.0445 47.2406 49.6245C47.1978 50.0698 47.1839 50.5169 47.199 50.966C47.2178 51.5532 47.1811 52.1351 47.0889 52.7119C47.0419 53.0033 46.9787 53.2464 46.8992 53.441C46.8024 53.6788 46.6783 53.8995 46.5269 54.1032C46.3064 54.3994 46.0485 54.6576 45.7532 54.8778C45.4462 55.1066 45.1107 55.2623 44.7468 55.3449C43.8982 55.5377 43.0108 55.5436 42.0845 55.3627C41.6633 55.2806 41.2754 55.1012 40.9209 54.8244C40.5894 54.5653 40.316 54.2757 40.1007 53.9558C39.8736 53.6183 39.7243 53.2388 39.6529 52.8172C39.571 52.334 39.5412 51.7288 39.5633 51.0016C39.5802 50.4405 39.6639 49.9732 39.8144 49.5996C40.1087 48.8705 40.5974 48.3232 41.2806 47.9577C41.6059 47.7835 42.0025 47.661 42.4703 47.5903C42.8986 47.5252 43.3166 47.4994 43.7242 47.5127C44.3011 47.5316 44.8545 47.5039 45.3844 47.4294C45.8512 47.3638 46.2013 47.2604 46.4345 47.1189C46.765 46.9191 47.0133 46.6255 47.1792 46.2381C47.3254 45.8978 47.408 45.5869 47.4268 45.3054C47.5072 44.1163 47.5095 42.8052 47.4338 41.3722C47.4159 41.0347 47.3725 40.7377 47.3033 40.4814C47.1961 40.0841 46.9966 39.7592 46.7046 39.5066C46.4728 39.3068 46.1677 39.1561 45.7892 39.0545C45.4676 38.9686 45.126 38.9221 44.7645 38.915C43.6069 38.8926 42.6548 38.8941 41.9082 38.9192C41.5918 38.9297 41.2787 38.9669 40.9688 39.031C40.3858 39.1506 39.9526 39.4385 39.6691 39.8947C39.5125 40.1468 39.3992 40.4919 39.3291 40.93C39.2727 41.2827 39.245 41.6494 39.2459 42.0301C39.2469 42.4578 39.2358 43.3122 39.2128 44.5934C39.2053 45.013 39.1319 45.4155 38.9927 45.8009C38.8884 46.0915 38.7551 46.3224 38.5929 46.4938C38.4043 46.6931 38.1754 46.8426 37.906 46.9423C37.621 47.0482 37.3272 47.1137 37.0244 47.1388C36.4903 47.1835 35.9555 47.2015 35.42 47.193C35.238 47.1901 34.8443 47.1958 34.2387 47.21C33.91 47.2176 33.6028 47.2426 33.3169 47.2848C32.9648 47.337 32.6714 47.4246 32.4368 47.5475C31.8679 47.8461 31.5198 48.3258 31.3923 48.9866C31.3646 49.1294 31.3366 49.3575 31.3084 49.6708C31.2877 49.9001 31.2774 50.1301 31.2774 50.3608C31.2769 51.1146 31.2767 51.8681 31.2767 52.6214C31.2767 52.9115 31.3061 53.3031 31.3648 53.7963C31.426 54.3113 31.6126 54.74 31.9248 55.0822Z" fill="#CDFF3A"/>
<path d="M69.5762 29C132.717 29 195.859 29 259 29C259 44 259 59 259 74C195.861 74 132.723 74 69.5854 74C69.5971 59 69.594 44 69.5762 29ZM104.83 56.1324C105.659 56.8649 106.62 57.3073 107.714 57.4597C108.154 57.5209 108.61 57.5437 109.08 57.528C109.538 57.5128 109.992 57.4509 110.442 57.3422C112.193 56.9202 113.392 55.8659 114.04 54.1794C114.207 53.7455 114.318 53.2979 114.373 52.8365C114.373 52.8318 114.373 52.827 114.371 52.8225C114.37 52.8181 114.367 52.8139 114.364 52.8104C114.361 52.8069 114.358 52.8042 114.353 52.8023C114.349 52.8004 114.345 52.7994 114.34 52.7994L111.537 52.8037C111.528 52.8037 111.518 52.8071 111.51 52.8133C111.502 52.8195 111.497 52.8282 111.494 52.8379C111.395 53.2414 111.289 53.5475 111.177 53.7564C110.605 54.8192 109.707 55.3074 108.484 55.221C107.862 55.1769 107.334 54.9676 106.901 54.593C106.608 54.3391 106.368 54.0315 106.183 53.6703C106.028 53.3674 105.909 53.0024 105.826 52.5752C105.656 51.6951 105.684 50.8115 105.91 49.9243C106.053 49.3665 106.277 48.9142 106.584 48.5672C107.225 47.8428 108.058 47.534 109.085 47.6408C109.774 47.712 110.33 47.9911 110.754 48.4782C111.121 48.9006 111.368 49.4202 111.496 50.0368C111.498 50.0467 111.503 50.0556 111.511 50.0619C111.519 50.0683 111.528 50.0717 111.538 50.0717L114.342 50.0759C114.346 50.076 114.351 50.075 114.355 50.0731C114.359 50.0712 114.363 50.0683 114.366 50.0647C114.369 50.0612 114.372 50.057 114.373 50.0524C114.375 50.0478 114.375 50.043 114.375 50.0382C114.296 49.4116 114.125 48.8183 113.862 48.2581C113.384 47.2409 112.645 46.4826 111.645 45.9832C110.779 45.5503 109.808 45.3362 108.731 45.341C107.416 45.3467 106.265 45.7017 105.275 46.4062C104.89 46.6801 104.548 47.0033 104.251 47.3759C103.664 48.1098 103.276 48.9505 103.089 49.8979C102.851 51.0994 102.894 52.2975 103.218 53.4922C103.508 54.5593 104.045 55.4394 104.83 56.1324ZM117.47 55.9381C118.161 56.5983 118.955 57.0483 119.852 57.2881C120.274 57.4001 120.738 57.476 121.243 57.5159C122.142 57.5871 123.02 57.4886 123.879 57.2204C124.353 57.0723 124.781 56.8808 125.164 56.6458C125.902 56.192 126.488 55.5968 126.921 54.86C127.358 54.1186 127.631 53.3192 127.741 52.4619C127.835 51.7343 127.823 50.9731 127.705 50.1785C127.586 49.371 127.33 48.6355 126.939 47.9719C126.693 47.5556 126.4 47.1866 126.059 46.8647C125.475 46.3117 124.788 45.912 123.998 45.6657C123.047 45.3695 122.054 45.2731 121.019 45.3766C119.365 45.5418 118.047 46.2355 117.064 47.4578C116.773 47.82 116.531 48.2244 116.339 48.6711C115.944 49.5877 115.759 50.5492 115.784 51.5555C115.797 52.0568 115.845 52.5286 115.93 52.971C116.054 53.6228 116.281 54.2422 116.61 54.8294C116.842 55.2424 117.129 55.6119 117.47 55.9381ZM189.732 46.7793C189.331 46.41 188.881 46.1159 188.383 45.8971C187.737 45.6132 187.068 45.4381 186.377 45.3716C185.904 45.326 185.435 45.3206 184.968 45.3552C184.41 45.3965 183.863 45.51 183.327 45.6956C181.974 46.165 180.963 47.0354 180.293 48.3066C179.899 49.0547 179.665 49.864 179.59 50.7346C179.527 51.4618 179.558 52.1726 179.683 52.8671C179.772 53.3598 179.904 53.8141 180.08 54.2299C180.566 55.3734 181.352 56.2343 182.439 56.8124C182.833 57.0218 183.271 57.1884 183.755 57.3123C184.996 57.6298 186.233 57.6158 187.466 57.2703C187.95 57.1345 188.386 56.9581 188.772 56.7412C189.54 56.3102 190.151 55.7306 190.605 55.0025C191.156 54.1176 191.473 53.1524 191.557 52.1066C191.617 51.349 191.566 50.5713 191.402 49.7733C191.158 48.5776 190.601 47.5796 189.732 46.7793ZM203.308 46.832C202.913 46.4589 202.469 46.1598 201.976 45.9348C201.321 45.6348 200.64 45.4485 199.935 45.3759C199.474 45.3284 199.004 45.3196 198.525 45.3495C197.592 45.4079 196.729 45.6557 195.938 46.0929C195.056 46.5804 194.366 47.2691 193.868 48.1592C193.649 48.5498 193.473 48.9887 193.34 49.4757C193.011 50.6719 192.98 51.8769 193.247 53.0907C193.356 53.5843 193.504 54.0339 193.693 54.4392C194.293 55.7261 195.268 56.6169 196.617 57.1115C198.053 57.6379 199.51 57.6911 200.989 57.271C201.465 57.1362 201.898 56.9555 202.289 56.7291C203.692 55.9155 204.57 54.6659 204.923 52.9803C205.162 51.842 205.148 50.707 204.882 49.5754C204.628 48.4988 204.104 47.5843 203.308 46.832ZM218.083 53.6539H215.357C215.353 53.6538 215.348 53.6548 215.344 53.6567C215.34 53.6585 215.336 53.6613 215.333 53.6647C215.33 53.6682 215.328 53.6722 215.327 53.6766C215.325 53.681 215.325 53.6856 215.326 53.6902C215.476 54.8019 215.948 55.6967 216.744 56.3745C217.035 56.6233 217.368 56.8326 217.743 57.0025C218.104 57.1658 218.48 57.2883 218.872 57.3699C219.629 57.5266 220.393 57.5845 221.164 57.5437C221.79 57.51 222.399 57.3915 222.992 57.1884C223.57 56.99 224.041 56.7301 224.404 56.4087C225.238 55.6691 225.629 54.7547 225.575 53.6653C225.549 53.1431 225.432 52.6877 225.224 52.2989C224.943 51.7739 224.515 51.373 223.94 51.0963C223.463 50.8665 222.896 50.6688 222.239 50.5032C221.567 50.3332 220.893 50.1697 220.217 50.0126C219.912 49.9419 219.609 49.86 219.309 49.7669C218.943 49.654 218.687 49.5301 218.541 49.3953C218.275 49.1494 218.18 48.8686 218.257 48.5529C218.302 48.3664 218.396 48.2083 218.538 48.0787C218.676 47.9529 218.845 47.8637 219.044 47.811C219.715 47.632 220.373 47.6173 221.016 47.7669C221.403 47.8566 221.705 47.9883 221.923 48.162C222.194 48.3799 222.383 48.6711 222.49 49.0357C222.493 49.0482 222.501 49.0593 222.511 49.0671C222.521 49.0749 222.534 49.0791 222.547 49.0791H225.26C225.271 49.0791 225.281 49.0768 225.29 49.0723C225.299 49.0679 225.308 49.0614 225.314 49.0534C225.321 49.0454 225.325 49.036 225.328 49.0259C225.331 49.0158 225.331 49.0053 225.329 48.9951C225.003 47.3081 224.043 46.1992 222.449 45.6685C221.802 45.4535 221.08 45.3502 220.282 45.3588C219.424 45.3678 218.648 45.476 217.956 45.6835C217.372 45.8586 216.88 46.1197 216.478 46.4667C216.027 46.8569 215.726 47.3183 215.575 47.8509C215.417 48.4067 215.404 48.9944 215.537 49.6138C215.639 50.0933 215.839 50.5105 216.139 50.8656C216.355 51.1214 216.651 51.3581 217.027 51.5755C217.358 51.7668 217.708 51.9213 218.077 52.039C218.594 52.2042 219.03 52.3271 219.383 52.4078C220.171 52.5882 220.777 52.7366 221.199 52.8528C221.535 52.9454 221.832 53.057 222.09 53.1875C222.367 53.328 222.552 53.4861 222.645 53.6617C222.773 53.9047 222.76 54.1767 222.607 54.4777C222.535 54.6191 222.452 54.7229 222.358 54.7888C222.139 54.9417 221.875 55.0485 221.568 55.1093C221.166 55.1885 220.761 55.218 220.352 55.1975C219.969 55.1786 219.607 55.0941 219.265 54.9441C218.97 54.814 218.736 54.6524 218.563 54.4592C218.374 54.2489 218.23 53.9921 218.131 53.6888C218.128 53.6786 218.121 53.6698 218.113 53.6636C218.104 53.6573 218.094 53.6539 218.083 53.6539ZM136.56 53.8176L133.992 45.561C133.99 45.554 133.985 45.5478 133.98 45.5435C133.974 45.5391 133.967 45.5368 133.96 45.5368L129.768 45.5411C129.764 45.5411 129.759 45.542 129.755 45.5438C129.75 45.5456 129.747 45.5482 129.743 45.5515C129.74 45.5548 129.737 45.5587 129.736 45.563C129.734 45.5674 129.733 45.572 129.733 45.5767L129.729 57.2589C129.729 57.2753 129.735 57.291 129.747 57.3027C129.758 57.3143 129.774 57.3208 129.79 57.3208C130.557 57.3208 131.333 57.3208 132.117 57.3208C132.124 57.3208 132.153 57.3232 132.206 57.3279C132.285 57.3346 132.315 57.3018 132.297 57.2297C132.291 57.2093 132.291 57.1869 132.296 57.1627C132.301 57.139 132.303 57.1086 132.303 57.0716C132.303 54.1286 132.303 51.1855 132.303 48.2425C132.303 48.2268 132.306 48.2166 132.313 48.2119C132.315 48.2105 132.317 48.2101 132.32 48.2105C132.322 48.211 132.324 48.2123 132.327 48.2144C132.329 48.2165 132.331 48.2194 132.333 48.2226C132.334 48.2259 132.336 48.2296 132.336 48.2332C132.343 48.2845 132.36 48.3543 132.387 48.4426C133.284 51.3823 134.181 54.3251 135.078 57.271C135.082 57.2854 135.091 57.298 135.103 57.307C135.115 57.316 135.129 57.3208 135.144 57.3208H137.904C137.922 57.3209 137.939 57.3151 137.953 57.3045C137.968 57.2939 137.978 57.2789 137.984 57.2617L140.735 48.2653C140.756 48.1969 140.766 48.1986 140.766 48.2703V57.2852C140.766 57.2946 140.77 57.3037 140.776 57.3104C140.783 57.3171 140.792 57.3208 140.801 57.3208H143.332C143.338 57.3208 143.345 57.318 143.35 57.3131C143.355 57.3082 143.358 57.3014 143.358 57.2945V45.571C143.358 45.5659 143.357 45.5608 143.355 45.5561C143.353 45.5514 143.35 45.5471 143.346 45.5435C143.343 45.5399 143.339 45.5371 143.334 45.5352C143.329 45.5333 143.324 45.5324 143.32 45.5325L139.219 45.5411C139.208 45.5411 139.198 45.5444 139.19 45.5505C139.182 45.5567 139.176 45.5653 139.173 45.5752L136.61 53.8176C136.593 53.8713 136.577 53.8713 136.56 53.8176ZM148.686 52.9461C149.722 52.9485 150.758 52.944 151.794 52.9326C152.389 52.9259 152.839 52.8861 153.143 52.813C154.267 52.5415 155.054 51.8771 155.506 50.82C155.695 50.3786 155.8 49.9191 155.822 49.4415C155.846 48.9208 155.777 48.4146 155.616 47.9228C155.463 47.4571 155.231 47.0491 154.919 46.6988C154.412 46.1316 153.783 45.7715 153.031 45.6187C152.765 45.5641 152.297 45.5368 151.627 45.5368C149.789 45.5368 147.938 45.5368 146.074 45.5368C146.064 45.5368 146.055 45.5406 146.048 45.5474C146.041 45.5542 146.038 45.5635 146.038 45.5731L146.033 57.2717C146.033 57.2813 146.037 57.2905 146.044 57.2974C146.05 57.3042 146.059 57.308 146.069 57.308L148.6 57.3201C148.606 57.3202 148.612 57.319 148.618 57.3167C148.623 57.3143 148.629 57.3108 148.633 57.3064C148.637 57.3019 148.641 57.2966 148.643 57.2908C148.646 57.285 148.647 57.2787 148.647 57.2724L148.651 52.9824C148.651 52.9728 148.655 52.9636 148.662 52.9568C148.668 52.9499 148.677 52.9461 148.686 52.9461ZM158.821 56.2157C159.255 56.6135 159.713 56.9047 160.195 57.0894C161.483 57.5821 162.785 57.6569 164.102 57.3137C164.585 57.1879 165.021 57.0137 165.408 56.7911C166.55 56.1355 167.266 55.1489 167.557 53.8312C167.621 53.5416 167.655 53.1595 167.659 52.6848C167.68 50.3123 167.68 47.9399 167.658 45.5674C167.658 45.5581 167.654 45.5492 167.647 45.5427C167.641 45.5362 167.632 45.5325 167.622 45.5325L165.027 45.5368C165.017 45.5368 165.008 45.5406 165.002 45.5474C164.995 45.5542 164.991 45.5635 164.991 45.5731C164.991 47.9195 164.991 50.2487 164.991 52.5609C164.991 52.6022 164.999 52.6646 165.016 52.7482C165.03 52.8113 165.033 52.8759 165.027 52.9419C164.947 53.8366 164.561 54.4779 163.868 54.8657C163.542 55.048 163.173 55.157 162.76 55.1926C162.347 55.2286 161.956 55.1845 161.588 55.0601C160.829 54.8038 160.34 54.3061 160.123 53.567C160.054 53.3344 160.018 52.985 160.015 52.5189C159.998 50.2191 159.993 47.9038 160.001 45.5731C160.001 45.5635 159.998 45.5542 159.991 45.5474C159.984 45.5406 159.975 45.5368 159.965 45.5368H157.375C157.366 45.5368 157.356 45.5406 157.35 45.5474C157.343 45.5542 157.339 45.5635 157.339 45.5731C157.333 48.0054 157.333 50.4201 157.339 52.8172C157.342 54.1805 157.836 55.3134 158.821 56.2157ZM175.507 47.8729L179.085 47.8858C179.094 47.8859 179.102 47.8843 179.11 47.8811C179.117 47.8779 179.124 47.8732 179.13 47.8672C179.136 47.8613 179.141 47.8542 179.144 47.8464C179.147 47.8385 179.149 47.8302 179.149 47.8217V45.5738C179.149 45.564 179.145 45.5546 179.138 45.5476C179.131 45.5407 179.122 45.5368 179.112 45.5368H169.161C169.153 45.5368 169.145 45.5401 169.139 45.546C169.133 45.5518 169.13 45.5598 169.13 45.5681L169.139 47.8466C169.139 47.856 169.142 47.8651 169.149 47.8718C169.155 47.8784 169.164 47.8822 169.174 47.8822L172.748 47.8815C172.757 47.8815 172.767 47.8853 172.773 47.8921C172.78 47.8989 172.784 47.9082 172.784 47.9178V57.2617C172.784 57.2763 172.79 57.2902 172.8 57.3005C172.81 57.3108 172.824 57.3165 172.838 57.3165L175.425 57.3208C175.43 57.3208 175.435 57.3198 175.44 57.3178C175.445 57.3159 175.449 57.313 175.452 57.3093C175.456 57.3057 175.459 57.3014 175.461 57.2966C175.463 57.2919 175.464 57.2868 175.464 57.2816V47.9164C175.464 47.9107 175.465 47.905 175.467 47.8998C175.469 47.8945 175.472 47.8897 175.476 47.8857C175.48 47.8816 175.485 47.8784 175.49 47.8763C175.496 47.8741 175.501 47.8729 175.507 47.8729ZM210.376 54.9547C210.084 54.9481 209.774 54.9557 209.447 54.9775C209.435 54.9783 209.423 54.9767 209.412 54.9727C209.401 54.9687 209.391 54.9625 209.382 54.9544C209.374 54.9463 209.367 54.9366 209.362 54.9257C209.357 54.9149 209.355 54.9032 209.355 54.8914L209.351 45.5767C209.351 45.5661 209.347 45.5559 209.339 45.5485C209.332 45.541 209.322 45.5368 209.311 45.5368H206.721C206.711 45.5368 206.702 45.5407 206.695 45.5476C206.688 45.5546 206.684 45.564 206.684 45.5738C206.67 47.9216 206.665 50.2575 206.67 52.5816C206.67 52.5849 206.674 52.7418 206.682 53.0522C206.687 53.2649 206.684 53.5307 206.671 53.8497C206.657 54.2152 206.661 55.3559 206.684 57.2717C206.684 57.2812 206.688 57.2902 206.694 57.2969C206.701 57.3035 206.71 57.3073 206.719 57.3073L214.653 57.3208C214.664 57.3208 214.674 57.3165 214.681 57.3089C214.689 57.3013 214.693 57.291 214.693 57.2802V55.0067C214.693 55.002 214.692 54.9974 214.69 54.9931C214.689 54.9888 214.686 54.9849 214.683 54.9816C214.679 54.9782 214.676 54.9756 214.671 54.9738C214.667 54.972 214.662 54.9711 214.658 54.9711C213.432 54.973 212.206 54.9718 210.981 54.9676C210.974 54.9676 210.772 54.9633 210.376 54.9547Z" fill="black"/>
<path d="M31.9245 55.0823C31.6123 54.7401 31.4256 54.3115 31.3645 53.7964C31.3058 53.3032 31.2764 52.9116 31.2764 52.6216C31.2764 51.8683 31.2766 51.1147 31.2771 50.3609C31.2771 50.1302 31.2874 49.9002 31.3081 49.671C31.3363 49.3577 31.3643 49.1296 31.392 48.9867C31.5194 48.3259 31.8676 47.8463 32.4365 47.5477C32.6711 47.4247 32.9645 47.3372 33.3166 47.285C33.6025 47.2427 33.9097 47.2178 34.2384 47.2102C34.844 47.196 35.2378 47.1903 35.4197 47.1931C35.9552 47.2016 36.49 47.1836 37.0242 47.139C37.3269 47.1138 37.6208 47.0483 37.9057 46.9425C38.1751 46.8428 38.4041 46.6933 38.5926 46.4939C38.7548 46.3225 38.8881 46.0916 38.9925 45.8011C39.1317 45.4157 39.205 45.0131 39.2125 44.5935C39.2356 43.3123 39.2466 42.4579 39.2457 42.0302C39.2447 41.6495 39.2725 41.2828 39.3289 40.9301C39.3989 40.492 39.5123 40.1469 39.6688 39.8948C39.9523 39.4387 40.3856 39.1508 40.9686 39.0312C41.2784 38.9671 41.5915 38.9299 41.908 38.9194C42.6546 38.8943 43.6067 38.8928 44.7642 38.9151C45.1258 38.9223 45.4673 38.9688 45.7889 39.0547C46.1674 39.1562 46.4725 39.3069 46.7043 39.5068C46.9963 39.7593 47.1959 40.0842 47.3031 40.4816C47.3722 40.7379 47.4157 41.0348 47.4336 41.3723C47.5092 42.8054 47.5069 44.1164 47.4265 45.3055C47.4077 45.587 47.3252 45.8979 47.179 46.2383C47.013 46.6256 46.7647 46.9192 46.4342 47.1191C46.201 47.2605 45.851 47.364 45.3841 47.4295C44.8542 47.504 44.3009 47.5318 43.724 47.5128C43.3163 47.4995 42.8984 47.5254 42.47 47.5904C42.0022 47.6611 41.6057 47.7836 41.2803 47.9578C40.5972 48.3233 40.1084 48.8706 39.8141 49.5998C39.6636 49.9733 39.58 50.4407 39.563 51.0017C39.5409 51.7289 39.5708 52.3342 39.6526 52.8174C39.7241 53.2389 39.8733 53.6184 40.1004 53.9559C40.3158 54.2759 40.5892 54.5654 40.9206 54.8246C41.2751 55.1013 41.663 55.2808 42.0843 55.3629C43.0105 55.5437 43.8979 55.5378 44.7466 55.3451C45.1105 55.2625 45.4459 55.1068 45.753 54.878C46.0482 54.6577 46.3061 54.3995 46.5266 54.1033C46.678 53.8997 46.8021 53.6789 46.899 53.4411C46.9784 53.2465 47.0417 53.0035 47.0887 52.712C47.1808 52.1353 47.2175 51.5533 47.1987 50.9661C47.1837 50.5171 47.1975 50.0699 47.2403 49.6247C47.2953 49.0446 47.3966 48.6126 47.5443 48.3288C47.8047 47.8289 48.2356 47.5035 48.837 47.3526C49.1045 47.2857 49.4017 47.2422 49.7284 47.2223C49.8201 47.2166 50.1194 47.2081 50.6262 47.1967C51.4875 47.1767 52.3486 47.1931 53.2095 47.2458C53.3548 47.2548 53.5722 47.2961 53.8619 47.3697C54.451 47.5197 54.8727 47.8536 55.1271 48.3715C55.2498 48.6221 55.3316 48.9295 55.3725 49.2936C55.4369 49.8613 55.4623 50.4307 55.4487 51.0017C55.4397 51.3725 55.4557 51.7793 55.4966 52.2221C55.5375 52.665 55.5996 53.0094 55.6828 53.2553C55.7989 53.5971 55.9694 53.9077 56.1941 54.1873C56.4315 54.4826 56.6998 54.7297 56.9988 54.9285C57.3072 55.1331 57.6492 55.2739 58.0249 55.3508C58.4015 55.4282 58.9121 55.4737 59.5567 55.4875C60.2803 55.5032 60.7211 55.515 60.879 55.5231C61.06 55.5326 61.2568 55.5554 61.4693 55.5914C61.6969 55.6304 61.8878 55.6809 62.042 55.7431C62.7839 56.0426 63.2073 56.6279 63.3121 57.499C63.3728 58.0021 63.4038 58.4471 63.4052 58.834C63.4071 59.3671 63.3996 60.1147 63.3826 61.0769C63.3751 61.5022 63.3446 61.8886 63.291 62.2361C63.1998 62.8285 62.9362 63.283 62.5004 63.5996C62.2587 63.7747 61.9458 63.9001 61.5617 63.9755C61.2542 64.0363 60.915 64.0729 60.544 64.0852C59.961 64.1047 59.1324 64.1047 58.0581 64.0852C57.5122 64.0752 57.026 64.0043 56.5996 63.8723C56.0317 63.6967 55.6377 63.3449 55.4176 62.8171C55.349 62.6519 55.2933 62.4608 55.2505 62.2439C55.2199 62.0896 55.1973 61.8919 55.1828 61.6508C55.1306 60.7854 55.1134 59.9652 55.1313 59.19C55.1416 58.7509 55.117 58.3249 55.0572 57.9119C54.9811 57.386 54.8487 56.9868 54.6602 56.7143C54.3833 56.3127 53.9763 56.0573 53.4394 55.9482C53.2114 55.9021 52.9817 55.8717 52.7504 55.857C51.8933 55.8024 51.0355 55.792 50.177 55.8257C49.8572 55.8385 49.5406 55.8779 49.227 55.9439C48.5236 56.0934 48.041 56.4556 47.7791 57.0304C47.6536 57.3053 47.5683 57.7688 47.5231 58.421C47.4789 59.0619 47.4658 59.7039 47.4836 60.3471C47.4958 60.7999 47.4796 61.2509 47.435 61.6999C47.3785 62.261 47.2831 62.6749 47.1486 62.9417C46.9389 63.3566 46.607 63.6532 46.1528 63.8317C45.7828 63.977 45.3317 64.0567 44.7995 64.071C43.7261 64.0999 42.7505 64.0987 41.8727 64.0674C41.6545 64.0598 41.4223 64.0349 41.1759 63.9926C40.9056 63.9466 40.6815 63.8837 40.5038 63.8039C39.8226 63.4997 39.4286 62.9426 39.3218 62.1328C39.2452 61.5513 39.2139 60.9442 39.228 60.3115C39.2337 60.0499 39.2311 59.7525 39.2203 59.4193C39.2203 59.4141 39.2172 59.2372 39.2111 58.8888C39.2055 58.5651 39.1773 58.1953 39.1265 57.7795C39.0348 57.02 38.701 56.4824 38.125 56.1668C37.8585 56.021 37.4772 55.9206 36.9811 55.8656C36.5862 55.8219 36.1891 55.8043 35.79 55.8129C34.7701 55.8338 33.9003 55.7965 33.1805 55.7011C32.6554 55.6313 32.2367 55.4251 31.9245 55.0823Z" fill="black"/>
<path d="M104.829 56.1324C104.044 55.4393 103.507 54.5593 103.217 53.4922C102.893 52.2974 102.85 51.0993 103.088 49.8979C103.275 48.9504 103.663 48.1097 104.25 47.3759C104.548 47.0033 104.889 46.68 105.274 46.4061C106.264 45.7017 107.416 45.3466 108.73 45.3409C109.807 45.3362 110.778 45.5503 111.644 45.9832C112.644 46.4825 113.383 47.2408 113.861 48.2581C114.124 48.8182 114.295 49.4116 114.374 50.0382C114.374 50.0429 114.374 50.0478 114.372 50.0523C114.371 50.0569 114.368 50.0611 114.365 50.0647C114.362 50.0682 114.358 50.0711 114.354 50.073C114.35 50.0749 114.345 50.0759 114.341 50.0759L111.537 50.0716C111.527 50.0716 111.518 50.0682 111.51 50.0619C111.503 50.0555 111.497 50.0467 111.495 50.0367C111.367 49.4201 111.12 48.9006 110.753 48.4781C110.329 47.9911 109.773 47.712 109.084 47.6408C108.057 47.534 107.224 47.8427 106.583 48.5671C106.276 48.9141 106.052 49.3665 105.909 49.9242C105.683 50.8114 105.655 51.695 105.825 52.5751C105.908 53.0023 106.027 53.3673 106.182 53.6702C106.368 54.0314 106.607 54.339 106.9 54.593C107.333 54.9675 107.861 55.1768 108.483 55.221C109.706 55.3074 110.604 54.8192 111.176 53.7563C111.288 53.5475 111.394 53.2413 111.493 52.8378C111.496 52.8281 111.501 52.8195 111.509 52.8133C111.517 52.8071 111.527 52.8037 111.536 52.8037L114.339 52.7994C114.344 52.7993 114.348 52.8003 114.352 52.8022C114.357 52.8041 114.36 52.8069 114.363 52.8104C114.366 52.8139 114.369 52.818 114.37 52.8225C114.372 52.827 114.372 52.8317 114.372 52.8364C114.317 53.2978 114.206 53.7454 114.039 54.1793C113.392 55.8658 112.192 56.9201 110.441 57.3421C109.991 57.4508 109.537 57.5128 109.079 57.5279C108.609 57.5436 108.153 57.5208 107.713 57.4596C106.619 57.3072 105.658 56.8648 104.829 56.1324Z" fill="white"/>
<path d="M117.469 55.9381C117.128 55.612 116.841 55.2424 116.609 54.8295C116.28 54.2423 116.053 53.6228 115.929 52.9711C115.844 52.5287 115.796 52.0568 115.784 51.5556C115.758 50.5492 115.943 49.5878 116.338 48.6712C116.53 48.2245 116.772 47.82 117.064 47.4579C118.046 46.2356 119.365 45.5418 121.019 45.3766C122.053 45.2731 123.046 45.3695 123.997 45.6657C124.787 45.9121 125.474 46.3117 126.059 46.8647C126.4 47.1866 126.693 47.5556 126.939 47.9719C127.33 48.6356 127.586 49.3711 127.705 50.1785C127.823 50.9731 127.835 51.7343 127.741 52.462C127.631 53.3193 127.357 54.1186 126.921 54.8601C126.488 55.5968 125.902 56.192 125.164 56.6458C124.781 56.8808 124.352 57.0723 123.878 57.2204C123.02 57.4886 122.141 57.5871 121.242 57.5159C120.737 57.4761 120.273 57.4001 119.851 57.2881C118.954 57.0484 118.16 56.5984 117.469 55.9381ZM119.727 54.4592C120.37 55.0113 121.13 55.2531 122.006 55.1848C122.864 55.1178 123.556 54.8064 124.079 54.2506C124.377 53.9349 124.612 53.5284 124.784 53.0309C125.005 52.3934 125.087 51.7338 125.031 51.0522C124.996 50.6269 124.925 50.2407 124.818 49.8937C124.695 49.4954 124.514 49.1423 124.276 48.8342C123.676 48.0595 122.86 47.6724 121.83 47.6729C121.052 47.6734 120.387 47.8903 119.833 48.3237C119.564 48.5344 119.332 48.7977 119.136 49.1133C118.943 49.4247 118.802 49.753 118.713 50.0981C118.489 50.9715 118.487 51.8439 118.708 52.7155C118.801 53.0848 118.923 53.4011 119.074 53.6646C119.248 53.9708 119.466 54.2356 119.727 54.4592Z" fill="white"/>
<path d="M189.732 46.7795C190.601 47.5798 191.158 48.5778 191.402 49.7735C191.565 50.5715 191.617 51.3492 191.557 52.1068C191.473 53.1526 191.156 54.1178 190.605 55.0026C190.151 55.7308 189.54 56.3104 188.772 56.7414C188.386 56.9583 187.95 57.1347 187.466 57.2704C186.233 57.616 184.996 57.63 183.755 57.3125C183.271 57.1886 182.833 57.022 182.439 56.8126C181.352 56.2345 180.566 55.3736 180.08 54.2301C179.904 53.8143 179.772 53.36 179.683 52.8673C179.558 52.1728 179.527 51.462 179.589 50.7348C179.665 49.8642 179.899 49.0549 180.293 48.3068C180.963 47.0356 181.974 46.1652 183.327 45.6958C183.863 45.5102 184.41 45.3967 184.968 45.3554C185.435 45.3208 185.904 45.3262 186.377 45.3718C187.068 45.4382 187.737 45.6134 188.383 45.8973C188.881 46.1161 189.331 46.4102 189.732 46.7795ZM183.482 54.4416C183.993 54.892 184.571 55.1398 185.214 55.1849C186.607 55.2822 187.621 54.7883 188.255 53.7032C188.482 53.3144 188.64 52.8706 188.729 52.3717C188.861 51.644 188.839 50.9102 188.664 50.1701C188.485 49.4106 188.127 48.8052 187.59 48.3538C187.039 47.8909 186.371 47.664 185.584 47.6731C184.81 47.6821 184.15 47.8992 183.605 48.3246C183.335 48.5353 183.103 48.7983 182.908 49.1135C182.717 49.4211 182.576 49.7493 182.485 50.0982C182.349 50.6185 182.296 51.1468 182.325 51.6832C182.354 52.2129 182.437 52.6793 182.576 53.0823C182.759 53.6182 183.061 54.0713 183.482 54.4416Z" fill="white"/>
<path d="M203.308 46.8318C204.104 47.5842 204.628 48.4987 204.882 49.5753C205.148 50.7069 205.162 51.8419 204.923 52.9802C204.57 54.6658 203.692 55.9154 202.289 56.729C201.898 56.9554 201.465 57.136 200.989 57.2708C199.51 57.6909 198.053 57.6378 196.617 57.1113C195.268 56.6167 194.293 55.726 193.693 54.4391C193.504 54.0337 193.356 53.5842 193.247 53.0905C192.98 51.8768 193.011 50.6718 193.34 49.4756C193.473 48.9886 193.649 48.5497 193.868 48.159C194.366 47.269 195.056 46.5802 195.938 46.0927C196.729 45.6556 197.592 45.4078 198.525 45.3494C199.004 45.3195 199.474 45.3283 199.935 45.3757C200.64 45.4484 201.321 45.6347 201.976 45.9347C202.469 46.1597 202.913 46.4587 203.308 46.8318ZM196.867 54.3131C197.411 54.859 198.069 55.1526 198.842 55.1939C200.019 55.257 200.927 54.8602 201.566 54.0033C201.805 53.6829 201.987 53.3227 202.111 52.9225C202.227 52.5465 202.296 52.1435 202.316 51.7135C202.348 51.0261 202.263 50.3924 202.059 49.8124C201.678 48.723 200.979 48.047 199.961 47.7845C199.499 47.6654 199.033 47.639 198.563 47.7055C197.596 47.8422 196.854 48.3689 196.336 49.2855C196.187 49.5499 196.076 49.8297 196.002 50.1249C195.75 51.1355 195.791 52.1321 196.125 53.1147C196.28 53.5728 196.528 53.9723 196.867 54.3131Z" fill="white"/>
<path d="M218.083 53.654C218.094 53.654 218.104 53.6574 218.113 53.6636C218.121 53.6699 218.128 53.6787 218.131 53.6888C218.23 53.9922 218.374 54.249 218.563 54.4593C218.736 54.6525 218.97 54.8141 219.265 54.9442C219.607 55.0942 219.969 55.1786 220.352 55.1976C220.761 55.218 221.166 55.1886 221.568 55.1093C221.876 55.0486 222.139 54.9418 222.358 54.7889C222.452 54.7229 222.535 54.6192 222.607 54.4778C222.76 54.1768 222.773 53.9048 222.645 53.6618C222.552 53.4862 222.367 53.3281 222.09 53.1876C221.832 53.057 221.535 52.9455 221.199 52.8529C220.777 52.7366 220.171 52.5883 219.383 52.4079C219.03 52.3272 218.594 52.2043 218.077 52.0391C217.708 51.9214 217.358 51.7669 217.027 51.5756C216.651 51.3582 216.355 51.1215 216.139 50.8657C215.839 50.5106 215.639 50.0934 215.537 49.6139C215.404 48.9945 215.417 48.4068 215.575 47.851C215.726 47.3184 216.027 46.857 216.478 46.4668C216.88 46.1198 217.372 45.8587 217.956 45.6835C218.648 45.4761 219.424 45.3679 220.282 45.3589C221.08 45.3503 221.802 45.4536 222.449 45.6686C224.043 46.1993 225.003 47.3082 225.329 48.9952C225.331 49.0054 225.331 49.0159 225.328 49.026C225.326 49.0361 225.321 49.0454 225.314 49.0535C225.308 49.0615 225.3 49.068 225.29 49.0724C225.281 49.0769 225.271 49.0792 225.26 49.0792H222.547C222.534 49.0792 222.521 49.075 222.511 49.0672C222.501 49.0593 222.493 49.0483 222.49 49.0358C222.383 48.6712 222.194 48.38 221.923 48.1621C221.705 47.9884 221.403 47.8567 221.016 47.7669C220.373 47.6174 219.715 47.6321 219.044 47.8111C218.845 47.8638 218.676 47.953 218.538 48.0788C218.396 48.2084 218.302 48.3665 218.257 48.553C218.18 48.8687 218.275 49.1495 218.541 49.3953C218.687 49.5301 218.943 49.654 219.309 49.767C219.609 49.8601 219.912 49.9419 220.217 50.0127C220.893 50.1698 221.567 50.3333 222.239 50.5032C222.896 50.6689 223.463 50.8666 223.94 51.0964C224.515 51.3731 224.943 51.774 225.224 52.299C225.432 52.6877 225.549 53.1432 225.575 53.6654C225.629 54.7548 225.238 55.6692 224.404 56.4088C224.041 56.7301 223.57 56.99 222.992 57.1885C222.399 57.3916 221.79 57.5101 221.164 57.5438C220.393 57.5846 219.629 57.5267 218.872 57.37C218.48 57.2884 218.104 57.1659 217.743 57.0026C217.368 56.8327 217.035 56.6233 216.744 56.3746C215.948 55.6968 215.476 54.802 215.326 53.6903C215.325 53.6857 215.325 53.6811 215.327 53.6767C215.328 53.6723 215.33 53.6682 215.333 53.6648C215.336 53.6614 215.34 53.6586 215.344 53.6567C215.348 53.6549 215.353 53.6539 215.357 53.654H218.083Z" fill="white"/>
<path d="M136.56 53.8178C136.577 53.8714 136.593 53.8714 136.61 53.8178L139.173 45.5754C139.176 45.5655 139.182 45.5568 139.19 45.5507C139.198 45.5445 139.208 45.5412 139.219 45.5412L143.32 45.5327C143.324 45.5326 143.329 45.5335 143.334 45.5354C143.339 45.5373 143.343 45.5401 143.346 45.5437C143.35 45.5473 143.353 45.5515 143.355 45.5562C143.357 45.561 143.358 45.566 143.358 45.5711V57.2946C143.358 57.3016 143.355 57.3083 143.35 57.3133C143.345 57.3182 143.338 57.321 143.332 57.321H140.801C140.796 57.321 140.792 57.32 140.788 57.3183C140.783 57.3165 140.779 57.3138 140.776 57.3105C140.773 57.3072 140.77 57.3033 140.769 57.299C140.767 57.2947 140.766 57.29 140.766 57.2854V48.2704C140.766 48.1987 140.755 48.1971 140.735 48.2654L137.984 57.2619C137.978 57.279 137.968 57.294 137.953 57.3047C137.939 57.3153 137.922 57.321 137.904 57.321H135.144C135.129 57.321 135.115 57.3161 135.103 57.3072C135.091 57.2982 135.082 57.2855 135.078 57.2711C134.181 54.3252 133.284 51.3824 132.387 48.4427C132.36 48.3544 132.343 48.2847 132.336 48.2334C132.335 48.2297 132.334 48.2261 132.333 48.2228C132.331 48.2195 132.329 48.2167 132.327 48.2146C132.324 48.2125 132.322 48.2111 132.32 48.2107C132.317 48.2102 132.315 48.2107 132.313 48.212C132.306 48.2168 132.303 48.227 132.303 48.2426C132.303 51.1857 132.303 54.1287 132.303 57.0718C132.303 57.1088 132.301 57.1392 132.296 57.1629C132.291 57.1871 132.291 57.2094 132.297 57.2298C132.315 57.302 132.285 57.3347 132.206 57.3281C132.153 57.3233 132.124 57.321 132.117 57.321C131.333 57.321 130.557 57.321 129.79 57.321C129.774 57.321 129.758 57.3144 129.747 57.3028C129.735 57.2912 129.729 57.2755 129.729 57.259L129.733 45.5768C129.733 45.5721 129.734 45.5675 129.736 45.5632C129.737 45.5589 129.74 45.555 129.743 45.5516C129.747 45.5483 129.75 45.5457 129.755 45.5439C129.759 45.5421 129.764 45.5412 129.768 45.5412L133.96 45.5369C133.967 45.5369 133.974 45.5393 133.98 45.5436C133.985 45.548 133.99 45.5541 133.992 45.5612L136.56 53.8178Z" fill="white"/>
<path d="M148.651 52.9823L148.647 57.2722C148.647 57.2786 148.646 57.2848 148.643 57.2907C148.641 57.2965 148.637 57.3018 148.633 57.3062C148.629 57.3107 148.623 57.3142 148.618 57.3165C148.612 57.3189 148.606 57.32 148.6 57.3199L146.069 57.3078C146.059 57.3078 146.05 57.304 146.044 57.2972C146.037 57.2904 146.033 57.2812 146.033 57.2715L146.037 45.573C146.037 45.5633 146.041 45.5541 146.048 45.5473C146.055 45.5405 146.064 45.5366 146.073 45.5366C147.938 45.5366 149.789 45.5366 151.627 45.5366C152.297 45.5366 152.765 45.5639 153.031 45.6185C153.783 45.7714 154.412 46.1314 154.919 46.6987C155.231 47.049 155.463 47.457 155.616 47.9226C155.777 48.4144 155.846 48.9207 155.822 49.4414C155.8 49.9189 155.695 50.3784 155.506 50.8199C155.054 51.877 154.267 52.5413 153.143 52.8128C152.839 52.8859 152.389 52.9258 151.794 52.9324C150.758 52.9438 149.722 52.9484 148.686 52.946C148.677 52.946 148.668 52.9498 148.661 52.9566C148.655 52.9634 148.651 52.9727 148.651 52.9823ZM148.676 50.7195C149.606 50.7294 150.506 50.7302 151.375 50.7216C151.779 50.7178 152.072 50.6827 152.254 50.6162C152.569 50.5004 152.806 50.3015 152.964 50.0196C153.167 49.6569 153.215 49.2563 153.109 48.8177C152.994 48.3444 152.697 48.024 152.219 47.8564C152.038 47.7933 151.78 47.7617 151.445 47.7617C150.529 47.7617 149.609 47.7617 148.686 47.7617C148.681 47.7617 148.676 47.7627 148.671 47.7647C148.666 47.7667 148.662 47.7696 148.658 47.7732C148.655 47.7768 148.652 47.7811 148.65 47.7859C148.648 47.7906 148.647 47.7957 148.647 47.8009L148.651 50.6946C148.651 50.7012 148.654 50.7075 148.658 50.7122C148.663 50.7169 148.669 50.7195 148.676 50.7195Z" fill="white"/>
<path d="M158.821 56.2159C157.836 55.3135 157.342 54.1807 157.339 52.8174C157.333 50.4202 157.333 48.0055 157.339 45.5733C157.339 45.5636 157.343 45.5544 157.35 45.5476C157.356 45.5408 157.365 45.5369 157.375 45.5369H159.965C159.975 45.5369 159.984 45.5408 159.991 45.5476C159.998 45.5544 160.001 45.5636 160.001 45.5733C159.993 47.904 159.998 50.2192 160.015 52.5191C160.018 52.9852 160.054 53.3346 160.123 53.5672C160.34 54.3062 160.829 54.804 161.588 55.0603C161.956 55.1846 162.347 55.2288 162.76 55.1927C163.173 55.1571 163.542 55.0482 163.868 54.8659C164.561 54.4781 164.947 53.8368 165.027 52.942C165.033 52.876 165.03 52.8115 165.016 52.7483C164.999 52.6648 164.991 52.6024 164.991 52.5611C164.991 50.2489 164.991 47.9196 164.991 45.5733C164.991 45.5636 164.995 45.5544 165.002 45.5476C165.008 45.5408 165.017 45.5369 165.027 45.5369L167.622 45.5327C167.632 45.5327 167.641 45.5363 167.647 45.5428C167.654 45.5494 167.658 45.5582 167.658 45.5676C167.68 47.94 167.68 50.3125 167.659 52.685C167.655 53.1596 167.621 53.5418 167.557 53.8313C167.266 55.149 166.55 56.1357 165.408 56.7912C165.021 57.0138 164.585 57.188 164.102 57.3138C162.785 57.657 161.483 57.5823 160.195 57.0896C159.713 56.9049 159.255 56.6137 158.821 56.2159Z" fill="white"/>
<path d="M175.507 47.8728C175.501 47.8728 175.496 47.8739 175.49 47.8761C175.485 47.8783 175.48 47.8815 175.476 47.8855C175.472 47.8896 175.469 47.8943 175.467 47.8996C175.465 47.9049 175.464 47.9105 175.464 47.9162V57.2815C175.464 57.2866 175.463 57.2917 175.461 57.2965C175.459 57.3012 175.456 57.3056 175.452 57.3092C175.449 57.3128 175.445 57.3157 175.44 57.3177C175.435 57.3196 175.43 57.3207 175.425 57.3207L172.838 57.3164C172.831 57.3164 172.824 57.315 172.817 57.3122C172.811 57.3095 172.805 57.3054 172.8 57.3003C172.795 57.2952 172.791 57.2892 172.788 57.2825C172.785 57.2759 172.784 57.2688 172.784 57.2616V47.9177C172.784 47.908 172.78 47.8988 172.773 47.892C172.767 47.8852 172.757 47.8813 172.748 47.8813L169.174 47.8821C169.164 47.8821 169.155 47.8783 169.149 47.8716C169.142 47.865 169.138 47.8559 169.138 47.8465L169.13 45.568C169.13 45.5597 169.133 45.5517 169.139 45.5458C169.145 45.5399 169.153 45.5366 169.161 45.5366H179.112C179.122 45.5366 179.131 45.5405 179.138 45.5475C179.145 45.5544 179.149 45.5638 179.149 45.5737V47.8215C179.149 47.83 179.147 47.8384 179.144 47.8462C179.141 47.854 179.136 47.8611 179.13 47.8671C179.124 47.8731 179.117 47.8778 179.109 47.8809C179.102 47.8841 179.094 47.8857 179.085 47.8856L175.507 47.8728Z" fill="white"/>
<path d="M210.981 54.9674C212.206 54.9717 213.432 54.9729 214.658 54.971C214.662 54.971 214.667 54.9719 214.671 54.9737C214.676 54.9755 214.679 54.9781 214.683 54.9814C214.686 54.9847 214.689 54.9886 214.69 54.993C214.692 54.9973 214.693 55.0019 214.693 55.0066V57.2801C214.693 57.2908 214.689 57.3012 214.681 57.3088C214.674 57.3164 214.663 57.3207 214.653 57.3207L206.719 57.3071C206.71 57.3071 206.701 57.3034 206.694 57.2967C206.688 57.2901 206.684 57.281 206.684 57.2715C206.661 55.3557 206.657 54.215 206.671 53.8495C206.684 53.5306 206.687 53.2647 206.682 53.0521C206.674 52.7416 206.67 52.5847 206.67 52.5814C206.665 50.2574 206.67 47.9215 206.684 45.5737C206.684 45.5638 206.688 45.5544 206.695 45.5475C206.702 45.5405 206.711 45.5366 206.721 45.5366H209.311C209.322 45.5366 209.332 45.5408 209.339 45.5483C209.347 45.5558 209.351 45.5659 209.351 45.5765L209.355 54.8912C209.355 54.903 209.357 54.9147 209.362 54.9256C209.367 54.9364 209.374 54.9462 209.382 54.9543C209.391 54.9623 209.401 54.9686 209.412 54.9725C209.423 54.9765 209.435 54.9782 209.447 54.9774C209.774 54.9556 210.084 54.948 210.376 54.9546C210.772 54.9631 210.974 54.9674 210.981 54.9674Z" fill="white"/>
<path d="M119.728 54.4592C119.467 54.2356 119.249 53.9707 119.074 53.6645C118.924 53.4011 118.802 53.0847 118.708 52.7154C118.487 51.8439 118.489 50.9714 118.714 50.098C118.802 49.7529 118.943 49.4247 119.136 49.1133C119.332 48.7976 119.565 48.5344 119.834 48.3236C120.387 47.8903 121.053 47.6733 121.83 47.6729C122.861 47.6724 123.676 48.0595 124.277 48.8342C124.515 49.1422 124.696 49.4954 124.819 49.8937C124.926 50.2407 124.996 50.6268 125.031 51.0521C125.087 51.7338 125.005 52.3933 124.784 53.0308C124.612 53.5283 124.377 53.9349 124.08 54.2505C123.556 54.8064 122.865 55.1178 122.006 55.1847C121.13 55.2531 120.371 55.0112 119.728 54.4592Z" fill="black"/>
<path d="M183.482 54.4416C183.061 54.0713 182.759 53.6182 182.576 53.0823C182.437 52.6793 182.354 52.2129 182.325 51.6832C182.296 51.1468 182.349 50.6185 182.485 50.0982C182.576 49.7493 182.717 49.4211 182.908 49.1135C183.103 48.7983 183.335 48.5353 183.605 48.3246C184.15 47.8993 184.81 47.6821 185.584 47.6731C186.371 47.664 187.039 47.8909 187.59 48.3538C188.127 48.8052 188.485 49.4106 188.664 50.1701C188.839 50.9102 188.861 51.644 188.729 52.3717C188.64 52.8706 188.482 53.3144 188.255 53.7032C187.621 54.7883 186.607 55.2822 185.214 55.1849C184.571 55.1398 183.993 54.8921 183.482 54.4416Z" fill="black"/>
<path d="M196.867 54.3132C196.528 53.9724 196.28 53.5729 196.125 53.1149C195.791 52.1323 195.75 51.1357 196.002 50.1251C196.076 49.8298 196.187 49.55 196.336 49.2856C196.854 48.369 197.596 47.8423 198.563 47.7056C199.033 47.6392 199.499 47.6655 199.961 47.7846C200.979 48.0471 201.678 48.7231 202.059 49.8125C202.263 50.3926 202.348 51.0263 202.316 51.7136C202.296 52.1437 202.227 52.5467 202.111 52.9226C201.987 53.3228 201.805 53.6831 201.566 54.0035C200.927 54.8603 200.019 55.2571 198.842 55.194C198.069 55.1527 197.411 54.8591 196.867 54.3132Z" fill="black"/>
<path d="M148.676 50.7195C148.669 50.7195 148.663 50.7169 148.658 50.7122C148.654 50.7075 148.651 50.7012 148.651 50.6946L148.647 47.8009C148.647 47.7958 148.648 47.7907 148.65 47.7859C148.652 47.7812 148.655 47.7768 148.658 47.7732C148.662 47.7696 148.666 47.7667 148.671 47.7647C148.676 47.7628 148.681 47.7617 148.686 47.7617C149.609 47.7617 150.529 47.7617 151.445 47.7617C151.78 47.7617 152.038 47.7933 152.219 47.8564C152.697 48.024 152.994 48.3444 153.109 48.8177C153.215 49.2563 153.167 49.6569 152.964 50.0196C152.806 50.3015 152.569 50.5004 152.254 50.6162C152.072 50.6827 151.779 50.7178 151.375 50.7216C150.506 50.7302 149.606 50.7295 148.676 50.7195Z" fill="black"/>
</g>
</g>
<defs>
<clipPath id="clip0_608_163">
<rect width="234" height="45" fill="white" transform="translate(25 29)"/>
</clipPath>
</defs>
</svg>
